ply
format ascii 1.0
comment VisionMCP oriented point archive (not a trained radiance field)
element vertex 798
property float x
property float y
property float z
property uchar red
property uchar green
property uchar blue
end_header
-0.06 -0.0276255943 -0.0459026476 140 140 140
-0.06 0.0375924287 0.0412755577 140 140 140
-0.06 0.0275395873 0.00436249915 140 140 140
-0.06 0.0379024265 -0.04972615 140 140 140
-0.06 -0.055969731 0.0229655446 140 140 140
-0.06 0.0435814707 0.00414612202 140 140 140
-0.06 -0.00927753346 -0.0471680329 140 140 140
-0.06 0.0204749298 0.0147189512 140 140 140
-0.06 -0.0139586935 0.0497209936 140 140 140
-0.06 0.0222650381 0.0150459276 140 140 140
-0.06 -0.0133294291 -0.0364903495 140 140 140
-0.06 0.0030425187 -0.0189758124 140 140 140
-0.06 0.0467385401 0.0434043516 140 140 140
-0.06 0.00858357969 -0.0178130609 140 140 140
-0.06 -0.0194506529 -0.0108380999 140 140 140
-0.06 -0.0327410888 0.0123187145 140 140 140
-0.06 0.0399172977 0.0287098307 140 140 140
-0.06 0.0451781077 -0.0441431965 140 140 140
-0.06 -0.041966464 -0.00496606334 140 140 140
-0.06 -0.0323229349 -0.0447978699 140 140 140
-0.06 -0.0361784347 -0.0409246954 140 140 140
-0.06 -0.0241564641 0.0171994878 140 140 140
-0.06 0.0530535733 -0.0134889832 140 140 140
-0.06 0.0154929782 0.0427154553 140 140 140
-0.06 0.0545508592 -1.04186312e-05 140 140 140
-0.06 0.0144256142 0.0495096505 140 140 140
-0.06 -0.00479458328 0.0257728845 140 140 140
-0.06 0.00351745922 0.0285785701 140 140 140
-0.06 0.0281380286 0.0211142878 140 140 140
-0.06 -0.046208084 0.0229015117 140 140 140
-0.06 0.0561511428 -0.0485293695 140 140 140
-0.06 0.0577434048 0.045721018 140 140 140
-0.06 0.0567154577 0.0389935556 140 140 140
-0.06 -0.00240144914 -0.026762708 140 140 140
-0.06 0.0508236192 -0.0233869728 140 140 140
-0.06 -0.00686966052 0.0431017316 140 140 140
-0.06 0.0278407435 0.0114373247 140 140 140
-0.06 0.0263063727 -0.048400827 140 140 140
-0.06 0.00153104679 0.0429104221 140 140 140
-0.06 0.0409580736 -0.0433309991 140 140 140
-0.06 -0.00836415217 0.0466062081 140 140 140
-0.06 -0.0289362488 -0.0258324286 140 140 140
-0.06 -0.0328956686 -0.0375445294 140 140 140
-0.06 0.0103347678 0.00540905022 140 140 140
-0.06 0.00725711424 -0.0211578786 140 140 140
-0.06 0.0381745165 0.0126506462 140 140 140
-0.06 -0.0156714707 0.00526115105 140 140 140
-0.06 0.041794945 -0.0354526462 140 140 140
-0.06 0.0491950754 -0.0456933111 140 140 140
-0.06 -0.0101539155 0.0329803985 140 140 140
-0.06 -0.0161944611 -0.0421369963 140 140 140
-0.06 -0.0271381082 0.0202652071 140 140 140
-0.06 -0.0447819477 0.0364778295 140 140 140
-0.06 -0.014307539 -0.00702259388 140 140 140
-0.06 0.0571754786 0.0275691188 140 140 140
-0.06 -0.0276195857 0.0363120204 140 140 140
-0.06 0.00128478067 -0.0155704269 140 140 140
-0.06 -0.0220867746 -0.0317287621 140 140 140
-0.06 0.0374802478 0.0167889406 140 140 140
-0.06 0.0510857493 0.0248248503 140 140 140
-0.06 -0.0303423912 -0.0358753443 140 140 140
-0.06 0.0257542244 -0.0332947071 140 140 140
-0.06 0.0492306919 0.00614007676 140 140 140
-0.06 -0.0367044273 0.00260222486 140 140 140
-0.06 -0.0493277232 0.0481942693 140 140 140
-0.06 -0.0592309341 0.0272649201 140 140 140
-0.06 0.0107844034 -0.0180318364 140 140 140
-0.06 0.0207031961 -0.0304892602 140 140 140
-0.06 0.0122687012 0.0462423093 140 140 140
-0.06 -3.26116097e-06 0.0244097479 140 140 140
-0.06 -0.0134319922 -0.0437104502 140 140 140
-0.06 -0.0494678536 -0.0104908292 140 140 140
-0.06 -0.00332395959 0.0412621934 140 140 140
-0.06 0.0498388752 -0.0372596991 140 140 140
-0.06 -0.0515608496 0.0368854294 140 140 140
-0.06 -0.000411396744 -0.0336456584 140 140 140
-0.06 -0.0218379135 0.0210879863 140 140 140
-0.06 0.000896383265 0.0289665732 140 140 140
-0.06 0.0094510204 -0.0302765053 140 140 140
-0.06 -0.00133847566 0.0488695333 140 140 140
-0.06 0.0555622968 0.0300917037 140 140 140
-0.06 0.0376240877 0.0102848905 140 140 140
-0.06 0.0496428915 -0.0434729584 140 140 140
-0.06 -0.0141822264 -0.0174454384 140 140 140
-0.06 0.0337428602 -0.00144648612 140 140 140
-0.06 0.0453034687 -0.0413185128 140 140 140
-0.06 0.0346985548 0.029919638 140 140 140
-0.06 0.0355967019 -0.0274671558 140 140 140
-0.06 -0.00990622654 0.00414099836 140 140 140
-0.06 -0.0111662639 -0.049969931 140 140 140
-0.06 0.0422251095 -0.0361068321 140 140 140
-0.06 0.0385323706 0.0481828323 140 140 140
-0.06 -0.00910722175 0.0479688709 140 140 140
-0.06 0.000441237504 0.0253446539 140 140 140
-0.06 -0.00286235136 0.0363786241 140 140 140
-0.06 -0.0247290893 0.026765227 140 140 140
-0.06 -0.0487385816 -0.0108619574 140 140 140
-0.06 -0.00285996441 -0.00714603919 140 140 140
-0.06 0.0103560424 -0.037730934 140 140 140
-0.06 0.0220860538 0.0323781358 140 140 140
-0.06 0.00999840563 -0.0459781779 140 140 140
-0.06 0.00828310251 0.0325957222 140 140 140
-0.06 0.0375892914 0.0497010293 140 140 140
-0.06 -0.0394774272 -0.0108325201 140 140 140
-0.06 -0.00729252818 0.00883801094 140 140 140
-0.06 0.0271348213 -0.0219917598 140 140 140
-0.06 0.0435539998 0.00644128211 140 140 140
-0.06 0.0478588518 -0.0413987564 140 140 140
-0.06 -0.0206421252 -0.032459025 140 140 140
-0.06 -0.0164613659 -0.0170104168 140 140 140
-0.06 -0.0360841991 0.00121736578 140 140 140
-0.06 -0.0403958291 0.0383418734 140 140 140
-0.06 0.00682025881 -0.0277546604 140 140 140
-0.06 -0.0585424169 0.0212993631 140 140 140
-0.06 0.0175254028 0.0111338684 140 140 140
-0.06 -0.0304312837 0.00743780481 140 140 140
-0.06 0.0590427874 0.0423745357 140 140 140
-0.06 0.0107952711 0.0196215106 140 140 140
-0.06 -0.0224885223 0.0215917847 140 140 140
-0.06 -0.018990882 -0.0261056288 140 140 140
-0.06 0.0101979216 -0.00234115783 140 140 140
-0.06 -0.0512809982 -0.0482108579 140 140 140
-0.06 -0.0370667672 0.0475532978 140 140 140
-0.06 -0.0057493454 -0.0105340203 140 140 140
-0.06 0.029850687 0.0143704762 140 140 140
-0.06 -0.0500629709 -0.0147256584 140 140 140
-0.06 -0.00879346275 -0.0459382438 140 140 140
-0.06 0.0534029578 -0.0337430275 140 140 140
-0.06 0.0386564591 -0.0108706243 140 140 140
-0.06 0.0388802169 0.0180686326 140 140 140
-0.06 0.0309115903 0.0191271479 140 140 140
-0.06 0.038736856 -0.0320937312 140 140 140
-0.06 -0.0495982412 -0.00741437597 140 140 140
0.06 -0.0357398287 0.0437905109 140 140 140
0.06 -0.0594120702 -0.0177079196 140 140 140
0.06 -0.0282365846 0.0330694266 140 140 140
0.06 0.0103654026 0.0458409335 140 140 140
0.06 0.057660957 0.00745566491 140 140 140
0.06 0.0404456438 0.0278248226 140 140 140
0.06 0.0157789821 -0.0143635454 140 140 140
0.06 -0.0328199525 0.0277544124 140 140 140
0.06 0.00926375388 0.00358989296 140 140 140
0.06 0.0312583918 -0.0390172114 140 140 140
0.06 -0.0103252941 0.0114201436 140 140 140
0.06 0.0102575503 0.0232886077 140 140 140
0.06 -0.0044558629 -0.0213231135 140 140 140
0.06 0.0234362527 0.0195711353 140 140 140
0.06 0.05662049 0.017115078 140 140 140
0.06 0.0409410422 -0.00134795667 140 140 140
0.06 -0.029007072 -0.0343864519 140 140 140
0.06 0.0412933162 0.0177798778 140 140 140
0.06 0.00908665095 0.00634124737 140 140 140
0.06 -0.0134790946 -0.0335217348 140 140 140
0.06 0.0473674196 -0.0451734405 140 140 140
0.06 0.0163540384 0.0288845156 140 140 140
0.06 -0.0370092965 -0.0382358425 140 140 140
0.06 0.0378612488 -0.0282932819 140 140 140
0.06 0.0061253995 -0.0308182852 140 140 140
0.06 0.0327917518 0.0321226606 140 140 140
0.06 -0.0247108368 -0.0222879111 140 140 140
0.06 0.00922891717 0.00278200781 140 140 140
0.06 0.0164905175 0.0175767442 140 140 140
0.06 -0.0135246102 0.0123902782 140 140 140
0.06 -0.0191611371 -0.0196798987 140 140 140
0.06 0.0134810087 0.0110798439 140 140 140
0.06 0.00789286887 0.0485769635 140 140 140
0.06 0.0411617658 -0.0418676309 140 140 140
0.06 0.0530047387 -0.0238135984 140 140 140
0.06 -0.00203899039 -0.0317287742 140 140 140
0.06 0.0477238122 0.0460664886 140 140 140
0.06 0.00181924403 0.0332717849 140 140 140
0.06 -0.0301730788 0.0434286038 140 140 140
0.06 0.0328267474 9.37956988e-05 140 140 140
0.06 -0.0244887784 0.00744107688 140 140 140
0.06 -0.058351457 -0.00661087757 140 140 140
0.06 0.0136988728 -0.0175853624 140 140 140
0.06 -0.00185824403 0.0499501352 140 140 140
0.06 0.039675773 -0.0240451094 140 140 140
0.06 -0.0360835309 -0.00677350357 140 140 140
0.06 -0.0366468783 0.0279944771 140 140 140
0.06 -0.0220794017 0.000806419676 140 140 140
0.06 0.0266853809 -0.0352527546 140 140 140
0.06 0.0276847195 0.00681923143 140 140 140
0.06 -0.00625699656 -0.0093387155 140 140 140
0.06 -0.0322352913 0.0150766335 140 140 140
0.06 0.0434730625 -0.0229351604 140 140 140
0.06 0.00818209703 0.0128458798 140 140 140
0.06 -0.0396013858 -0.0350184454 140 140 140
0.06 -0.0508273175 0.00342310236 140 140 140
0.06 0.0368601516 -0.0477389469 140 140 140
0.06 -0.00321552343 -0.0283471699 140 140 140
0.06 -0.0332650277 -0.0218171894 140 140 140
0.06 -0.00993895604 -0.0114135059 140 140 140
0.06 0.0196970228 0.0160276545 140 140 140
0.06 0.00982830948 0.02359236 140 140 140
0.06 0.0106241102 -0.0369426942 140 140 140
0.06 -0.0212335568 0.0427558809 140 140 140
0.06 0.0474568689 -0.00403250467 140 140 140
0.06 -0.00178473892 0.0208702261 140 140 140
0.06 0.0467838316 -0.0234291931 140 140 140
0.06 0.0265398943 0.0176604463 140 140 140
0.06 0.0224898003 0.0086264211 140 140 140
0.06 0.0203044467 -0.0493401476 140 140 140
0.06 -0.00949459138 -0.012163062 140 140 140
0.06 -0.00876508752 0.0123617244 140 140 140
0.06 0.025019938 -0.0269077905 140 140 140
0.06 0.0298679813 0.016872813 140 140 140
0.06 -0.0435879258 0.0163683739 140 140 140
0.06 -0.0403268816 0.0189301737 140 140 140
0.06 0.0498142338 0.0251539688 140 140 140
0.06 0.0525631584 -0.0474767244 140 140 140
0.06 -0.0309716435 0.0232080083 140 140 140
0.06 -0.00427495105 -0.0277466661 140 140 140
0.06 -0.045947231 -0.025265878 140 140 140
0.06 -0.00587430426 0.0376817737 140 140 140
0.06 0.0347453576 -0.0312596727 140 140 140
0.06 -0.0147952738 -0.000580079412 140 140 140
0.06 0.0386959389 -0.0326809468 140 140 140
0.06 0.0466855553 -0.0424480964 140 140 140
0.06 -0.0248696433 -0.00992552322 140 140 140
0.06 -0.0514309684 0.0281305265 140 140 140
0.06 -0.044415177 -0.0133919691 140 140 140
0.06 -0.0307713 -0.0205636242 140 140 140
0.06 0.0554713674 -0.0041139431 140 140 140
0.06 -0.0563361514 -0.0433889741 140 140 140
0.06 0.0199133566 -0.0279767309 140 140 140
0.06 0.0354439363 -0.0168186081 140 140 140
0.06 0.0270490305 -0.00241022067 140 140 140
0.06 -0.0495065859 0.0237167501 140 140 140
0.06 0.0468434494 0.00100890075 140 140 140
0.06 -0.0329211105 -0.0046476111 140 140 140
0.06 0.0180236903 -0.0225793043 140 140 140
0.06 -0.00774717896 0.0482763945 140 140 140
0.06 0.0404635619 -0.0485458369 140 140 140
0.06 -0.0121825869 -9.9069201e-05 140 140 140
0.06 0.0515413816 -0.0300354987 140 140 140
0.06 0.0116814748 0.0358443427 140 140 140
0.06 0.0395869537 0.00238965642 140 140 140
0.06 0.02599294 0.0412105261 140 140 140
0.06 0.0362695388 -0.0377632453 140 140 140
0.06 0.01394901 -0.0228793317 140 140 140
0.06 -0.0391406188 0.0262171663 140 140 140
0.06 -0.0440634448 0.00168349368 140 140 140
0.06 0.0348018382 -0.00350076998 140 140 140
0.06 0.00793246519 0.0478248114 140 140 140
0.06 0.0585205044 -0.00845614167 140 140 140
0.06 0.0338497273 -0.0228280998 140 140 140
0.06 0.0175218096 -0.0300322742 140 140 140
0.06 0.0584440012 0.0317390143 140 140 140
0.06 0.0417563316 -0.0241869798 140 140 140
0.06 0.032713962 0.0257362012 140 140 140
0.06 -0.0436017591 0.0247586175 140 140 140
0.06 -0.020893991 0.0234302878 140 140 140
0.06 -0.0213047091 -0.0345188443 140 140 140
0.06 0.0503027987 -0.021015885 140 140 140
0.06 -0.0492368133 0.0412545907 140 140 140
0.06 -0.0363764262 -0.0204312753 140 140 140
0.06 -0.0173090803 0.0236233816 140 140 140
0.06 -0.0351565617 0.011010951 140 140 140
0.06 -0.0465902622 -0.0338792183 140 140 140
0.06 -0.0585708314 0.0429907524 140 140 140
0.06 -0.0275233739 -0.0124357674 140 140 140
0.06 -0.0177816805 -0.00688671438 140 140 140
0.06 0.0571494042 -0.0135142775 140 140 140
0.06 0.0189578873 0.0216604921 140 140 140
0.06 -0.0346337813 -0.00907485488 140 140 140
-0.00731181474 -0.06 0.0358435326 140 140 140
0.0145090678 -0.06 0.0187914521 140 140 140
0.0310798803 -0.06 -0.0120513483 140 140 140
-0.0207782643 -0.06 0.0153053218 140 140 140
-0.0382334654 -0.06 0.0492167887 140 140 140
-0.0580976833 -0.06 -0.0165687536 140 140 140
-0.0113300376 -0.06 -0.00616949617 140 140 140
0.0459693602 -0.06 -0.00753823051 140 140 140
-0.0297236295 -0.06 0.0144200518 140 140 140
-0.0345328716 -0.06 -0.0374568671 140 140 140
0.0490886355 -0.06 0.0320307794 140 140 140
0.0474434511 -0.06 -0.046742765 140 140 140
-0.0383596696 -0.06 -0.0484586824 140 140 140
0.0076958472 -0.06 0.0266660682 140 140 140
-0.00247491643 -0.06 -0.0206591743 140 140 140
-0.00521057956 -0.06 0.0309519647 140 140 140
0.0488998708 -0.06 -0.000437772755 140 140 140
0.0412541219 -0.06 0.0165957407 140 140 140
0.0320863101 -0.06 0.0356571691 140 140 140
-0.0599771998 -0.06 -0.0198976019 140 140 140
0.0154353509 -0.06 -0.029022013 140 140 140
0.0151392464 -0.06 -0.0312719312 140 140 140
0.0463409916 -0.06 0.0049568405 140 140 140
0.0247315233 -0.06 0.0301443364 140 140 140
0.0400627496 -0.06 -0.0256851161 140 140 140
-0.0570613848 -0.06 -0.00887423055 140 140 140
0.0473113014 -0.06 0.0033752094 140 140 140
-0.0147067019 -0.06 0.0209369696 140 140 140
0.0218739472 -0.06 0.00773185852 140 140 140
0.00192521758 -0.06 0.0388980658 140 140 140
-0.015989864 -0.06 0.000488956376 140 140 140
-0.0497593259 -0.06 -0.0208803602 140 140 140
0.00334620536 -0.06 -0.0320544473 140 140 140
-0.00297304508 -0.06 0.0269820312 140 140 140
0.0529172355 -0.06 0.0421618019 140 140 140
-0.0196129245 -0.06 0.0263725458 140 140 140
0.00615347769 -0.06 -0.0113795704 140 140 140
-0.0250979858 -0.06 0.0144622461 140 140 140
0.0490845404 -0.06 -0.00710599414 140 140 140
0.00808467908 -0.06 -0.00435003728 140 140 140
0.0119168469 -0.06 -0.0160188845 140 140 140
-0.059973396 -0.06 0.0108000665 140 140 140
-0.0488411448 -0.06 0.0303991821 140 140 140
0.0408337872 -0.06 0.0314223731 140 140 140
-0.0267431696 -0.06 0.00454566237 140 140 140
-0.00718811053 -0.06 -0.0486609321 140 140 140
-0.0405067869 -0.06 0.018056261 140 140 140
0.0247482376 -0.06 0.0267617107 140 140 140
-0.0504538127 -0.06 0.035535116 140 140 140
-0.0171794696 -0.06 0.000350280573 140 140 140
0.0151995086 -0.06 0.0269790226 140 140 140
-0.0451917206 -0.06 -0.00978579008 140 140 140
-0.000928603673 -0.06 -0.0128997249 140 140 140
-0.0544755034 -0.06 0.00226768994 140 140 140
0.0290573569 -0.06 0.0319686903 140 140 140
0.00775394149 -0.06 0.0141906565 140 140 140
-0.0392711197 -0.06 0.01810616 140 140 140
0.0527770366 -0.06 -0.0274836903 140 140 140
0.0068565055 -0.06 0.0211888298 140 140 140
-0.0189243953 -0.06 0.0435269061 140 140 140
0.0221772052 -0.06 0.041075833 140 140 140
0.0393149031 -0.06 -0.0393158623 140 140 140
-0.02510054 -0.06 -0.0225192504 140 140 140
-0.0511552877 -0.06 0.0299269956 140 140 140
0.017012137 -0.06 0.0059773319 140 140 140
-0.0574176058 -0.06 0.0356801175 140 140 140
-0.0506336118 -0.06 -0.0335136282 140 140 140
-0.0143990524 -0.06 0.032776292 140 140 140
-0.000450802759 -0.06 0.0101794716 140 140 140
0.0420033845 -0.06 -0.0232483028 140 140 140
-0.0540606951 -0.06 -0.0433788152 140 140 140
-0.0550129815 -0.06 -0.0316165113 140 140 140
-0.0510890734 -0.06 -0.0351266108 140 140 140
-0.0486203051 -0.06 0.0166966964 140 140 140
0.027090485 -0.06 -0.0429610286 140 140 140
0.0410252688 -0.06 -0.0107532176 140 140 140
-0.0437628907 -0.06 0.00222459329 140 140 140
0.00824923075 -0.06 0.0113124678 140 140 140
0.0453172156 -0.06 -0.0120852321 140 140 140
-0.0292112757 -0.06 0.00608070534 140 140 140
0.0354446809 -0.06 -0.0459237673 140 140 140
-0.0374214596 -0.06 -0.0166656586 140 140 140
0.022125199 -0.06 0.016212759 140 140 140
-0.00544858429 -0.06 -0.0203744045 140 140 140
0.00131525747 -0.06 -0.0256338612 140 140 140
0.039036187 -0.06 0.0345456125 140 140 140
-0.0281408844 -0.06 -0.0388142654 140 140 140
0.0323018989 -0.06 -0.0263679336 140 140 140
0.0444663965 -0.06 0.0432479493 140 140 140
0.0515300401 -0.06 -0.0103894551 140 140 140
0.0429922204 -0.06 -0.0373827805 140 140 140
0.0422350043 -0.06 -0.036443456 140 140 140
0.043983182 -0.06 0.0243590759 140 140 140
-0.0278188775 -0.06 0.0348312815 140 140 140
0.0120256558 -0.06 -0.0134129914 140 140 140
0.0430842982 -0.06 -0.0163147104 140 140 140
-0.0190855362 -0.06 -0.00457009725 140 140 140
0.0538024203 -0.06 0.0256480329 140 140 140
-0.0257153409 -0.06 -0.0482402024 140 140 140
-0.0444214822 -0.06 0.0370091965 140 140 140
-0.0213001948 -0.06 -0.039295548 140 140 140
0.00800139432 -0.06 -0.0358397662 140 140 140
0.0361166874 -0.06 -0.0438746289 140 140 140
0.0122189856 -0.06 -0.0447183276 140 140 140
0.039666278 -0.06 0.0365475076 140 140 140
0.0292837762 -0.06 -0.0415188704 140 140 140
-0.0394371297 -0.06 -0.014225186 140 140 140
0.0398378452 -0.06 0.00547497004 140 140 140
-0.0135057307 -0.06 0.0188939791 140 140 140
0.0222926801 -0.06 -0.0101393871 140 140 140
-0.0457096991 -0.06 -0.0154477514 140 140 140
0.0230115139 -0.06 0.0201761735 140 140 140
0.0488022877 -0.06 0.010371747 140 140 140
-0.0483212769 -0.06 0.0460247753 140 140 140
-0.0559015707 -0.06 0.0332761035 140 140 140
0.0224263712 -0.06 0.0256509195 140 140 140
0.0113028089 -0.06 -0.049013264 140 140 140
0.0340577645 -0.06 -0.03933468 140 140 140
0.00562017565 -0.06 0.0105857955 140 140 140
-0.0579993448 -0.06 0.00398309298 140 140 140
0.0131888899 -0.06 0.0136377875 140 140 140
0.0409465378 -0.06 0.00213307786 140 140 140
0.048734313 -0.06 -0.0293277672 140 140 140
0.055979121 -0.06 0.0324202441 140 140 140
-0.00569790291 -0.06 0.0420922674 140 140 140
0.0483268001 -0.06 -0.0177027669 140 140 140
0.0495155597 -0.06 -0.0239805023 140 140 140
0.0175623869 -0.06 -0.0449663717 140 140 140
-0.0277362994 -0.06 0.0347246524 140 140 140
-0.0597699171 -0.06 -0.0165269442 140 140 140
0.0139888264 -0.06 -0.0438401455 140 140 140
0.00543041454 -0.06 0.0202247486 140 140 140
0.0381381996 -0.06 0.0359894571 140 140 140
-0.0387103835 0.06 -0.0368717389 140 140 140
-0.0230979951 0.06 0.0195266915 140 140 140
-0.0219779857 0.06 0.0151320213 140 140 140
0.0342882387 0.06 -0.0443650561 140 140 140
-0.0315537508 0.06 0.0377677258 140 140 140
0.0189053843 0.06 -0.0468227575 140 140 140
-0.000235581696 0.06 -0.0152583573 140 140 140
0.0551265655 0.06 -0.0411632282 140 140 140
-0.0233893007 0.06 -0.0230391415 140 140 140
0.0246985033 0.06 -0.00618059239 140 140 140
0.0401639151 0.06 0.0123193794 140 140 140
0.00480275669 0.06 -0.0152774231 140 140 140
0.0075766263 0.06 0.0283651647 140 140 140
-0.00229116047 0.06 -0.023003753 140 140 140
-0.0549091174 0.06 -0.00757697731 140 140 140
0.0190251297 0.06 -0.00832158618 140 140 140
-0.017756883 0.06 0.0482967071 140 140 140
-0.0509763254 0.06 -0.0284697082 140 140 140
-0.0436576504 0.06 -0.0348370336 140 140 140
-0.019205992 0.06 0.0431569088 140 140 140
-0.0214751527 0.06 0.0461934841 140 140 140
0.0272942425 0.06 -0.000785452526 140 140 140
0.0339182327 0.06 0.0327571698 140 140 140
0.00534890913 0.06 -0.0136803776 140 140 140
-0.0370312455 0.06 -0.0497117659 140 140 140
0.034065713 0.06 0.0116800921 140 140 140
0.0113536621 0.06 0.00922022918 140 140 140
0.0309416476 0.06 0.0172760551 140 140 140
0.0250406055 0.06 0.0426616506 140 140 140
-0.0206950261 0.06 -0.0396817112 140 140 140
0.059568602 0.06 -0.00382143665 140 140 140
0.00793436955 0.06 -0.0259920354 140 140 140
0.0569626868 0.06 -0.0358299106 140 140 140
0.00876927134 0.06 0.035287316 140 140 140
0.0433473939 0.06 -0.0152342264 140 140 140
0.00978973847 0.06 -0.0361154158 140 140 140
-0.0502295312 0.06 -0.0189659664 140 140 140
-0.0595518324 0.06 -0.0127022224 140 140 140
0.0459761453 0.06 0.0162671064 140 140 140
0.00816940565 0.06 -0.00323879436 140 140 140
-0.0158808047 0.06 -0.0411877462 140 140 140
-0.0537454409 0.06 -0.0416680715 140 140 140
-0.0419242506 0.06 -0.012670112 140 140 140
-0.0314191379 0.06 -0.0467087882 140 140 140
0.0588064338 0.06 -0.0459172399 140 140 140
0.0151211748 0.06 -0.0111148481 140 140 140
0.02799982 0.06 -0.0103644748 140 140 140
-0.0149609008 0.06 -0.02655239 140 140 140
-0.0391231307 0.06 0.0177019027 140 140 140
-0.0582275994 0.06 0.0308108121 140 140 140
-0.020142565 0.06 -0.0444506315 140 140 140
0.0060928212 0.06 -0.0292741564 140 140 140
-0.00625238418 0.06 -0.0374691611 140 140 140
-0.00491559625 0.06 0.0205787416 140 140 140
-0.0157104427 0.06 0.0299002793 140 140 140
-0.0284188725 0.06 0.0469007222 140 140 140
0.0447608818 0.06 -0.00228277385 140 140 140
-0.0557577494 0.06 0.0290157858 140 140 140
0.0558156946 0.06 0.0312811658 140 140 140
-0.0195842254 0.06 0.0400560296 140 140 140
-0.0298058274 0.06 -0.0462151309 140 140 140
-0.0462341297 0.06 0.0218950817 140 140 140
0.0511792719 0.06 0.0470513342 140 140 140
-0.00703696327 0.06 0.00894500923 140 140 140
0.0230338772 0.06 0.00920234258 140 140 140
0.0487161539 0.06 0.0271358435 140 140 140
0.0597680948 0.06 0.0207244037 140 140 140
0.0483791831 0.06 0.0372758591 140 140 140
-0.0265503412 0.06 0.000809669618 140 140 140
0.0563607375 0.06 0.0160496101 140 140 140
0.031173497 0.06 0.0370343797 140 140 140
0.00062748274 0.06 0.0389691157 140 140 140
0.0536926766 0.06 0.0334649067 140 140 140
0.0435383218 0.06 0.0149547041 140 140 140
-0.0157761525 0.06 -0.0342117904 140 140 140
0.0595423411 0.06 -0.016044329 140 140 140
0.0502649659 0.06 -0.0166875456 140 140 140
0.0515261407 0.06 -0.0180038977 140 140 140
-0.0564330365 0.06 -0.0391998423 140 140 140
-0.0541593304 0.06 0.0468355207 140 140 140
-0.0522988451 0.06 -0.0271339508 140 140 140
0.0433479659 0.06 -0.0305850749 140 140 140
0.0570174325 0.06 -0.0368280881 140 140 140
-0.0594336771 0.06 -0.00655735586 140 140 140
0.00393640757 0.06 -0.0346024862 140 140 140
-0.0217964744 0.06 0.0496503865 140 140 140
-0.00913796264 0.06 -0.0214736786 140 140 140
-0.0429338548 0.06 -0.0484809657 140 140 140
0.0225934321 0.06 -0.0408399063 140 140 140
-0.0401712011 0.06 0.0136388963 140 140 140
0.0537359773 0.06 -0.00719376373 140 140 140
-0.025631697 0.06 -0.0312483685 140 140 140
-0.0144238936 0.06 0.0413384138 140 140 140
0.037539554 0.06 0.0364079494 140 140 140
0.0349590799 0.06 0.00537765922 140 140 140
-0.00681441148 0.06 -0.0179718076 140 140 140
0.049570143 0.06 -0.0401818108 140 140 140
0.00617290875 0.06 0.031123863 140 140 140
0.00979029148 0.06 0.0469928438 140 140 140
-0.0244482133 0.06 0.0187725447 140 140 140
0.0507932098 0.06 -0.0112295039 140 140 140
-0.0542379092 0.06 -0.048811466 140 140 140
-0.0537116507 0.06 0.00731304826 140 140 140
0.0344931014 0.06 -0.0180703509 140 140 140
-0.0144984594 0.06 0.0146336079 140 140 140
-0.0114298802 0.06 0.0187131208 140 140 140
0.0206695763 0.06 0.00418278878 140 140 140
-0.00390017612 0.06 0.00718270151 140 140 140
-0.0112562847 0.06 -0.0307740653 140 140 140
0.0579947502 0.06 -0.0497023863 140 140 140
-0.0506645814 0.06 -0.0281983384 140 140 140
0.0196383622 0.06 -0.0103157348 140 140 140
-0.0208936566 0.06 0.0275114423 140 140 140
-0.0235423407 0.06 -0.0311279191 140 140 140
0.0473923331 0.06 -0.0204055473 140 140 140
0.058044353 0.06 0.033829449 140 140 140
-0.0403579926 0.06 0.045819998 140 140 140
-0.0457284125 0.06 0.000817996438 140 140 140
0.0182679016 0.06 -0.0251253233 140 140 140
0.0489384371 0.06 0.0481223169 140 140 140
-0.0420835233 0.06 0.0231631235 140 140 140
0.0303673434 0.06 -0.0478452505 140 140 140
-0.0332807611 0.06 0.0392317291 140 140 140
-0.00493983361 0.06 0.0406235628 140 140 140
-0.0128218768 0.06 0.0180414431 140 140 140
0.0125831922 0.06 -0.00578885026 140 140 140
-0.0211216063 0.06 -0.0014855689 140 140 140
-0.0110807409 0.06 -0.042627394 140 140 140
0.0567923148 0.06 -0.0164032983 140 140 140
0.0408369378 0.06 0.0335846686 140 140 140
-0.0402280067 0.06 -0.0264738438 140 140 140
0.0432272947 0.06 -0.0171959153 140 140 140
0.0520242508 0.06 -0.0111919471 140 140 140
0.0119828679 0.0581799365 -0.05 140 140 140
-0.0362711315 0.0118356203 -0.05 140 140 140
0.00387928188 -0.00391494025 -0.05 140 140 140
-0.00551469265 0.0159772277 -0.05 140 140 140
0.0315373178 0.0553235173 -0.05 140 140 140
0.0380053668 -0.00316948007 -0.05 140 140 140
-0.00130090759 -0.0463749062 -0.05 140 140 140
-0.0182164828 0.0403956549 -0.05 140 140 140
-0.0466771577 -0.0559733641 -0.05 140 140 140
-0.0301909024 0.0166461863 -0.05 140 140 140
-0.00676874995 -0.043033145 -0.05 140 140 140
0.0082354473 0.00365655154 -0.05 140 140 140
0.0432048633 0.0256654324 -0.05 140 140 140
-0.0467696819 -0.0391962953 -0.05 140 140 140
-0.0306202058 -0.0325618718 -0.05 140 140 140
-0.0456709043 -0.0344387815 -0.05 140 140 140
-0.0458762357 -0.0332671925 -0.05 140 140 140
0.0337276032 -0.00620777147 -0.05 140 140 140
-0.0207686113 0.0112445708 -0.05 140 140 140
-0.00489252205 -0.0305635659 -0.05 140 140 140
-0.0378957203 0.046320107 -0.05 140 140 140
0.0322272475 0.0463117773 -0.05 140 140 140
-0.0537852139 0.0489977031 -0.05 140 140 140
-0.0547265484 0.0331126019 -0.05 140 140 140
0.0542408875 0.0581537972 -0.05 140 140 140
0.0489405713 -0.0171548214 -0.05 140 140 140
0.0276206428 0.00706256502 -0.05 140 140 140
-0.0181525222 -0.0589636549 -0.05 140 140 140
-0.00387725067 -0.0165658009 -0.05 140 140 140
-0.0564629474 0.0538698158 -0.05 140 140 140
-0.0499051843 0.0127269778 -0.05 140 140 140
-0.0214946099 0.0498546552 -0.05 140 140 140
-0.0393596156 0.0412360739 -0.05 140 140 140
0.00717395512 0.0321347436 -0.05 140 140 140
0.0468548807 -0.0331317499 -0.05 140 140 140
-0.0396112794 -0.03144852 -0.05 140 140 140
0.0122398127 -0.0142430534 -0.05 140 140 140
-0.00620128697 -0.0276334352 -0.05 140 140 140
0.00941525802 0.0462814815 -0.05 140 140 140
-0.0490290561 -0.00111651188 -0.05 140 140 140
0.00376369634 -0.0430337467 -0.05 140 140 140
0.0333608872 0.0281444208 -0.05 140 140 140
0.04210645 -0.00836174999 -0.05 140 140 140
0.0474733917 -0.0497092689 -0.05 140 140 140
-0.0385912583 -0.0198821341 -0.05 140 140 140
-0.0450100529 -0.0152531694 -0.05 140 140 140
-0.0203294547 0.0413974434 -0.05 140 140 140
0.010779378 -0.0176849028 -0.05 140 140 140
-0.0265886924 0.0379393765 -0.05 140 140 140
-0.0185630429 0.046627708 -0.05 140 140 140
0.00888467567 -0.0467519979 -0.05 140 140 140
0.0349806448 -0.0144924084 -0.05 140 140 140
-0.0144981267 0.0584439686 -0.05 140 140 140
-0.0265494208 0.00566337059 -0.05 140 140 140
-0.0302174177 -0.0245720071 -0.05 140 140 140
-0.0164558224 0.0527369456 -0.05 140 140 140
0.0107821245 0.0536093264 -0.05 140 140 140
0.022343906 -0.0397739943 -0.05 140 140 140
-0.020622469 -0.00262736863 -0.05 140 140 140
-0.0423748148 0.0377242202 -0.05 140 140 140
-0.0594087974 0.0314103485 -0.05 140 140 140
0.0537583742 0.0516534944 -0.05 140 140 140
-0.0466631228 -0.00965751955 -0.05 140 140 140
2.65520783e-06 -0.0300872295 -0.05 140 140 140
-0.0523167863 0.0302890474 -0.05 140 140 140
0.0216987906 -0.0267926038 -0.05 140 140 140
-0.0314105017 -0.0455275876 -0.05 140 140 140
-0.0326291697 -0.0390521918 -0.05 140 140 140
-0.0525039505 0.00702163854 -0.05 140 140 140
-0.0085927497 -0.0101653197 -0.05 140 140 140
-0.0501516039 0.0104453214 -0.05 140 140 140
0.0278065314 -0.0157731401 -0.05 140 140 140
0.0541251555 -0.0573154322 -0.05 140 140 140
-0.0578560377 -0.0141596888 -0.05 140 140 140
-0.0503589606 0.0339827748 -0.05 140 140 140
-0.0507196385 0.0572603476 -0.05 140 140 140
-0.000950588162 -0.0563388483 -0.05 140 140 140
-0.00101090533 0.0427568938 -0.05 140 140 140
-0.0177266932 -0.0378838677 -0.05 140 140 140
-0.0205784991 -0.0524608573 -0.05 140 140 140
0.0180896825 -0.0358139378 -0.05 140 140 140
-0.0591494505 0.0495210769 -0.05 140 140 140
-0.0486456191 0.0221482346 -0.05 140 140 140
0.0386270235 -0.0385508913 -0.05 140 140 140
0.0544803249 -0.0350083809 -0.05 140 140 140
-0.0399330395 -0.0210017171 -0.05 140 140 140
0.0129247782 0.00349556648 -0.05 140 140 140
0.0369397593 0.0292138274 -0.05 140 140 140
-0.0236552525 -0.00509947039 -0.05 140 140 140
-0.0377059273 -0.0363983495 -0.05 140 140 140
-0.0196552741 0.0529320153 -0.05 140 140 140
0.0443788658 -0.0481657379 -0.05 140 140 140
0.0400477152 -0.00752095737 -0.05 140 140 140
-0.0272741943 -0.00801420215 -0.05 140 140 140
0.0589957204 0.00595808869 -0.05 140 140 140
0.0421892788 -0.00839044691 -0.05 140 140 140
-0.0411298242 -0.0125293774 -0.05 140 140 140
-0.000329688409 0.0383707313 -0.05 140 140 140
-0.023700026 -0.027869385 -0.05 140 140 140
-0.00331988919 -0.0282846282 -0.05 140 140 140
-0.0360916634 0.00937869047 -0.05 140 140 140
-0.0201804705 -0.0289706696 -0.05 140 140 140
-0.0383528106 -0.0294623128 -0.05 140 140 140
-0.0334529137 0.0394077383 -0.05 140 140 140
0.0569153422 0.0304308173 -0.05 140 140 140
0.0528051304 0.0410513545 -0.05 140 140 140
-0.00796932681 -0.056285486 -0.05 140 140 140
0.0257863338 -0.0467367841 -0.05 140 140 140
-0.0573981032 0.0589168153 -0.05 140 140 140
-0.00469617432 0.00545657428 -0.05 140 140 140
-0.0335402916 -0.0539316966 -0.05 140 140 140
0.0566771245 -0.0449331029 -0.05 140 140 140
0.0264647337 0.0300270409 -0.05 140 140 140
-0.0530910108 0.0228507748 -0.05 140 140 140
0.0190509896 -0.0319137224 -0.05 140 140 140
-0.0453989828 0.0261454255 -0.05 140 140 140
-0.00638472008 -0.0589602608 -0.05 140 140 140
0.0218373224 0.0230896012 -0.05 140 140 140
-0.0326770533 0.0195757905 -0.05 140 140 140
0.015321669 0.00867814895 -0.05 140 140 140
-0.033700075 0.0269499244 -0.05 140 140 140
-0.041117441 0.0159316943 -0.05 140 140 140
-0.0477637082 -0.0285254032 -0.05 140 140 140
0.0496597755 -0.0589936182 -0.05 140 140 140
-0.0411814791 -0.00396061476 -0.05 140 140 140
0.0248851652 -0.0167791494 -0.05 140 140 140
0.0246014561 0.00502990476 -0.05 140 140 140
-0.0546173657 -0.0392231251 -0.05 140 140 140
-0.00401559638 0.00833352244 -0.05 140 140 140
0.00514987943 0.00793396093 -0.05 140 140 140
-0.0265424581 0.00217554491 -0.05 140 140 140
0.0299125644 0.0543522869 -0.05 140 140 140
0.0338792569 -0.0331400531 -0.05 140 140 140
-0.0559754189 0.0562902956 0.05 140 140 140
-0.0502102281 -0.0214133239 0.05 140 140 140
-0.0527950491 0.0501487327 0.05 140 140 140
-0.0506535479 0.0149574969 0.05 140 140 140
-0.0160301155 -0.0184054922 0.05 140 140 140
-0.0226503374 -0.0518961918 0.05 140 140 140
-0.0190118303 -0.0400629241 0.05 140 140 140
0.0471884566 0.0368585285 0.05 140 140 140
0.0496248087 -0.0109430325 0.05 140 140 140
-0.0499636037 0.0580547908 0.05 140 140 140
0.029450977 0.0257295575 0.05 140 140 140
-0.0306403135 0.0297515582 0.05 140 140 140
-0.0543540671 -0.0482965085 0.05 140 140 140
0.0416938736 -0.00893006809 0.05 140 140 140
0.00418818234 -0.0203737239 0.05 140 140 140
-0.0362157547 -0.0178443997 0.05 140 140 140
0.00889250449 -0.0147794063 0.05 140 140 140
-0.0340655409 -0.00259047277 0.05 140 140 140
0.0458801118 -0.0530114142 0.05 140 140 140
0.043318259 0.0504970987 0.05 140 140 140
-0.0116275877 -0.0557218585 0.05 140 140 140
0.017988387 -0.0194133646 0.05 140 140 140
-0.00352528553 -0.0405217628 0.05 140 140 140
-0.00516047261 0.0593768709 0.05 140 140 140
0.0162255096 -0.0360701636 0.05 140 140 140
0.0296925366 -0.000340789689 0.05 140 140 140
0.0466959903 0.0446555507 0.05 140 140 140
-0.0486404405 -0.0188560352 0.05 140 140 140
0.02938467 0.0166271891 0.05 140 140 140
-0.0580350596 0.0559310703 0.05 140 140 140
0.00329394229 -0.00820267506 0.05 140 140 140
0.046799651 -0.0188327399 0.05 140 140 140
-0.0443324879 -0.0537073242 0.05 140 140 140
-0.0445356952 -0.0437695754 0.05 140 140 140
-0.0342117972 0.0337047962 0.05 140 140 140
-0.0562581608 -0.0144864779 0.05 140 140 140
-0.04386433 -0.0593653268 0.05 140 140 140
-0.00613358456 -0.0074439828 0.05 140 140 140
0.0252338072 0.0421990922 0.05 140 140 140
0.0511090222 0.0260027655 0.05 140 140 140
0.0528525178 -0.0128532175 0.05 140 140 140
-0.0389430351 0.00254855546 0.05 140 140 140
0.0185763171 -0.0232966961 0.05 140 140 140
-0.0469328853 0.00768085375 0.05 140 140 140
-0.0245469848 0.0432433487 0.05 140 140 140
-0.0493185996 0.027433457 0.05 140 140 140
-0.050077722 -0.00185315814 0.05 140 140 140
0.0100545193 -0.00787465305 0.05 140 140 140
0.0244607742 0.0587354694 0.05 140 140 140
-0.0071259113 0.0254455734 0.05 140 140 140
-0.0572390176 -0.0556727471 0.05 140 140 140
0.00552102668 -0.0537868009 0.05 140 140 140
-0.0484166792 -0.0472627437 0.05 140 140 140
0.0196443066 0.0384144637 0.05 140 140 140
-0.0135865005 0.0576218273 0.05 140 140 140
0.0204856386 -0.0322045256 0.05 140 140 140
-0.00367920291 -0.0563648211 0.05 140 140 140
-0.024491671 -0.0483100498 0.05 140 140 140
-0.00470960833 0.0172819145 0.05 140 140 140
-0.0543003773 -0.0102498125 0.05 140 140 140
0.0483738701 0.0535198425 0.05 140 140 140
0.00916163195 0.0520822623 0.05 140 140 140
0.0571425749 -0.00542528634 0.05 140 140 140
-0.0398602697 0.0523012088 0.05 140 140 140
0.0183515022 -0.0392325047 0.05 140 140 140
0.0102827352 -0.0117660653 0.05 140 140 140
0.00609444766 -0.0493136055 0.05 140 140 140
-0.0226431083 -0.039411495 0.05 140 140 140
0.03695683 -0.0251634589 0.05 140 140 140
0.0561577677 -0.00696461152 0.05 140 140 140
0.00605062506 0.0248496446 0.05 140 140 140
-0.0560164613 0.0527597296 0.05 140 140 140
0.024506516 0.0118394259 0.05 140 140 140
0.0593689472 0.0344541262 0.05 140 140 140
-0.0276364725 -0.0370234144 0.05 140 140 140
0.00691643346 -0.0346678706 0.05 140 140 140
0.0313258119 0.0127882958 0.05 140 140 140
-0.0488592115 -0.0230188402 0.05 140 140 140
0.00543193191 -0.00931157796 0.05 140 140 140
-0.0136356065 -0.0110409432 0.05 140 140 140
-0.0207440109 0.0311622206 0.05 140 140 140
-0.0586449354 -0.0107212458 0.05 140 140 140
0.0114534699 0.0407255274 0.05 140 140 140
-0.0452391425 6.02386659e-05 0.05 140 140 140
-0.00724957039 -0.0157129075 0.05 140 140 140
-0.045397435 -0.0540132197 0.05 140 140 140
-0.0359357074 -0.0169630506 0.05 140 140 140
-0.0429722514 0.0419748376 0.05 140 140 140
-0.036990799 0.0581861036 0.05 140 140 140
-0.0333315318 0.0316098393 0.05 140 140 140
0.0038710018 -0.0172122204 0.05 140 140 140
0.03935373 0.0247981657 0.05 140 140 140
0.00332250933 -0.0584719382 0.05 140 140 140
-0.0333200518 -0.0230774294 0.05 140 140 140
-0.0364151394 0.021166995 0.05 140 140 140
0.00866449321 0.0324165891 0.05 140 140 140
0.0593535349 0.0108995065 0.05 140 140 140
-0.0244788782 0.0160214128 0.05 140 140 140
-0.0110447359 0.0540620037 0.05 140 140 140
0.0131548316 -0.025238159 0.05 140 140 140
-0.0308968039 -0.000770554467 0.05 140 140 140
-0.00358080709 -0.0167115625 0.05 140 140 140
0.0377939447 -0.0437316782 0.05 140 140 140
-0.00665513987 0.0599468699 0.05 140 140 140
0.0131635498 -0.00636702498 0.05 140 140 140
-0.0521433354 0.0140982716 0.05 140 140 140
-0.0164209628 -0.00594600198 0.05 140 140 140
-0.00525698597 0.0189574722 0.05 140 140 140
-0.0549687709 0.00265241138 0.05 140 140 140
-0.0332426871 -0.00740994897 0.05 140 140 140
0.0290908003 -0.0359932729 0.05 140 140 140
0.041713298 0.00945698693 0.05 140 140 140
-0.00798423513 -0.0521346502 0.05 140 140 140
-0.0416213263 0.0453968469 0.05 140 140 140
-0.0220603207 -0.0503810127 0.05 140 140 140
-0.0127957422 -0.0457770893 0.05 140 140 140
-0.00362519963 -0.0436867037 0.05 140 140 140
0.0576858693 0.0248229187 0.05 140 140 140
0.0571736343 -0.0378418416 0.05 140 140 140
-0.0501609861 0.0213461596 0.05 140 140 140
0.0409005748 0.0485530545 0.05 140 140 140
-0.0130884011 -0.0171721187 0.05 140 140 140
0.0430971083 0.0447271633 0.05 140 140 140
-0.0577612528 -0.00785647204 0.05 140 140 140
-0.0490871564 -0.0164470107 0.05 140 140 140
-0.0262473102 0.0335634002 0.05 140 140 140
-0.00940961435 -0.0384787322 0.05 140 140 140
0.0520298556 0.0170115922 0.05 140 140 140
-0.0156491284 0.0596206987 0.05 140 140 140
0.0269904949 -0.0517925823 0.05 140 140 140
0.0400355639 -0.0188086768 0.05 140 140 140
-0.0508446191 -0.0241181798 0.05 140 140 140
-0.0145718163 0.0325481781 0.05 140 140 140
