ply
format ascii 1.0
comment VisionMCP reconstruction mesh
element vertex 576
property float x
property float y
property float z
element face 1058
property list uchar int vertex_indices
end_header
-0.2 -0.2 -0.0228356167
-0.182608696 -0.2 -0.0122081634
-0.165217391 -0.2 -0.0226573014
-0.147826087 -0.2 0.0125369649
-0.130434783 -0.2 -0.0029416531
-0.113043478 -0.2 -0.0140990248
-0.0956521739 -0.2 0.00397166199
-0.0782608696 -0.2 0.00172004865
-0.0608695652 -0.2 0.0107077014
-0.0434782609 -0.2 -0.00646946557
-0.0260869565 -0.2 -0.0012819365
-0.00869565217 -0.2 0.00491664043
0.00869565217 -0.2 0.00109437019
0.0260869565 -0.2 0.00778453817
0.0434782609 -0.2 9.97287361e-05
0.0608695652 -0.2 0.0187786085
0.0782608696 -0.2 0.0036888877
0.0956521739 -0.2 0.00922261587
0.113043478 -0.2 -0.00472778436
0.130434783 -0.2 0.016446315
0.147826087 -0.2 0.00594721215
0.165217391 -0.2 0.00587158042
0.182608696 -0.2 -0.00999907862
0.2 -0.2 0.00722588
-0.2 -0.182608696 -0.0273260483
-0.182608696 -0.182608696 -0.00640884708
-0.165217391 -0.182608696 -0.0212118209
-0.147826087 -0.182608696 0.00216178205
-0.130434783 -0.182608696 -0.0186735941
-0.113043478 -0.182608696 -0.00455964983
-0.0956521739 -0.182608696 -0.00497735955
-0.0782608696 -0.182608696 0.003663264
-0.0608695652 -0.182608696 -0.015234362
-0.0434782609 -0.182608696 0.00188698296
-0.0260869565 -0.182608696 -0.0174375248
-0.00869565217 -0.182608696 -0.00828673144
0.00869565217 -0.182608696 0.00707919841
0.0260869565 -0.182608696 -0.00492787662
0.0434782609 -0.182608696 -0.00542340009
0.0608695652 -0.182608696 -0.00446819979
0.0782608696 -0.182608696 0.00369126914
0.0956521739 -0.182608696 -0.00337339922
0.113043478 -0.182608696 0.0103089716
0.130434783 -0.182608696 0.0077501222
0.147826087 -0.182608696 0.0059198479
0.165217391 -0.182608696 0.0178673527
0.182608696 -0.182608696 0.013198538
0.2 -0.182608696 0.00252278647
-0.2 -0.165217391 -0.0160813123
-0.182608696 -0.165217391 -0.0153848952
-0.165217391 -0.165217391 -0.0133131329
-0.147826087 -0.165217391 -0.0168613936
-0.130434783 -0.165217391 -0.0105084879
-0.113043478 -0.165217391 -0.00905795811
-0.0956521739 -0.165217391 -0.00540735076
-0.0782608696 -0.165217391 -0.0341091305
-0.0608695652 -0.165217391 -0.0128386426
-0.0434782609 -0.165217391 0.00958592489
-0.0260869565 -0.165217391 0.0110342688
-0.00869565217 -0.165217391 -0.0197324036
0.00869565217 -0.165217391 0.00479177609
0.0260869565 -0.165217391 -0.0013112552
0.0434782609 -0.165217391 0.00746953018
0.0608695652 -0.165217391 0.00543664643
0.0782608696 -0.165217391 0.0140241191
0.0956521739 -0.165217391 0.0107895755
0.113043478 -0.165217391 0.00229062951
0.130434783 -0.165217391 0.0187990882
0.147826087 -0.165217391 0.00390443748
0.165217391 -0.165217391 0.0122253509
0.182608696 -0.165217391 0.0149203151
0.2 -0.165217391 -0.00829548967
-0.2 -0.147826087 -0.0169815439
-0.182608696 -0.147826087 -0.0151365645
-0.165217391 -0.147826087 -0.0225297352
-0.147826087 -0.147826087 -0.00526136537
-0.130434783 -0.147826087 -0.0139469165
-0.113043478 -0.147826087 0.00427696147
-0.0956521739 -0.147826087 -0.0243281456
-0.0782608696 -0.147826087 -0.00732933474
-0.0608695652 -0.147826087 0.00885654933
-0.0434782609 -0.147826087 0.00333458861
-0.0260869565 -0.147826087 0.00222949066
-0.00869565217 -0.147826087 -0.00286018719
0.00869565217 -0.147826087 0.00679051863
0.0260869565 -0.147826087 0.00516584633
0.0434782609 -0.147826087 0.0182691749
0.0608695652 -0.147826087 -0.00184955569
0.0782608696 -0.147826087 0.0179743234
0.0956521739 -0.147826087 0.00731794122
0.113043478 -0.147826087 0.00466296002
0.130434783 -0.147826087 0.0086976413
0.147826087 -0.147826087 0.0170158137
0.165217391 -0.147826087 0.0132236854
0.182608696 -0.147826087 0.031687933
0.2 -0.147826087 0.00135163966
-0.2 -0.130434783 -0.0245072325
-0.182608696 -0.130434783 0.00132900404
-0.165217391 -0.130434783 -0.0243478726
-0.147826087 -0.130434783 -0.0297141897
-0.130434783 -0.130434783 -0.00397180687
-0.113043478 -0.130434783 -0.00715244865
-0.0956521739 -0.130434783 -0.00920941381
-0.0782608696 -0.130434783 -0.0158963376
-0.0608695652 -0.130434783 0.00209942601
-0.0434782609 -0.130434783 0.00190311978
-0.0260869565 -0.130434783 0.00390831916
-0.00869565217 -0.130434783 -0.00363519839
0.00869565217 -0.130434783 -0.0158859747
0.0260869565 -0.130434783 -0.00818424271
0.0434782609 -0.130434783 -0.00260598314
0.0608695652 -0.130434783 -0.000822126889
0.0782608696 -0.130434783 0.00677752081
0.0956521739 -0.130434783 0.00718767988
0.113043478 -0.130434783 0.0198144411
0.130434783 -0.130434783 0.0122844687
0.147826087 -0.130434783 0.013158416
0.165217391 -0.130434783 0.00809880541
0.182608696 -0.130434783 0.0173559127
0.2 -0.130434783 0.00726033568
-0.2 -0.113043478 -0.0212516027
-0.182608696 -0.113043478 -0.0132340907
-0.165217391 -0.113043478 -0.0327759101
-0.147826087 -0.113043478 -0.0340948308
-0.130434783 -0.113043478 0.00273468385
-0.113043478 -0.113043478 -0.011025838
-0.0956521739 -0.113043478 -0.0184181987
-0.0782608696 -0.113043478 0.00292540358
-0.0608695652 -0.113043478 -0.0134853528
-0.0434782609 -0.113043478 -0.00356177984
-0.0260869565 -0.113043478 -0.00701047413
-0.00869565217 -0.113043478 0.0015184619
0.00869565217 -0.113043478 0.00875945903
0.0260869565 -0.113043478 -0.00878023388
0.0434782609 -0.113043478 0.00372746634
0.0608695652 -0.113043478 0.0076103472
0.0782608696 -0.113043478 0.00375299712
0.0956521739 -0.113043478 0.00908462549
0.113043478 -0.113043478 0.0087470323
0.130434783 -0.113043478 0.0269626027
0.147826087 -0.113043478 0.0125033834
0.165217391 -0.113043478 0.0154615221
0.182608696 -0.113043478 0.00591401534
0.2 -0.113043478 0.00935812774
-0.2 -0.0956521739 -0.0295094305
-0.182608696 -0.0956521739 -0.0303411308
-0.165217391 -0.0956521739 -0.0280373112
-0.147826087 -0.0956521739 -0.0145590909
-0.130434783 -0.0956521739 -0.00443433607
-0.113043478 -0.0956521739 -0.0231302529
-0.0956521739 -0.0956521739 -0.000235412195
-0.0782608696 -0.0956521739 0.000922836199
-0.0608695652 -0.0956521739 0.0104695248
-0.0434782609 -0.0956521739 -0.00305830438
-0.0260869565 -0.0956521739 -0.0120258257
-0.00869565217 -0.0956521739 -0.016400202
0.00869565217 -0.0956521739 0.0107371769
0.0260869565 -0.0956521739 0.000606422222
0.0434782609 -0.0956521739 -0.00105467463
0.0608695652 -0.0956521739 0.0264537675
0.0782608696 -0.0956521739 0.017845
0.0956521739 -0.0956521739 0.0158834304
0.113043478 -0.0956521739 0.00824358951
0.130434783 -0.0956521739 0.0238818809
0.147826087 -0.0956521739 0.00269413027
0.165217391 -0.0956521739 0.01401693
0.182608696 -0.0956521739 0.0161021346
0.2 -0.0956521739 0.0296237525
-0.2 -0.0782608696 -0.0116394862
-0.182608696 -0.0782608696 -0.0042890602
-0.165217391 -0.0782608696 -0.0298708191
-0.147826087 -0.0782608696 -0.0258844228
-0.130434783 -0.0782608696 -0.0240047073
-0.113043478 -0.0782608696 -0.0201936906
-0.0956521739 -0.0782608696 -0.0227635362
-0.0782608696 -0.0782608696 -0.0161979639
-0.0608695652 -0.0782608696 -0.0209562262
-0.0434782609 -0.0782608696 0.00585301977
-0.0260869565 -0.0782608696 0.00402260976
-0.00869565217 -0.0782608696 -0.00213388418
0.00869565217 -0.0782608696 0.00411880458
0.0260869565 -0.0782608696 0.0112770621
0.0434782609 -0.0782608696 0.00762252757
0.0608695652 -0.0782608696 0.00738927807
0.0782608696 -0.0782608696 -0.00274059452
0.0956521739 -0.0782608696 -0.00630699351
0.113043478 -0.0782608696 0.00937742865
0.130434783 -0.0782608696 0.00148808995
0.147826087 -0.0782608696 0.0213991233
0.165217391 -0.0782608696 0.00805787568
0.182608696 -0.0782608696 0.0174850674
0.2 -0.0782608696 0.017314466
-0.2 -0.0608695652 -0.034137939
-0.182608696 -0.0608695652 -0.0250369538
-0.165217391 -0.0608695652 -0.0141864408
-0.147826087 -0.0608695652 -0.0212251804
-0.130434783 -0.0608695652 -0.0298366888
-0.113043478 -0.0608695652 -0.0265000429
-0.0956521739 -0.0608695652 0.000115162919
-0.0782608696 -0.0608695652 -0.0226171425
-0.0608695652 -0.0608695652 -0.00988007664
-0.0434782609 -0.0608695652 -0.0168495972
-0.0260869565 -0.0608695652 -0.00310056139
-0.00869565217 -0.0608695652 0.00861407933
0.00869565217 -0.0608695652 0.0224937502
0.0260869565 -0.0608695652 -0.0103369043
0.0434782609 -0.0608695652 0.0123038847
0.0608695652 -0.0608695652 0.00862667009
0.0782608696 -0.0608695652 0.00375373187
0.0956521739 -0.0608695652 0.0144115041
0.113043478 -0.0608695652 0.0239564274
0.130434783 -0.0608695652 0.0157181587
0.147826087 -0.0608695652 0.0143726134
0.165217391 -0.0608695652 0.0230587742
0.182608696 -0.0608695652 0.0200631018
0.2 -0.0608695652 0.0201937731
-0.2 -0.0434782609 -0.0072040626
-0.182608696 -0.0434782609 -0.0129853722
-0.165217391 -0.0434782609 -0.00592033509
-0.147826087 -0.0434782609 -0.00180028277
-0.130434783 -0.0434782609 -0.00942307444
-0.113043478 -0.0434782609 0.00112545124
-0.0956521739 -0.0434782609 -0.017557287
-0.0782608696 -0.0434782609 -0.0211455052
-0.0608695652 -0.0434782609 -0.0162668243
-0.0434782609 -0.0434782609 -0.00399035424
-0.0260869565 -0.0434782609 -0.0234890256
-0.00869565217 -0.0434782609 -0.000331396199
0.00869565217 -0.0434782609 0.00961784851
0.0260869565 -0.0434782609 0.0125491505
0.0434782609 -0.0434782609 -0.0220824942
0.0608695652 -0.0434782609 0.0060257741
0.0782608696 -0.0434782609 0.00317071707
0.0956521739 -0.0434782609 0.0137626235
0.113043478 -0.0434782609 0.0108154217
0.130434783 -0.0434782609 0.0120405153
0.147826087 -0.0434782609 0.0338231316
0.165217391 -0.0434782609 0.0110480189
0.182608696 -0.0434782609 0.0152146659
0.2 -0.0434782609 0.0238364486
-0.2 -0.0260869565 -0.00378792247
-0.182608696 -0.0260869565 -0.028682963
-0.165217391 -0.0260869565 -0.039321989
-0.147826087 -0.0260869565 -0.0230055761
-0.130434783 -0.0260869565 -0.0141306304
-0.113043478 -0.0260869565 -0.0301752244
-0.0956521739 -0.0260869565 -0.028780956
-0.0782608696 -0.0260869565 -0.0138113684
-0.0608695652 -0.0260869565 -0.00998061431
-0.0434782609 -0.0260869565 0.00408637864
-0.0260869565 -0.0260869565 0.00877507733
-0.00869565217 -0.0260869565 0.00284788886
0.00869565217 -0.0260869565 0.00647541149
0.0260869565 -0.0260869565 -0.0064822014
0.0434782609 -0.0260869565 0.0015083248
0.0608695652 -0.0260869565 0.0110690737
0.0782608696 -0.0260869565 0.000199663823
0.0956521739 -0.0260869565 0.0156079422
0.113043478 -0.0260869565 0.00239954474
0.130434783 -0.0260869565 0.0199570987
0.147826087 -0.0260869565 0.0162933593
0.165217391 -0.0260869565 3.89756139e-05
0.182608696 -0.0260869565 0.0193733025
0.2 -0.0260869565 0.0189298035
-0.2 -0.00869565217 -0.0102234972
-0.182608696 -0.00869565217 -0.029577251
-0.165217391 -0.00869565217 -0.0265243918
-0.147826087 -0.00869565217 -0.00736103237
-0.130434783 -0.00869565217 -0.0220856196
-0.113043478 -0.00869565217 -0.0220228863
-0.0956521739 -0.00869565217 -0.0214112457
-0.0782608696 -0.00869565217 -0.018692426
-0.0608695652 -0.00869565217 -0.010006348
-0.0434782609 -0.00869565217 -0.00887868399
-0.0260869565 -0.00869565217 -0.00281244614
-0.00869565217 -0.00869565217 0.01073826
0.00869565217 -0.00869565217 -0.00095504394
0.0260869565 -0.00869565217 0.0101610203
0.0434782609 -0.00869565217 0.00728854131
0.0608695652 -0.00869565217 0.0234306738
0.0782608696 -0.00869565217 -0.00914260576
0.0956521739 -0.00869565217 0.0356305479
0.113043478 -0.00869565217 0.0249885414
0.130434783 -0.00869565217 -0.000478470467
0.147826087 -0.00869565217 0.0197812017
0.165217391 -0.00869565217 0.00840476686
0.182608696 -0.00869565217 0.0138397961
0.2 -0.00869565217 0.0153273652
-0.2 0.00869565217 -0.00761956804
-0.182608696 0.00869565217 -0.0304702863
-0.165217391 0.00869565217 -0.01213912
-0.147826087 0.00869565217 0.0137921481
-0.130434783 0.00869565217 -0.0155649595
-0.113043478 0.00869565217 -0.0240479305
-0.0956521739 0.00869565217 -0.0276735393
-0.0782608696 0.00869565217 -0.00953794898
-0.0608695652 0.00869565217 0.00370867549
-0.0434782609 0.00869565217 -0.0103130932
-0.0260869565 0.00869565217 0.00519822202
-0.00869565217 0.00869565217 -0.0173239948
0.00869565217 0.00869565217 -0.0153085019
0.0260869565 0.00869565217 -0.00169662825
0.0434782609 0.00869565217 0.0276593026
0.0608695652 0.00869565217 0.0165570776
0.0782608696 0.00869565217 0.0133251877
0.0956521739 0.00869565217 0.0074536246
0.113043478 0.00869565217 0.00322996627
0.130434783 0.00869565217 0.00859890463
0.147826087 0.00869565217 0.0147100782
0.165217391 0.00869565217 0.0287355749
0.182608696 0.00869565217 0.00820818095
0.2 0.00869565217 0.0262161494
-0.2 0.0260869565 -0.0179839045
-0.182608696 0.0260869565 -0.0215271217
-0.165217391 0.0260869565 -0.0129405786
-0.147826087 0.0260869565 -0.00193226522
-0.130434783 0.0260869565 -0.0218434527
-0.113043478 0.0260869565 -0.0239532277
-0.0956521739 0.0260869565 -0.0111839558
-0.0782608696 0.0260869565 0.000272662353
-0.0608695652 0.0260869565 -0.00895567785
-0.0434782609 0.0260869565 0.00344371472
-0.0260869565 0.0260869565 -0.0113172024
-0.00869565217 0.0260869565 -0.0208760319
0.00869565217 0.0260869565 0.0156952286
0.0260869565 0.0260869565 0.00575324827
0.0434782609 0.0260869565 0.0216137718
0.0608695652 0.0260869565 0.0204064925
0.0782608696 0.0260869565 0.0246983038
0.0956521739 0.0260869565 0.0269967561
0.113043478 0.0260869565 0.0224854561
0.130434783 0.0260869565 0.0273876505
0.147826087 0.0260869565 0.0185662941
0.165217391 0.0260869565 0.0270285803
0.182608696 0.0260869565 0.0263450591
0.2 0.0260869565 0.0295992815
-0.2 0.0434782609 -0.00276193881
-0.182608696 0.0434782609 -0.0118246687
-0.165217391 0.0434782609 -0.000790778876
-0.147826087 0.0434782609 -0.0137861976
-0.130434783 0.0434782609 -0.0130870588
-0.113043478 0.0434782609 -0.0201947859
-0.0956521739 0.0434782609 0.00454293635
-0.0782608696 0.0434782609 -0.0129734451
-0.0608695652 0.0434782609 -0.0155257767
-0.0434782609 0.0434782609 0.000478468968
-0.0260869565 0.0434782609 -0.00980164994
-0.00869565217 0.0434782609 0.000716121324
0.00869565217 0.0434782609 0.00184510286
0.0260869565 0.0434782609 0.00113659084
0.0434782609 0.0434782609 0.0127551676
0.0608695652 0.0434782609 0.000288687941
0.0782608696 0.0434782609 0.00545032678
0.0956521739 0.0434782609 0.0206922974
0.113043478 0.0434782609 0.0100051669
0.130434783 0.0434782609 0.0197695509
0.147826087 0.0434782609 0.0290863669
0.165217391 0.0434782609 0.0236604074
0.182608696 0.0434782609 0.0286239817
0.2 0.0434782609 0.00664215124
-0.2 0.0608695652 -0.0237316895
-0.182608696 0.0608695652 -0.0355811342
-0.165217391 0.0608695652 -0.0330080422
-0.147826087 0.0608695652 -0.0115736841
-0.130434783 0.0608695652 -0.0252966465
-0.113043478 0.0608695652 0.0123554223
-0.0956521739 0.0608695652 -0.0186925627
-0.0782608696 0.0608695652 9.2191277e-05
-0.0608695652 0.0608695652 0.00955577903
-0.0434782609 0.0608695652 0.012682255
-0.0260869565 0.0608695652 -0.00654806252
-0.00869565217 0.0608695652 -0.0128431598
0.00869565217 0.0608695652 0.0081737995
0.0260869565 0.0608695652 -0.0120721758
0.0434782609 0.0608695652 0.00305398837
0.0608695652 0.0608695652 -0.00132486494
0.0782608696 0.0608695652 0.00792335787
0.0956521739 0.0608695652 0.0236591521
0.113043478 0.0608695652 0.0119394471
0.130434783 0.0608695652 0.0183322457
0.147826087 0.0608695652 0.0209642067
0.165217391 0.0608695652 0.0112426353
0.182608696 0.0608695652 0.0146306847
0.2 0.0608695652 0.00574009553
-0.2 0.0782608696 -0.0198895984
-0.182608696 0.0782608696 -0.0197526815
-0.165217391 0.0782608696 -0.0285025816
-0.147826087 0.0782608696 -0.0160276174
-0.130434783 0.0782608696 0.00919858446
-0.113043478 0.0782608696 -0.0155384155
-0.0956521739 0.0782608696 -0.0145687084
-0.0782608696 0.0782608696 -0.0145477833
-0.0608695652 0.0782608696 -0.00419328646
-0.0434782609 0.0782608696 0.0064287014
-0.0260869565 0.0782608696 0.0142605711
-0.00869565217 0.0782608696 0.00390614735
0.00869565217 0.0782608696 0.0168052184
0.0260869565 0.0782608696 0.007716257
0.0434782609 0.0782608696 -0.000288107581
0.0608695652 0.0782608696 -0.008327583
0.0782608696 0.0782608696 0.0190719577
0.0956521739 0.0782608696 0.0148075365
0.113043478 0.0782608696 0.0235487835
0.130434783 0.0782608696 0.0109877461
0.147826087 0.0782608696 0.0370232315
0.165217391 0.0782608696 -0.00801292391
0.182608696 0.0782608696 0.0323012919
0.2 0.0782608696 0.0118068786
-0.2 0.0956521739 -0.0165820147
-0.182608696 0.0956521739 -0.00791509194
-0.165217391 0.0956521739 -0.0279790315
-0.147826087 0.0956521739 -0.0028157441
-0.130434783 0.0956521739 -0.0289582124
-0.113043478 0.0956521739 -0.00303757257
-0.0956521739 0.0956521739 -0.00573230246
-0.0782608696 0.0956521739 -0.0192784025
-0.0608695652 0.0956521739 -0.0131752314
-0.0434782609 0.0956521739 0.00429939583
-0.0260869565 0.0956521739 -0.000542216198
-0.00869565217 0.0956521739 0.00265266571
0.00869565217 0.0956521739 0.0142725959
0.0260869565 0.0956521739 0.0131258352
0.0434782609 0.0956521739 0.0132612296
0.0608695652 0.0956521739 0.00437738745
0.0782608696 0.0956521739 0.019187754
0.0956521739 0.0956521739 -0.002810544
0.113043478 0.0956521739 0.00428223405
0.130434783 0.0956521739 0.00347515188
0.147826087 0.0956521739 0.022471714
0.165217391 0.0956521739 0.0177617697
0.182608696 0.0956521739 0.0184099809
0.2 0.0956521739 0.0144664239
-0.2 0.113043478 -0.0219467508
-0.182608696 0.113043478 -0.0219733646
-0.165217391 0.113043478 -0.0211507358
-0.147826087 0.113043478 -0.00919553534
-0.130434783 0.113043478 -0.0107010642
-0.113043478 0.113043478 -0.0127480422
-0.0956521739 0.113043478 0.00174604841
-0.0782608696 0.113043478 -0.0151714148
-0.0608695652 0.113043478 -0.00128506946
-0.0434782609 0.113043478 -0.0196217577
-0.0260869565 0.113043478 0.000215796256
-0.00869565217 0.113043478 -0.012437986
0.00869565217 0.113043478 0.000350730478
0.0260869565 0.113043478 0.00512051495
0.0434782609 0.113043478 -5.21941534e-05
0.0608695652 0.113043478 0.00912212742
0.0782608696 0.113043478 0.0226351632
0.0956521739 0.113043478 -0.00367343668
0.113043478 0.113043478 -0.00326775291
0.130434783 0.113043478 0.0181215324
0.147826087 0.113043478 0.0126720231
0.165217391 0.113043478 0.0298610245
0.182608696 0.113043478 0.0130793332
0.2 0.113043478 0.00603218786
-0.2 0.130434783 -0.00919478637
-0.182608696 0.130434783 -0.0157755977
-0.165217391 0.130434783 -0.00958412272
-0.147826087 0.130434783 -0.00823505747
-0.130434783 0.130434783 -0.0281253971
-0.113043478 0.130434783 -0.00288780648
-0.0956521739 0.130434783 0.00727097543
-0.0782608696 0.130434783 -0.00187451154
-0.0608695652 0.130434783 0.00654646155
-0.0434782609 0.130434783 -0.0171834358
-0.0260869565 0.130434783 -0.0117926682
-0.00869565217 0.130434783 -0.00823701048
0.00869565217 0.130434783 -0.0151322645
0.0260869565 0.130434783 -0.00859764884
0.0434782609 0.130434783 0.00321268649
0.0608695652 0.130434783 -0.00647894081
0.0782608696 0.130434783 0.00127013666
0.0956521739 0.130434783 0.00772496129
0.113043478 0.130434783 0.0279650072
0.130434783 0.130434783 0.00537022063
0.147826087 0.130434783 0.0178321384
0.165217391 0.130434783 0.0243509238
0.182608696 0.130434783 0.0163796611
0.2 0.130434783 0.0150061919
-0.2 0.147826087 -0.0103813831
-0.182608696 0.147826087 -0.0111804414
-0.165217391 0.147826087 -0.0120542255
-0.147826087 0.147826087 -0.00808955826
-0.130434783 0.147826087 0.00176685896
-0.113043478 0.147826087 -0.00741511499
-0.0956521739 0.147826087 -0.0118789679
-0.0782608696 0.147826087 0.00654521212
-0.0608695652 0.147826087 -0.00181811186
-0.0434782609 0.147826087 0.00679656319
-0.0260869565 0.147826087 -0.00767651164
-0.00869565217 0.147826087 0.00564311154
0.00869565217 0.147826087 0.0131995611
0.0260869565 0.147826087 0.0096008128
0.0434782609 0.147826087 0.00784509564
0.0608695652 0.147826087 0.0196626658
0.0782608696 0.147826087 0.0166928782
0.0956521739 0.147826087 0.00900385946
0.113043478 0.147826087 -0.00357273957
0.130434783 0.147826087 0.0175725629
0.147826087 0.147826087 0.016896029
0.165217391 0.147826087 0.0106258863
0.182608696 0.147826087 0.014161801
0.2 0.147826087 0.0199725875
-0.2 0.165217391 0.0078158224
-0.182608696 0.165217391 -0.00746964926
-0.165217391 0.165217391 -0.00107207814
-0.147826087 0.165217391 -0.0115593539
-0.130434783 0.165217391 -0.0151728665
-0.113043478 0.165217391 0.00280150134
-0.0956521739 0.165217391 -0.0206425079
-0.0782608696 0.165217391 -0.00167480626
-0.0608695652 0.165217391 -0.0219262122
-0.0434782609 0.165217391 -0.00639681771
-0.0260869565 0.165217391 -0.0110084328
-0.00869565217 0.165217391 0.015118186
0.00869565217 0.165217391 -0.00322859513
0.0260869565 0.165217391 0.00937032741
0.0434782609 0.165217391 -0.00380086894
0.0608695652 0.165217391 0.0226686653
0.0782608696 0.165217391 0.0186299856
0.0956521739 0.165217391 -0.00470988221
0.113043478 0.165217391 0.00554507431
0.130434783 0.165217391 0.0163478561
0.147826087 0.165217391 0.0168779622
0.165217391 0.165217391 -0.00219994011
0.182608696 0.165217391 0.0102171683
0.2 0.165217391 -0.00872916252
-0.2 0.182608696 -0.0175840685
-0.182608696 0.182608696 -0.0115418138
-0.165217391 0.182608696 -0.0035971044
-0.147826087 0.182608696 -0.0119861722
-0.130434783 0.182608696 -0.00609109412
-0.113043478 0.182608696 0.01923803
-0.0956521739 0.182608696 -0.00296762838
-0.0782608696 0.182608696 0.00368197653
-0.0608695652 0.182608696 0.000172800618
-0.0434782609 0.182608696 -0.00105435165
-0.0260869565 0.182608696 0.0274063638
-0.00869565217 0.182608696 -0.00323603154
0.00869565217 0.182608696 -0.00276833283
0.0260869565 0.182608696 0.00804545865
0.0434782609 0.182608696 -0.0052838801
0.0608695652 0.182608696 -0.00360826965
0.0782608696 0.182608696 0.0238175961
0.0956521739 0.182608696 -0.00636508723
0.113043478 0.182608696 0.0125896075
0.130434783 0.182608696 0.0113764975
0.147826087 0.182608696 0.021958839
0.165217391 0.182608696 0.0149858079
0.182608696 0.182608696 0.0145668734
0.2 0.182608696 0.0144997204
-0.2 0.2 -0.00743903579
-0.182608696 0.2 -0.0140151345
-0.165217391 0.2 -0.00120607529
-0.147826087 0.2 -0.0176258666
-0.130434783 0.2 -0.0116685706
-0.113043478 0.2 -0.00301787287
-0.0956521739 0.2 -0.0125441867
-0.0782608696 0.2 0.0152638776
-0.0608695652 0.2 -0.0204226927
-0.0434782609 0.2 -0.0147265639
-0.0260869565 0.2 -0.0085189848
-0.00869565217 0.2 0.000698164001
0.00869565217 0.2 -0.00129050725
0.0260869565 0.2 0.00704378745
0.0434782609 0.2 0.00345429226
0.0608695652 0.2 0.00498994074
0.0782608696 0.2 0.0081376641
0.0956521739 0.2 -0.011158749
0.113043478 0.2 -0.00463123731
0.130434783 0.2 0.0175922888
0.147826087 0.2 0.00480799367
0.165217391 0.2 0.00503048798
0.182608696 0.2 -0.00048858241
0.2 0.2 0.00999553956
3 0 1 25
3 0 25 24
3 1 2 26
3 1 26 25
3 2 3 27
3 2 27 26
3 3 4 28
3 3 28 27
3 4 5 29
3 4 29 28
3 5 6 30
3 5 30 29
3 6 7 31
3 6 31 30
3 7 8 32
3 7 32 31
3 8 9 33
3 8 33 32
3 9 10 34
3 9 34 33
3 10 11 35
3 10 35 34
3 11 12 36
3 11 36 35
3 12 13 37
3 12 37 36
3 13 14 38
3 13 38 37
3 14 15 39
3 14 39 38
3 15 16 40
3 15 40 39
3 16 17 41
3 16 41 40
3 17 18 42
3 17 42 41
3 18 19 43
3 18 43 42
3 19 20 44
3 19 44 43
3 20 21 45
3 20 45 44
3 21 22 46
3 21 46 45
3 22 23 47
3 22 47 46
3 24 25 49
3 24 49 48
3 25 26 50
3 25 50 49
3 26 27 51
3 26 51 50
3 27 28 52
3 27 52 51
3 28 29 53
3 28 53 52
3 29 30 54
3 29 54 53
3 30 31 55
3 30 55 54
3 31 32 56
3 31 56 55
3 32 33 57
3 32 57 56
3 33 34 58
3 33 58 57
3 34 35 59
3 34 59 58
3 35 36 60
3 35 60 59
3 36 37 61
3 36 61 60
3 37 38 62
3 37 62 61
3 38 39 63
3 38 63 62
3 39 40 64
3 39 64 63
3 40 41 65
3 40 65 64
3 41 42 66
3 41 66 65
3 42 43 67
3 42 67 66
3 43 44 68
3 43 68 67
3 44 45 69
3 44 69 68
3 45 46 70
3 45 70 69
3 46 47 71
3 46 71 70
3 48 49 73
3 48 73 72
3 49 50 74
3 49 74 73
3 50 51 75
3 50 75 74
3 51 52 76
3 51 76 75
3 52 53 77
3 52 77 76
3 53 54 78
3 53 78 77
3 54 55 79
3 54 79 78
3 55 56 80
3 55 80 79
3 56 57 81
3 56 81 80
3 57 58 82
3 57 82 81
3 58 59 83
3 58 83 82
3 59 60 84
3 59 84 83
3 60 61 85
3 60 85 84
3 61 62 86
3 61 86 85
3 62 63 87
3 62 87 86
3 63 64 88
3 63 88 87
3 64 65 89
3 64 89 88
3 65 66 90
3 65 90 89
3 66 67 91
3 66 91 90
3 67 68 92
3 67 92 91
3 68 69 93
3 68 93 92
3 69 70 94
3 69 94 93
3 70 71 95
3 70 95 94
3 72 73 97
3 72 97 96
3 73 74 98
3 73 98 97
3 74 75 99
3 74 99 98
3 75 76 100
3 75 100 99
3 76 77 101
3 76 101 100
3 77 78 102
3 77 102 101
3 78 79 103
3 78 103 102
3 79 80 104
3 79 104 103
3 80 81 105
3 80 105 104
3 81 82 106
3 81 106 105
3 82 83 107
3 82 107 106
3 83 84 108
3 83 108 107
3 84 85 109
3 84 109 108
3 85 86 110
3 85 110 109
3 86 87 111
3 86 111 110
3 87 88 112
3 87 112 111
3 88 89 113
3 88 113 112
3 89 90 114
3 89 114 113
3 90 91 115
3 90 115 114
3 91 92 116
3 91 116 115
3 92 93 117
3 92 117 116
3 93 94 118
3 93 118 117
3 94 95 119
3 94 119 118
3 96 97 121
3 96 121 120
3 97 98 122
3 97 122 121
3 98 99 123
3 98 123 122
3 99 100 124
3 99 124 123
3 100 101 125
3 100 125 124
3 101 102 126
3 101 126 125
3 102 103 127
3 102 127 126
3 103 104 128
3 103 128 127
3 104 105 129
3 104 129 128
3 105 106 130
3 105 130 129
3 106 107 131
3 106 131 130
3 107 108 132
3 107 132 131
3 108 109 133
3 108 133 132
3 109 110 134
3 109 134 133
3 110 111 135
3 110 135 134
3 111 112 136
3 111 136 135
3 112 113 137
3 112 137 136
3 113 114 138
3 113 138 137
3 114 115 139
3 114 139 138
3 115 116 140
3 115 140 139
3 116 117 141
3 116 141 140
3 117 118 142
3 117 142 141
3 118 119 143
3 118 143 142
3 120 121 145
3 120 145 144
3 121 122 146
3 121 146 145
3 122 123 147
3 122 147 146
3 123 124 148
3 123 148 147
3 124 125 149
3 124 149 148
3 125 126 150
3 125 150 149
3 126 127 151
3 126 151 150
3 127 128 152
3 127 152 151
3 128 129 153
3 128 153 152
3 129 130 154
3 129 154 153
3 130 131 155
3 130 155 154
3 131 132 156
3 131 156 155
3 132 133 157
3 132 157 156
3 133 134 158
3 133 158 157
3 134 135 159
3 134 159 158
3 135 136 160
3 135 160 159
3 136 137 161
3 136 161 160
3 137 138 162
3 137 162 161
3 138 139 163
3 138 163 162
3 139 140 164
3 139 164 163
3 140 141 165
3 140 165 164
3 141 142 166
3 141 166 165
3 142 143 167
3 142 167 166
3 144 145 169
3 144 169 168
3 145 146 170
3 145 170 169
3 146 147 171
3 146 171 170
3 147 148 172
3 147 172 171
3 148 149 173
3 148 173 172
3 149 150 174
3 149 174 173
3 150 151 175
3 150 175 174
3 151 152 176
3 151 176 175
3 152 153 177
3 152 177 176
3 153 154 178
3 153 178 177
3 154 155 179
3 154 179 178
3 155 156 180
3 155 180 179
3 156 157 181
3 156 181 180
3 157 158 182
3 157 182 181
3 158 159 183
3 158 183 182
3 159 160 184
3 159 184 183
3 160 161 185
3 160 185 184
3 161 162 186
3 161 186 185
3 162 163 187
3 162 187 186
3 163 164 188
3 163 188 187
3 164 165 189
3 164 189 188
3 165 166 190
3 165 190 189
3 166 167 191
3 166 191 190
3 168 169 193
3 168 193 192
3 169 170 194
3 169 194 193
3 170 171 195
3 170 195 194
3 171 172 196
3 171 196 195
3 172 173 197
3 172 197 196
3 173 174 198
3 173 198 197
3 174 175 199
3 174 199 198
3 175 176 200
3 175 200 199
3 176 177 201
3 176 201 200
3 177 178 202
3 177 202 201
3 178 179 203
3 178 203 202
3 179 180 204
3 179 204 203
3 180 181 205
3 180 205 204
3 181 182 206
3 181 206 205
3 182 183 207
3 182 207 206
3 183 184 208
3 183 208 207
3 184 185 209
3 184 209 208
3 185 186 210
3 185 210 209
3 186 187 211
3 186 211 210
3 187 188 212
3 187 212 211
3 188 189 213
3 188 213 212
3 189 190 214
3 189 214 213
3 190 191 215
3 190 215 214
3 192 193 217
3 192 217 216
3 193 194 218
3 193 218 217
3 194 195 219
3 194 219 218
3 195 196 220
3 195 220 219
3 196 197 221
3 196 221 220
3 197 198 222
3 197 222 221
3 198 199 223
3 198 223 222
3 199 200 224
3 199 224 223
3 200 201 225
3 200 225 224
3 201 202 226
3 201 226 225
3 202 203 227
3 202 227 226
3 203 204 228
3 203 228 227
3 204 205 229
3 204 229 228
3 205 206 230
3 205 230 229
3 206 207 231
3 206 231 230
3 207 208 232
3 207 232 231
3 208 209 233
3 208 233 232
3 209 210 234
3 209 234 233
3 210 211 235
3 210 235 234
3 211 212 236
3 211 236 235
3 212 213 237
3 212 237 236
3 213 214 238
3 213 238 237
3 214 215 239
3 214 239 238
3 216 217 241
3 216 241 240
3 217 218 242
3 217 242 241
3 218 219 243
3 218 243 242
3 219 220 244
3 219 244 243
3 220 221 245
3 220 245 244
3 221 222 246
3 221 246 245
3 222 223 247
3 222 247 246
3 223 224 248
3 223 248 247
3 224 225 249
3 224 249 248
3 225 226 250
3 225 250 249
3 226 227 251
3 226 251 250
3 227 228 252
3 227 252 251
3 228 229 253
3 228 253 252
3 229 230 254
3 229 254 253
3 230 231 255
3 230 255 254
3 231 232 256
3 231 256 255
3 232 233 257
3 232 257 256
3 233 234 258
3 233 258 257
3 234 235 259
3 234 259 258
3 235 236 260
3 235 260 259
3 236 237 261
3 236 261 260
3 237 238 262
3 237 262 261
3 238 239 263
3 238 263 262
3 240 241 265
3 240 265 264
3 241 242 266
3 241 266 265
3 242 243 267
3 242 267 266
3 243 244 268
3 243 268 267
3 244 245 269
3 244 269 268
3 245 246 270
3 245 270 269
3 246 247 271
3 246 271 270
3 247 248 272
3 247 272 271
3 248 249 273
3 248 273 272
3 249 250 274
3 249 274 273
3 250 251 275
3 250 275 274
3 251 252 276
3 251 276 275
3 252 253 277
3 252 277 276
3 253 254 278
3 253 278 277
3 254 255 279
3 254 279 278
3 255 256 280
3 255 280 279
3 256 257 281
3 256 281 280
3 257 258 282
3 257 282 281
3 258 259 283
3 258 283 282
3 259 260 284
3 259 284 283
3 260 261 285
3 260 285 284
3 261 262 286
3 261 286 285
3 262 263 287
3 262 287 286
3 264 265 289
3 264 289 288
3 265 266 290
3 265 290 289
3 266 267 291
3 266 291 290
3 267 268 292
3 267 292 291
3 268 269 293
3 268 293 292
3 269 270 294
3 269 294 293
3 270 271 295
3 270 295 294
3 271 272 296
3 271 296 295
3 272 273 297
3 272 297 296
3 273 274 298
3 273 298 297
3 274 275 299
3 274 299 298
3 275 276 300
3 275 300 299
3 276 277 301
3 276 301 300
3 277 278 302
3 277 302 301
3 278 279 303
3 278 303 302
3 279 280 304
3 279 304 303
3 280 281 305
3 280 305 304
3 281 282 306
3 281 306 305
3 282 283 307
3 282 307 306
3 283 284 308
3 283 308 307
3 284 285 309
3 284 309 308
3 285 286 310
3 285 310 309
3 286 287 311
3 286 311 310
3 288 289 313
3 288 313 312
3 289 290 314
3 289 314 313
3 290 291 315
3 290 315 314
3 291 292 316
3 291 316 315
3 292 293 317
3 292 317 316
3 293 294 318
3 293 318 317
3 294 295 319
3 294 319 318
3 295 296 320
3 295 320 319
3 296 297 321
3 296 321 320
3 297 298 322
3 297 322 321
3 298 299 323
3 298 323 322
3 299 300 324
3 299 324 323
3 300 301 325
3 300 325 324
3 301 302 326
3 301 326 325
3 302 303 327
3 302 327 326
3 303 304 328
3 303 328 327
3 304 305 329
3 304 329 328
3 305 306 330
3 305 330 329
3 306 307 331
3 306 331 330
3 307 308 332
3 307 332 331
3 308 309 333
3 308 333 332
3 309 310 334
3 309 334 333
3 310 311 335
3 310 335 334
3 312 313 337
3 312 337 336
3 313 314 338
3 313 338 337
3 314 315 339
3 314 339 338
3 315 316 340
3 315 340 339
3 316 317 341
3 316 341 340
3 317 318 342
3 317 342 341
3 318 319 343
3 318 343 342
3 319 320 344
3 319 344 343
3 320 321 345
3 320 345 344
3 321 322 346
3 321 346 345
3 322 323 347
3 322 347 346
3 323 324 348
3 323 348 347
3 324 325 349
3 324 349 348
3 325 326 350
3 325 350 349
3 326 327 351
3 326 351 350
3 327 328 352
3 327 352 351
3 328 329 353
3 328 353 352
3 329 330 354
3 329 354 353
3 330 331 355
3 330 355 354
3 331 332 356
3 331 356 355
3 332 333 357
3 332 357 356
3 333 334 358
3 333 358 357
3 334 335 359
3 334 359 358
3 336 337 361
3 336 361 360
3 337 338 362
3 337 362 361
3 338 339 363
3 338 363 362
3 339 340 364
3 339 364 363
3 340 341 365
3 340 365 364
3 341 342 366
3 341 366 365
3 342 343 367
3 342 367 366
3 343 344 368
3 343 368 367
3 344 345 369
3 344 369 368
3 345 346 370
3 345 370 369
3 346 347 371
3 346 371 370
3 347 348 372
3 347 372 371
3 348 349 373
3 348 373 372
3 349 350 374
3 349 374 373
3 350 351 375
3 350 375 374
3 351 352 376
3 351 376 375
3 352 353 377
3 352 377 376
3 353 354 378
3 353 378 377
3 354 355 379
3 354 379 378
3 355 356 380
3 355 380 379
3 356 357 381
3 356 381 380
3 357 358 382
3 357 382 381
3 358 359 383
3 358 383 382
3 360 361 385
3 360 385 384
3 361 362 386
3 361 386 385
3 362 363 387
3 362 387 386
3 363 364 388
3 363 388 387
3 364 365 389
3 364 389 388
3 365 366 390
3 365 390 389
3 366 367 391
3 366 391 390
3 367 368 392
3 367 392 391
3 368 369 393
3 368 393 392
3 369 370 394
3 369 394 393
3 370 371 395
3 370 395 394
3 371 372 396
3 371 396 395
3 372 373 397
3 372 397 396
3 373 374 398
3 373 398 397
3 374 375 399
3 374 399 398
3 375 376 400
3 375 400 399
3 376 377 401
3 376 401 400
3 377 378 402
3 377 402 401
3 378 379 403
3 378 403 402
3 379 380 404
3 379 404 403
3 380 381 405
3 380 405 404
3 381 382 406
3 381 406 405
3 382 383 407
3 382 407 406
3 384 385 409
3 384 409 408
3 385 386 410
3 385 410 409
3 386 387 411
3 386 411 410
3 387 388 412
3 387 412 411
3 388 389 413
3 388 413 412
3 389 390 414
3 389 414 413
3 390 391 415
3 390 415 414
3 391 392 416
3 391 416 415
3 392 393 417
3 392 417 416
3 393 394 418
3 393 418 417
3 394 395 419
3 394 419 418
3 395 396 420
3 395 420 419
3 396 397 421
3 396 421 420
3 397 398 422
3 397 422 421
3 398 399 423
3 398 423 422
3 399 400 424
3 399 424 423
3 400 401 425
3 400 425 424
3 401 402 426
3 401 426 425
3 402 403 427
3 402 427 426
3 403 404 428
3 403 428 427
3 404 405 429
3 404 429 428
3 405 406 430
3 405 430 429
3 406 407 431
3 406 431 430
3 408 409 433
3 408 433 432
3 409 410 434
3 409 434 433
3 410 411 435
3 410 435 434
3 411 412 436
3 411 436 435
3 412 413 437
3 412 437 436
3 413 414 438
3 413 438 437
3 414 415 439
3 414 439 438
3 415 416 440
3 415 440 439
3 416 417 441
3 416 441 440
3 417 418 442
3 417 442 441
3 418 419 443
3 418 443 442
3 419 420 444
3 419 444 443
3 420 421 445
3 420 445 444
3 421 422 446
3 421 446 445
3 422 423 447
3 422 447 446
3 423 424 448
3 423 448 447
3 424 425 449
3 424 449 448
3 425 426 450
3 425 450 449
3 426 427 451
3 426 451 450
3 427 428 452
3 427 452 451
3 428 429 453
3 428 453 452
3 429 430 454
3 429 454 453
3 430 431 455
3 430 455 454
3 432 433 457
3 432 457 456
3 433 434 458
3 433 458 457
3 434 435 459
3 434 459 458
3 435 436 460
3 435 460 459
3 436 437 461
3 436 461 460
3 437 438 462
3 437 462 461
3 438 439 463
3 438 463 462
3 439 440 464
3 439 464 463
3 440 441 465
3 440 465 464
3 441 442 466
3 441 466 465
3 442 443 467
3 442 467 466
3 443 444 468
3 443 468 467
3 444 445 469
3 444 469 468
3 445 446 470
3 445 470 469
3 446 447 471
3 446 471 470
3 447 448 472
3 447 472 471
3 448 449 473
3 448 473 472
3 449 450 474
3 449 474 473
3 450 451 475
3 450 475 474
3 451 452 476
3 451 476 475
3 452 453 477
3 452 477 476
3 453 454 478
3 453 478 477
3 454 455 479
3 454 479 478
3 456 457 481
3 456 481 480
3 457 458 482
3 457 482 481
3 458 459 483
3 458 483 482
3 459 460 484
3 459 484 483
3 460 461 485
3 460 485 484
3 461 462 486
3 461 486 485
3 462 463 487
3 462 487 486
3 463 464 488
3 463 488 487
3 464 465 489
3 464 489 488
3 465 466 490
3 465 490 489
3 466 467 491
3 466 491 490
3 467 468 492
3 467 492 491
3 468 469 493
3 468 493 492
3 469 470 494
3 469 494 493
3 470 471 495
3 470 495 494
3 471 472 496
3 471 496 495
3 472 473 497
3 472 497 496
3 473 474 498
3 473 498 497
3 474 475 499
3 474 499 498
3 475 476 500
3 475 500 499
3 476 477 501
3 476 501 500
3 477 478 502
3 477 502 501
3 478 479 503
3 478 503 502
3 480 481 505
3 480 505 504
3 481 482 506
3 481 506 505
3 482 483 507
3 482 507 506
3 483 484 508
3 483 508 507
3 484 485 509
3 484 509 508
3 485 486 510
3 485 510 509
3 486 487 511
3 486 511 510
3 487 488 512
3 487 512 511
3 488 489 513
3 488 513 512
3 489 490 514
3 489 514 513
3 490 491 515
3 490 515 514
3 491 492 516
3 491 516 515
3 492 493 517
3 492 517 516
3 493 494 518
3 493 518 517
3 494 495 519
3 494 519 518
3 495 496 520
3 495 520 519
3 496 497 521
3 496 521 520
3 497 498 522
3 497 522 521
3 498 499 523
3 498 523 522
3 499 500 524
3 499 524 523
3 500 501 525
3 500 525 524
3 501 502 526
3 501 526 525
3 502 503 527
3 502 527 526
3 504 505 529
3 504 529 528
3 505 506 530
3 505 530 529
3 506 507 531
3 506 531 530
3 507 508 532
3 507 532 531
3 508 509 533
3 508 533 532
3 509 510 534
3 509 534 533
3 510 511 535
3 510 535 534
3 511 512 536
3 511 536 535
3 512 513 537
3 512 537 536
3 513 514 538
3 513 538 537
3 514 515 539
3 514 539 538
3 515 516 540
3 515 540 539
3 516 517 541
3 516 541 540
3 517 518 542
3 517 542 541
3 518 519 543
3 518 543 542
3 519 520 544
3 519 544 543
3 520 521 545
3 520 545 544
3 521 522 546
3 521 546 545
3 522 523 547
3 522 547 546
3 523 524 548
3 523 548 547
3 524 525 549
3 524 549 548
3 525 526 550
3 525 550 549
3 526 527 551
3 526 551 550
3 528 529 553
3 528 553 552
3 529 530 554
3 529 554 553
3 530 531 555
3 530 555 554
3 531 532 556
3 531 556 555
3 532 533 557
3 532 557 556
3 533 534 558
3 533 558 557
3 534 535 559
3 534 559 558
3 535 536 560
3 535 560 559
3 536 537 561
3 536 561 560
3 537 538 562
3 537 562 561
3 538 539 563
3 538 563 562
3 539 540 564
3 539 564 563
3 540 541 565
3 540 565 564
3 541 542 566
3 541 566 565
3 542 543 567
3 542 567 566
3 543 544 568
3 543 568 567
3 544 545 569
3 544 569 568
3 545 546 570
3 545 570 569
3 546 547 571
3 546 571 570
3 547 548 572
3 547 572 571
3 548 549 573
3 548 573 572
3 549 550 574
3 549 574 573
3 550 551 575
3 550 575 574
