ply
format ascii 1.0
comment VisionMCP reconstruction mesh
element vertex 912
property float x
property float y
property float z
element face 1567
property list uchar int vertex_indices
end_header
-0.124906446 -0.01 -0.0245
-0.12 -0.0149064445 -0.0245
-0.12 -0.01 -0.0294064469
-0.124889565 -0.01 -0.0145
-0.12 -0.0148895645 -0.0145
-0.124781798 -0.01 -0.0045
-0.12 -0.0147817993 -0.0045
-0.12 -0.01 0.000297830582
-0.124912186 0 -0.0245
-0.12 0 -0.0294121857
-0.124777254 0 -0.0145
-0.124794866 0 -0.0045
-0.12 0.00477725029 -0.0145
-0.12 0.01 -0.00945241165
-0.124952412 0.01 -0.0045
-0.12 0.01 0.000452411652
-0.12 0.0149524117 -0.0045
-0.111127784 -0.04 0.0055
-0.11 -0.0442591691 0.0055
-0.11 -0.04 0.0041765337
-0.11 -0.04 0.00694467354
-0.113781488 -0.03 -0.0245
-0.11 -0.0337814856 -0.0245
-0.11 -0.03 -0.0282814879
-0.113902063 -0.03 -0.0145
-0.11 -0.0339020634 -0.0145
-0.11 -0.03 -0.00869760704
-0.111606669 -0.03 0.0055
-0.11 -0.03 0.00260698128
-0.11 -0.03 0.00761258411
-0.113112488 -0.02 -0.0245
-0.11 -0.02 -0.0276124878
-0.113189831 -0.02 -0.0145
-0.11 -0.02 -0.0101082058
-0.110652311 -0.02 0.0055
-0.11 -0.02 0.00447109509
-0.11 -0.02 0.00635369587
-0.11 -0.01 -0.0291156693
-0.11 -0.01 -0.00731855106
-0.1126701 -0.01 -0.0045
-0.11 -0.01 0.003740242
-0.110669439 -0.01 0.0055
-0.11 -0.01 0.00637614536
-0.11 0 -0.0290828176
-0.111972132 0 -0.0045
-0.11 0 -0.00663510513
-0.12 0 0.000294864655
-0.11 0 0.0030756216
-0.110675302 0 0.0055
-0.11 0 0.00639539051
-0.113128474 0.01 -0.0245
-0.12 0.00491218567 -0.0245
-0.11 0.01 -0.0276284738
-0.112759206 0.01 -0.0045
-0.11 0.00454623222 -0.0145
-0.11 0.01 0.00338516521
-0.110911369 0.01 0.0055
-0.11 0.01 0.00669980335
-0.113349793 0.02 -0.0245
-0.11 0.02 -0.027849793
-0.11 0.016522541 -0.0145
-0.11 0.01 -0.0213715239
-0.113477457 0.02 -0.0145
-0.11 0.02 -0.00953484726
-0.110990763 0.02 0.0055
-0.11 0.02 0.00383106041
-0.11 0.02 0.00680941391
-0.11 0.023477459 -0.0145
-0.111448054 0.03 0.0055
-0.11 0.03 0.00382079887
-0.11 0.03 0.00732962418
-0.114138939 0.04 0.0055
-0.11 0.04 0.00136105824
-0.1 -0.0493404579 0.0055
-0.1 -0.04 0.0024608736
-0.1 -0.04 0.00870002079
-0.1 -0.0338439941 -0.0245
-0.1 -0.03 -0.0283439941
-0.101833334 -0.03 -0.0145
-0.1 -0.03 -0.0163702555
-0.1 -0.03 0.000705841064
-0.1 -0.03 0.00866454411
-0.1 -0.02 -0.0271830482
-0.10234843 -0.02 -0.0145
-0.1 -0.02 -0.0173163385
-0.1 -0.02 0.00169138718
-0.1 -0.02 0.00794532108
-0.1 -0.01 -0.0287287612
-0.101739166 -0.01 -0.0145
-0.1 -0.01 -0.0164638395
-0.1 -0.01 -0.000414049149
-0.1 -0.01 0.00815298367
-0.1 0 -0.0287183828
-0.1 -0.000648350716 -0.0145
-0.1 0 -0.0135895891
-0.1 0 -0.000260159492
-0.1 0 0.00822025108
-0.1 0.01 -0.0270911975
-0.1 0.01 -0.0174410839
-0.1 0.000785045624 -0.0145
-0.1 0.01 0.00165494251
-0.1 0.01 0.00828974056
-0.1 0.02 -0.0279096098
-0.102053277 0.02 -0.0145
-0.1 0.02 -0.016602747
-0.1 0.02 0.00130664158
-0.1 0.02 0.00834334183
-0.1 0.023409605 -0.0245
-0.11 0.0233497906 -0.0245
-0.1 0.03 0.00256771374
-0.1 0.03 0.00863667774
-0.1 0.04 0.0028862648
-0.11 0.04 0.00963894176
-0.1 0.04 0.00830275822
-0.09475173 -0.07 -0.0045
-0.09 -0.0747517282 -0.0045
-0.09 -0.07 -0.00925172997
-0.0949096727 -0.06 -0.0245
-0.09 -0.0649096704 -0.0245
-0.09 -0.06 -0.0294096704
-0.094652586 -0.06 -0.0145
-0.09 -0.0646525872 -0.0145
-0.0943498135 -0.06 -0.0045
-0.0947619772 -0.05 -0.0345
-0.09 -0.0547619748 -0.0345
-0.09 -0.05 -0.0392619748
-0.0945114946 -0.05 -0.0245
-0.0949917364 -0.05 -0.0145
-0.09 -0.05 -0.00722755146
-0.09 -0.0532685637 -0.0045
-0.09 -0.06 -0.000150186539
-0.0943226433 -0.04 -0.0345
-0.09 -0.04 -0.0388226433
-0.0935405254 -0.04 -0.0245
-0.09 -0.04 -0.0176053925
-0.09 -0.0419852042 -0.0145
-0.09 -0.0447554326 0.0055
-0.09 -0.04 0.00262417126
-0.09 -0.04 0.00721090603
-0.0945249033 -0.03 -0.0345
-0.09 -0.03 -0.0390249057
-0.0947169399 -0.03 -0.0145
-0.09 -0.0334189939 -0.0145
-0.094030757 -0.03 -0.0045
-0.09 -0.0336843204 -0.0045
-0.09 -0.03 0.00959026623
-0.0946597099 -0.02 -0.0345
-0.09 -0.02 -0.0391597123
-0.0963515759 -0.02 -0.0145
-0.0952930975 -0.02 -0.0045
-0.09 -0.02 0.0100864296
-0.0948977423 -0.01 -0.0345
-0.09 -0.01 -0.0393977423
-0.0969482613 -0.01 -0.0145
-0.0978671789 -0.01 -0.0045
-0.09 -0.01 0.0102320414
-0.0949517727 0 -0.0345
-0.09 0 -0.0394517703
-0.0976819372 0 -0.0045
-0.09 0 0.0102066259
-0.0947350025 0.01 -0.0345
-0.09 0.01 -0.0392350025
-0.0963909769 0.01 -0.0145
-0.0952380323 0.01 -0.0045
-0.09 0.01 0.0100440292
-0.0945602179 0.02 -0.0345
-0.09 0.02 -0.0390602179
-0.0948602104 0.02 -0.0145
-0.0940654421 0.02 -0.0045
-0.09 0.02 0.00936642456
-0.0936093712 0.03 -0.0245
-0.09 0.0245602131 -0.0345
-0.09 0.03 -0.0281093712
-0.09 0.03 -0.0172630377
-0.09 0.0237658978 -0.0145
-0.09 0.0236378765 -0.0045
-0.09 0.03 0.0048211174
-0.09 0.03 0.00586888123
-0.0947352934 0.04 -0.0345
-0.09 0.0352647114 -0.0345
-0.09 0.04 -0.039235291
-0.0945078516 0.04 -0.0245
-0.09 0.04 0.00481501389
-0.09 0.04 0.00572242069
-0.09 0.05 -0.0192964573
-0.0947964573 0.05 -0.0145
-0.09 0.0452035427 -0.0145
-0.09 0.0445078564 -0.0245
-0.09 0.04 -0.0199921484
-0.0945316696 0.05 -0.0045
-0.09 0.0421846294 -0.0045
-0.09 0.0547964573 -0.0145
-0.09 0.06 -0.00939898205
-0.094898982 0.06 -0.0045
-0.08 -0.05 -0.0279183002
-0.0852380228 -0.05 -0.0345
-0.08 -0.0534183002 -0.0245
-0.0850903273 -0.06 -0.0245
-0.085347414 -0.06 -0.0145
-0.08 -0.053447001 -0.0145
-0.08 -0.05 -0.00980671597
-0.0856501865 -0.06 -0.0045
-0.08 -0.04 -0.0278076692
-0.0856773567 -0.04 -0.0345
-0.08 -0.04 -0.0165394373
-0.08 -0.041940155 -0.0145
-0.08 -0.0430802512 0.0055
-0.08 -0.04 0.00345902252
-0.08 -0.04 0.00678213882
-0.08 -0.03 -0.0275334902
-0.0854750967 -0.03 -0.0345
-0.08 -0.03658319 -0.0145
-0.08 -0.034826436 -0.0045
-0.08 -0.03 0.0101591663
-0.08 -0.02 -0.0276975245
-0.0853402901 -0.02 -0.0345
-0.08 -0.02 0.010773304
-0.08 -0.0142203522 -0.0345
-0.08 -0.01 -0.0387203522
-0.08 -0.01 0.0109154158
-0.08 -0.00577964783 -0.0345
-0.08 0 -0.028397388
-0.0850482273 0 -0.0345
-0.08 0 0.0109038525
-0.08 0.01 -0.0277042599
-0.0852649975 0.01 -0.0345
-0.08 0.01 0.0107991438
-0.08 0.02 -0.027510807
-0.0854397821 0.02 -0.0345
-0.08 0.02 0.0102329044
-0.08 0.03 -0.0278377099
-0.08 0.03 -0.0169970293
-0.08 0.0259383488 -0.0145
-0.08 0.0248395634 -0.0045
-0.08 0.03 0.00317900944
-0.08 0.03 0.00691271591
-0.08 0.04 -0.027893302
-0.0852647066 0.04 -0.0345
-0.08 0.0324568844 -0.0145
-0.0833857918 0.04 -0.0145
-0.08 0.04 -0.00984935474
-0.08 0.0352847767 0.0055
-0.0881310177 0.04 0.0055
-0.0747179317 -0.05 -0.0345
-0.07 -0.0547179341 -0.0345
-0.07 -0.05 -0.0392179341
-0.07 -0.0547492385 -0.0245
-0.07 -0.0548212123 -0.0145
-0.07 -0.05 -0.00793742847
-0.0748648548 -0.04 -0.0345
-0.07 -0.04 -0.0393648548
-0.07 -0.04 -0.0152206059
-0.07 -0.0406814933 -0.0145
-0.07 -0.0459882998 0.0055
-0.07 -0.04 0.00317869473
-0.07 -0.04 0.00676891613
-0.0748636341 -0.03 -0.0345
-0.07 -0.03 -0.0393636365
-0.07 -0.0383307743 -0.0145
-0.07 -0.0360120296 -0.0045
-0.07 -0.03 0.0106617479
-0.0748872232 -0.02 -0.0345
-0.07 -0.02 -0.0393872232
-0.07 -0.02 0.0110535793
-0.07 -0.01 -0.0392655702
-0.07 -0.01 0.0112640171
-0.0749161005 0 -0.0345
-0.07 0 -0.0394161005
-0.07 0 0.0112563877
-0.0747945166 0.01 -0.0345
-0.07 0.01 -0.0392945166
-0.07 0.01 0.0112167053
-0.074831171 0.02 -0.0345
-0.07 0.02 -0.0393311687
-0.07 0.02 0.0106787996
-0.0747756863 0.03 -0.0345
-0.07 0.03 -0.0392756863
-0.07 0.03 -0.0151944799
-0.07 0.0283674049 -0.0145
-0.07 0.026044569 -0.0045
-0.07 0.03 0.00243520546
-0.07 0.03 0.00714158344
-0.0746933079 0.04 -0.0345
-0.07 0.04 -0.0391933079
-0.07 0.0306816673 -0.0145
-0.07 0.04 -0.00831258011
-0.07 0.0353687572 0.0055
-0.0651787901 -0.05 -0.0145
-0.0653284121 -0.04 -0.0245
-0.0652507591 -0.05 -0.0245
-0.06 -0.0446999788 0.0055
-0.06 -0.04 0.00317701149
-0.06 -0.04 0.00768426228
-0.06 -0.03 -0.0278481574
-0.06 -0.033348155 -0.0245
-0.0651363659 -0.03 -0.0345
-0.0651351452 -0.04 -0.0345
-0.06 -0.0335336065 -0.0145
-0.06 -0.0332155895 -0.0045
-0.06 -0.03 0.0108765821
-0.06 -0.02 -0.0280373092
-0.0651127768 -0.02 -0.0345
-0.06 -0.02 0.0114420109
-0.06 -0.01 -0.0291526027
-0.0652344275 -0.01 -0.0345
-0.06 -0.01 0.011482151
-0.06 0 -0.029141571
-0.0650838995 0 -0.0345
-0.06 0 0.0115941219
-0.06 0.00530021667 -0.0345
-0.06 0.01 -0.0391997881
-0.06 0.01 0.0113545923
-0.06 0.0146997833 -0.0345
-0.06 0.02 -0.0273093481
-0.065168829 0.02 -0.0345
-0.06 0.02 0.0110691862
-0.0653083467 0.03 -0.0245
-0.06 0.0228093433 -0.0245
-0.06 0.0236120796 -0.0145
-0.06 0.0233094406 -0.0045
-0.06 0.03 0.00364278603
-0.06 0.03 0.00720599937
-0.0652584934 0.04 -0.0145
-0.06 0.0357433605 0.0055
-0.05 -0.0477189136 0.0055
-0.05 -0.04 0.00308524895
-0.05 -0.04 0.00774011898
-0.05 -0.0334981966 -0.0245
-0.05 -0.03 -0.027998199
-0.05 -0.0343807077 -0.0145
-0.05 -0.0337438869 -0.0045
-0.05 -0.03 0.0111481552
-0.05 -0.02 -0.0281325765
-0.05 -0.02 0.0116320925
-0.0546874237 -0.01 -0.0345
-0.05 -0.0146874285 -0.0345
-0.05 -0.01 -0.0391874285
-0.05 -0.01 0.0117770557
-0.05 -0.00531257153 -0.0345
-0.05 0 -0.0292504234
-0.05 0 0.011739357
-0.05 0.00516318321 -0.0345
-0.05 0.01 -0.0393368192
-0.05 0.01 0.0116528444
-0.05 0.0148368168 -0.0345
-0.05 0.02 -0.0278135915
-0.05 0.02 0.0110141592
-0.05 0.0241510296 -0.0145
-0.05 0.0233135891 -0.0245
-0.05 0.0237229919 -0.0045
-0.05 0.03 0.00303948689
-0.05 0.03 0.00781783867
-0.05 0.0371947384 0.0055
-0.04 -0.0491261744 0.0055
-0.04 -0.04 0.00251043129
-0.04 -0.04 0.0083219223
-0.04 -0.033229413 -0.0245
-0.04 -0.03 -0.027729413
-0.04 -0.0345012617 -0.0145
-0.04 -0.0341349936 -0.0045
-0.04 -0.03 0.0113740854
-0.04 -0.02 -0.0282658477
-0.04 -0.02 0.0118892746
-0.04 -0.014811759 -0.0345
-0.04 -0.01 -0.039311759
-0.04 -0.01 0.0120778065
-0.04 -0.005188241 -0.0345
-0.04 0 -0.0293252225
-0.04 0 0.0119870262
-0.04 0.00506354332 -0.0345
-0.04 0.01 -0.0394364567
-0.04 0.01 0.0118185167
-0.04 0.0149364567 -0.0345
-0.04 0.02 -0.0279287596
-0.04 0.02 0.0113119202
-0.04 0.0244340992 -0.0145
-0.04 0.0234287643 -0.0245
-0.04 0.0240774155 -0.0045
-0.04 0.03 0.00260902214
-0.04 0.03 0.00812738228
-0.04 0.0394494915 0.0055
-0.0350453568 -0.05 0.0055
-0.03 -0.0501666403 0.0055
-0.03 -0.05 0.00527087498
-0.03 -0.05 0.00573840427
-0.03 -0.04 0.00229771423
-0.03 -0.04 0.00851628113
-0.03 -0.0331015301 -0.0245
-0.03 -0.03 -0.0276015301
-0.03 -0.0350993681 -0.0145
-0.03 -0.0342681456 -0.0045
-0.03 -0.03 0.0115428858
-0.03 -0.02 -0.0283649297
-0.03 -0.02 0.0120072584
-0.03 -0.0148939848 -0.0345
-0.03 -0.01 -0.0393939848
-0.03 -0.01 0.0120332079
-0.03 -0.00510601521 -0.0345
-0.03 0 -0.0293282599
-0.03 0 0.0120272903
-0.03 0.01 -0.0281464739
-0.0350635433 0.01 -0.0345
-0.03 0.01 0.0119587545
-0.03 0.02 -0.0276058931
-0.03 0.02 0.0116036301
-0.03 0.024902668 -0.0145
-0.03 0.0231058979 -0.0245
-0.03 0.0244541359 -0.0045
-0.03 0.03 0.00245881367
-0.03 0.03 0.00830043602
-0.03 0.0396221733 0.0055
-0.02 -0.0501319551 0.0055
-0.02 -0.05 0.00531379032
-0.02 -0.05 0.00569234657
-0.02 -0.04 0.00221210766
-0.02 -0.04 0.00850799847
-0.02 -0.0334432745 -0.0245
-0.02 -0.03 -0.0279432745
-0.02 -0.0351544809 -0.0145
-0.02 -0.0346392536 -0.0045
-0.02 -0.03 0.0115841417
-0.02 -0.02 -0.0284030218
-0.02 -0.02 0.0121196871
-0.02 -0.014969039 -0.0345
-0.02 -0.01 -0.039469039
-0.02 -0.01 0.0122156363
-0.0249472523 0 -0.0345
-0.02 0 -0.0394472499
-0.02 0 0.0121890955
-0.0249763584 0.01 -0.0345
-0.02 0.01 -0.0394763608
-0.02 0.01 0.0121103315
-0.02 0.0149763584 -0.0345
-0.02 0.02 -0.0280243559
-0.02 0.02 0.011527832
-0.02 0.0250784111 -0.0145
-0.02 0.0235243511 -0.0245
-0.02 0.0244481945 -0.0045
-0.02 0.03 0.00221268463
-0.02 0.03 0.00860350418
-0.0278621101 0.04 0.0055
-0.02 0.04 0.0051720171
-0.02 0.04 0.00584117222
-0.02 0.0402312946 0.0055
-0.01 -0.0502885056 0.0055
-0.01 -0.05 0.00508297253
-0.01 -0.05 0.00593287277
-0.01 -0.04 0.00205326366
-0.01 -0.04 0.00867263603
-0.01 -0.0335319471 -0.0245
-0.01 -0.03 -0.0280319448
-0.01 -0.0350306892 -0.0145
-0.01 -0.0346174097 -0.0045
-0.01 -0.03 0.011637619
-0.01 -0.02 -0.0284298248
-0.01 -0.02 0.0122065954
-0.01 -0.01 -0.0293745131
-0.0150309563 -0.01 -0.0345
-0.01 -0.01 0.0121435385
-0.01 0 -0.0293658562
-0.0150527477 0 -0.0345
-0.01 0 0.0122323112
-0.01 0.01 -0.028206665
-0.0150236416 0.01 -0.0345
-0.01 0.01 0.0121127062
-0.01 0.02 -0.0276258798
-0.01 0.02 0.0115581303
-0.01 0.0252998543 -0.0145
-0.01 0.0231258774 -0.0245
-0.01 0.0244350243 -0.0045
-0.01 0.03 0.00195185947
-0.01 0.03 0.00887064743
-0.01 0.04 0.00504031944
-0.01 0.04 0.00597402382
-0.01 0.04031353 0.0055
0 -0.0501802015 0.0055
0 -0.05 0.00523462582
0 -0.05 0.00577283669
0 -0.04 0.00213977146
0 -0.04 0.00866723347
0 -0.0336001682 -0.0245
0 -0.03 -0.0281001682
0 -0.0351752853 -0.0145
0 -0.0345994329 -0.0045
0 -0.03 0.0116832762
0 -0.02 -0.0282182331
0 -0.02 0.0121915655
0 -0.01 -0.0293454595
0 -0.01 0.012112668
0 0 -0.0293231721
0 0 0.0121989708
0 0.01 -0.0284335394
0 0.01 0.0121714954
0 0.02 -0.0276421781
0 0.02 0.0117487745
0 0.0250881195 -0.0145
0 0.0231421757 -0.0245
0 0.0244784069 -0.0045
0 0.03 0.00214260387
0 0.03 0.00863398361
0 0.04 0.00516823101
0 0.04 0.0058412056
0 0.0405993557 0.0055
0.01 -0.050214808 0.0055
0.01 -0.05 0.00518687534
0.01 -0.05 0.00582783508
0.01 -0.04 0.00217741299
0.01 -0.04 0.0086770277
0.01 -0.0332589483 -0.0245
0.01 -0.03 -0.0277589507
0.01 -0.0351618195 -0.0145
0.01 -0.03449965 -0.0045
0.01 -0.03 0.0114532738
0.01 -0.02 -0.0281903882
0.01 -0.02 0.0120817165
0.01 -0.01 -0.0293267698
0.01 -0.01 0.0121918135
0.01 0 -0.0293649406
0.01 0 0.0123239307
0.01 0.01 -0.0284186668
0.01 0.01 0.0121613388
0.01 0.02 -0.0275384278
0.01 0.02 0.0114790707
0.01 0.0250735855 -0.0145
0.01 0.0230384254 -0.0245
0.01 0.0244791317 -0.0045
0.01 0.03 0.00208245564
0.01 0.03 0.00862687397
0.01 0.04 0.00545506287
0.01 0.04 0.00554675388
0.01 0.0400306034 0.0055
0.0199015331 -0.05 0.0055
0.02 -0.0499877143 0.0055
0.02 -0.04 0.00227097321
0.02 -0.04 0.00846312809
0.02 -0.0334374428 -0.0245
0.02 -0.03 -0.0279374404
0.02 -0.0349534178 -0.0145
0.02 -0.0344127607 -0.0045
0.02 -0.03 0.0115234785
0.02 -0.02 -0.0281311936
0.02 -0.02 0.0120383816
0.02 -0.01 -0.0292701192
0.02 -0.01 0.0120744686
0.02 0 -0.0293202157
0.02 0 0.012072237
0.02 0.01 -0.0283806129
0.02 0.01 0.0119224386
0.02 0.02 -0.0278862281
0.02 0.02 0.011476634
0.02 0.0248724842 -0.0145
0.02 0.0233862305 -0.0245
0.02 0.0243439865 -0.0045
0.02 0.03 0.00224372196
0.02 0.03 0.00841082859
0.02 0.04 0.00529285717
0.02 0.04 0.00571190166
0.02 0.040143261 0.0055
0.03 -0.0493753648 0.0055
0.03 -0.04 0.00254598904
0.03 -0.04 0.00822734165
0.03 -0.0332524729 -0.0245
0.03 -0.03 -0.0277524753
0.03 -0.0346131659 -0.0145
0.03 -0.0341831446 -0.0045
0.03 -0.03 0.0113269501
0.03 -0.02 -0.0282968183
0.03 -0.02 0.0118845491
0.0250041389 -0.01 -0.0345
0.03 -0.0149958706 -0.0345
0.03 -0.01 -0.0394958706
0.03 -0.01 0.0119761782
0.03 -0.00500412941 -0.0345
0.03 0 -0.0292802114
0.03 0 0.0119768744
0.03 0.01 -0.0282489343
0.03 0.01 0.0118119888
0.03 0.02 -0.0276994557
0.03 0.02 0.0112945347
0.03 0.0245143795 -0.0145
0.03 0.0231994534 -0.0245
0.03 0.0241866207 -0.0045
0.03 0.03 0.00252404976
0.03 0.03 0.00823277283
0.03 0.0384811115 0.0055
0.0233994484 0.04 0.0055
0.04 -0.0481721044 0.0055
0.04 -0.04 0.00280874062
0.04 -0.04 0.0080625515
0.04 -0.0330414295 -0.0245
0.04 -0.03 -0.0275414295
0.04 -0.034099803 -0.0145
0.04 -0.0337858105 -0.0045
0.04 -0.03 0.0112032347
0.0351455498 -0.02 -0.0345
0.04 -0.0248544598 -0.0345
0.04 -0.02 -0.0393544598
0.04 -0.02 0.0116904478
0.04 -0.01 -0.0292675562
0.04 -0.0151455402 -0.0345
0.0349958611 -0.01 -0.0345
0.04 -0.01 0.0117760735
0.04 0 -0.0393841619
0.0351158333 0 -0.0345
0.04 -0.00488416195 -0.0345
0.04 0 0.0118461494
0.04 0.00488416672 -0.0345
0.04 0.01 -0.0281442637
0.04 0.01 0.0116585379
0.04 0.02 -0.0276602025
0.04 0.02 0.0111158781
0.04 0.0242600155 -0.0145
0.04 0.0231602001 -0.0245
0.04 0.0236570168 -0.0045
0.04 0.03 0.00294118214
0.04 0.03 0.00779119301
0.04 0.0356588936 0.0055
0.05 -0.0461872935 0.0055
0.05 -0.04 0.00331814098
0.05 -0.04 0.00754133034
0.05 -0.0329569674 -0.0245
0.05 -0.03 -0.0274569674
0.05 -0.0336335135 -0.0145
0.05 -0.0332554102 -0.0045
0.05 -0.03 0.011005023
0.05 -0.0247333479 -0.0345
0.05 -0.02 -0.0392333455
0.05 -0.02 0.0114823751
0.0450815392 -0.01 -0.0345
0.05 -0.01 -0.0394184608
0.05 -0.01 0.0115207176
0.05 0 -0.0392958231
0.05 0 0.0116444092
0.05 0.00479581833 -0.0345
0.05 0.01 -0.0280215807
0.05 0.01 0.0114433889
0.05 0.02 -0.0274571676
0.05 0.02 0.010931428
0.05 0.0236405849 -0.0145
0.05 0.0229571724 -0.0245
0.05 0.023372736 -0.0045
0.05 0.03 0.00349427509
0.05 0.03 0.0073372345
0.05 0.0342290211 0.0055
0.055338707 -0.05 -0.0345
0.06 -0.0546612835 -0.0345
0.06 -0.05 -0.0391612835
0.0553207016 -0.05 -0.0245
0.06 -0.0546793079 -0.0245
0.0552604675 -0.05 -0.0145
0.06 -0.0547395301 -0.0145
0.06 -0.05 -0.00833475304
0.0553442383 -0.04 -0.0345
0.06 -0.04 -0.0391557546
0.0553245735 -0.04 -0.0245
0.06 -0.04 -0.0157076664
0.06 -0.041180613 -0.0145
0.06 -0.0442571807 0.0055
0.06 -0.04 0.00266878414
0.06 -0.04 0.00701569366
0.0553355217 -0.03 -0.0345
0.06 -0.03 -0.0391644711
0.06 -0.0376775122 -0.0145
0.06 -0.0363278151 -0.0045
0.06 -0.03 0.0106191139
0.06 -0.02 -0.0392044706
0.06 -0.02 0.0112067537
0.06 -0.01 -0.0392428823
0.06 -0.01 0.0112254696
0.06 0 -0.0392343159
0.06 0 0.0112336855
0.0552698517 0.01 -0.0345
0.06 0.01 -0.0392301507
0.06 0.01 0.0111367874
0.0553466225 0.02 -0.0345
0.06 0.02 -0.0391533775
0.06 0.02 0.010480998
0.0553561211 0.03 -0.0345
0.06 0.03 -0.0391438861
0.0553311539 0.03 -0.0245
0.06 0.03 -0.0159673471
0.06 0.0272001648 -0.0145
0.06 0.0264291191 -0.0045
0.06 0.03 0.00266732979
0.06 0.03 0.00698631096
0.0553758621 0.04 -0.0345
0.06 0.04 -0.0391241355
0.0553530884 0.04 -0.0245
0.06 0.0314480877 -0.0145
0.0552926445 0.04 -0.0145
0.06 0.04 -0.00806670856
0.06 0.0343144131 0.0055
0.07 -0.05 -0.0278959961
0.064661293 -0.05 -0.0345
0.07 -0.0533959961 -0.0245
0.07 -0.0535631156 -0.0145
0.07 -0.05 -0.00966911507
0.07 -0.04 -0.0277366037
0.0646557617 -0.04 -0.0345
0.07 -0.04 -0.0166199512
0.07 -0.0418869162 -0.0145
0.07 -0.0454753304 0.0055
0.07 -0.04 0.00238858986
0.07 -0.04 0.00718362617
0.07 -0.03 -0.0277735586
0.0646644783 -0.03 -0.0345
0.07 -0.0366891861 -0.0145
0.07 -0.0355315447 -0.0045
0.07 -0.03 0.0101872044
0.07 -0.02 -0.0276931424
0.0647044754 -0.02 -0.0345
0.07 -0.02 0.0108604555
0.07 -0.01 -0.0283646555
0.0647428894 -0.01 -0.0345
0.07 -0.01 0.0109356289
0.07 0 -0.0283657355
0.0647343063 0 -0.0345
0.07 0 0.0109402018
0.07 0.01 -0.0276982255
0.0647301483 0.01 -0.0345
0.07 0.01 0.0109108429
0.07 0.02 -0.0276097722
0.0646533775 0.02 -0.0345
0.07 0.02 0.0102363901
0.07 0.03 -0.0276675124
0.0646438789 0.03 -0.0345
0.07 0.03 -0.0170452709
0.07 0.0262351894 -0.0145
0.07 0.0255143261 -0.0045
0.07 0.03 0.00240005302
0.07 0.03 0.00718581486
0.0647073555 0.04 -0.0145
0.07 0.0339983845 0.0055
0.0752098846 -0.07 -0.0145
0.08 -0.0747901231 -0.0145
0.08 -0.07 -0.0192901249
0.0752156639 -0.06 -0.0245
0.08 -0.0647843266 -0.0245
0.08 -0.06 -0.0292843266
0.0755812073 -0.06 -0.0145
0.08 -0.0641047764 -0.0045
0.08 -0.07 -0.00970987511
0.0758952141 -0.06 -0.0045
0.08 -0.05 -0.0288895221
0.08 -0.0527124691 -0.0045
0.08 -0.05 -0.00663804245
0.08 -0.05 0.0036769228
0.0758852005 -0.05 0.0055
0.08 -0.0505462503 0.0055
0.08 -0.06 -0.000395223618
0.08 -0.05 0.0062130146
0.08 -0.04 -0.0279870052
0.08 -0.04 -0.017399971
0.08 -0.0418663859 -0.0145
0.08 -0.04 0.00325641441
0.08 -0.04 0.00666949558
0.08 -0.03 -0.0279280109
0.08 -0.0335802603 -0.0145
0.08 -0.0335460281 -0.0045
0.08 -0.03 0.00950569916
0.08 -0.02 -0.0272880692
0.08 -0.02 0.0100879126
0.0753219604 -0.01 -0.0345
0.08 -0.0146780396 -0.0345
0.08 -0.01 -0.0391780372
0.08 -0.01 0.0101786356
0.08 -0.00532196045 -0.0345
0.08 0 -0.0282280059
0.08 0 0.0103214674
0.08 0.01 -0.0272211332
0.08 0.01 0.0100287323
0.08 0.02 -0.0273688455
0.08 0.02 0.00944683838
0.08 0.03 -0.0273322649
0.08 0.03 -0.0186259956
0.08 0.0228018856 -0.0145
0.08 0.0230812645 -0.0045
0.08 0.03 0.003732584
0.08 0.03 0.0065643959
0.0756048584 0.04 -0.0245
0.07 0.0331675148 -0.0245
0.08 0.04 -0.0288951368
0.08 0.0329379177 -0.0145
0.0759981728 0.04 -0.0145
0.08 0.04 -0.00822127056
0.08 0.0340292168 0.0055
0.0760474968 0.05 -0.0245
0.08 0.05 -0.0284525008
0.0755086136 0.05 -0.0145
0.08 0.0436420059 -0.0045
0.0759160995 0.05 -0.0045
0.0848796463 -0.05 -0.0145
0.0841047859 -0.06 -0.0045
0.0844187927 -0.06 -0.0145
0.09 -0.05 0.00289011288
0.09 -0.0521850109 0.0055
0.09 -0.05 0.00823724079
0.09 -0.04 0.00310065079
0.09 -0.04 0.00814549732
0.0834870148 -0.04 -0.0245
0.09 -0.0338657188 -0.0245
0.09 -0.03 -0.0283657188
0.0840193176 -0.03 -0.0145
0.09 -0.03 -0.0167357893
0.0834653664 -0.03 -0.0045
0.09 -0.03 0.0018858366
0.09 -0.03 0.00827197838
0.09 -0.02 -0.0271695132
0.0859052658 -0.02 -0.0145
0.09 -0.02 -0.0176562901
0.0862417412 -0.02 -0.0045
0.09 -0.02 0.00113226223
0.09 -0.02 0.00798600483
0.09 -0.0145825195 -0.0345
0.09 -0.01 -0.0390825195
0.0894274521 -0.01 -0.0145
0.09 -0.01 -0.0148081179
0.087557373 -0.01 -0.0045
0.09 -0.01 0.000580165863
0.09 -0.01 0.00790311623
0.09 -0.00541748047 -0.0345
0.09 0 -0.028728735
0.0893967056 0 -0.0145
0.09 0 -0.0147869844
0.087452755 0 -0.0045
0.09 0 0.000317214012
0.09 0 0.00799128819
0.09 0.01 -0.0271943374
0.0859061241 0.01 -0.0145
0.09 0.01 -0.0175869627
0.0849796295 0.01 -0.0045
0.09 0.01 0.00234083462
0.09 0.01 0.00773928452
0.09 0.02 -0.0281125946
0.0833478928 0.02 -0.0145
0.09 0.02 -0.0172512741
0.0831087875 0.02 -0.0045
0.09 0.02 0.00204773712
0.09 0.02 0.00832343388
0.09 0.03 0.00270515251
0.09 0.03 0.00858028698
0.0840018272 0.04 -0.0145
0.09 0.0392573833 0.0055
0.1 -0.0545534921 0.0055
0.1 -0.05 0.000946505547
0.1 -0.04 0.003461483
0.1 -0.05 0.0100534945
0.1 -0.04 0.00772522736
0.1 -0.0337711906 -0.0245
0.1 -0.03 -0.0282711906
0.0927199554 -0.03 -0.0145
0.1 -0.0332691956 -0.0145
0.1 -0.03 -0.00963049126
0.1 -0.03 0.00384665775
0.1 -0.03 0.00678231525
0.1 -0.0262288094 -0.0245
0.1 -0.02 -0.0186456652
0.0926695061 -0.02 -0.0245
0.091917057 -0.02 -0.0145
0.1 -0.02 -0.00819410515
0.1 -0.02 0.00498754311
0.1 -0.02 0.00580311584
0.1 -0.01 -0.0291237159
0.0945825195 -0.01 -0.0345
0.1 -0.0146237183 -0.0245
0.0902661133 -0.01 -0.0145
0.1 -0.01 -0.00656205845
0.1 -0.01 0.00393772888
0.1 -0.01 0.00605354595
0.1 0 -0.0288574452
0.0902336693 0 -0.0145
0.1 0 -0.00578415108
0.1 -0.00545702457 0.0055
0.0973546219 0 0.0055
0.1 0.01 -0.0275542803
0.0926595306 0.01 -0.0145
0.1 0.01 -0.0102565975
0.1 0.00669342995 0.0055
0.1 0.01 0.00511287022
0.1 0.01 0.0058334856
0.1 0.02 -0.0280601163
0.0932839012 0.02 -0.0145
0.1 0.02 -0.00994954777
0.1 0.02 0.00394741344
0.1 0.02 0.00672569084
0.1 0.0230508804 -0.0145
0.1 0.03 0.00412816811
0.1 0.03 0.00700078297
0.1 0.0311547279 0.0055
0.10455349 -0.05 0.0055
0.11 -0.0446858048 0.0055
0.11 -0.04 0.00081419754
0.11 -0.03 0.000957553864
0.11 -0.0249290895 -0.0145
0.103771191 -0.03 -0.0245
0.103269196 -0.03 -0.0145
0.11 -0.02 -0.0194290895
0.11 -0.0249884081 -0.0045
0.102941666 -0.02 -0.0045
0.11 -0.0148058224 -0.0245
0.11 -0.01 -0.0293058248
0.102009068 -0.01 -0.0045
0.100219154 -0.02 0.0055
0.11 -0.0145815992 0.0055
0.11 -0.02 0.000488408089
0.11 0 -0.029323966
0.101234226 0 -0.0045
0.100562992 0 0.0055
0.11 0.01 0.000704491615
0.11 0.00486352921 -0.0045
0.11 0.02 0.000914772034
0.11 0.03 0.000947950363
3 2 1 0
3 4 3 0
3 4 0 1
3 6 5 3
3 6 3 4
3 7 5 6
3 2 0 8
3 2 8 9
3 10 0 3
3 8 0 10
3 11 3 5
3 10 3 11
3 14 13 12
3 10 14 12
3 11 14 10
3 16 14 15
3 19 18 17
3 20 17 18
3 23 22 21
3 25 24 21
3 25 21 22
3 26 24 25
3 19 17 27
3 19 27 28
3 17 20 29
3 17 29 27
3 23 21 30
3 23 30 31
3 32 21 24
3 30 21 32
3 24 26 33
3 24 33 32
3 28 27 34
3 28 34 35
3 27 29 36
3 27 36 34
3 31 30 1
3 2 31 1
3 37 31 2
3 1 30 4
3 4 30 32
3 6 4 32
3 38 6 32
3 33 38 32
3 39 6 38
3 39 7 6
3 34 40 35
3 40 34 41
3 34 36 42
3 34 42 41
3 9 37 2
3 9 43 37
3 39 38 44
3 44 38 45
3 44 7 39
3 7 44 46
3 40 41 47
3 48 47 41
3 41 42 49
3 41 49 48
3 9 51 50
3 52 9 50
3 43 9 52
3 53 44 13
3 44 54 13
3 54 12 13
3 44 45 54
3 53 46 44
3 46 53 15
3 47 48 55
3 56 55 48
3 48 49 57
3 48 57 56
3 52 50 58
3 52 58 59
3 50 61 60
3 62 50 60
3 58 50 62
3 13 16 53
3 62 60 63
3 16 15 53
3 65 55 64
3 56 64 55
3 56 57 66
3 56 66 64
3 67 62 63
3 65 64 68
3 65 68 69
3 64 66 70
3 64 70 68
3 69 68 71
3 69 71 72
3 74 73 18
3 74 18 19
3 20 18 73
3 20 73 75
3 77 76 22
3 77 22 23
3 76 79 78
3 25 76 78
3 22 76 25
3 78 26 25
3 28 74 19
3 28 80 74
3 75 29 20
3 81 29 75
3 31 77 23
3 31 82 77
3 78 79 83
3 83 79 84
3 83 33 26
3 83 26 78
3 35 80 28
3 35 85 80
3 81 36 29
3 86 36 81
3 37 82 31
3 37 87 82
3 83 84 88
3 88 84 89
3 88 38 33
3 88 33 83
3 40 85 35
3 40 90 85
3 86 42 36
3 91 42 86
3 43 87 37
3 43 92 87
3 89 93 88
3 38 88 93
3 94 38 93
3 45 38 94
3 47 90 40
3 47 95 90
3 91 49 42
3 96 49 91
3 52 92 43
3 52 97 92
3 99 98 54
3 54 98 61
3 54 45 94
3 54 94 99
3 55 95 47
3 55 100 95
3 96 57 49
3 101 57 96
3 59 97 52
3 59 102 97
3 60 61 103
3 61 104 103
3 61 98 104
3 103 63 60
3 65 100 55
3 65 105 100
3 101 66 57
3 106 66 101
3 67 103 104
3 107 67 104
3 108 67 107
3 103 67 63
3 69 105 65
3 69 109 105
3 106 70 66
3 110 70 106
3 72 109 69
3 72 111 109
3 110 112 70
3 113 112 110
3 116 115 114
3 119 118 117
3 121 120 117
3 121 117 118
3 120 121 116
3 114 120 116
3 122 120 114
3 125 124 123
3 123 124 119
3 117 123 119
3 126 123 117
3 127 117 120
3 126 117 127
3 122 129 128
3 127 122 128
3 120 122 127
3 129 122 130
3 125 123 131
3 125 131 132
3 133 123 126
3 131 123 133
3 127 135 134
3 133 127 134
3 126 127 133
3 135 127 128
3 137 136 73
3 137 73 74
3 75 73 136
3 75 136 138
3 132 131 139
3 132 139 140
3 77 139 76
3 139 133 76
3 139 131 133
3 142 141 79
3 142 79 76
3 134 142 76
3 133 134 76
3 144 143 141
3 144 141 142
3 144 137 143
3 137 80 143
3 137 74 80
3 138 81 75
3 145 81 138
3 140 139 146
3 140 146 147
3 82 146 77
3 77 146 139
3 148 84 141
3 141 84 79
3 149 141 143
3 148 141 149
3 85 149 80
3 80 149 143
3 145 86 81
3 150 86 145
3 147 146 151
3 147 151 152
3 87 151 82
3 82 151 146
3 153 89 148
3 148 89 84
3 154 148 149
3 153 148 154
3 90 154 85
3 85 154 149
3 150 91 86
3 155 91 150
3 152 151 156
3 152 156 157
3 92 156 87
3 87 156 151
3 153 93 89
3 93 153 94
3 153 158 94
3 153 154 158
3 95 158 90
3 90 158 154
3 155 96 91
3 159 96 155
3 157 156 160
3 157 160 161
3 97 160 92
3 92 160 156
3 162 98 99
3 94 158 99
3 158 162 99
3 158 163 162
3 100 163 95
3 95 163 158
3 159 101 96
3 164 101 159
3 161 160 165
3 161 165 166
3 102 165 97
3 97 165 160
3 167 104 162
3 162 104 98
3 168 162 163
3 167 162 168
3 105 168 100
3 100 168 163
3 164 106 101
3 169 106 164
3 172 171 170
3 170 171 107
3 171 165 107
3 165 102 107
3 173 170 107
3 173 107 104
3 174 173 104
3 167 174 104
3 174 167 168
3 174 168 175
3 168 105 175
3 105 176 175
3 105 109 176
3 169 110 106
3 177 110 169
3 180 179 178
3 178 179 172
3 170 178 172
3 181 178 170
3 111 176 109
3 111 182 176
3 177 113 110
3 183 113 177
3 186 185 184
3 188 187 181
3 190 189 185
3 190 185 186
3 193 192 191
3 185 193 191
3 189 193 185
3 195 194 124
3 124 194 119
3 194 196 119
3 196 197 119
3 197 196 198
3 198 196 199
3 200 128 129
3 198 200 129
3 201 198 129
3 199 200 198
3 201 129 130
3 194 195 202
3 202 195 203
3 205 204 135
3 135 204 134
3 135 128 200
3 135 200 205
3 207 206 136
3 207 136 137
3 138 136 206
3 138 206 208
3 202 203 209
3 209 203 210
3 204 211 134
3 134 211 142
3 142 212 144
3 211 212 142
3 137 144 207
3 207 144 212
3 208 145 138
3 213 145 208
3 209 210 214
3 214 210 215
3 213 150 145
3 216 150 213
3 218 217 215
3 147 218 215
3 152 218 147
3 215 217 214
3 216 155 150
3 219 155 216
3 222 221 220
3 219 159 155
3 223 159 219
3 221 222 224
3 224 222 225
3 223 164 159
3 226 164 223
3 224 225 227
3 227 225 228
3 226 169 164
3 229 169 226
3 171 172 228
3 172 227 228
3 172 230 227
3 232 231 174
3 174 231 173
3 233 174 175
3 233 232 174
3 175 176 233
3 233 176 234
3 229 177 169
3 235 177 229
3 237 236 179
3 236 172 179
3 236 230 172
3 239 188 238
3 188 231 238
3 188 173 231
3 240 239 238
3 182 242 241
3 234 182 241
3 176 182 234
3 235 241 242
3 183 235 242
3 177 235 183
3 245 244 243
3 196 194 243
3 244 196 243
3 246 196 244
3 196 247 199
3 246 247 196
3 200 199 247
3 200 247 248
3 245 243 249
3 245 249 250
3 202 249 194
3 194 249 243
3 252 251 205
3 205 251 204
3 205 200 248
3 205 248 252
3 254 253 206
3 254 206 207
3 208 206 253
3 208 253 255
3 250 249 256
3 250 256 257
3 209 256 202
3 202 256 249
3 251 258 204
3 204 258 211
3 211 259 212
3 258 259 211
3 207 212 254
3 254 212 259
3 255 213 208
3 260 213 255
3 257 256 261
3 257 261 262
3 214 261 209
3 209 261 256
3 260 216 213
3 263 216 260
3 262 261 217
3 218 262 217
3 264 262 218
3 217 261 214
3 263 219 216
3 265 219 263
3 218 220 266
3 267 218 266
3 264 218 267
3 221 266 220
3 265 223 219
3 268 223 265
3 267 266 269
3 267 269 270
3 224 269 221
3 221 269 266
3 268 226 223
3 271 226 268
3 270 269 272
3 270 272 273
3 227 272 224
3 224 272 269
3 271 229 226
3 274 229 271
3 273 272 275
3 273 275 276
3 230 275 227
3 227 275 272
3 278 277 232
3 232 277 231
3 279 232 233
3 279 278 232
3 233 234 279
3 279 234 280
3 274 235 229
3 281 235 274
3 276 275 282
3 276 282 283
3 236 282 230
3 230 282 275
3 277 284 231
3 231 284 238
3 240 238 284
3 240 284 285
3 286 280 234
3 286 234 241
3 241 235 281
3 241 281 286
3 287 248 247
3 288 251 252
3 287 288 252
3 289 288 287
3 287 252 248
3 291 290 253
3 291 253 254
3 255 253 290
3 255 290 292
3 294 288 293
3 288 295 293
3 288 296 295
3 288 294 251
3 294 258 251
3 294 297 258
3 258 298 259
3 297 298 258
3 254 259 291
3 291 259 298
3 292 260 255
3 299 260 292
3 293 295 300
3 300 295 301
3 299 263 260
3 302 263 299
3 300 301 303
3 303 301 304
3 302 265 263
3 305 265 302
3 303 304 306
3 306 304 307
3 305 268 265
3 308 268 305
3 310 309 307
3 267 310 307
3 270 310 267
3 307 309 306
3 308 271 268
3 311 271 308
3 314 313 312
3 311 274 271
3 315 274 311
3 277 278 316
3 278 317 316
3 278 318 317
3 319 278 279
3 319 318 278
3 279 280 319
3 319 280 320
3 315 281 274
3 321 281 315
3 322 285 284
3 323 320 280
3 323 280 286
3 286 281 321
3 286 321 323
3 325 324 290
3 325 290 291
3 292 290 324
3 292 324 326
3 328 327 294
3 328 294 293
3 294 329 297
3 327 329 294
3 297 330 298
3 329 330 297
3 291 298 325
3 325 298 330
3 326 299 292
3 331 299 326
3 300 328 293
3 300 332 328
3 331 302 299
3 333 302 331
3 336 335 334
3 335 332 334
3 332 303 334
3 332 300 303
3 333 305 302
3 337 305 333
3 334 303 338
3 303 339 338
3 303 306 339
3 337 308 305
3 340 308 337
3 342 341 309
3 342 309 310
3 306 309 339
3 339 309 341
3 340 311 308
3 343 311 340
3 312 313 344
3 344 313 345
3 343 315 311
3 346 315 343
3 347 317 318
3 347 348 317
3 349 318 319
3 349 347 318
3 319 320 349
3 349 320 350
3 346 321 315
3 351 321 346
3 352 350 320
3 352 320 323
3 323 321 351
3 323 351 352
3 354 353 324
3 354 324 325
3 326 324 353
3 326 353 355
3 357 356 327
3 357 327 328
3 327 358 329
3 356 358 327
3 329 359 330
3 358 359 329
3 325 330 354
3 354 330 359
3 355 331 326
3 360 331 355
3 332 357 328
3 332 361 357
3 360 333 331
3 362 333 360
3 364 363 335
3 364 335 336
3 332 335 361
3 361 335 363
3 362 337 333
3 365 337 362
3 338 339 366
3 366 339 367
3 365 340 337
3 368 340 365
3 370 369 341
3 370 341 342
3 339 341 367
3 367 341 369
3 368 343 340
3 371 343 368
3 344 345 372
3 372 345 373
3 371 346 343
3 374 346 371
3 375 348 347
3 375 376 348
3 377 347 349
3 377 375 347
3 349 350 377
3 377 350 378
3 374 351 346
3 379 351 374
3 380 378 350
3 380 350 352
3 352 351 379
3 352 379 380
3 383 382 381
3 384 381 382
3 383 381 353
3 354 383 353
3 385 383 354
3 355 353 381
3 384 355 381
3 386 355 384
3 388 387 356
3 388 356 357
3 356 389 358
3 387 389 356
3 358 390 359
3 389 390 358
3 354 359 385
3 385 359 390
3 386 360 355
3 391 360 386
3 361 388 357
3 361 392 388
3 391 362 360
3 393 362 391
3 395 394 363
3 395 363 364
3 361 363 392
3 392 363 394
3 393 365 362
3 396 365 393
3 366 367 397
3 397 367 398
3 396 368 365
3 399 368 396
3 401 400 369
3 400 367 369
3 400 398 367
3 399 371 368
3 402 371 399
3 372 373 401
3 373 400 401
3 373 403 400
3 402 374 371
3 404 374 402
3 405 376 375
3 405 406 376
3 407 375 377
3 407 405 375
3 377 378 407
3 407 378 408
3 404 379 374
3 409 379 404
3 410 408 378
3 410 378 380
3 380 379 409
3 380 409 410
3 412 411 382
3 412 382 383
3 384 382 411
3 384 411 413
3 385 412 383
3 385 414 412
3 413 386 384
3 415 386 413
3 417 416 387
3 417 387 388
3 387 418 389
3 416 418 387
3 389 419 390
3 418 419 389
3 385 390 414
3 414 390 419
3 415 391 386
3 420 391 415
3 392 417 388
3 392 421 417
3 420 393 391
3 422 393 420
3 424 423 394
3 424 394 395
3 392 394 421
3 421 394 423
3 422 396 393
3 425 396 422
3 395 397 426
3 427 395 426
3 424 395 427
3 398 426 397
3 425 399 396
3 428 399 425
3 427 426 429
3 427 429 430
3 400 429 398
3 398 429 426
3 428 402 399
3 431 402 428
3 429 400 432
3 400 433 432
3 400 403 433
3 431 404 402
3 434 404 431
3 435 406 405
3 435 436 406
3 437 405 407
3 437 435 405
3 407 408 437
3 437 408 438
3 434 409 404
3 439 409 434
3 408 410 440
3 441 408 440
3 438 408 441
3 442 440 410
3 409 442 410
3 439 442 409
3 443 441 440
3 443 440 442
3 445 444 411
3 445 411 412
3 413 411 444
3 413 444 446
3 414 445 412
3 414 447 445
3 446 415 413
3 448 415 446
3 450 449 416
3 450 416 417
3 416 451 418
3 449 451 416
3 418 452 419
3 451 452 418
3 414 419 447
3 447 419 452
3 448 420 415
3 453 420 448
3 421 450 417
3 421 454 450
3 453 422 420
3 455 422 453
3 457 456 423
3 456 421 423
3 456 454 421
3 455 425 422
3 458 425 455
3 456 457 459
3 459 457 460
3 458 428 425
3 461 428 458
3 459 460 462
3 462 460 463
3 461 431 428
3 464 431 461
3 432 433 463
3 433 462 463
3 433 465 462
3 464 434 431
3 466 434 464
3 467 436 435
3 467 468 436
3 469 435 437
3 469 467 435
3 437 438 469
3 469 438 470
3 466 439 434
3 471 439 466
3 441 470 438
3 441 472 470
3 471 442 439
3 473 442 471
3 474 472 441
3 474 441 443
3 443 442 473
3 443 473 474
3 476 475 444
3 476 444 445
3 446 444 475
3 446 475 477
3 447 476 445
3 447 478 476
3 477 448 446
3 479 448 477
3 481 480 449
3 481 449 450
3 449 482 451
3 480 482 449
3 451 483 452
3 482 483 451
3 447 452 478
3 478 452 483
3 479 453 448
3 484 453 479
3 454 481 450
3 454 485 481
3 484 455 453
3 486 455 484
3 456 485 454
3 456 487 485
3 486 458 455
3 488 458 486
3 459 487 456
3 459 489 487
3 488 461 458
3 490 461 488
3 462 489 459
3 462 491 489
3 490 464 461
3 492 464 490
3 465 491 462
3 465 493 491
3 492 466 464
3 494 466 492
3 495 468 467
3 495 496 468
3 497 467 469
3 497 495 467
3 469 470 497
3 497 470 498
3 494 471 466
3 499 471 494
3 472 498 470
3 472 500 498
3 499 473 471
3 501 473 499
3 502 500 472
3 502 472 474
3 474 473 501
3 474 501 502
3 504 503 475
3 504 475 476
3 477 475 503
3 477 503 505
3 478 504 476
3 478 506 504
3 505 479 477
3 507 479 505
3 509 508 480
3 509 480 481
3 480 510 482
3 508 510 480
3 482 511 483
3 510 511 482
3 478 483 506
3 506 483 511
3 507 484 479
3 512 484 507
3 485 509 481
3 485 513 509
3 512 486 484
3 514 486 512
3 487 513 485
3 487 515 513
3 514 488 486
3 516 488 514
3 489 515 487
3 489 517 515
3 516 490 488
3 518 490 516
3 491 517 489
3 491 519 517
3 518 492 490
3 520 492 518
3 493 519 491
3 493 521 519
3 520 494 492
3 522 494 520
3 523 496 495
3 523 524 496
3 525 495 497
3 525 523 495
3 497 498 525
3 525 498 526
3 522 499 494
3 527 499 522
3 500 526 498
3 500 528 526
3 527 501 499
3 529 501 527
3 530 528 500
3 530 500 502
3 502 501 529
3 502 529 530
3 504 531 503
3 531 505 503
3 533 532 531
3 504 533 531
3 506 533 504
3 505 531 532
3 534 505 532
3 507 505 534
3 536 535 508
3 536 508 509
3 508 537 510
3 535 537 508
3 510 538 511
3 537 538 510
3 506 511 533
3 533 511 538
3 534 512 507
3 539 512 534
3 513 536 509
3 513 540 536
3 539 514 512
3 541 514 539
3 515 540 513
3 515 542 540
3 541 516 514
3 543 516 541
3 517 542 515
3 517 544 542
3 543 518 516
3 545 518 543
3 519 544 517
3 519 546 544
3 545 520 518
3 547 520 545
3 521 546 519
3 521 548 546
3 547 522 520
3 549 522 547
3 550 524 523
3 550 551 524
3 552 523 525
3 552 550 523
3 525 526 552
3 552 526 553
3 549 527 522
3 554 527 549
3 528 553 526
3 528 555 553
3 554 529 527
3 556 529 554
3 557 555 528
3 557 528 530
3 530 529 556
3 530 556 557
3 559 558 532
3 559 532 533
3 534 532 558
3 534 558 560
3 562 561 535
3 562 535 536
3 535 563 537
3 561 563 535
3 537 564 538
3 563 564 537
3 533 538 559
3 559 538 564
3 560 539 534
3 565 539 560
3 540 562 536
3 540 566 562
3 565 541 539
3 567 541 565
3 570 569 568
3 569 566 568
3 566 542 568
3 566 540 542
3 567 543 541
3 571 543 567
3 568 542 572
3 542 573 572
3 542 544 573
3 571 545 543
3 574 545 571
3 546 573 544
3 546 575 573
3 574 547 545
3 576 547 574
3 548 575 546
3 548 577 575
3 576 549 547
3 578 549 576
3 579 551 550
3 579 580 551
3 581 550 552
3 581 579 550
3 552 553 581
3 581 553 582
3 578 554 549
3 583 554 578
3 555 585 584
3 582 555 584
3 553 555 582
3 583 584 585
3 556 583 585
3 554 583 556
3 557 585 555
3 585 557 556
3 587 586 558
3 587 558 559
3 560 558 586
3 560 586 588
3 590 589 561
3 590 561 562
3 561 591 563
3 589 591 561
3 563 592 564
3 591 592 563
3 559 564 587
3 587 564 592
3 588 565 560
3 593 565 588
3 596 595 594
3 595 590 594
3 590 566 594
3 590 562 566
3 593 567 565
3 597 567 593
3 599 594 598
3 594 566 598
3 569 600 598
3 569 598 566
3 597 571 567
3 601 571 597
3 600 570 572
3 604 603 602
3 603 604 573
3 604 598 573
3 600 572 573
3 600 573 598
3 601 574 571
3 605 574 601
3 603 573 606
3 573 607 606
3 573 575 607
3 605 576 574
3 608 576 605
3 577 607 575
3 577 609 607
3 608 578 576
3 610 578 608
3 611 580 579
3 611 612 580
3 613 579 581
3 613 611 579
3 581 582 613
3 613 582 614
3 610 583 578
3 615 583 610
3 616 614 582
3 616 582 584
3 584 583 615
3 584 615 616
3 618 617 586
3 618 586 587
3 588 586 617
3 588 617 619
3 621 620 589
3 621 589 590
3 589 622 591
3 620 622 589
3 591 623 592
3 622 623 591
3 587 592 618
3 618 592 623
3 619 593 588
3 624 593 619
3 626 625 595
3 626 595 596
3 590 595 621
3 621 595 625
3 624 597 593
3 627 597 624
3 596 599 628
3 629 596 628
3 626 596 629
3 598 628 599
3 627 601 597
3 630 601 627
3 629 628 604
3 602 629 604
3 631 629 602
3 604 628 598
3 630 605 601
3 632 605 630
3 606 607 633
3 633 607 634
3 632 608 605
3 635 608 632
3 609 634 607
3 609 636 634
3 635 610 608
3 637 610 635
3 638 612 611
3 638 639 612
3 640 611 613
3 640 638 611
3 613 614 640
3 640 614 641
3 637 615 610
3 642 615 637
3 643 641 614
3 643 614 616
3 616 615 642
3 616 642 643
3 646 645 644
3 648 647 644
3 648 644 645
3 650 649 647
3 650 647 648
3 651 649 650
3 646 644 652
3 646 652 653
3 654 644 647
3 652 644 654
3 649 656 655
3 654 649 655
3 647 649 654
3 656 649 651
3 658 657 617
3 658 617 618
3 619 617 657
3 619 657 659
3 653 652 660
3 653 660 661
3 621 660 620
3 660 654 620
3 660 652 654
3 655 662 654
3 662 620 654
3 662 622 620
3 622 663 623
3 662 663 622
3 618 623 658
3 658 623 663
3 659 624 619
3 664 624 659
3 661 660 625
3 626 661 625
3 665 661 626
3 625 660 621
3 664 627 624
3 666 627 664
3 629 665 626
3 629 667 665
3 666 630 627
3 668 630 666
3 631 667 629
3 631 669 667
3 668 632 630
3 670 632 668
3 631 633 671
3 672 631 671
3 669 631 672
3 634 671 633
3 670 635 632
3 673 635 670
3 672 671 674
3 672 674 675
3 636 674 634
3 634 674 671
3 673 637 635
3 676 637 673
3 675 674 677
3 675 677 678
3 639 679 636
3 679 674 636
3 679 677 674
3 679 639 680
3 639 681 680
3 639 638 681
3 682 638 640
3 682 681 638
3 640 641 682
3 682 641 683
3 676 642 637
3 684 642 676
3 678 677 685
3 678 685 686
3 687 677 679
3 685 677 687
3 679 680 688
3 689 679 688
3 687 679 689
3 690 689 688
3 691 683 641
3 691 641 643
3 643 642 684
3 643 684 691
3 645 693 692
3 694 645 692
3 648 645 694
3 648 695 650
3 694 695 648
3 651 650 695
3 651 695 696
3 692 693 697
3 697 693 698
3 700 699 656
3 656 699 655
3 656 651 696
3 656 696 700
3 702 701 657
3 702 657 658
3 659 657 701
3 659 701 703
3 697 698 704
3 704 698 705
3 699 706 655
3 655 706 662
3 662 707 663
3 706 707 662
3 658 663 702
3 702 663 707
3 703 664 659
3 708 664 703
3 704 705 709
3 709 705 710
3 708 666 664
3 711 666 708
3 709 710 712
3 712 710 713
3 711 668 666
3 714 668 711
3 712 713 715
3 715 713 716
3 714 670 668
3 717 670 714
3 715 716 718
3 718 716 719
3 717 673 670
3 720 673 717
3 718 719 721
3 721 719 722
3 720 676 673
3 723 676 720
3 721 722 724
3 724 722 725
3 727 726 681
3 681 726 680
3 728 681 682
3 728 727 681
3 682 683 728
3 728 683 729
3 723 684 676
3 730 684 723
3 731 690 688
3 732 729 683
3 732 683 691
3 691 684 730
3 691 730 732
3 735 734 733
3 738 737 736
3 736 737 735
3 733 736 735
3 739 736 733
3 733 741 740
3 742 733 740
3 739 733 742
3 738 736 694
3 692 738 694
3 743 738 692
3 694 736 695
3 695 736 739
3 739 742 744
3 696 739 744
3 745 696 744
3 739 696 695
3 748 747 746
3 749 744 742
3 750 747 748
3 697 743 692
3 697 751 743
3 753 752 700
3 700 752 699
3 700 696 745
3 700 745 753
3 746 747 701
3 702 746 701
3 754 746 702
3 703 701 747
3 750 703 747
3 755 703 750
3 704 751 697
3 704 756 751
3 752 757 699
3 699 757 706
3 706 758 707
3 757 758 706
3 702 707 754
3 754 707 758
3 755 708 703
3 759 708 755
3 709 756 704
3 709 760 756
3 759 711 708
3 761 711 759
3 764 763 762
3 763 760 762
3 760 712 762
3 760 709 712
3 761 714 711
3 765 714 761
3 762 712 766
3 712 767 766
3 712 715 767
3 765 717 714
3 768 717 765
3 718 767 715
3 718 769 767
3 768 720 717
3 770 720 768
3 721 769 718
3 721 771 769
3 770 723 720
3 772 723 770
3 724 771 721
3 724 773 771
3 775 774 727
3 727 774 726
3 776 727 728
3 776 775 727
3 728 729 776
3 776 729 777
3 772 730 723
3 778 730 772
3 724 780 779
3 781 724 779
3 773 724 781
3 726 774 782
3 779 726 782
3 783 779 782
3 780 726 779
3 784 783 782
3 785 777 729
3 785 729 732
3 732 730 778
3 732 778 785
3 781 779 786
3 781 786 787
3 788 779 783
3 786 779 788
3 783 784 789
3 790 783 789
3 788 783 790
3 791 745 744
3 792 791 744
3 793 791 792
3 744 749 792
3 795 746 794
3 746 795 748
3 750 748 795
3 750 795 796
3 791 753 745
3 754 794 746
3 754 797 794
3 796 755 750
3 798 755 796
3 801 800 799
3 751 801 799
3 756 801 751
3 800 803 802
3 800 802 757
3 799 800 757
3 752 799 757
3 804 758 757
3 804 757 802
3 804 805 758
3 805 754 758
3 805 797 754
3 798 759 755
3 806 759 798
3 760 801 756
3 760 807 801
3 802 803 808
3 808 803 809
3 802 810 804
3 802 808 810
3 805 804 811
3 811 804 810
3 806 761 759
3 812 761 806
3 814 813 763
3 814 763 764
3 760 763 807
3 807 763 813
3 808 809 815
3 815 809 816
3 808 817 810
3 808 815 817
3 811 810 818
3 818 810 817
3 812 765 761
3 819 765 812
3 766 767 820
3 820 767 821
3 815 816 822
3 822 816 823
3 815 824 817
3 815 822 824
3 818 817 825
3 825 817 824
3 819 768 765
3 826 768 819
3 769 821 767
3 769 827 821
3 822 823 828
3 828 823 829
3 822 830 824
3 822 828 830
3 825 824 831
3 831 824 830
3 826 770 768
3 832 770 826
3 771 827 769
3 771 833 827
3 828 829 834
3 834 829 835
3 828 836 830
3 828 834 836
3 831 830 837
3 837 830 836
3 832 772 770
3 838 772 832
3 834 775 776
3 834 776 836
3 776 777 836
3 777 837 836
3 777 839 837
3 838 778 772
3 840 778 838
3 841 784 782
3 842 839 777
3 842 777 785
3 785 778 840
3 785 840 842
3 844 843 795
3 844 795 794
3 797 844 794
3 797 845 844
3 846 798 796
3 847 798 846
3 849 848 800
3 849 800 801
3 851 850 803
3 800 851 803
3 848 851 800
3 852 850 851
3 805 845 797
3 805 853 845
3 847 806 798
3 854 806 847
3 857 856 855
3 850 809 803
3 809 850 858
3 850 852 859
3 850 859 858
3 811 853 805
3 811 860 853
3 854 812 806
3 861 812 854
3 863 862 813
3 813 862 807
3 862 864 807
3 864 857 807
3 864 856 857
3 816 809 865
3 858 865 809
3 858 859 866
3 858 866 865
3 818 860 811
3 818 867 860
3 861 819 812
3 868 819 861
3 820 821 863
3 821 862 863
3 821 869 862
3 870 823 865
3 865 823 816
3 865 866 871
3 865 871 870
3 825 873 872
3 867 825 872
3 818 825 867
3 868 872 873
3 826 868 873
3 819 868 826
3 827 869 821
3 827 874 869
3 875 829 870
3 870 829 823
3 870 871 876
3 870 876 875
3 878 877 873
3 825 878 873
3 831 878 825
3 826 873 877
3 879 826 877
3 832 826 879
3 833 874 827
3 833 880 874
3 881 835 875
3 875 835 829
3 875 876 882
3 875 882 881
3 837 878 831
3 837 883 878
3 879 838 832
3 884 838 879
3 885 881 882
3 839 883 837
3 839 886 883
3 884 840 838
3 887 840 884
3 888 886 839
3 888 839 842
3 842 840 887
3 842 887 888
3 891 890 889
3 844 891 889
3 845 891 844
3 853 891 845
3 853 892 891
3 895 894 893
3 894 856 893
3 856 896 893
3 856 894 855
3 859 852 895
3 897 859 895
3 893 897 895
3 859 897 898
3 900 899 864
3 900 864 862
3 856 864 896
3 896 864 899
3 901 866 898
3 898 866 859
3 867 902 860
3 902 867 903
3 901 903 867
3 903 901 904
3 898 904 901
3 869 900 862
3 869 905 900
3 906 871 901
3 901 871 866
3 872 907 867
3 907 901 867
3 907 906 901
3 878 908 877
3 908 906 877
3 906 907 877
3 908 909 906
3 883 908 878
3 883 910 908
3 886 910 883
3 886 911 910
