ply
format ascii 1.0
comment VisionMCP oriented point archive (not a trained radiance field)
element vertex 798
property float x
property float y
property float z
property uchar red
property uchar green
property uchar blue
end_header
-0.05 -0.0184170629 -0.0642637066 140 140 140
-0.05 0.0250616191 0.0577857808 140 140 140
-0.05 0.0183597249 0.00610749881 140 140 140
-0.05 0.0252682843 -0.06961661 140 140 140
-0.05 -0.037313154 0.0321517625 140 140 140
-0.05 0.0290543138 0.00580457083 140 140 140
-0.05 -0.0061850223 -0.066035246 140 140 140
-0.05 0.0136499532 0.0206065316 140 140 140
-0.05 -0.00930579566 0.069609391 140 140 140
-0.05 0.0148433588 0.0210642987 140 140 140
-0.05 -0.00888628608 -0.0510864893 140 140 140
-0.05 0.0020283458 -0.0265661374 140 140 140
-0.05 0.0311590267 0.0607660922 140 140 140
-0.05 0.00572238646 -0.0249382852 140 140 140
-0.05 -0.012967102 -0.0151733399 140 140 140
-0.05 -0.0218273925 0.0172462003 140 140 140
-0.05 0.0266115318 0.040193763 140 140 140
-0.05 0.0301187385 -0.0618004751 140 140 140
-0.05 -0.0279776426 -0.00695248867 140 140 140
-0.05 -0.0215486233 -0.0627170179 140 140 140
-0.05 -0.0241189564 -0.0572945736 140 140 140
-0.05 -0.0161043094 0.0240792829 140 140 140
-0.05 0.0353690488 -0.0188845764 140 140 140
-0.05 0.0103286521 0.0598016374 140 140 140
-0.05 0.0363672395 -1.45860837e-05 140 140 140
-0.05 0.00961707616 0.0693135107 140 140 140
-0.05 -0.00319638886 0.0360820383 140 140 140
-0.05 0.00234497282 0.0400099981 140 140 140
-0.05 0.0187586857 0.0295600029 140 140 140
-0.05 -0.0308053893 0.0320621164 140 140 140
-0.05 0.0374340952 -0.0679411173 140 140 140
-0.05 0.0384956032 0.0640094251 140 140 140
-0.05 0.0378103051 0.0545909778 140 140 140
-0.05 -0.0016009661 -0.0374677913 140 140 140
-0.05 0.0338824128 -0.0327417619 140 140 140
-0.05 -0.00457977368 0.0603424242 140 140 140
-0.05 0.0185604957 0.0160122546 140 140 140
-0.05 0.0175375818 -0.0677611579 140 140 140
-0.05 0.00102069786 0.0600745909 140 140 140
-0.05 0.0273053824 -0.0606633988 140 140 140
-0.05 -0.00557610144 0.0652486913 140 140 140
-0.05 -0.0192908325 -0.0361654 140 140 140
-0.05 -0.0219304457 -0.0525623412 140 140 140
-0.05 0.00688984519 0.0075726703 140 140 140
-0.05 0.00483807616 -0.02962103 140 140 140
-0.05 0.0254496777 0.0177109047 140 140 140
-0.05 -0.0104476471 0.00736561147 140 140 140
-0.05 0.0278632967 -0.0496337047 140 140 140
-0.05 0.0327967169 -0.0639706356 140 140 140
-0.05 -0.00676927701 0.0461725579 140 140 140
-0.05 -0.0107963074 -0.0589917948 140 140 140
-0.05 -0.0180920721 0.0283712899 140 140 140
-0.05 -0.0298546318 0.0510689614 140 140 140
-0.05 -0.00953835934 -0.00983163143 140 140 140
-0.05 0.0381169858 0.0385967663 140 140 140
-0.05 -0.0184130572 0.0508368286 140 140 140
-0.05 0.000856520443 -0.0217985977 140 140 140
-0.05 -0.0147245164 -0.044420267 140 140 140
-0.05 0.0249868318 0.0235045168 140 140 140
-0.05 0.0340571662 0.0347547905 140 140 140
-0.05 -0.0202282608 -0.050225482 140 140 140
-0.05 0.0171694829 -0.04661259 140 140 140
-0.05 0.0328204613 0.00859610746 140 140 140
-0.05 -0.0244696182 0.00364311481 140 140 140
-0.05 -0.0328851488 0.067471977 140 140 140
-0.05 -0.0394872894 0.0381708882 140 140 140
-0.05 0.00718960227 -0.0252445709 140 140 140
-0.05 0.0138021307 -0.0426849642 140 140 140
-0.05 0.00817913411 0.064739233 140 140 140
-0.05 -2.17410731e-06 0.0341736471 140 140 140
-0.05 -0.00895466146 -0.0611946302 140 140 140
-0.05 -0.0329785691 -0.0146871608 140 140 140
-0.05 -0.00221597306 0.0577670707 140 140 140
-0.05 0.0332259168 -0.0521635787 140 140 140
-0.05 -0.0343738997 0.0516396012 140 140 140
-0.05 -0.000274264496 -0.0471039217 140 140 140
-0.05 -0.014558609 0.0295231809 140 140 140
-0.05 0.000597588844 0.0405532025 140 140 140
-0.05 0.00630068027 -0.0423871074 140 140 140
-0.05 -0.00089231711 0.0684173467 140 140 140
-0.05 0.0370415312 0.0421283851 140 140 140
-0.05 0.0250827251 0.0143988467 140 140 140
-0.05 0.033095261 -0.0608621417 140 140 140
-0.05 -0.0094548176 -0.0244236137 140 140 140
-0.05 0.0224952402 -0.00202508057 140 140 140
-0.05 0.0302023125 -0.0578459179 140 140 140
-0.05 0.0231323699 0.0418874932 140 140 140
-0.05 0.0237311346 -0.0384540181 140 140 140
-0.05 -0.00660415102 0.00579739771 140 140 140
-0.05 -0.00744417595 -0.0699579034 140 140 140
-0.05 0.028150073 -0.0505495649 140 140 140
-0.05 0.0256882471 0.0674559652 140 140 140
-0.05 -0.00607148116 0.0671564192 140 140 140
-0.05 0.000294158336 0.0354825154 140 140 140
-0.05 -0.00190823424 0.0509300738 140 140 140
-0.05 -0.0164860595 0.0374713178 140 140 140
-0.05 -0.0324923877 -0.0152067403 140 140 140
-0.05 -0.00190664294 -0.0100044549 140 140 140
-0.05 0.00690402829 -0.0528233076 140 140 140
-0.05 0.0147240358 0.0453293902 140 140 140
-0.05 0.00666560375 -0.0643694491 140 140 140
-0.05 0.00552206834 0.0456340111 140 140 140
-0.05 0.0250595276 0.069581441 140 140 140
-0.05 -0.0263182848 -0.0151655281 140 140 140
-0.05 -0.00486168545 0.0123732153 140 140 140
-0.05 0.0180898809 -0.0307884637 140 140 140
-0.05 0.0290359999 0.00901779496 140 140 140
-0.05 0.0319059012 -0.057958259 140 140 140
-0.05 -0.0137614168 -0.045442635 140 140 140
-0.05 -0.0109742439 -0.0238145835 140 140 140
-0.05 -0.0240561327 0.0017043121 140 140 140
-0.05 -0.0269305527 0.0536786227 140 140 140
-0.05 0.0045468392 -0.0388565246 140 140 140
-0.05 -0.0390282779 0.0298191083 140 140 140
-0.05 0.0116836019 0.0155874158 140 140 140
-0.05 -0.0202875225 0.0104129267 140 140 140
-0.05 0.0393618583 0.05932435 140 140 140
-0.05 0.00719684741 0.0274701149 140 140 140
-0.05 -0.0149923482 0.0302284986 140 140 140
-0.05 -0.012660588 -0.0365478804 140 140 140
-0.05 0.00679861442 -0.00327762096 140 140 140
-0.05 -0.0341873321 -0.0674952011 140 140 140
-0.05 -0.0247111781 0.066574617 140 140 140
-0.05 -0.00383289693 -0.0147476284 140 140 140
-0.05 0.019900458 0.0201186667 140 140 140
-0.05 -0.0333753139 -0.0206159218 140 140 140
-0.05 -0.0058623085 -0.0643135413 140 140 140
-0.05 0.0356019719 -0.0472402385 140 140 140
-0.05 0.0257709727 -0.015218874 140 140 140
-0.05 0.0259201446 0.0252960856 140 140 140
-0.05 0.0206077269 0.0267780071 140 140 140
-0.05 0.0258245706 -0.0449312237 140 140 140
-0.05 -0.0330654942 -0.0103801264 140 140 140
0.05 -0.0238265525 0.0613067152 140 140 140
0.05 -0.0396080468 -0.0247910875 140 140 140
0.05 -0.0188243897 0.0462971972 140 140 140
0.05 0.00691026838 0.0641773069 140 140 140
0.05 0.038440638 0.0104379309 140 140 140
0.05 0.0269637625 0.0389547517 140 140 140
0.05 0.0105193214 -0.0201089635 140 140 140
0.05 -0.0218799683 0.0388561773 140 140 140
0.05 0.00617583592 0.00502585014 140 140 140
0.05 0.0208389279 -0.054624096 140 140 140
0.05 -0.0068835294 0.015988201 140 140 140
0.05 0.00683836686 0.0326040508 140 140 140
0.05 -0.00297057527 -0.0298523588 140 140 140
0.05 0.0156241685 0.0273995894 140 140 140
0.05 0.0377469933 0.0239611092 140 140 140
0.05 0.0272940281 -0.00188713934 140 140 140
0.05 -0.019338048 -0.0481410326 140 140 140
0.05 0.0275288775 0.0248918289 140 140 140
0.05 0.0060577673 0.00887774631 140 140 140
0.05 -0.00898606304 -0.0469304287 140 140 140
0.05 0.0315782798 -0.0632428167 140 140 140
0.05 0.0109026923 0.0404383218 140 140 140
0.05 -0.0246728643 -0.0535301795 140 140 140
0.05 0.0252408325 -0.0396105946 140 140 140
0.05 0.00408359966 -0.0431455993 140 140 140
0.05 0.0218611678 0.0449717249 140 140 140
0.05 -0.0164738912 -0.0312030755 140 140 140
0.05 0.00615261145 0.00389481094 140 140 140
0.05 0.0109936783 0.0246074419 140 140 140
0.05 -0.0090164068 0.0173463895 140 140 140
0.05 -0.0127740914 -0.0275518582 140 140 140
0.05 0.00898733912 0.0155117814 140 140 140
0.05 0.00526191258 0.0680077489 140 140 140
0.05 0.0274411772 -0.0586146832 140 140 140
0.05 0.0353364924 -0.0333390378 140 140 140
0.05 -0.00135932693 -0.0444202839 140 140 140
0.05 0.0318158748 0.064493084 140 140 140
0.05 0.00121282935 0.0465804989 140 140 140
0.05 -0.0201153859 0.0608000454 140 140 140
0.05 0.0218844983 0.000131313978 140 140 140
0.05 -0.0163258522 0.0104175076 140 140 140
0.05 -0.0389009713 -0.00925522859 140 140 140
0.05 0.0091325819 -0.0246195074 140 140 140
0.05 -0.00123882935 0.0699301893 140 140 140
0.05 0.0264505153 -0.0336631531 140 140 140
0.05 -0.0240556873 -0.00948290499 140 140 140
0.05 -0.0244312522 0.0391922679 140 140 140
0.05 -0.0147196011 0.00112898755 140 140 140
0.05 0.0177902539 -0.0493538564 140 140 140
0.05 0.0184564797 0.009546924 140 140 140
0.05 -0.00417133104 -0.0130742017 140 140 140
0.05 -0.0214901942 0.0211072869 140 140 140
0.05 0.0289820417 -0.0321092246 140 140 140
0.05 0.00545473135 0.0179842317 140 140 140
0.05 -0.0264009239 -0.0490258236 140 140 140
0.05 -0.0338848783 0.0047923433 140 140 140
0.05 0.0245734344 -0.0668345257 140 140 140
0.05 -0.00214368229 -0.0396860379 140 140 140
0.05 -0.0221766852 -0.0305440651 140 140 140
0.05 -0.0066259707 -0.0159789082 140 140 140
0.05 0.0131313485 0.0224387163 140 140 140
0.05 0.00655220632 0.033029304 140 140 140
0.05 0.00708274016 -0.0517197718 140 140 140
0.05 -0.0141557046 0.0598582333 140 140 140
0.05 0.0316379126 -0.00564550654 140 140 140
0.05 -0.00118982594 0.0292183166 140 140 140
0.05 0.0311892211 -0.0328008704 140 140 140
0.05 0.0176932629 0.0247246249 140 140 140
0.05 0.0149932002 0.0120769895 140 140 140
0.05 0.0135362978 -0.0690762067 140 140 140
0.05 -0.00632972758 -0.0170282867 140 140 140
0.05 -0.00584339168 0.0173064141 140 140 140
0.05 0.0166799587 -0.0376709066 140 140 140
0.05 0.0199119876 0.0236219382 140 140 140
0.05 -0.0290586172 0.0229157235 140 140 140
0.05 -0.0268845877 0.0265022432 140 140 140
0.05 0.0332094892 0.0352155563 140 140 140
0.05 0.0350421056 -0.0664674141 140 140 140
0.05 -0.0206477623 0.0324912117 140 140 140
0.05 -0.00284996737 -0.0388453326 140 140 140
0.05 -0.0306314874 -0.0353722291 140 140 140
0.05 -0.00391620284 0.0527544831 140 140 140
0.05 0.0231635718 -0.0437635418 140 140 140
0.05 -0.00986351586 -0.000812111177 140 140 140
0.05 0.0257972926 -0.0457533255 140 140 140
0.05 0.0311237035 -0.059427335 140 140 140
0.05 -0.0165797622 -0.0138957325 140 140 140
0.05 -0.0342873122 0.0393827371 140 140 140
0.05 -0.029610118 -0.0187487568 140 140 140
0.05 -0.0205142 -0.0287890739 140 140 140
0.05 0.0369809116 -0.00575952034 140 140 140
0.05 -0.0375574343 -0.0607445638 140 140 140
0.05 0.0132755711 -0.0391674232 140 140 140
0.05 0.0236292908 -0.0235460514 140 140 140
0.05 0.018032687 -0.00337430894 140 140 140
0.05 -0.0330043906 0.0332034502 140 140 140
0.05 0.0312289663 0.00141246105 140 140 140
0.05 -0.021947407 -0.00650665554 140 140 140
0.05 0.0120157935 -0.031611026 140 140 140
0.05 -0.00516478597 0.0675869523 140 140 140
0.05 0.0269757079 -0.0679641716 140 140 140
0.05 -0.00812172458 -0.000138696881 140 140 140
0.05 0.0343609211 -0.0420496981 140 140 140
0.05 0.00778764989 0.0501820798 140 140 140
0.05 0.0263913025 0.00334551899 140 140 140
0.05 0.0173286267 0.0576947365 140 140 140
0.05 0.0241796925 -0.0528685435 140 140 140
0.05 0.00929934002 -0.0320310644 140 140 140
0.05 -0.0260937459 0.0367040328 140 140 140
0.05 -0.0293756298 0.00235689115 140 140 140
0.05 0.0232012254 -0.00490107798 140 140 140
0.05 0.00528831013 0.066954736 140 140 140
0.05 0.0390136696 -0.0118385983 140 140 140
0.05 0.0225664848 -0.0319593397 140 140 140
0.05 0.0116812064 -0.0420451839 140 140 140
0.05 0.0389626675 0.04443462 140 140 140
0.05 0.0278375544 -0.0338617718 140 140 140
0.05 0.021809308 0.0360306817 140 140 140
0.05 -0.0290678394 0.0346620645 140 140 140
0.05 -0.0139293273 0.0328024029 140 140 140
0.05 -0.0142031394 -0.0483263821 140 140 140
0.05 0.0335351991 -0.029422239 140 140 140
0.05 -0.0328245422 0.057756427 140 140 140
0.05 -0.0242509508 -0.0286037854 140 140 140
0.05 -0.0115393869 0.0330727342 140 140 140
0.05 -0.0234377078 0.0154153314 140 140 140
0.05 -0.0310601748 -0.0474309056 140 140 140
0.05 -0.0390472209 0.0601870533 140 140 140
0.05 -0.018348916 -0.0174100744 140 140 140
0.05 -0.0118544537 -0.00964140013 140 140 140
0.05 0.0380996028 -0.0189199885 140 140 140
0.05 0.0126385915 0.0303246889 140 140 140
0.05 -0.0230891876 -0.0127047968 140 140 140
-0.00609317895 -0.04 0.0501809456 140 140 140
0.0120908898 -0.04 0.026308033 140 140 140
0.0258999002 -0.04 -0.0168718877 140 140 140
-0.0173152202 -0.04 0.0214274506 140 140 140
-0.0318612212 -0.04 0.0689035041 140 140 140
-0.0484147361 -0.04 -0.0231962551 140 140 140
-0.009441698 -0.04 -0.00863729464 140 140 140
0.0383078001 -0.04 -0.0105535227 140 140 140
-0.0247696912 -0.04 0.0201880725 140 140 140
-0.028777393 -0.04 -0.052439614 140 140 140
0.0409071963 -0.04 0.0448430912 140 140 140
0.0395362093 -0.04 -0.065439871 140 140 140
-0.0319663913 -0.04 -0.0678421553 140 140 140
0.006413206 -0.04 0.0373324955 140 140 140
-0.00206243036 -0.04 -0.028922844 140 140 140
-0.00434214963 -0.04 0.0433327506 140 140 140
0.0407498923 -0.04 -0.000612881857 140 140 140
0.0343784349 -0.04 0.023234037 140 140 140
0.0267385917 -0.04 0.0499200367 140 140 140
-0.0499809998 -0.04 -0.0278566427 140 140 140
0.0128627924 -0.04 -0.0406308182 140 140 140
0.0126160387 -0.04 -0.0437807036 140 140 140
0.038617493 -0.04 0.0069395767 140 140 140
0.0206096028 -0.04 0.042202071 140 140 140
0.0333856246 -0.04 -0.0359591625 140 140 140
-0.047551154 -0.04 -0.0124239228 140 140 140
0.0394260845 -0.04 0.00472529316 140 140 140
-0.0122555849 -0.04 0.0293117574 140 140 140
0.0182282893 -0.04 0.0108246019 140 140 140
0.00160434798 -0.04 0.0544572921 140 140 140
-0.0133248867 -0.04 0.000684538926 140 140 140
-0.0414661049 -0.04 -0.0292325043 140 140 140
0.00278850447 -0.04 -0.0448762262 140 140 140
-0.00247753757 -0.04 0.0377748436 140 140 140
0.0440976963 -0.04 0.0590265226 140 140 140
-0.0163441038 -0.04 0.0369215642 140 140 140
0.00512789808 -0.04 -0.0159313986 140 140 140
-0.0209149882 -0.04 0.0202471445 140 140 140
0.0409037837 -0.04 -0.0099483918 140 140 140
0.00673723257 -0.04 -0.0060900522 140 140 140
0.00993070572 -0.04 -0.0224264383 140 140 140
-0.04997783 -0.04 0.0151200931 140 140 140
-0.040700954 -0.04 0.0425588549 140 140 140
0.034028156 -0.04 0.0439913223 140 140 140
-0.0222859747 -0.04 0.00636392731 140 140 140
-0.00599009211 -0.04 -0.0681253049 140 140 140
-0.0337556557 -0.04 0.0252787654 140 140 140
0.0206235313 -0.04 0.0374663949 140 140 140
-0.0420448439 -0.04 0.0497491624 140 140 140
-0.0143162247 -0.04 0.000490392803 140 140 140
0.0126662571 -0.04 0.0377706317 140 140 140
-0.0376597672 -0.04 -0.0137001061 140 140 140
-0.000773836394 -0.04 -0.0180596149 140 140 140
-0.0453962529 -0.04 0.00317476592 140 140 140
0.0242144641 -0.04 0.0447561664 140 140 140
0.00646161791 -0.04 0.0198669191 140 140 140
-0.0327259331 -0.04 0.0253486241 140 140 140
0.0439808638 -0.04 -0.0384771664 140 140 140
0.00571375458 -0.04 0.0296643617 140 140 140
-0.0157703294 -0.04 0.0609376686 140 140 140
0.0184810043 -0.04 0.0575061663 140 140 140
0.0327624193 -0.04 -0.0550422073 140 140 140
-0.0209171166 -0.04 -0.0315269506 140 140 140
-0.0426294064 -0.04 0.0418977939 140 140 140
0.0141767808 -0.04 0.00836826466 140 140 140
-0.0478480049 -0.04 0.0499521645 140 140 140
-0.0421946765 -0.04 -0.0469190795 140 140 140
-0.0119992103 -0.04 0.0458868088 140 140 140
-0.000375668966 -0.04 0.0142512602 140 140 140
0.0350028204 -0.04 -0.0325476239 140 140 140
-0.0450505792 -0.04 -0.0607303413 140 140 140
-0.0458441513 -0.04 -0.0442631158 140 140 140
-0.0425742278 -0.04 -0.0491772551 140 140 140
-0.0405169209 -0.04 0.0233753749 140 140 140
0.0225754042 -0.04 -0.06014544 140 140 140
0.034187724 -0.04 -0.0150545046 140 140 140
-0.0364690756 -0.04 0.00311443061 140 140 140
0.00687435896 -0.04 0.0158374549 140 140 140
0.0377643463 -0.04 -0.016919325 140 140 140
-0.0243427297 -0.04 0.00851298747 140 140 140
0.0295372341 -0.04 -0.0642932742 140 140 140
-0.0311845496 -0.04 -0.023331922 140 140 140
0.0184376658 -0.04 0.0226978626 140 140 140
-0.00454048691 -0.04 -0.0285241663 140 140 140
0.00109604789 -0.04 -0.0358874057 140 140 140
0.0325301558 -0.04 0.0483638575 140 140 140
-0.023450737 -0.04 -0.0543399715 140 140 140
0.0269182491 -0.04 -0.0369151071 140 140 140
0.0370553304 -0.04 0.060547129 140 140 140
0.0429417001 -0.04 -0.0145452371 140 140 140
0.0358268503 -0.04 -0.0523358927 140 140 140
0.0351958369 -0.04 -0.0510208383 140 140 140
0.0366526517 -0.04 0.0341027062 140 140 140
-0.0231823979 -0.04 0.0487637941 140 140 140
0.0100213798 -0.04 -0.0187781879 140 140 140
0.0359035818 -0.04 -0.0228405946 140 140 140
-0.0159046135 -0.04 -0.00639813614 140 140 140
0.0448353503 -0.04 0.0359072461 140 140 140
-0.0214294507 -0.04 -0.0675362833 140 140 140
-0.0370179018 -0.04 0.051812875 140 140 140
-0.0177501624 -0.04 -0.0550137672 140 140 140
0.0066678286 -0.04 -0.0501756727 140 140 140
0.0300972395 -0.04 -0.0614244804 140 140 140
0.010182488 -0.04 -0.0626056587 140 140 140
0.0330552317 -0.04 0.0511665107 140 140 140
0.0244031468 -0.04 -0.0581264186 140 140 140
-0.0328642748 -0.04 -0.0199152605 140 140 140
0.0331982043 -0.04 0.00766495806 140 140 140
-0.0112547756 -0.04 0.0264515708 140 140 140
0.0185772334 -0.04 -0.014195142 140 140 140
-0.0380914159 -0.04 -0.021626852 140 140 140
0.0191762616 -0.04 0.028246643 140 140 140
0.0406685731 -0.04 0.0145204458 140 140 140
-0.0402677308 -0.04 0.0644346854 140 140 140
-0.0465846422 -0.04 0.0465865449 140 140 140
0.0186886427 -0.04 0.0359112873 140 140 140
0.00941900745 -0.04 -0.0686185696 140 140 140
0.0283814704 -0.04 -0.0550685521 140 140 140
0.00468347971 -0.04 0.0148201137 140 140 140
-0.0483327873 -0.04 0.00557633017 140 140 140
0.0109907416 -0.04 0.0190929026 140 140 140
0.0341221148 -0.04 0.00298630901 140 140 140
0.0406119275 -0.04 -0.0410588741 140 140 140
0.0466492675 -0.04 0.0453883417 140 140 140
-0.00474825243 -0.04 0.0589291744 140 140 140
0.0402723334 -0.04 -0.0247838737 140 140 140
0.0412629664 -0.04 -0.0335727033 140 140 140
0.0146353224 -0.04 -0.0629529204 140 140 140
-0.0231135828 -0.04 0.0486145134 140 140 140
-0.0498082642 -0.04 -0.0231377218 140 140 140
0.0116573554 -0.04 -0.0613762037 140 140 140
0.00452534545 -0.04 0.028314648 140 140 140
0.031781833 -0.04 0.05038524 140 140 140
-0.0322586529 0.04 -0.0516204344 140 140 140
-0.0192483293 0.04 0.0273373681 140 140 140
-0.0183149881 0.04 0.0211848298 140 140 140
0.0285735322 0.04 -0.0621110785 140 140 140
-0.0262947923 0.04 0.0528748161 140 140 140
0.0157544869 0.04 -0.0655518605 140 140 140
-0.00019631808 0.04 -0.0213617003 140 140 140
0.0459388046 0.04 -0.0576285195 140 140 140
-0.0194910839 0.04 -0.0322547981 140 140 140
0.020582086 0.04 -0.00865282935 140 140 140
0.0334699293 0.04 0.0172471311 140 140 140
0.00400229724 0.04 -0.0213883923 140 140 140
0.00631385525 0.04 0.0397112306 140 140 140
-0.00190930039 0.04 -0.0322052542 140 140 140
-0.0457575978 0.04 -0.0106077682 140 140 140
0.0158542747 0.04 -0.0116502207 140 140 140
-0.0147974025 0.04 0.0676153899 140 140 140
-0.0424802712 0.04 -0.0398575915 140 140 140
-0.0363813753 0.04 -0.048771847 140 140 140
-0.0160049933 0.04 0.0604196723 140 140 140
-0.0178959605 0.04 0.0646708778 140 140 140
0.0227452021 0.04 -0.00109963354 140 140 140
0.0282651939 0.04 0.0458600378 140 140 140
0.00445742427 0.04 -0.0191525286 140 140 140
-0.0308593713 0.04 -0.0695964723 140 140 140
0.0283880941 0.04 0.0163521289 140 140 140
0.00946138507 0.04 0.0129083209 140 140 140
0.0257847063 0.04 0.0241864771 140 140 140
0.0208671713 0.04 0.0597263109 140 140 140
-0.0172458551 0.04 -0.0555543956 140 140 140
0.0496405017 0.04 -0.00535001131 140 140 140
0.00661197463 0.04 -0.0363888496 140 140 140
0.0474689057 0.04 -0.0501618748 140 140 140
0.00730772612 0.04 0.0494022424 140 140 140
0.0361228283 0.04 -0.021327917 140 140 140
0.00815811539 0.04 -0.0505615822 140 140 140
-0.0418579427 0.04 -0.0265523529 140 140 140
-0.049626527 0.04 -0.0177831113 140 140 140
0.0383134544 0.04 0.0227739489 140 140 140
0.00680783804 0.04 -0.0045343121 140 140 140
-0.0132340039 0.04 -0.0576628447 140 140 140
-0.0447878674 0.04 -0.0583353001 140 140 140
-0.0349368755 0.04 -0.0177381568 140 140 140
-0.0261826149 0.04 -0.0653923035 140 140 140
0.0490053615 0.04 -0.0642841358 140 140 140
0.012600979 0.04 -0.0155607873 140 140 140
0.0233331834 0.04 -0.0145102647 140 140 140
-0.0124674173 0.04 -0.037173346 140 140 140
-0.0326026089 0.04 0.0247826638 140 140 140
-0.0485229995 0.04 0.043135137 140 140 140
-0.0167854708 0.04 -0.062230884 140 140 140
0.005077351 0.04 -0.0409838189 140 140 140
-0.00521032015 0.04 -0.0524568255 140 140 140
-0.00409633021 0.04 0.0288102382 140 140 140
-0.0130920356 0.04 0.041860391 140 140 140
-0.0236823937 0.04 0.0656610111 140 140 140
0.0373007348 0.04 -0.00319588339 140 140 140
-0.0464647912 0.04 0.0406221002 140 140 140
0.0465130789 0.04 0.0437936322 140 140 140
-0.0163201878 0.04 0.0560784414 140 140 140
-0.0248381895 0.04 -0.0647011832 140 140 140
-0.0385284414 0.04 0.0306531143 140 140 140
0.0426493932 0.04 0.0658718678 140 140 140
-0.00586413606 0.04 0.0125230129 140 140 140
0.0191948977 0.04 0.0128832796 140 140 140
0.040596795 0.04 0.0379901809 140 140 140
0.0498067457 0.04 0.0290141652 140 140 140
0.0403159859 0.04 0.0521862027 140 140 140
-0.0221252843 0.04 0.00113353746 140 140 140
0.0469672813 0.04 0.0224694541 140 140 140
0.0259779141 0.04 0.0518481315 140 140 140
0.000522902283 0.04 0.054556762 140 140 140
0.0447438972 0.04 0.0468508694 140 140 140
0.0362819348 0.04 0.0209365858 140 140 140
-0.0131467937 0.04 -0.0478965066 140 140 140
0.0496186176 0.04 -0.0224620607 140 140 140
0.0418874716 0.04 -0.0233625638 140 140 140
0.0429384505 0.04 -0.0252054567 140 140 140
-0.0470275304 0.04 -0.0548797792 140 140 140
-0.0451327753 0.04 0.065569729 140 140 140
-0.043582371 0.04 -0.0379875311 140 140 140
0.0361233049 0.04 -0.0428191048 140 140 140
0.0475145271 0.04 -0.0515593234 140 140 140
-0.0495280643 0.04 -0.0091802982 140 140 140
0.00328033964 0.04 -0.0484434807 140 140 140
-0.0181637287 0.04 0.0695105412 140 140 140
-0.00761496886 0.04 -0.03006315 140 140 140
-0.0357782123 0.04 -0.0678733519 140 140 140
0.0188278601 0.04 -0.0571758688 140 140 140
-0.033476001 0.04 0.0190944549 140 140 140
0.0447799811 0.04 -0.0100712692 140 140 140
-0.0213597475 0.04 -0.0437477159 140 140 140
-0.0120199113 0.04 0.0578737793 140 140 140
0.0312829616 0.04 0.0509711292 140 140 140
0.0291325666 0.04 0.00752872291 140 140 140
-0.00567867623 0.04 -0.0251605307 140 140 140
0.0413084525 0.04 -0.0562545351 140 140 140
0.00514409062 0.04 0.0435734082 140 140 140
0.00815857623 0.04 0.0657899814 140 140 140
-0.0203735111 0.04 0.0262815626 140 140 140
0.0423276748 0.04 -0.0157213055 140 140 140
-0.0451982577 0.04 -0.0683360524 140 140 140
-0.0447597089 0.04 0.0102382676 140 140 140
0.0287442511 0.04 -0.0252984912 140 140 140
-0.0120820495 0.04 0.0204870511 140 140 140
-0.00952490019 0.04 0.0261983691 140 140 140
0.0172246469 0.04 0.00585590429 140 140 140
-0.00325014676 0.04 0.0100557821 140 140 140
-0.00938023726 0.04 -0.0430836914 140 140 140
0.0483289585 0.04 -0.0695833408 140 140 140
-0.0422204845 0.04 -0.0394776737 140 140 140
0.0163653019 0.04 -0.0144420288 140 140 140
-0.0174113805 0.04 0.0385160193 140 140 140
-0.0196186173 0.04 -0.0435790868 140 140 140
0.0394936109 0.04 -0.0285677663 140 140 140
0.0483702942 0.04 0.0473612286 140 140 140
-0.0336316605 0.04 0.0641479972 140 140 140
-0.0381070104 0.04 0.00114519501 140 140 140
0.0152232514 0.04 -0.0351754526 140 140 140
0.0407820309 0.04 0.0673712436 140 140 140
-0.0350696028 0.04 0.0324283729 140 140 140
0.0253061195 0.04 -0.0669833508 140 140 140
-0.0277339675 0.04 0.0549244207 140 140 140
-0.00411652801 0.04 0.0568729879 140 140 140
-0.0106848973 0.04 0.0252580204 140 140 140
0.0104859935 0.04 -0.00810439037 140 140 140
-0.0176013386 0.04 -0.00207979646 140 140 140
-0.00923395073 0.04 -0.0596783516 140 140 140
0.047326929 0.04 -0.0229646177 140 140 140
0.0340307815 0.04 0.047018536 140 140 140
-0.0335233389 0.04 -0.0370633814 140 140 140
0.0360227456 0.04 -0.0240742815 140 140 140
0.0433535423 0.04 -0.0156687259 140 140 140
0.00998572324 0.0387866243 -0.07 140 140 140
-0.0302259429 0.00789041356 -0.07 140 140 140
0.0032327349 -0.00260996017 -0.07 140 140 140
-0.00459557721 0.0106514852 -0.07 140 140 140
0.0262810981 0.0368823448 -0.07 140 140 140
0.031671139 -0.00211298671 -0.07 140 140 140
-0.00108408966 -0.0309166042 -0.07 140 140 140
-0.0151804023 0.0269304366 -0.07 140 140 140
-0.0388976314 -0.037315576 -0.07 140 140 140
-0.0251590853 0.0110974575 -0.07 140 140 140
-0.00564062496 -0.0286887634 -0.07 140 140 140
0.00686287275 0.00243770103 -0.07 140 140 140
0.0360040528 0.0171102883 -0.07 140 140 140
-0.0389747349 -0.0261308635 -0.07 140 140 140
-0.0255168382 -0.0217079145 -0.07 140 140 140
-0.0380590869 -0.0229591876 -0.07 140 140 140
-0.0382301964 -0.0221781283 -0.07 140 140 140
0.028106336 -0.00413851432 -0.07 140 140 140
-0.0173071761 0.00749638052 -0.07 140 140 140
-0.00407710171 -0.0203757106 -0.07 140 140 140
-0.0315797669 0.0308800713 -0.07 140 140 140
0.0268560396 0.0308745182 -0.07 140 140 140
-0.0448210115 0.0326651354 -0.07 140 140 140
-0.045605457 0.0220750679 -0.07 140 140 140
0.0452007396 0.0387691981 -0.07 140 140 140
0.0407838095 -0.0114365476 -0.07 140 140 140
0.0230172023 0.00470837668 -0.07 140 140 140
-0.0151271019 -0.0393091033 -0.07 140 140 140
-0.00323104223 -0.0110438672 -0.07 140 140 140
-0.0470524561 0.0359132106 -0.07 140 140 140
-0.0415876536 0.00848465189 -0.07 140 140 140
-0.0179121749 0.0332364368 -0.07 140 140 140
-0.0327996797 0.0274907159 -0.07 140 140 140
0.00597829593 0.0214231624 -0.07 140 140 140
0.0390457339 -0.0220878333 -0.07 140 140 140
-0.0330093995 -0.02096568 -0.07 140 140 140
0.0101998439 -0.00949536894 -0.07 140 140 140
-0.00516773914 -0.0184222901 -0.07 140 140 140
0.00784604835 0.030854321 -0.07 140 140 140
-0.0408575468 -0.000744341254 -0.07 140 140 140
0.00313641361 -0.0286891645 -0.07 140 140 140
0.0278007394 0.0187629472 -0.07 140 140 140
0.0350887083 -0.00557449999 -0.07 140 140 140
0.0395611598 -0.0331395126 -0.07 140 140 140
-0.0321593819 -0.0132547561 -0.07 140 140 140
-0.0375083775 -0.0101687796 -0.07 140 140 140
-0.0169412123 0.0275982956 -0.07 140 140 140
0.00898281503 -0.0117899352 -0.07 140 140 140
-0.0221572437 0.0252929177 -0.07 140 140 140
-0.0154692024 0.0310851387 -0.07 140 140 140
0.00740389639 -0.0311679986 -0.07 140 140 140
0.0291505373 -0.0096616056 -0.07 140 140 140
-0.0120817723 0.0389626457 -0.07 140 140 140
-0.0221245173 0.00377558039 -0.07 140 140 140
-0.0251811814 -0.016381338 -0.07 140 140 140
-0.0137131853 0.0351579637 -0.07 140 140 140
0.00898510379 0.0357395509 -0.07 140 140 140
0.0186199217 -0.0265159962 -0.07 140 140 140
-0.0171853908 -0.00175157909 -0.07 140 140 140
-0.0353123456 0.0251494801 -0.07 140 140 140
-0.0495073312 0.0209402323 -0.07 140 140 140
0.0447986451 0.0344356629 -0.07 140 140 140
-0.0388859356 -0.00643834637 -0.07 140 140 140
2.21267319e-06 -0.020058153 -0.07 140 140 140
-0.0435973219 0.0201926983 -0.07 140 140 140
0.0180823255 -0.0178617359 -0.07 140 140 140
-0.0261754181 -0.0303517251 -0.07 140 140 140
-0.0271909748 -0.0260347946 -0.07 140 140 140
-0.0437532921 0.00468109236 -0.07 140 140 140
-0.00716062475 -0.00677687978 -0.07 140 140 140
-0.0417930033 0.00696354758 -0.07 140 140 140
0.0231721095 -0.0105154267 -0.07 140 140 140
0.0451042962 -0.0382102881 -0.07 140 140 140
-0.0482133648 -0.00943979253 -0.07 140 140 140
-0.0419658005 0.0226551832 -0.07 140 140 140
-0.0422663654 0.038173565 -0.07 140 140 140
-0.000792156802 -0.0375592322 -0.07 140 140 140
-0.00084242111 0.0285045959 -0.07 140 140 140
-0.0147722443 -0.0252559118 -0.07 140 140 140
-0.0171487493 -0.0349739049 -0.07 140 140 140
0.0150747354 -0.0238759585 -0.07 140 140 140
-0.0492912088 0.0330140513 -0.07 140 140 140
-0.0405380159 0.0147654897 -0.07 140 140 140
0.0321891863 -0.0257005942 -0.07 140 140 140
0.0454002708 -0.0233389206 -0.07 140 140 140
-0.0332775329 -0.0140011447 -0.07 140 140 140
0.0107706485 0.00233037765 -0.07 140 140 140
0.0307831328 0.0194758849 -0.07 140 140 140
-0.0197127104 -0.00339964693 -0.07 140 140 140
-0.0314216061 -0.0242655663 -0.07 140 140 140
-0.0163793951 0.0352880102 -0.07 140 140 140
0.0369823881 -0.032110492 -0.07 140 140 140
0.033373096 -0.00501397158 -0.07 140 140 140
-0.0227284953 -0.00534280144 -0.07 140 140 140
0.0491631003 0.00397205913 -0.07 140 140 140
0.0351577323 -0.00559363127 -0.07 140 140 140
-0.0342748535 -0.00835291823 -0.07 140 140 140
-0.000274740341 0.0255804876 -0.07 140 140 140
-0.0197500216 -0.01857959 -0.07 140 140 140
-0.00276657432 -0.0188564188 -0.07 140 140 140
-0.0300763862 0.00625246031 -0.07 140 140 140
-0.0168170587 -0.0193137798 -0.07 140 140 140
-0.0319606755 -0.0196415419 -0.07 140 140 140
-0.0278774281 0.0262718255 -0.07 140 140 140
0.0474294519 0.0202872115 -0.07 140 140 140
0.0440042753 0.0273675697 -0.07 140 140 140
-0.00664110568 -0.0375236573 -0.07 140 140 140
0.0214886115 -0.031157856 -0.07 140 140 140
-0.0478317526 0.0392778769 -0.07 140 140 140
-0.0039134786 0.00363771618 -0.07 140 140 140
-0.027950243 -0.0359544644 -0.07 140 140 140
0.0472309371 -0.0299554019 -0.07 140 140 140
0.0220539447 0.0200180273 -0.07 140 140 140
-0.044242509 0.0152338499 -0.07 140 140 140
0.0158758247 -0.0212758149 -0.07 140 140 140
-0.0378324857 0.0174302837 -0.07 140 140 140
-0.00532060006 -0.0393068405 -0.07 140 140 140
0.0181977686 0.0153930675 -0.07 140 140 140
-0.0272308777 0.013050527 -0.07 140 140 140
0.0127680575 0.00578543264 -0.07 140 140 140
-0.0280833958 0.0179666163 -0.07 140 140 140
-0.0342645342 0.0106211295 -0.07 140 140 140
-0.0398030902 -0.0190169354 -0.07 140 140 140
0.0413831462 -0.0393290788 -0.07 140 140 140
-0.0343178993 -0.00264040984 -0.07 140 140 140
0.0207376376 -0.0111860996 -0.07 140 140 140
0.0205012134 0.00335326984 -0.07 140 140 140
-0.0455144714 -0.0261487501 -0.07 140 140 140
-0.00334633032 0.00555568163 -0.07 140 140 140
0.00429156619 0.00528930728 -0.07 140 140 140
-0.0221187151 0.00145036327 -0.07 140 140 140
0.024927137 0.0362348579 -0.07 140 140 140
0.0282327141 -0.0220933687 -0.07 140 140 140
-0.0466461824 0.0375268638 0.07 140 140 140
-0.0418418568 -0.0142755492 0.07 140 140 140
-0.0439958742 0.0334324884 0.07 140 140 140
-0.0422112899 0.00997166458 0.07 140 140 140
-0.0133584296 -0.0122703281 0.07 140 140 140
-0.0188752812 -0.0345974612 0.07 140 140 140
-0.0158431919 -0.0267086161 0.07 140 140 140
0.0393237139 0.0245723524 0.07 140 140 140
0.0413540073 -0.00729535502 0.07 140 140 140
-0.0416363364 0.0387031939 0.07 140 140 140
0.0245424808 0.0171530383 0.07 140 140 140
-0.0255335946 0.0198343721 0.07 140 140 140
-0.0452950559 -0.0321976723 0.07 140 140 140
0.0347448947 -0.00595337873 0.07 140 140 140
0.00349015195 -0.0135824826 0.07 140 140 140
-0.0301797956 -0.0118962664 0.07 140 140 140
0.00741042041 -0.00985293755 0.07 140 140 140
-0.0283879507 -0.00172698185 0.07 140 140 140
0.0382334265 -0.0353409428 0.07 140 140 140
0.0360985492 0.0336647324 0.07 140 140 140
-0.00968965641 -0.0371479057 0.07 140 140 140
0.0149903225 -0.0129422431 0.07 140 140 140
-0.00293773794 -0.0270145085 0.07 140 140 140
-0.00430039384 0.0395845806 0.07 140 140 140
0.013521258 -0.0240467757 0.07 140 140 140
0.0247437805 -0.000227193126 0.07 140 140 140
0.0389133253 0.0297703672 0.07 140 140 140
-0.0405337004 -0.0125706901 0.07 140 140 140
0.024487225 0.0110847928 0.07 140 140 140
-0.0483625497 0.0372873802 0.07 140 140 140
0.00274495191 -0.00546845004 0.07 140 140 140
0.0389997092 -0.01255516 0.07 140 140 140
-0.0369437399 -0.0358048828 0.07 140 140 140
-0.0371130793 -0.029179717 0.07 140 140 140
-0.028509831 0.0224698641 0.07 140 140 140
-0.0468818006 -0.00965765192 0.07 140 140 140
-0.0365536083 -0.0395768846 0.07 140 140 140
-0.00511132047 -0.0049626552 0.07 140 140 140
0.0210281727 0.0281327281 0.07 140 140 140
0.0425908519 0.017335177 0.07 140 140 140
0.0440437648 -0.00856881166 0.07 140 140 140
-0.0324525293 0.00169903697 0.07 140 140 140
0.0154802643 -0.0155311307 0.07 140 140 140
-0.0391107378 0.00512056917 0.07 140 140 140
-0.0204558207 0.0288288991 0.07 140 140 140
-0.041098833 0.0182889713 0.07 140 140 140
-0.041731435 -0.00123543876 0.07 140 140 140
0.0083787661 -0.0052497687 0.07 140 140 140
0.0203839785 0.0391569796 0.07 140 140 140
-0.00593825942 0.0169637156 0.07 140 140 140
-0.0476991814 -0.0371151647 0.07 140 140 140
0.00460085556 -0.0358578672 0.07 140 140 140
-0.0403472327 -0.0315084958 0.07 140 140 140
0.0163702555 0.0256096424 0.07 140 140 140
-0.0113220837 0.0384145516 0.07 140 140 140
0.0170713655 -0.0214696838 0.07 140 140 140
-0.00306600243 -0.0375765474 0.07 140 140 140
-0.0204097258 -0.0322066999 0.07 140 140 140
-0.00392467361 0.0115212764 0.07 140 140 140
-0.0452503144 -0.00683320832 0.07 140 140 140
0.0403115584 0.035679895 0.07 140 140 140
0.00763469329 0.0347215082 0.07 140 140 140
0.0476188124 -0.00361685756 0.07 140 140 140
-0.0332168914 0.0348674725 0.07 140 140 140
0.0152929185 -0.0261550031 0.07 140 140 140
0.00856894602 -0.00784404355 0.07 140 140 140
0.00507870638 -0.032875737 0.07 140 140 140
-0.0188692569 -0.02627433 0.07 140 140 140
0.0307973583 -0.0167756393 0.07 140 140 140
0.0467981398 -0.00464307435 0.07 140 140 140
0.00504218755 0.0165664297 0.07 140 140 140
-0.0466803844 0.035173153 0.07 140 140 140
0.0204220966 0.00789295059 0.07 140 140 140
0.0494741227 0.0229694175 0.07 140 140 140
-0.0230303938 -0.0246822763 0.07 140 140 140
0.00576369455 -0.0231119137 0.07 140 140 140
0.0261048433 0.00852553056 0.07 140 140 140
-0.0407160096 -0.0153458935 0.07 140 140 140
0.00452660993 -0.00620771864 0.07 140 140 140
-0.0113630054 -0.00736062881 0.07 140 140 140
-0.0172866758 0.0207748138 0.07 140 140 140
-0.0488707795 -0.0071474972 0.07 140 140 140
0.00954455821 0.0271503516 0.07 140 140 140
-0.0376992854 4.01591106e-05 0.07 140 140 140
-0.00604130866 -0.0104752717 0.07 140 140 140
-0.0378311958 -0.0360088131 0.07 140 140 140
-0.0299464228 -0.0113087004 0.07 140 140 140
-0.0358102095 0.0279832251 0.07 140 140 140
-0.0308256658 0.0387907357 0.07 140 140 140
-0.0277762765 0.0210732262 0.07 140 140 140
0.00322583483 -0.0114748136 0.07 140 140 140
0.032794775 0.0165321104 0.07 140 140 140
0.00276875778 -0.0389812921 0.07 140 140 140
-0.0277667098 -0.015384953 0.07 140 140 140
-0.0303459495 0.01411133 0.07 140 140 140
0.00722041101 0.0216110594 0.07 140 140 140
0.0494612791 0.00726633763 0.07 140 140 140
-0.0203990651 0.0106809419 0.07 140 140 140
-0.00920394662 0.0360413358 0.07 140 140 140
0.0109623597 -0.0168254393 0.07 140 140 140
-0.0257473366 -0.000513702978 0.07 140 140 140
-0.00298400591 -0.0111410417 0.07 140 140 140
0.0314949539 -0.0291544521 0.07 140 140 140
-0.00554594989 0.0399645799 0.07 140 140 140
0.0109696249 -0.00424468332 0.07 140 140 140
-0.0434527795 0.00939884772 0.07 140 140 140
-0.0136841357 -0.00396400132 0.07 140 140 140
-0.00438082164 0.0126383148 0.07 140 140 140
-0.0458073091 0.00176827426 0.07 140 140 140
-0.0277022392 -0.00493996598 0.07 140 140 140
0.0242423336 -0.0239955153 0.07 140 140 140
0.0347610817 0.00630465795 0.07 140 140 140
-0.00665352928 -0.0347564335 0.07 140 140 140
-0.0346844386 0.0302645646 0.07 140 140 140
-0.0183836006 -0.0335873418 0.07 140 140 140
-0.0106631185 -0.0305180596 0.07 140 140 140
-0.00302099969 -0.0291244691 0.07 140 140 140
0.0480715578 0.0165486125 0.07 140 140 140
0.0476446953 -0.0252278944 0.07 140 140 140
-0.0418008218 0.0142307731 0.07 140 140 140
0.0340838123 0.032368703 0.07 140 140 140
-0.0109070009 -0.0114480791 0.07 140 140 140
0.035914257 0.0298181089 0.07 140 140 140
-0.0481343773 -0.00523764802 0.07 140 140 140
-0.0409059637 -0.0109646738 0.07 140 140 140
-0.0218727585 0.0223756001 0.07 140 140 140
-0.00784134529 -0.0256524881 0.07 140 140 140
0.043358213 0.0113410614 0.07 140 140 140
-0.0130409404 0.0397471325 0.07 140 140 140
0.0224920791 -0.0345283882 0.07 140 140 140
0.0333629699 -0.0125391178 0.07 140 140 140
-0.0423705159 -0.0160787865 0.07 140 140 140
-0.0121431803 0.0216987854 0.07 140 140 140
