ply
format ascii 1.0
comment VisionMCP oriented point archive (not a trained radiance field)
element vertex 2200
property float x
property float y
property float z
property uchar red
property uchar green
property uchar blue
end_header
-0.0396041 0.054 0.0675502576 178 178 178
-0.0275 0.0732359915 0.0510849898 178 178 178
-0.077 0.000840428616 0.0603356179 178 178 178
-0.0753176637 -0.0201052073 0.125 178 178 178
-0.0245135086 -0.054 0.0712293873 178 178 178
0.0275 0.0914290365 0.0416722924 178 178 178
-0.0543674233 -0.0450800168 0 178 178 178
0.0107105652 0.0564746867 0.06875 178 178 178
0.0152023279 0.0652070366 0.03125 178 178 178
0.077 -0.0508499067 0.0278442103 178 178 178
-0.0716874783 -0.054 0.0677740105 178 178 178
-0.0257700899 -0.054 0.119011302 178 178 178
0.00711886596 0.053693759 0.125 178 178 178
0.077 -0.0292161316 0.115265138 178 178 178
0.077 -0.00951001401 0.0422750577 178 178 178
0.0169074666 0.054 0.109270078 178 178 178
0.0275 0.00157239846 0.131429951 178 178 178
-0.00477998396 0.0429928856 0.03125 178 178 178
-0.029792636 0.054 0.00632462551 178 178 178
0.028581666 0.009 0.108305065 178 178 178
-0.0702514842 0.0471547083 0.125 178 178 178
0.0193620437 -0.0188637463 0.125 178 178 178
0.0382384124 0.054 0.0239819477 178 178 178
0.0691421271 -0.0195530499 0 178 178 178
0.0759403334 -0.0509455511 0 178 178 178
0.077 0.0232327832 0.0822312769 178 178 178
0.077 -0.0522816531 0.0593295809 178 178 178
-0.0372692108 0.00191042326 0.10625 178 178 178
-0.0515022317 0.054 0.0365829756 178 178 178
0.077 0.0209964351 0.0800014098 178 178 178
0.077 0.0101258371 0.00846349464 178 178 178
-0.015473812 -0.000239827238 0.125 178 178 178
0.00690669908 -0.0381570351 0 178 178 178
-0.0426263552 -0.0465635541 0.125 178 178 178
-0.077 0.00207574628 0.0631310861 178 178 178
-0.0595224946 0.0514386559 0.125 178 178 178
-0.0631420885 -0.054 0.00494847199 178 178 178
0.0543493066 -0.0111149936 0 178 178 178
-0.0123403113 0.0919570894 0.06875 178 178 178
0.0209699077 -0.00507749343 0.125 178 178 178
-0.0667229746 -0.054 0.0964398117 178 178 178
0.0107736018 0.099 0.0488743021 178 178 178
0.077 0.0342727563 0.0819667125 178 178 178
-0.00793910161 0.036 0.062799643 178 178 178
-0.0549887245 0.054 0.00770195781 178 178 178
-0.077 -0.0217330916 0.0571272474 178 178 178
0.0267392919 0.052390466 0 178 178 178
-0.0566586352 0.054 0.11634509 178 178 178
0.077 0.0277138304 0.039384118 178 178 178
0.0275 0.088041305 0.0445541233 178 178 178
0.00372690203 -0.054 0.0509535866 178 178 178
-0.0189237561 0.054 0.121425643 178 178 178
0.0466939491 -0.0211081446 0 178 178 178
0.0686846555 -0.054 0.0539455387 178 178 178
-0.0440983255 -0.054 0.0671547239 178 178 178
0.0756373246 0.0443675009 0.125 178 178 178
-0.0096403258 0.0385022484 0.06875 178 178 178
0.0351506081 -0.054 0.0280587752 178 178 178
0.055 -0.00940072408 0.118714022 178 178 178
0.0564388764 0.054 0.0544558035 178 178 178
-0.0576201994 0.054 0.0785166041 178 178 178
0.037408211 0.054 0.0277775081 178 178 178
-0.0182699207 0.054 0.0536892252 178 178 178
-0.00958113062 -0.0220897223 0.125 178 178 178
0.077 -0.0356800105 0.115262703 178 178 178
-0.0653050737 -0.0230027775 0.125 178 178 178
0.0123434808 -0.054 0.0511965547 178 178 178
-0.0567599179 0.0459361166 0 178 178 178
0.0376716866 -0.018 0.137330101 178 178 178
0.0288790866 0.0365738351 0.125 178 178 178
-0.0763199998 0.054 0.118255243 178 178 178
-0.0725583635 -0.054 0.0191297606 178 178 178
0.0275 0.0873679232 0.0326954037 178 178 178
-0.0559188225 0.054 0.102461063 178 178 178
0.0469530569 0.039416813 0 178 178 178
-0.00342690959 0.036 0.0629374215 178 178 178
-0.0348899049 0.009 0.113406443 178 178 178
-0.0275 0.0807475554 0.0400047504 178 178 178
-0.00541128798 0.054 0.109886447 178 178 178
0.0434522642 -0.0209798126 0.125 178 178 178
0.00192768335 -0.009057913 0.125 178 178 178
-0.0523493661 -0.018 0.107916036 178 178 178
0.0258443402 0.054 0.0912977604 178 178 178
-0.0306913595 -0.0490156614 0.125 178 178 178
0.0242436023 0.099 0.0636908979 178 178 178
-0.0128919403 0.054 0.0559552611 178 178 178
-0.00119414281 0.054 0.112324766 178 178 178
-0.0293953777 -0.054 0.0373501361 178 178 178
0.0312364848 -0.054 0.0135564005 178 178 178
-0.0299041744 -0.0198875575 0.125 178 178 178
0.0590405113 -0.0226794118 0 178 178 178
-0.00438767232 0.099 0.059312007 178 178 178
0.077 -0.0409679702 0.0605557042 178 178 178
-0.0662599881 0.054 0.122656343 178 178 178
-0.050075144 -0.054 0.103228733 178 178 178
-0.077 -0.00863460736 0.0720656004 178 178 178
0.0654256413 -0.0471799839 0 178 178 178
0.0179297645 -0.054 0.0417117915 178 178 178
0.0725041803 -0.0499780598 0 178 178 178
-0.0753533533 0.00486899216 0 178 178 178
0.044720653 0.00878804406 0.14375 178 178 178
0.0385052218 0.054 0.0134719844 178 178 178
0.077 0.00396799883 0.107133882 178 178 178
0.077 0.00430008993 0.0392582163 178 178 178
0.0275 0.0770178939 0.0340393862 178 178 178
0.0458323006 -0.054 0.028631408 178 178 178
0.0628125173 0.054 0.0267599528 178 178 178
-0.077 0.0394946808 0.0590999667 178 178 178
-0.0273324697 -0.054 0.0344941567 178 178 178
0.077 0.0388828613 0.073621116 178 178 178
-0.077 0.00320076157 0.0380319368 178 178 178
-0.0275 0.0545266233 0.055592576 178 178 178
0.0112667778 -0.049354449 0.125 178 178 178
-0.0275 -0.0146153296 0.124471943 178 178 178
0.0719250707 0.00240148144 0 178 178 178
-0.077 -0.0229377428 0.0831593039 178 178 178
-0.00762875032 0.0868105913 0.03125 178 178 178
0.0522483926 -0.0219142195 0.125 178 178 178
0.077 -0.0461955513 0.113271746 178 178 178
0.000717694665 0.0367880954 0.06875 178 178 178
-0.0338264815 -0.0490604861 0 178 178 178
-0.02826728 0.054 0.0629806305 178 178 178
-0.00482251006 0.0551314603 0.03125 178 178 178
0.077 -0.0385624555 0.0118506883 178 178 178
-0.077 -0.0368025047 0.119875215 178 178 178
-0.0479615042 0.031489749 0.125 178 178 178
-0.045875708 0.0155208622 0.125 178 178 178
-0.0201147495 -0.054 0.0142071399 178 178 178
0.0573643251 -0.0408094938 0.125 178 178 178
0.0354311008 -0.054 0.0106027359 178 178 178
-0.055 0.00575252652 0.121905734 178 178 178
-0.00404173036 0.054 0.123887034 178 178 178
-0.0152989407 -0.054 0.12188716 178 178 178
0.023247879 -0.054 0.120360209 178 178 178
-0.055 -0.0155484682 0.132591264 178 178 178
0.077 0.0120713014 0.0911372609 178 178 178
0.055 -0.00320038962 0.11214329 178 178 178
0.077 0.0331867271 0.0832617073 178 178 178
0.077 -0.0119841878 0.033358124 178 178 178
-0.0275 0.0823678132 0.0607015333 178 178 178
-0.077 0.0262401323 0.00224856387 178 178 178
0.0688132134 0.054 0.0145694937 178 178 178
0.077 0.00229972725 0.105735239 178 178 178
-0.00246666463 0.099 0.0532030632 178 178 178
0.0515923943 -0.054 0.0629779735 178 178 178
-0.032021371 0.00584494186 0.14375 178 178 178
0.0226336474 0.0447065448 0 178 178 178
0.077 -0.0529202648 0.0980934924 178 178 178
0.077 0.0453797944 0.103217894 178 178 178
-0.055 -0.00617286785 0.136689048 178 178 178
-0.020450685 0.0499990338 0.125 178 178 178
-0.0188292318 0.095662356 0.03125 178 178 178
0.0449614133 0.054 0.0121453009 178 178 178
-0.077 0.0156901138 0.0646683337 178 178 178
-0.0190281222 0.054 0.0504643535 178 178 178
0.0356104514 -0.018 0.125082286 178 178 178
-0.0317860462 -0.054 0.0525730614 178 178 178
0.0669280898 -0.054 0.0728077077 178 178 178
-0.0650494461 -0.0369231869 0.125 178 178 178
-0.011326729 -0.0151460641 0 178 178 178
0.0477728852 0.0401672714 0.125 178 178 178
-0.0465573475 -0.00524093977 0.10625 178 178 178
-0.0256257826 0.0680219221 0.06875 178 178 178
-0.053091002 0.052228949 0 178 178 178
-0.0574881291 0.054 0.0603383814 178 178 178
0.077 0.0183410669 0.00257102608 178 178 178
0.0336458155 0.054 0.0461319092 178 178 178
-0.00287933851 0.054 0.0409726792 178 178 178
0.0527068586 -0.054 0.123817095 178 178 178
0.0385604608 0.00601449342 0.10625 178 178 178
0.077 -0.0336328224 0.0330432638 178 178 178
-0.0524738677 0.054 0.0120914824 178 178 178
-0.0174348607 0.054 0.0321801667 178 178 178
0.0536646742 -0.0491774332 0.125 178 178 178
0.00670663126 -0.0306150484 0 178 178 178
-0.0214392785 -0.054 0.0280166342 178 178 178
-0.077 0.0388415214 0.00631229721 178 178 178
0.00240734597 0.0563846456 0.06875 178 178 178
-0.077 -0.0168690884 0.11594342 178 178 178
-0.00884997863 0.0479574253 0 178 178 178
-0.0322700852 -0.0014322899 0.10625 178 178 178
-0.0192137361 0.0904826663 0.03125 178 178 178
0.0137312641 0.099 0.0477937792 178 178 178
0.077 0.0102815176 0.00636801703 178 178 178
-0.0492921331 0.00760353568 0.10625 178 178 178
0.0759399242 0.0379250767 0 178 178 178
0.0255060451 -0.0525992722 0 178 178 178
0.0586577101 -0.0525312539 0 178 178 178
0.0174229175 0.0503442509 0.125 178 178 178
-0.0258032942 0.0538380006 0.125 178 178 178
0.0067505424 -0.0465380236 0.125 178 178 178
0.0282070573 0.054 0.101093292 178 178 178
0.0191704514 -0.00382929539 0 178 178 178
0.0511592693 0.054 0.0852462971 178 178 178
0.0276654756 -0.026803853 0.125 178 178 178
-0.00427280669 0.054 0.00655609982 178 178 178
-0.055736282 -0.0411442216 0 178 178 178
-0.0275924697 -0.054 0.109439732 178 178 178
-0.0275 0.00452466038 0.122461366 178 178 178
0.00140362687 0.054 0.114605103 178 178 178
-0.013384641 0.0606670692 0.03125 178 178 178
0.00202303171 0.054 0.0314058214 178 178 178
-0.0419025608 0.054 0.00342097925 178 178 178
0.072040397 -0.0414380606 0.125 178 178 178
0.0437291895 0.054 0.0858573147 178 178 178
-0.00798679682 -0.0208988068 0 178 178 178
-0.0253132872 0.0845831921 0.03125 178 178 178
0.0446648702 0.00842008421 0.10625 178 178 178
0.0237438138 0.036 0.0365436056 178 178 178
0.0690125218 0.0276480501 0 178 178 178
0.010496077 -0.054 0.0800899936 178 178 178
-0.0703461949 -0.054 0.0640183956 178 178 178
-0.0659294281 0.0467694523 0 178 178 178
-0.0597123773 0.054 0.00210444093 178 178 178
0.0232485577 0.0500297323 0.03125 178 178 178
-0.0160203194 -0.054 0.0781851659 178 178 178
0.0275 0.0390366066 0.0513101506 178 178 178
-0.000538802356 0.0546017909 0.03125 178 178 178
-0.0351199934 0.0467716034 0 178 178 178
-0.077 -0.0495574316 0.0304916521 178 178 178
-0.00105638502 0.099 0.0539727804 178 178 178
0.067016055 0.0173622616 0.125 178 178 178
0.0659729785 0.054 0.0771962552 178 178 178
-0.0260660258 0.054 0.0153118856 178 178 178
-0.0389080474 0.054 0.0916627439 178 178 178
-0.0214425542 -0.0031939346 0 178 178 178
-0.00264189486 0.054 0.0493306966 178 178 178
-0.00252294253 0.054 0.0145140458 178 178 178
0.00054841382 0.0539246283 0.06875 178 178 178
-0.0210940511 0.0812338599 0.03125 178 178 178
-0.0443922317 -0.054 0.0396275296 178 178 178
-0.077 -0.0264174343 0.110423856 178 178 178
0.0275 0.0623395914 0.0346036026 178 178 178
-0.0275 0.0620570321 0.0562365699 178 178 178
0.0463752822 0.00863192507 0.125 178 178 178
-0.019786622 -0.0397376791 0 178 178 178
-0.0215108984 0.054 0.0297113382 178 178 178
-0.00963468698 0.0270476383 0.125 178 178 178
-0.0118525225 0.054 0.0927284746 178 178 178
-0.0534802094 0.009 0.113030933 178 178 178
0.0594451079 -0.054 0.0769752763 178 178 178
-0.0705219383 -0.0164461697 0.125 178 178 178
0.077 0.0190815218 0.11410135 178 178 178
-0.0371880217 0.054 0.0289933664 178 178 178
0.014703758 0.0349387262 0 178 178 178
-0.0154045682 -0.054 0.0471490199 178 178 178
0.0287993176 0.0184808537 0.125 178 178 178
-0.0518378954 0.054 0.0786154225 178 178 178
-0.0140660195 0.0922591301 0.06875 178 178 178
0.0612411774 -0.054 0.0889410414 178 178 178
-0.0052400688 -0.054 0.0553017828 178 178 178
0.0530569473 0.054 0.114067259 178 178 178
-0.036371024 0.0274256427 0.125 178 178 178
-0.0653812706 0.0343152006 0.125 178 178 178
-0.047643515 -0.054 0.11534949 178 178 178
0.077 -0.0238735316 0.0795954632 178 178 178
-0.0545638878 0.0495695516 0 178 178 178
-0.077 -0.047385199 0.0150740228 178 178 178
0.0209380252 0.054 0.112343289 178 178 178
-0.0650472924 -0.054 0.0770492416 178 178 178
0.00479424501 0.0244920593 0 178 178 178
-0.077 0.0090638562 0.0169130906 178 178 178
0.00253551399 0.0401134415 0 178 178 178
0.0683595779 -0.0101985672 0.125 178 178 178
-0.0607454477 -0.0106861538 0 178 178 178
-0.0316544736 0.0392026344 0 178 178 178
-0.0275 0.0465103541 0.0356411459 178 178 178
-0.0744791613 -0.054 0.0238882093 178 178 178
-0.0332181699 -0.054 0.119695357 178 178 178
-0.0262020968 0.079608937 0.06875 178 178 178
-0.00289902374 0.054 0.0310563089 178 178 178
-0.0502436138 -0.0467702479 0.125 178 178 178
0.077 -0.0297479416 0.110527458 178 178 178
0.0257261413 0.099 0.0530449775 178 178 178
0.033354077 -0.054 0.0480248069 178 178 178
-0.077 0.0460074461 0.0551615835 178 178 178
0.0196405309 0.0301428803 0 178 178 178
-0.077 0.0280436294 0.0787832596 178 178 178
-0.077 -0.0429958089 0.00616684713 178 178 178
0.017396003 0.068911047 0.06875 178 178 178
-0.0538301374 0.054 0.030876512 178 178 178
0.000177114517 -0.054 0.03931095 178 178 178
-0.0380859243 -0.0429403397 0 178 178 178
0.077 0.0473106388 0.100829034 178 178 178
-0.077 -0.0504673353 0.0985918955 178 178 178
0.0465366254 -0.0341288795 0.125 178 178 178
-0.0135336218 -0.054 0.120010442 178 178 178
0.0400776965 0.054 0.105051661 178 178 178
-0.077 -0.0300613371 0.00125893892 178 178 178
-0.0275 0.0631865401 0.0555252901 178 178 178
-0.0094394234 0.0104037601 0 178 178 178
0.0307634281 -0.0112448802 0.125 178 178 178
-0.00156016194 0.052845182 0.03125 178 178 178
-0.0237115411 0.054 0.0681640067 178 178 178
-0.077 0.0211221561 0.089061208 178 178 178
0.0275 0.00422991219 0.110993397 178 178 178
-0.0275 -0.00106090381 0.110712688 178 178 178
-0.0247264647 0.036 0.0512504047 178 178 178
-0.077 -0.0320051134 0.000853589292 178 178 178
0.0617521824 -0.054 0.0860942601 178 178 178
-0.0437149132 0.054 0.0655356392 178 178 178
0.048483609 0.0273475213 0.125 178 178 178
-0.077 -0.0306200401 0.00853526481 178 178 178
-0.077 -0.000669967434 0.0108765129 178 178 178
-0.077 0.0495199871 0.0766787186 178 178 178
0.077 -0.00158874094 0.114850399 178 178 178
0.0727862008 -0.054 0.0740939115 178 178 178
0.077 -0.0261371286 0.0532097176 178 178 178
-0.0611628045 -0.0502691977 0 178 178 178
0.02407103 0.036 0.068020288 178 178 178
0.0458738728 0.054 0.115893851 178 178 178
0.0430403971 -0.054 0.0175187988 178 178 178
0.0397445279 0.054 0.112979371 178 178 178
-0.077 -7.12591952e-05 0.0963603276 178 178 178
0.069487295 -0.054 0.0680363665 178 178 178
-0.0132322148 0.0670779406 0.06875 178 178 178
-0.0366731236 -0.00939945483 0.14375 178 178 178
0.0491087704 -0.054 0.0382853055 178 178 178
-0.00548846762 -0.00725926452 0.125 178 178 178
-0.077 -0.0373106869 0.0994012177 178 178 178
0.0275 -0.00442735184 0.125458417 178 178 178
0.052764702 0.0139745584 0.125 178 178 178
-0.077 0.019445511 0.112097618 178 178 178
0.0083208872 0.0671949533 0.06875 178 178 178
-0.0373324428 0.00886617149 0.14375 178 178 178
-0.0750310895 0.0318153607 0 178 178 178
0.00300759933 0.0399402995 0 178 178 178
0.0510534772 0.009 0.109902334 178 178 178
-0.0433528044 -0.0177255626 0 178 178 178
0.0528984995 0.0346285963 0.125 178 178 178
0.0635619908 0.054 0.121392665 178 178 178
0.077 -0.0498870082 0.0990761149 178 178 178
-0.077 -0.0491862828 0.0807442775 178 178 178
-0.0395379637 -0.0535894394 0.125 178 178 178
-0.0327004062 0.00749534412 0.10625 178 178 178
0.00217590739 0.0471582724 0.125 178 178 178
-0.077 -0.0316452861 0.0785906913 178 178 178
0.0202105596 0.0167769361 0 178 178 178
0.077 0.0366780722 0.017106458 178 178 178
-0.000942525769 -0.0472125633 0 178 178 178
-0.0599959535 -0.054 0.102137019 178 178 178
0.0278615301 -0.054 0.104152769 178 178 178
-0.077 0.0346575539 0.0918475626 178 178 178
0.077 -0.0430445129 0.0637469127 178 178 178
-0.0699312079 -0.0493242958 0 178 178 178
0.0275 0.00667837759 0.122842563 178 178 178
-0.0227212205 0.099 0.0370145705 178 178 178
-0.0462165943 -0.00556022365 0.10625 178 178 178
-0.0532500737 -0.0245552039 0.125 178 178 178
-0.000520013291 -0.054 0.0427713314 178 178 178
-0.039359948 0.0238179382 0.125 178 178 178
-0.0690152496 0.0286939973 0 178 178 178
0.067230449 0.0378173828 0 178 178 178
0.077 0.0458492763 0.0953613399 178 178 178
-0.0352308537 0.0522985578 0 178 178 178
0.0678147268 0.0333849462 0.125 178 178 178
0.0275 0.0486542792 0.0564129639 178 178 178
0.077 -0.0133198292 0.043748966 178 178 178
0.0735565938 -0.0168219364 0.125 178 178 178
0.00334319895 0.054 0.0163526422 178 178 178
0.0136531176 -0.054 0.0985932053 178 178 178
0.0156718882 0.054 0.0642829083 178 178 178
-0.0220534135 -0.054 0.11297296 178 178 178
0.077 -0.00560755365 0.0460851092 178 178 178
-0.022896578 0.054 0.0807356964 178 178 178
0.0452224345 0.054 0.0585901973 178 178 178
0.0658606889 -0.054 0.00773556482 178 178 178
0.0157868825 0.0582505736 0.03125 178 178 178
0.0275 0.0860372735 0.0426922941 178 178 178
0.00936329088 -0.0489572559 0.125 178 178 178
-0.0123031813 -0.0477625474 0.125 178 178 178
-0.0398957932 0.0459999213 0 178 178 178
0.055 -0.00401537875 0.139040532 178 178 178
-0.0329633606 0.009 0.138387421 178 178 178
0.0381337391 0.0538453857 0.125 178 178 178
0.0360908138 -0.018 0.134300716 178 178 178
-0.0310395427 -0.00836354024 0.125 178 178 178
0.077 0.0303189399 0.0757899949 178 178 178
0.077 0.00388807996 0.00397351867 178 178 178
-0.0385355747 0.00133733622 0.10625 178 178 178
0.0273710302 0.00387998375 0 178 178 178
0.0259297296 -0.054 0.0938355879 178 178 178
0.0545262218 0.054 0.119985431 178 178 178
-0.0582925756 0.0432120468 0 178 178 178
-0.0130625712 0.0155866683 0.125 178 178 178
0.077 0.00493040083 0.113008067 178 178 178
0.0145394942 0.099 0.0660366223 178 178 178
-0.077 -0.0410140536 0.0738583814 178 178 178
-0.0178984419 0.0827809931 0.06875 178 178 178
-0.077 -0.0484205241 0.0662189218 178 178 178
-0.077 0.00492233986 0.0876749061 178 178 178
-0.00959706864 0.036 0.0345613989 178 178 178
-0.077 0.0142397628 0.0652069883 178 178 178
-0.077 -0.0335741475 0.0662059405 178 178 178
-0.0451261475 -0.054 0.0769665516 178 178 178
0.0231378315 -0.0373896932 0.125 178 178 178
-0.077 -0.0144935357 0.00207184893 178 178 178
-0.00951414976 -0.017161012 0.125 178 178 178
-0.046589673 -0.0131512784 0.14375 178 178 178
0.0675784237 0.054 0.0276927421 178 178 178
0.0460858248 -0.054 0.102508192 178 178 178
-0.0275 -0.0026287217 0.127247963 178 178 178
0.0270904988 -0.0461438173 0.125 178 178 178
0.077 0.0504418262 0.0281090875 178 178 178
0.00445319724 0.0314951631 0 178 178 178
0.044348048 0.00630980888 0.14375 178 178 178
0.0272970036 0.054 0.109139318 178 178 178
-0.00799387295 0.0975245955 0.03125 178 178 178
-0.0600673718 -0.054 0.0323120967 178 178 178
-0.0246032428 0.0750468802 0.03125 178 178 178
-0.077 0.00583916935 0.121810043 178 178 178
-0.0279499897 0.054 0.015988627 178 178 178
-0.055 -0.00614756954 0.142758134 178 178 178
0.077 -0.0367054655 0.053744386 178 178 178
-0.0392007025 -0.054 0.00102057605 178 178 178
-0.077 0.0340317369 0.118286352 178 178 178
0.00453204489 0.076401282 0.06875 178 178 178
0.030738385 -0.054 0.0891167728 178 178 178
-0.0720124657 0.054 0.0182537457 178 178 178
-0.0329663355 -0.00340924919 0.125 178 178 178
-0.0173188308 0.054 0.122996256 178 178 178
-0.077 -0.0140099955 0.005633538 178 178 178
-0.000398614342 -0.0307329077 0 178 178 178
-0.077 0.0109594584 0.0604287035 178 178 178
0.0338852209 0.00623768424 0 178 178 178
0.0462921012 -0.00215689501 0.10625 178 178 178
0.077 -0.0091964158 0.117666135 178 178 178
-0.0422894425 -0.054 0.00978943857 178 178 178
-0.077 0.0519103412 0.026213016 178 178 178
0.077 -0.0117852927 0.0453374674 178 178 178
-0.077 0.0449671386 0.0972805522 178 178 178
-0.0409765577 0.0414651952 0 178 178 178
0.0391171259 0.054 0.0865884307 178 178 178
-0.0325919965 0.054 0.0979281918 178 178 178
-0.0275 -0.0162854735 0.136309784 178 178 178
-0.0556084004 -0.0514136141 0 178 178 178
0.077 -0.00917788614 0.0620328104 178 178 178
-0.0768272762 0.054 0.0726118862 178 178 178
0.0574825155 0.054 0.07189268 178 178 178
-0.0441832168 0.0510783397 0 178 178 178
0.0516693035 0.054 0.0877029897 178 178 178
-0.00627771094 -0.00305004333 0.125 178 178 178
-0.0694316739 -0.05015157 0.125 178 178 178
0.00547561033 0.099 0.048740865 178 178 178
0.0103199121 -0.0221319352 0.125 178 178 178
0.077 0.0129515455 0.0828498672 178 178 178
-0.077 -0.0182205647 0.0588245548 178 178 178
-0.077 -0.0199854402 0.0925628631 178 178 178
0.0448975347 0.054 0.0860730667 178 178 178
-0.0219979313 0.0474208788 0.03125 178 178 178
0.077 -0.0187003167 0.0645860877 178 178 178
-0.0740471549 0.054 0.0546197147 178 178 178
-0.0183934031 0.0394335712 0.06875 178 178 178
-0.0549428993 0.054 0.0325586706 178 178 178
-0.0292904154 0.054 0.0631696001 178 178 178
0.0524811946 -0.054 0.104178324 178 178 178
0.0127536152 0.054 0.0720786699 178 178 178
0.0166920063 -0.054 0.0303991178 178 178 178
-0.077 -0.0236383969 0.0392335247 178 178 178
0.0698790611 -0.054 0.0601213208 178 178 178
0.077 0.00345960898 0.0716314727 178 178 178
-0.077 0.0223532675 0.0257492252 178 178 178
0.077 -0.032875948 0.00215111073 178 178 178
-0.0527182638 -0.054 0.117364821 178 178 178
0.0033066624 0.0467801758 0.06875 178 178 178
-0.0237583535 -0.054 0.00252757276 178 178 178
-0.020949734 0.036 0.0602106498 178 178 178
-0.077 -0.0452716451 0.0264105284 178 178 178
0.077 -0.0311660235 0.0967880523 178 178 178
-0.077 0.0515167363 0.0486877283 178 178 178
0.0210935935 -0.0243357507 0 178 178 178
0.00249880747 -0.054 0.0194246895 178 178 178
0.0275 0.0382987917 0.0360774643 178 178 178
-0.0668075117 0.054 0.122836611 178 178 178
0.0767632434 0.054 0.0847069249 178 178 178
0.0204751013 0.054 0.0335946553 178 178 178
-0.0678669109 0.054 0.0774180911 178 178 178
0.0203101065 0.054 0.124067138 178 178 178
0.077 -0.0247631623 0.112916296 178 178 178
0.000559437873 -0.000769948964 0.125 178 178 178
-0.0628862435 -0.054 0.0545640204 178 178 178
-0.0478020851 -0.054 0.090580791 178 178 178
0.077 0.00147900513 0.0954837211 178 178 178
0.0275 -0.0163052297 0.12813505 178 178 178
0.0744567054 -0.054 0.0341292123 178 178 178
0.077 -0.00840285199 0.119267752 178 178 178
0.0130708206 -0.054 0.0481999322 178 178 178
0.0582649911 0.054 0.0956555757 178 178 178
-0.055 0.00683025457 0.119447465 178 178 178
-0.0121181966 0.099 0.033910828 178 178 178
-0.0360319467 -0.054 0.018118122 178 178 178
-0.0608924034 -0.054 0.04170147 178 178 178
0.0082938422 0.099 0.041485887 178 178 178
0.077 0.00529508476 0.00846794023 178 178 178
-0.077 0.0116774243 0.0695610818 178 178 178
-0.0374933307 0.0366840155 0 178 178 178
0.0275 0.0499774599 0.0415903297 178 178 178
-0.0646111646 -0.054 0.0416728545 178 178 178
0.077 0.0334947062 0.0272380275 178 178 178
0.0493165185 0.0282581116 0.125 178 178 178
0.077 0.00652628416 0.105359275 178 178 178
-0.0124607758 0.0894624403 0.06875 178 178 178
0.00213788179 0.0872946983 0.06875 178 178 178
0.077 0.0262835711 0.0718631121 178 178 178
-0.077 -0.0389905807 0.0695811047 178 178 178
0.077 -0.0333317133 0.0356913499 178 178 178
-0.00612465155 -0.054 0.00348048683 178 178 178
0.0318205331 0.054 0.107634605 178 178 178
-0.0655706367 -0.00660877674 0.125 178 178 178
-0.0630205435 -0.054 0.0910659434 178 178 178
-0.077 0.0170076397 0.0637746756 178 178 178
-0.077 -0.0169252552 0.00867451516 178 178 178
0.0636533438 -0.0523264681 0 178 178 178
-0.077 -0.0337821462 0.0665569709 178 178 178
0.00919734983 0.0709336542 0.06875 178 178 178
0.077 -7.8696044e-05 0.0653750957 178 178 178
0.0611731406 -0.0411811024 0 178 178 178
-0.077 0.0479941662 0.101321158 178 178 178
0.00145120534 0.0176349304 0.125 178 178 178
-0.0665815564 0.054 0.000120336215 178 178 178
0.0511498851 -0.054 0.0235284496 178 178 178
-0.0754971112 0.054 0.109594169 178 178 178
-0.0258021909 0.0340306915 0.125 178 178 178
0.077 0.0484521819 0.0569147768 178 178 178
0.077 0.0261247361 0.00939088854 178 178 178
-0.0527628196 0.054 0.0259801779 178 178 178
-0.0685158906 0.0451267977 0.125 178 178 178
0.0357709252 -0.013558383 0.14375 178 178 178
0.00557543486 -0.054 0.0860798399 178 178 178
-0.0119057244 -0.054 0.0972755948 178 178 178
-0.0523170971 -0.0280387414 0.125 178 178 178
-0.072540968 0.0419453464 0 178 178 178
0.077 0.0354062769 0.105737442 178 178 178
-0.077 -0.0505000223 0.0197278621 178 178 178
-0.077 0.0163247492 0.0762435406 178 178 178
0.0284822807 -0.00277854962 0.125 178 178 178
0.0700594774 0.0326634797 0.125 178 178 178
-0.060454729 -0.054 0.0801844315 178 178 178
-0.077 -0.0446502886 0.0410474694 178 178 178
0.077 0.0161092941 0.01842713 178 178 178
-0.0412762026 -0.018 0.12804386 178 178 178
-0.00408859459 0.054 0.00565755852 178 178 178
0.00584367599 0.054 0.0411308208 178 178 178
-0.077 -0.0169380723 0.0546425392 178 178 178
-0.077 0.01058705 0.0403866746 178 178 178
0.0631303019 -0.054 0.0518751588 178 178 178
0.0669058792 0.0526102992 0.125 178 178 178
0.077 -0.028459603 0.0390191431 178 178 178
0.077 -0.0287134084 0.0164829143 178 178 178
-0.0675850084 -0.0484473823 0.125 178 178 178
0.077 0.0338757932 0.120679279 178 178 178
0.0351628885 0.054 0.00352414102 178 178 178
0.0500084567 -0.0333416625 0.125 178 178 178
0.00788691943 -0.0118605359 0.125 178 178 178
-0.00843613795 -0.0246807866 0.125 178 178 178
-0.0323959302 -0.054 0.0620402906 178 178 178
0.050337612 -0.0161586446 0.14375 178 178 178
-0.0563494192 -0.0504837026 0 178 178 178
0.0662131585 0.0042811296 0.125 178 178 178
0.0390430325 0.0224840565 0.125 178 178 178
0.077 -0.00157903292 0.0604837409 178 178 178
-0.00670805113 -0.0420031315 0 178 178 178
0.077 0.0166984663 0.10114443 178 178 178
0.0451687669 -0.0261856238 0.125 178 178 178
-0.0355897982 -0.054 0.0705021871 178 178 178
0.00428693502 0.0509135719 0.03125 178 178 178
0.0278377938 4.54835874e-05 0.125 178 178 178
-0.0699447355 0.054 0.027901326 178 178 178
0.035988975 -0.054 0.0469816491 178 178 178
0.0641492196 -0.054 0.106546348 178 178 178
0.0165292668 0.0548025991 0.06875 178 178 178
0.0384602574 -0.0534452337 0.125 178 178 178
-0.0535988744 -0.018 0.132490889 178 178 178
-0.0275 0.0471762355 0.0621875825 178 178 178
-0.0309679479 0.054 0.0789163463 178 178 178
0.0542145118 -0.0256844013 0 178 178 178
0.0112899447 0.054 0.0012547771 178 178 178
-0.007991834 0.054 0.0709659708 178 178 178
-0.077 -0.0469195408 0.0952385559 178 178 178
-0.00726224574 0.0138963882 0.125 178 178 178
-0.055 -0.0157911245 0.119587309 178 178 178
-0.0257664646 0.099 0.0531122607 178 178 178
-0.0516620823 0.0281416849 0 178 178 178
-0.0458080055 -0.054 0.0398951675 178 178 178
0.0569828352 -0.0328480676 0 178 178 178
-0.00550083646 0.0874082695 0.06875 178 178 178
-0.0506922295 -0.00344031252 0.10625 178 178 178
0.0294534227 0.009 0.11943437 178 178 178
-0.0299963641 0.054 0.0396919511 178 178 178
0.0402328272 0.054 0.00783262247 178 178 178
-0.077 0.0502054344 0.0325903041 178 178 178
0.0738413311 0.054 0.0597302743 178 178 178
-0.055 -0.0120847834 0.134572702 178 178 178
-0.0620424308 0.054 0.0428247353 178 178 178
-0.0559441226 -0.054 0.0393385011 178 178 178
0.077 -0.0378692867 0.00306538038 178 178 178
0.0445042266 0.0287828327 0 178 178 178
-0.077 0.0462600898 0.079986743 178 178 178
-0.077 0.0268075836 0.0830689705 178 178 178
0.077 -0.0129556927 0.113240849 178 178 178
0.0252259424 0.036 0.0475543755 178 178 178
-0.077 -0.0522162238 0.0111264209 178 178 178
0.00455839323 -0.054 0.110337372 178 178 178
-0.0708830242 -0.0478291287 0 178 178 178
-0.0568655041 -0.0121012665 0 178 178 178
0.0410161744 0.0015288221 0.125 178 178 178
0.00656965522 -0.054 0.122173368 178 178 178
0.077 -0.0509594465 0.035673569 178 178 178
-0.0352662783 -0.018 0.117982949 178 178 178
-0.0305942602 -0.054 0.0787078846 178 178 178
-0.0275 0.0730634887 0.0551687735 178 178 178
-0.077 0.0222840613 0.0647781613 178 178 178
0.00111882873 0.036 0.0395867533 178 178 178
-0.00181326568 -0.054 0.0160343847 178 178 178
-0.0275372024 -0.0493708888 0 178 178 178
0.0134397386 0.0712457112 0.03125 178 178 178
-0.0128504256 0.0181216534 0.125 178 178 178
0.0530306507 -0.0256041254 0.125 178 178 178
0.0164978067 0.0561374563 0.03125 178 178 178
-0.077 0.0450217995 0.122014221 178 178 178
0.00575128154 0.00893902746 0.125 178 178 178
0.0426318154 -0.054 0.117426245 178 178 178
-0.0275 -0.00125197346 0.106806317 178 178 178
-0.0193761816 -0.054 0.10160335 178 178 178
-0.077 -0.0317321054 0.112150742 178 178 178
-0.0645367313 0.0140296836 0 178 178 178
0.00923727242 0.0549402444 0.06875 178 178 178
-0.0648274347 0.0318075023 0 178 178 178
0.077 -0.0180534971 0.00771108423 178 178 178
0.0352997775 -0.0459135668 0 178 178 178
0.0706513903 0.054 0.0385156891 178 178 178
-0.0168748237 0.036 0.0490326728 178 178 178
-0.0202184808 0.0312487523 0 178 178 178
0.0220982072 -0.054 0.123247983 178 178 178
-0.077 -0.0539655399 0.0544393465 178 178 178
-0.00162848874 0.054 0.00791033729 178 178 178
-0.0298319682 -0.054 0.047814428 178 178 178
-0.0339002466 0.054 0.0807904625 178 178 178
0.077 -0.0296601488 0.0830450612 178 178 178
0.0275 0.0704562778 0.0543493443 178 178 178
0.0249429541 -0.054 0.10957806 178 178 178
-0.077 -0.0369824963 0.103648024 178 178 178
-0.0384308065 0.054 0.034970732 178 178 178
-0.077 -0.0311392966 0.086092834 178 178 178
0.0404702367 -0.054 0.0473526699 178 178 178
-0.077 -0.0343346509 0.102840479 178 178 178
-0.077 0.0461754596 0.12040341 178 178 178
0.0728371973 -0.054 0.0214581865 178 178 178
0.0754129727 -0.00229906247 0 178 178 178
0.052998292 -0.0174690653 0.14375 178 178 178
-0.077 0.0239559256 0.0404548221 178 178 178
-0.0702840019 0.0185831489 0.125 178 178 178
-0.077 -0.0074232154 0.11050888 178 178 178
-0.0051232153 -0.054 0.0678156194 178 178 178
0.077 -0.0305091502 0.0973655597 178 178 178
0.0275 0.0464354428 0.040063777 178 178 178
0.077 -0.0416065402 0.0564072122 178 178 178
-0.0570009923 -0.054 0.0790787232 178 178 178
-0.0634453458 -0.054 0.0331175316 178 178 178
-0.00608268218 0.0163516569 0 178 178 178
-0.0059030758 -0.00219248917 0.125 178 178 178
-0.0434035698 -0.054 0.116039774 178 178 178
0.00995369153 -0.0189086995 0.125 178 178 178
0.0180226102 -0.0216250157 0 178 178 178
0.077 0.0128509178 0.111945112 178 178 178
0.0347494916 0.0267958349 0.125 178 178 178
-0.077 0.0298294579 0.0108003446 178 178 178
-0.0439605716 -0.00540579921 0.14375 178 178 178
-0.0611810111 -0.054 0.0976978586 178 178 178
0.0315217435 0.054 0.0558128259 178 178 178
0.077 -0.000182563256 0.0515486053 178 178 178
-0.0613558289 0.0312402989 0 178 178 178
-0.0331972467 0.0219528889 0 178 178 178
-0.00103122368 0.099 0.0480536485 178 178 178
0.077 0.0267620309 0.0140109541 178 178 178
-0.00670217789 0.0861532189 0.03125 178 178 178
-0.0612812704 -0.0325701049 0 178 178 178
0.070458375 0.054 0.065412978 178 178 178
0.0275 0.0676947806 0.0520518712 178 178 178
0.0275 0.0950562723 0.048338222 178 178 178
-0.042111724 -0.0328463753 0 178 178 178
0.077 0.00963154362 0.0681055971 178 178 178
-0.00907389807 -0.054 0.0176607118 178 178 178
-0.077 -0.0360450926 0.0650875453 178 178 178
-0.0127222788 0.0432740242 0 178 178 178
-0.0539581791 -0.054 0.0299575808 178 178 178
-0.0185970485 0.0945358471 0.03125 178 178 178
0.077 0.0291844789 0.104280305 178 178 178
0.077 -0.0456122071 0.058226235 178 178 178
0.0501218881 -0.018 0.142137182 178 178 178
-0.0672620305 -0.054 0.0676667293 178 178 178
0.0597451589 -0.0529633738 0 178 178 178
-0.0348367195 -0.054 0.0239142862 178 178 178
0.0269983524 -0.00182886395 0.125 178 178 178
-0.051932716 0.0228057911 0 178 178 178
-0.00471043109 0.054 0.118360259 178 178 178
-0.055 -0.0156946795 0.127234339 178 178 178
-0.0130031136 0.054 0.0923972614 178 178 178
0.042039596 0.054 0.00182174238 178 178 178
-0.0122406955 -0.054 0.0819658404 178 178 178
0.0153895329 0.054 0.0765764154 178 178 178
-0.077 -0.0537564239 0.0172530619 178 178 178
0.0398020737 0.054 0.103132114 178 178 178
-0.0273557255 0.0760957286 0.03125 178 178 178
0.0606100324 0.054 0.07550001 178 178 178
0.0579218728 0.0363348435 0.125 178 178 178
0.0377687098 0.054 0.0386853848 178 178 178
0.077 0.0436201609 0.0932842247 178 178 178
0.0491391183 0.00478335433 0.125 178 178 178
-0.0246047736 0.054 0.0401563713 178 178 178
0.0188546101 0.0831948758 0.06875 178 178 178
0.020131703 -0.014748713 0.125 178 178 178
0.0563797592 0.054 0.0472977297 178 178 178
-0.077 -0.0157365555 0.0737946912 178 178 178
-0.0420970753 -0.054 0.0112475619 178 178 178
-0.0564985219 -0.054 0.0368940345 178 178 178
0.0250380079 -0.054 0.0695954075 178 178 178
-0.0332322326 0.054 0.113542014 178 178 178
-0.077 0.0340137081 0.0564124836 178 178 178
0.0741940908 0.054 0.0884605092 178 178 178
-0.0586224584 0.0528571691 0 178 178 178
0.0225303992 0.0698583098 0.06875 178 178 178
-0.0526002737 -0.018 0.141863649 178 178 178
0.0129704088 0.0347289528 0 178 178 178
-0.0468554627 0.0288911086 0.125 178 178 178
0.0404692105 0.0247622623 0.125 178 178 178
0.0151466718 0.036 0.050705308 178 178 178
-0.0275 0.0560408985 0.0525077394 178 178 178
0.0154802665 -0.0401467012 0 178 178 178
-0.0262711479 -0.054 0.0610697435 178 178 178
-0.0376453569 -0.0307709742 0.125 178 178 178
0.077 -0.0525908661 0.0759454121 178 178 178
-0.0506917987 0.00569086623 0.14375 178 178 178
0.00366151969 0.0262903017 0 178 178 178
-0.0146370708 -0.0174826178 0.125 178 178 178
0.077 0.0434518528 0.0454254126 178 178 178
0.077 -0.0320084121 0.00306479266 178 178 178
-0.077 -0.0502145322 0.0204334682 178 178 178
0.077 -0.0129754787 0.100918065 178 178 178
0.0378421767 -0.0367294587 0.125 178 178 178
0.0219212854 -0.054 0.0168224078 178 178 178
0.055 0.00652442905 0.118692829 178 178 178
-0.077 0.0451056961 0.00203130739 178 178 178
-0.0649288719 -0.0403759835 0 178 178 178
-0.0174988376 0.0814436936 0.03125 178 178 178
-0.0331262629 -0.054 0.0681301274 178 178 178
-0.077 -0.0144375644 0.020701394 178 178 178
0.0358094297 0.00447587169 0 178 178 178
0.0275 0.0491809321 0.0385781347 178 178 178
0.0756901229 -0.0361881357 0.125 178 178 178
0.077 -0.0507911346 0.10289869 178 178 178
0.028571177 0.054 0.0225082734 178 178 178
0.077 0.0388178289 0.0439356028 178 178 178
0.0354200791 -0.0400796445 0.125 178 178 178
0.0506386624 0.0303616065 0.125 178 178 178
0.0118266511 -0.054 0.107362485 178 178 178
0.076333725 -0.016902741 0 178 178 178
-0.074828454 -0.0168379261 0.125 178 178 178
0.0256239539 0.0537955168 0 178 178 178
0.077 -0.00622532196 0.0863186449 178 178 178
-0.00796703687 -0.054 0.0513905313 178 178 178
-0.00284847997 0.054 0.0764044718 178 178 178
-0.0730057237 -0.054 0.0754485014 178 178 178
0.0687194933 -0.0295659793 0 178 178 178
-0.0402449868 -0.054 0.0905097748 178 178 178
-0.077 0.026104048 0.0302136133 178 178 178
0.0435064283 0.0373143285 0.125 178 178 178
0.0316518242 -0.054 0.0029702032 178 178 178
-0.077 -0.0434758434 0.0107248204 178 178 178
-0.0438066836 -0.054 0.0215851806 178 178 178
-0.0236530835 0.099 0.0370686496 178 178 178
-0.0290148754 -0.00110441024 0.14375 178 178 178
-0.0729645523 -0.054 0.0113429336 178 178 178
-0.077 -0.020584193 0.0267609133 178 178 178
-0.0724166432 -0.0163427119 0.125 178 178 178
0.0350523192 0.0241562055 0.125 178 178 178
0.077 -0.0239741449 0.0373315689 178 178 178
-0.0680419022 0.054 0.0760609023 178 178 178
-0.0275 -0.00642954791 0.109545132 178 178 178
0.0488846155 -0.00330639439 0.125 178 178 178
-0.077 0.0459039888 0.101054844 178 178 178
0.077 0.0071720979 0.0372048976 178 178 178
-0.0178727068 -0.00398422878 0 178 178 178
0.0538087542 -0.018 0.139225128 178 178 178
-0.077 0.053591563 0.0249363438 178 178 178
-0.0304838605 0.000443236416 0 178 178 178
-0.0275 0.0629898801 0.047142235 178 178 178
0.00115456586 0.0285455062 0 178 178 178
-0.073415565 0.0116219807 0 178 178 178
-0.0343871726 -0.054 0.0417139366 178 178 178
-0.0275 0.00239055116 0.114578786 178 178 178
0.0540435037 -0.0315716323 0 178 178 178
-0.0319133799 -0.012330711 0.14375 178 178 178
-0.0307547832 0.054 0.0264249984 178 178 178
-0.0367318978 0.00582615413 0 178 178 178
0.0732727095 0.054 0.012664582 178 178 178
0.077 -0.0376163419 0.0912413347 178 178 178
0.0257849211 0.054 0.0991008383 178 178 178
-0.077 -0.0177414318 0.060073582 178 178 178
-0.077 -0.0395876484 0.122424394 178 178 178
0.0275 -0.0031420475 0.115258961 178 178 178
0.0619507953 -0.0225928406 0.125 178 178 178
-0.0227019473 0.0894119342 0.03125 178 178 178
0.0690424859 -0.054 0.0449179268 178 178 178
-0.077 -0.0498460101 0.10086753 178 178 178
0.000740434234 0.099 0.0436681919 178 178 178
0.0275 -0.0149168677 0.142254083 178 178 178
-0.0725012766 -0.054 0.0793753214 178 178 178
0.077 -0.0342710589 0.103007884 178 178 178
-0.0440909219 0.009 0.142856154 178 178 178
-0.04871885 0.009 0.110468015 178 178 178
0.0405786482 -0.054 0.0171380075 178 178 178
-0.0328500023 0.009 0.116232035 178 178 178
0.0419544593 -0.054 0.0287517231 178 178 178
-0.00138057167 -0.054 0.0384484124 178 178 178
-0.077 -0.0132950406 0.0731063095 178 178 178
0.077 -0.01179381 0.076837596 178 178 178
0.077 -0.0462657447 0.123323295 178 178 178
0.0459876173 -0.054 0.0201274679 178 178 178
0.077 -0.0419411808 0.106431114 178 178 178
-0.0129898971 -0.0102117977 0.125 178 178 178
0.0079494795 0.0055284118 0 178 178 178
-0.077 -0.047166886 0.0974949056 178 178 178
0.0459250299 0.054 0.0433445835 178 178 178
-0.0733467321 0.054 0.114523616 178 178 178
-0.0268096006 0.0771871179 0.03125 178 178 178
-0.0754030142 0.0134414036 0.125 178 178 178
-0.00100261932 0.0234776123 0.125 178 178 178
0.00950306347 -0.054 0.0832218172 178 178 178
-0.0457020115 -0.054 0.0857441975 178 178 178
-0.077 -0.0163233324 0.0807489255 178 178 178
0.052007623 -0.054 0.100834312 178 178 178
-0.0720671719 -0.054 0.0657045401 178 178 178
0.0141624135 0.054 0.0125248433 178 178 178
0.0245159317 -0.0204307758 0.125 178 178 178
-0.0722639717 -0.0219075739 0 178 178 178
-0.077 0.00831038267 0.0836077834 178 178 178
-0.077 -0.0219338786 0.0356758245 178 178 178
-0.0494739594 -0.054 0.110703563 178 178 178
0.0261461513 0.054 0.0320463603 178 178 178
0.0200172397 0.0125795031 0 178 178 178
0.0590575822 -0.054 0.00526538445 178 178 178
0.0377900563 0.054 0.0726996519 178 178 178
0.0349570641 0.0447607067 0.125 178 178 178
0.0535273197 -0.054 0.0296513939 178 178 178
0.045544217 0.054 0.0184421615 178 178 178
0.0578879879 0.054 0.0775885155 178 178 178
0.0578153377 -0.0302489776 0.125 178 178 178
-0.077 -0.0214418347 0.0907038063 178 178 178
-0.0749322951 0.0345915581 0 178 178 178
0.0372738111 -0.018 0.143562535 178 178 178
-0.0687056027 0.0347478179 0.125 178 178 178
-0.0406787613 0.0258067373 0.125 178 178 178
-0.0670942074 0.045343331 0.125 178 178 178
0.0369626309 0.009 0.106552655 178 178 178
-0.0721727109 -0.054 0.0127568144 178 178 178
-0.00338669491 0.054 0.00994821428 178 178 178
0.0337924047 0.009 0.128042618 178 178 178
-0.055 -0.0162381023 0.142766756 178 178 178
0.0429951031 -0.0128382607 0 178 178 178
0.077 0.0035252707 0.0110638916 178 178 178
-0.0149779728 0.054 0.124574762 178 178 178
-0.077 0.00166458053 0.0790724015 178 178 178
-0.071644066 -0.054 0.0596609774 178 178 178
-0.0669651154 -0.054 0.0929482038 178 178 178
0.0133305912 -0.0313678114 0 178 178 178
-0.0255621228 -0.0223424267 0 178 178 178
-0.0412263209 0.054 0.105533033 178 178 178
-0.039939217 0.0358064466 0 178 178 178
0.0139134316 0.052487485 0.125 178 178 178
-0.0742018977 -0.054 0.0462402294 178 178 178
-0.0664283859 0.0490560229 0 178 178 178
0.0604991065 0.00963452988 0 178 178 178
-0.0464792485 -0.018 0.125115542 178 178 178
0.077 0.00895650938 0.0865373352 178 178 178
-0.0480986825 0.0317321477 0.125 178 178 178
-0.077 0.0164264169 0.0701501341 178 178 178
-0.0264953135 -0.0298129802 0 178 178 178
0.0295458245 0.0448115089 0.125 178 178 178
0.0376028555 -0.0070426748 0.10625 178 178 178
-0.0275 0.0668581656 0.0575192672 178 178 178
-0.0248848294 0.054 0.00804303377 178 178 178
-0.0226159741 0.0486300184 0 178 178 178
-0.0574394104 -0.054 0.0934519394 178 178 178
0.0233253593 0.010637969 0 178 178 178
-0.0614580492 0.0527402173 0.125 178 178 178
0.0144382701 -0.0392272963 0 178 178 178
-0.057951106 0.0380530754 0 178 178 178
0.00251157854 0.054 0.0248636305 178 178 178
0.0120294416 0.0399797841 0 178 178 178
0.0564791771 -0.035603252 0.125 178 178 178
-0.0275 0.0416680908 0.0432841483 178 178 178
-0.0643336868 -0.054 0.0870279927 178 178 178
-0.0601530888 -0.054 0.0589164889 178 178 178
-0.0538088096 0.0318572387 0 178 178 178
0.0249731241 0.0847525944 0.03125 178 178 178
-0.00871870569 0.054 0.064407373 178 178 178
0.0655959754 0.054 0.0177485085 178 178 178
0.0107626139 0.054 0.015428161 178 178 178
0.0233376192 0.0503146581 0 178 178 178
-0.0762474597 -0.0455948014 0.125 178 178 178
0.062091331 0.054 0.0290098637 178 178 178
-0.055 0.000533339999 0.10701626 178 178 178
0.0244405169 0.0520476006 0.06875 178 178 178
-0.0183453283 0.054 0.0608772898 178 178 178
0.077 0.0358162025 0.0161406894 178 178 178
0.0523852165 0.00657513731 0 178 178 178
-0.00873344855 0.099 0.0487862895 178 178 178
0.0193922824 0.038425711 0 178 178 178
0.00907119783 0.0193467006 0 178 178 178
-0.077 0.0218258299 0.0920126012 178 178 178
-0.00800496075 0.0708962116 0.03125 178 178 178
-0.0250771167 0.0367919059 0.03125 178 178 178
0.077 0.0186870048 0.0962831189 178 178 178
0.00237067104 -0.0406911437 0.125 178 178 178
0.00378230356 -0.026082939 0 178 178 178
0.0240593321 0.036 0.0325605365 178 178 178
0.055 -0.00705855606 0.128807754 178 178 178
-0.0301002175 -0.0194477971 0.125 178 178 178
0.0275 0.077254509 0.0610234391 178 178 178
0.036002904 -0.054 0.033537349 178 178 178
-0.0513672175 -0.054 0.0299919536 178 178 178
0.077 0.00979419429 0.0166194724 178 178 178
0.0433968509 0.00993620584 0 178 178 178
0.077 -0.00410070387 0.0661106132 178 178 178
-0.0250105209 0.0532496347 0.125 178 178 178
-0.077 0.0189188221 0.111731232 178 178 178
0.077 0.0226885192 0.0668416576 178 178 178
0.0275 0.09628048 0.0340526144 178 178 178
-0.0275 0.0883873421 0.0382395759 178 178 178
-0.0447428216 -0.054 0.0592319704 178 178 178
-0.0179062764 -0.054 0.119558601 178 178 178
-0.0275 0.00125760039 0.129452009 178 178 178
0.077 -0.00944334068 0.00127485271 178 178 178
-0.038849137 0.0275446751 0 178 178 178
0.0545984639 0.0349278065 0 178 178 178
0.0336380394 0.009 0.116964247 178 178 178
0.0600473307 0.054 0.0267743476 178 178 178
-0.0474859443 -0.0385008851 0 178 178 178
0.077 0.0149076594 0.00901413973 178 178 178
0.077 -0.0402280506 0.00247187927 178 178 178
0.077 -0.0431647455 0.0362457086 178 178 178
-0.055 -0.00196880405 0.136310045 178 178 178
-0.055 -0.00789116118 0.131080865 178 178 178
-0.054765676 -0.0224167765 0 178 178 178
0.06717348 -0.0339862541 0.125 178 178 178
0.0164828047 -0.054 0.0360537765 178 178 178
0.0155306112 0.0952056439 0.06875 178 178 178
-0.0432028468 0.054 0.0909062195 178 178 178
-0.077 0.0538947124 0.0985018836 178 178 178
0.0679050652 0.054 0.0813970398 178 178 178
-0.0219648991 0.0345333014 0.125 178 178 178
-0.000358034726 0.0556652729 0.06875 178 178 178
0.00113539993 -0.00145133333 0 178 178 178
-0.077 -0.0467159049 0.116920692 178 178 178
-0.00748860733 -0.0118115362 0.125 178 178 178
0.077 0.00198707858 0.0776659377 178 178 178
0.0512317175 -0.018 0.122134012 178 178 178
0.00257581282 0.054 0.071807198 178 178 178
0.0161642947 -0.0298811864 0 178 178 178
0.077 0.0255701555 0.119188493 178 178 178
0.0070241406 0.054 0.0565390129 178 178 178
-0.00137062434 -0.0291893002 0 178 178 178
-0.0287449945 0.0476997287 0.125 178 178 178
0.00379279814 -0.0397220384 0 178 178 178
0.0503924771 0.054 0.071872794 178 178 178
0.0676279691 -0.054 0.0681901667 178 178 178
0.077 0.00720203318 0.0357050381 178 178 178
0.00372395627 -0.054 0.124810997 178 178 178
-0.0625618028 0.054 0.0300696488 178 178 178
0.0647026168 -0.0367885353 0.125 178 178 178
-0.0275 0.0690715334 0.0319362134 178 178 178
0.0317391061 -0.00542065433 0.10625 178 178 178
0.077 0.0396912463 0.0806011014 178 178 178
0.077 0.00284242029 0.11365584 178 178 178
0.0275 0.0490907403 0.0490197302 178 178 178
-0.060566759 -0.054 0.056731618 178 178 178
-0.0093795935 0.0670914431 0.03125 178 178 178
-0.0639085208 -0.054 0.0463699891 178 178 178
-0.077 0.0162336626 0.0811249368 178 178 178
-0.0697765216 -0.054 0.0886454308 178 178 178
-0.0450557163 0.054 0.0452530191 178 178 178
-0.0523354902 -0.018 0.115072744 178 178 178
-0.00948629454 -0.0536892349 0 178 178 178
-0.0138713164 0.0575559171 0.03125 178 178 178
-0.000696603282 0.054 0.0649530365 178 178 178
-0.0106216575 -0.054 0.0226530092 178 178 178
0.0720122276 -0.054 0.11311377 178 178 178
-0.037260831 0.0119899624 0 178 178 178
-0.0365953711 -0.0137494957 0.125 178 178 178
-0.0487192499 0.054 0.0882946063 178 178 178
0.0137288208 0.0525268871 0 178 178 178
-0.0602599266 0.054 0.087584859 178 178 178
0.0496406528 -0.00805622363 0.14375 178 178 178
0.055 -0.00139639398 0.110346263 178 178 178
-0.00742812878 0.099 0.049356861 178 178 178
-0.00148404804 0.0706289645 0.03125 178 178 178
0.0612763194 0.029482247 0.125 178 178 178
0.0426431219 -0.018 0.139860943 178 178 178
-0.0695281327 0.0215532892 0.125 178 178 178
0.0275 0.0944894197 0.0477385132 178 178 178
-0.00847820272 0.099 0.0615345622 178 178 178
-0.0505098813 0.054 0.0241711699 178 178 178
0.077 0.00199121825 0.0213735825 178 178 178
-0.0761711981 -0.000918775993 0.125 178 178 178
0.077 -0.00246139238 0.033896173 178 178 178
-0.0411960489 -0.054 0.119406784 178 178 178
-0.0102105268 0.0426130812 0 178 178 178
0.0468589207 0.0484156981 0 178 178 178
0.015641208 0.0931441263 0.03125 178 178 178
-0.0315280732 0.00622365633 0.14375 178 178 178
0.0246932231 -0.0454853719 0.125 178 178 178
0.0577493187 -0.0447675958 0 178 178 178
-0.0249629648 -0.00991177451 0.125 178 178 178
0.0477091026 0.0276865087 0.125 178 178 178
-0.0451541728 -0.0392361324 0.125 178 178 178
-0.0734250926 0.054 0.122842293 178 178 178
0.077 0.0412614733 0.117223698 178 178 178
0.077 -0.0334942921 0.0507685341 178 178 178
0.0177816378 0.0406902052 0.125 178 178 178
-0.0627628557 0.054 0.0700313719 178 178 178
-0.0502124391 -0.054 0.0256192153 178 178 178
0.0388700881 -0.054 0.0643169349 178 178 178
0.077 -0.0395592375 0.0810189863 178 178 178
-0.0275 0.0494438791 0.0564865363 178 178 178
0.0144467412 0.0476788344 0.125 178 178 178
-0.077 0.0027778792 0.106283403 178 178 178
-0.013116307 -0.054 0.05743934 178 178 178
-0.0275 0.0921107154 0.059179562 178 178 178
0.0384223864 -0.054 0.018312329 178 178 178
0.077 -0.042474352 0.00074932097 178 178 178
0.0125833846 0.099 0.0448669641 178 178 178
-0.0153333177 0.054 0.0663263589 178 178 178
-0.0219962322 -0.00843288292 0 178 178 178
-0.00198710626 -0.00601600252 0.125 178 178 178
0.0323878448 0.009 0.12679105 178 178 178
0.0739906484 0.0263697987 0 178 178 178
-0.0618978344 -0.054 0.0846002079 178 178 178
0.0396797056 0.00370216095 0.10625 178 178 178
0.0573783777 -0.0498159243 0 178 178 178
0.049332451 -0.0254938577 0.125 178 178 178
-0.0646868211 0.0335408352 0.125 178 178 178
-0.0759086906 -0.0503014815 0 178 178 178
0.077 0.0467308932 0.0451576355 178 178 178
0.0652153569 0.054 0.0501970685 178 178 178
-0.0313069338 -0.054 0.0531056615 178 178 178
-0.00543765389 0.0231130536 0 178 178 178
-0.00743191766 0.0842625122 0.03125 178 178 178
-0.00630014594 0.0907619607 0.03125 178 178 178
0.0543605528 0.054 0.067653078 178 178 178
0.0727191342 0.00720622045 0.125 178 178 178
-0.0189797732 0.054 0.0990766658 178 178 178
-0.0644908383 0.054 0.0155632208 178 178 178
0.077 0.0093018976 0.0863329211 178 178 178
0.0275 0.0455481789 0.0412525102 178 178 178
-0.0600528899 -0.054 0.00175462776 178 178 178
0.077 0.032417198 0.0859770696 178 178 178
-0.0753718396 0.0165014916 0 178 178 178
0.0723947265 0.054 0.0829605534 178 178 178
-0.077 -0.00766302304 0.00719344315 178 178 178
-0.077 0.0178969685 0.0527814544 178 178 178
-0.0356513852 0.0203302292 0.125 178 178 178
0.0411187572 0.009 0.110217608 178 178 178
-0.077 -0.043717859 0.118107016 178 178 178
0.077 -0.0465076566 0.0528469844 178 178 178
0.0744907257 -0.054 0.0431127355 178 178 178
-0.077 -0.0461715792 0.115423199 178 178 178
0.0183848368 -0.0315473751 0.125 178 178 178
-0.058384911 0.054 0.103133452 178 178 178
-0.077 -0.000958092302 0.0952555458 178 178 178
0.077 0.0197199231 0.08302786 178 178 178
0.0275 0.0927696934 0.0514110853 178 178 178
0.077 0.0313254886 0.113934711 178 178 178
0.077 -0.0391443942 0.0561118648 178 178 178
0.0650695666 -0.054 0.118980733 178 178 178
-0.0500742834 -0.0154432798 0.14375 178 178 178
-0.0749173057 -0.054 0.00928974616 178 178 178
-0.077 -0.0163209787 0.0869336121 178 178 178
0.00753658156 -0.054 0.0579522536 178 178 178
-0.0275 -0.000446478787 0.116147691 178 178 178
-0.055 -0.00861688043 0.132203963 178 178 178
0.0283893451 0.015523024 0 178 178 178
0.0275 -0.00529416413 0.141980279 178 178 178
-0.0705669353 0.054 0.0943672007 178 178 178
-0.0317452579 0.00954622119 0 178 178 178
0.077 0.00391970108 0.0474617203 178 178 178
0.0475400544 -0.0265462616 0 178 178 178
0.0552198619 0.054 0.0556802717 178 178 178
0.0204564588 0.000554420138 0.125 178 178 178
0.0534877931 -0.054 0.10180868 178 178 178
-0.0682793521 -0.054 0.00942882951 178 178 178
-0.0582945935 0.054 0.108402319 178 178 178
0.0196154699 0.0590344742 0.06875 178 178 178
-0.0275 -0.00119777324 0.121017828 178 178 178
-0.0271647602 -0.054 0.062229265 178 178 178
0.0112951822 0.054 0.0918594307 178 178 178
0.00673430664 -0.0258695398 0 178 178 178
0.0625452215 -0.054 0.0252147117 178 178 178
0.0365451591 0.00274981641 0.10625 178 178 178
-0.0683395436 0.00581396556 0 178 178 178
0.0275 0.0926187962 0.0452289021 178 178 178
-0.0430398514 0.054 0.0120443683 178 178 178
-0.0286603329 -0.054 0.0454082677 178 178 178
-0.077 -0.0154906814 0.0235863905 178 178 178
-0.0415133325 -0.054 0.0874762433 178 178 178
-0.0275 0.0692025268 0.0676991964 178 178 178
0.00331640328 0.00715751704 0 178 178 178
-0.0486596465 0.0183291641 0 178 178 178
-0.077 -0.0527395388 0.0437129203 178 178 178
0.077 0.00369715866 0.0816006051 178 178 178
0.0630560501 0.0359306211 0.125 178 178 178
0.077 -0.0203695873 0.033921788 178 178 178
-0.0145563861 -0.054 0.0784433858 178 178 178
0.0286597102 0.054 0.0535905824 178 178 178
-0.077 -0.0475421755 0.108860904 178 178 178
0.0133860254 0.036 0.058270209 178 178 178
-0.00500674836 -0.0376036006 0 178 178 178
0.0611284009 0.054 0.0379508262 178 178 178
0.055 -0.000483108876 0.12931216 178 178 178
0.077 -0.0507283085 0.0388113205 178 178 178
-0.077 -0.0212322861 0.0693161345 178 178 178
0.0526108465 0.0381985929 0 178 178 178
0.0275 0.0710987668 0.0490540079 178 178 178
0.0753854495 0.054 0.0511556617 178 178 178
-0.00556984479 0.099 0.0454568159 178 178 178
-0.00508059868 0.0552256485 0.03125 178 178 178
0.0275 0.0938722513 0.0429132996 178 178 178
-0.0292539061 -0.0337604215 0 178 178 178
-0.077 0.0105102572 0.107597513 178 178 178
0.0119793831 -0.00329842179 0.125 178 178 178
-0.070657879 -0.054 0.106681204 178 178 178
-0.0519135966 -0.054 0.109755414 178 178 178
0.0233956303 0.054 0.0459373671 178 178 178
-0.0569451964 0.054 0.0202278413 178 178 178
-0.0275 -0.00303582922 0.142716137 178 178 178
0.0389664625 -0.00412250122 0 178 178 178
0.0466740001 -0.0319001838 0.125 178 178 178
0.0104668293 -0.054 0.0126427479 178 178 178
-0.00452592278 0.0559603559 0.06875 178 178 178
-0.0295984155 0.054 0.107847303 178 178 178
0.077 0.0438259356 0.0398208345 178 178 178
-0.077 0.0049648563 0.0409759769 178 178 178
0.0251314275 0.054 0.0299903162 178 178 178
-0.06133621 -0.054 0.0741913878 178 178 178
-0.0218457797 0.0314554792 0 178 178 178
0.077 0.00920738862 0.0755258681 178 178 178
-0.0151475957 0.099 0.068069049 178 178 178
0.0541931338 0.054 0.111206101 178 178 178
0.0704054976 -0.041614655 0 178 178 178
0.077 -0.0304391353 0.0967957071 178 178 178
0.0568786086 -0.054 0.0908052742 178 178 178
0.0556125785 0.054 0.121898201 178 178 178
0.0557287231 0.054 0.0235928323 178 178 178
-0.055 0.00255878922 0.134683573 178 178 178
-0.0393294979 -0.054 0.0540678474 178 178 178
0.0603203655 -0.054 0.0763241771 178 178 178
0.00272199264 0.054 0.000929250475 178 178 178
-0.0198643308 0.099 0.0444215365 178 178 178
-0.077 0.0453044598 0.0720914854 178 178 178
0.077 0.0137632115 0.100896281 178 178 178
0.0178194672 0.0728715692 0.06875 178 178 178
0.077 0.048958547 0.0649365702 178 178 178
0.0531853519 -2.65854601e-05 0.14375 178 178 178
-0.0271060023 -0.054 0.0827083486 178 178 178
0.0115376956 0.0356477219 0 178 178 178
-0.0199681677 0.0629058299 0.06875 178 178 178
-0.0693990801 -0.054 0.0391456499 178 178 178
0.0171217063 0.036 0.0629383532 178 178 178
-0.0696509577 0.054 0.0943488289 178 178 178
0.077 0.0393215815 0.0774736705 178 178 178
-0.0117154995 0.0236371319 0 178 178 178
0.016140446 0.0418915766 0.03125 178 178 178
0.0545847605 -0.032860668 0 178 178 178
0.0359523817 0.00237254931 0.14375 178 178 178
0.00815076125 0.099 0.053845659 178 178 178
-0.000815791385 -0.054 0.115295863 178 178 178
-0.0179168047 0.0116288943 0 178 178 178
-0.0247841957 0.099 0.0427796448 178 178 178
0.077 0.0425621396 0.0284307118 178 178 178
0.0237663448 0.0421757866 0 178 178 178
0.077 0.0446136932 0.0867868375 178 178 178
0.0186725763 0.0532855003 0.125 178 178 178
0.0762174999 -0.054 0.0732018385 178 178 178
-0.0320471966 0.054 0.0150250171 178 178 178
-0.0382731918 -0.00141576261 0.10625 178 178 178
-0.00591140216 0.0899441938 0.03125 178 178 178
0.0745100047 0.0152100458 0.125 178 178 178
0.077 0.0317280347 0.0781496881 178 178 178
0.077 -0.0366854763 0.00264647628 178 178 178
0.0496003046 0.009 0.11201558 178 178 178
-0.0548185594 0.019580003 0 178 178 178
0.077 0.0418528187 0.0161890761 178 178 178
-0.0541564461 0.00743594533 0.10625 178 178 178
0.0173063063 -0.054 0.0676407232 178 178 178
-0.0597170733 0.0236676422 0.125 178 178 178
0.0677324001 0.054 0.0895330099 178 178 178
-0.0618222228 -0.054 0.038442398 178 178 178
-0.054255861 -0.018 0.107369106 178 178 178
-0.0372911701 0.0241548426 0 178 178 178
-0.0600657395 0.0226939397 0.125 178 178 178
0.0510039912 0.0463653154 0 178 178 178
-0.077 0.0194938134 0.0532803275 178 178 178
0.0116247604 -0.054 0.115416358 178 178 178
-0.0275 0.0989206759 0.0507808395 178 178 178
-0.0275 0.0718263298 0.0587876882 178 178 178
-0.0275 0.00470274316 0.131790799 178 178 178
-0.0597656298 -0.0128358482 0.125 178 178 178
0.072817653 -0.0433989419 0 178 178 178
0.0737203419 -0.054 0.00105396597 178 178 178
0.0545842458 -0.00355670042 0.14375 178 178 178
-0.077 0.0488855038 0.00226776546 178 178 178
0.0465298869 -0.0363124616 0 178 178 178
-0.077 0.0208199651 0.102398967 178 178 178
-0.0458934274 0.00732698315 0.10625 178 178 178
0.0367173797 -0.018 0.123082333 178 178 178
-0.077 0.0195050266 0.0440221754 178 178 178
0.0275 0.0500358819 0.0649882081 178 178 178
-0.0207521233 0.036 0.0504337801 178 178 178
-0.0374274171 -0.054 0.019171971 178 178 178
-0.0447063649 -0.0212561626 0 178 178 178
-0.077 -0.0170914581 0.10040366 178 178 178
0.0357316289 -0.00429719561 0.125 178 178 178
0.0561808831 -0.054 0.067724004 178 178 178
0.0275 -0.00319032571 0.13993995 178 178 178
0.072480982 0.054 0.00650449946 178 178 178
0.077 0.050315818 0.0780828559 178 178 178
-0.055 0.00877855501 0.141421634 178 178 178
0.0323921974 -0.054 0.120743917 178 178 178
0.0275 -0.0146719158 0.135356029 178 178 178
-0.0379642841 -0.00371133722 0.10625 178 178 178
-0.000283335402 -0.054 0.046895428 178 178 178
-0.0393956881 -0.054 0.119403306 178 178 178
-0.0306113063 0.0160098745 0 178 178 178
-0.0532212506 0.000859578806 0.10625 178 178 178
0.0517022653 0.00190876606 0.125 178 178 178
0.0507737435 -0.0109456558 0 178 178 178
-0.0182998628 0.099 0.0495258364 178 178 178
0.0633661885 0.054 0.0987102229 178 178 178
-0.0328303493 0.054 0.0634497432 178 178 178
-0.077 -0.040586345 0.00911344387 178 178 178
0.0198843314 0.00982823193 0 178 178 178
-0.0182337833 0.00131897788 0 178 178 178
0.077 0.0489728981 0.00952194935 178 178 178
0.0646452643 -0.0524298121 0 178 178 178
0.077 0.0375105143 0.0298000946 178 178 178
-0.077 0.00969905707 0.0499590267 178 178 178
0.0440940936 0.054 0.0153298499 178 178 178
-0.0709079207 0.054 0.0705028591 178 178 178
0.0725399449 -0.00838614879 0 178 178 178
-0.00135163819 0.00236804222 0.125 178 178 178
-0.0275 0.081393144 0.0610019784 178 178 178
-0.0565038377 -0.0393614987 0 178 178 178
0.0663386107 0.054 0.0784289244 178 178 178
0.052212165 0.0138957886 0 178 178 178
-0.0275 -0.0017766584 0.125886906 178 178 178
0.0613531719 0.037330603 0.125 178 178 178
0.0701322271 -0.054 0.0960944536 178 178 178
0.0212244731 0.054 0.0463019821 178 178 178
-0.077 0.014164775 0.103694938 178 178 178
-0.0275 -0.00144380501 0.125839207 178 178 178
-0.077 0.00889993221 0.0178269982 178 178 178
0.014008942 -0.054 0.0459729934 178 178 178
-0.029196689 0.0209657979 0 178 178 178
-0.077 -0.0478138712 0.118314447 178 178 178
0.0515589956 -0.018 0.11612125 178 178 178
-0.0659175098 -0.0498427452 0 178 178 178
-0.077 0.0283416322 4.99571141e-05 178 178 178
0.0765261339 -0.000773856841 0.125 178 178 178
0.077 -0.0175107204 0.0932590813 178 178 178
0.077 0.0303635351 0.0145868356 178 178 178
-0.0144663806 0.054 0.00311295073 178 178 178
0.0299245549 0.009 0.115842088 178 178 178
-0.077 0.0245612566 0.093292776 178 178 178
0.0415496642 -0.054 0.0574802608 178 178 178
-0.077 0.053520847 0.062439266 178 178 178
0.077 -0.031178717 0.110163835 178 178 178
-0.00573138899 -0.054 0.0129047267 178 178 178
-0.0199457884 -0.054 0.023668475 178 178 178
0.077 0.0294735138 0.01386374 178 178 178
0.0171476352 -0.054 0.114039859 178 178 178
-0.0298030693 0.0044674282 0.125 178 178 178
0.00764432996 -0.0424741481 0.125 178 178 178
0.077 -0.0332199924 0.0483109399 178 178 178
0.00280287559 -0.054 0.0970803209 178 178 178
-0.00385117832 0.0913100634 0.06875 178 178 178
-0.0206276777 0.036 0.0445412927 178 178 178
0.0356591565 -0.054 0.0214882614 178 178 178
-0.0361374875 0.054 0.0852990917 178 178 178
-0.0275 0.0784157561 0.0315296186 178 178 178
0.0351444715 -0.054 0.00356744361 178 178 178
0.0103203861 0.054 0.0651774081 178 178 178
0.077 -0.0314697048 0.0557794144 178 178 178
-0.0758837039 0.054 0.068253724 178 178 178
0.0324392622 -0.00988458882 0.10625 178 178 178
0.0132480827 -0.0197766307 0.125 178 178 178
0.0322959266 0.00323655262 0.14375 178 178 178
-0.020984176 0.054 0.0159775993 178 178 178
-0.0201434474 0.0434243696 0.03125 178 178 178
-0.066331525 0.054 0.0580867121 178 178 178
0.0275 0.0668133175 0.0339465379 178 178 178
-0.0481687894 -0.054 0.0802420138 178 178 178
-0.077 -0.034483861 0.119146634 178 178 178
0.0705824983 0.0523428364 0.125 178 178 178
0.077 0.0492953627 0.0394018931 178 178 178
-0.077 -0.0126662018 0.0801378976 178 178 178
0.0194542676 0.0391636409 0.125 178 178 178
0.0648506104 0.0149835136 0 178 178 178
-0.0030737046 0.0492360287 0.03125 178 178 178
0.0234131057 0.098030722 0.03125 178 178 178
0.0279585882 0.054 0.0348195651 178 178 178
0.0263858001 -0.054 0.101374766 178 178 178
0.00170767806 0.054 0.0500151701 178 178 178
-0.0546043738 -0.0039222278 0 178 178 178
0.019947075 0.054 0.0388949092 178 178 178
-0.0358821437 0.054 0.121327957 178 178 178
0.021844185 0.054 0.00198299662 178 178 178
0.077 0.00978089401 0.119405093 178 178 178
-0.0745620873 -0.0100363998 0.125 178 178 178
-0.077 0.00832669759 0.0717244138 178 178 178
0.077 -0.0303668974 0.0574828749 178 178 178
-0.077 -0.053346518 0.0166757021 178 178 178
-0.0300570043 -0.054 0.03242766 178 178 178
0.0258007633 0.0462232572 0 178 178 178
-0.000593413019 0.054 0.068516999 178 178 178
-0.0732815136 0.054 0.0198549996 178 178 178
-0.033343861 0.00538792815 0.14375 178 178 178
-0.00075094023 0.099 0.0404835035 178 178 178
0.0329707349 -0.00199109216 0 178 178 178
-0.077 0.0106494267 0.00336858838 178 178 178
-0.0121482399 0.0149161802 0.125 178 178 178
-0.077 0.052469001 0.0202723736 178 178 178
0.0501412475 -0.054 0.0872203391 178 178 178
-0.0766875822 -0.054 0.0962841894 178 178 178
0.077 0.00230664394 0.0579122433 178 178 178
0.0765166722 0.054 0.0144148125 178 178 178
-0.077 0.0137286006 0.121129222 178 178 178
0.0225743054 0.054 0.0169352553 178 178 178
-0.0111614076 0.054 0.0099363369 178 178 178
-0.0524597595 -0.054 0.0117785678 178 178 178
-0.0183385447 0.054 0.0649376008 178 178 178
0.0206032231 -0.054 0.00721505834 178 178 178
-0.0354840132 0.054 0.00758431553 178 178 178
0.077 0.00605605064 0.0711138299 178 178 178
0.0751885561 0.054 0.0624693397 178 178 178
0.0595126077 0.00256324154 0 178 178 178
0.077 0.00303842512 0.0243910549 178 178 178
-0.0295874963 0.00823443675 0.125 178 178 178
0.0309191977 -0.054 0.0711404693 178 178 178
-0.0706111528 0.00251313376 0 178 178 178
-0.0542688809 0.054 0.049370246 178 178 178
-0.0275 0.0983219107 0.0421179409 178 178 178
0.0105421285 -0.054 0.0464550814 178 178 178
-0.0497581183 0.0160646808 0 178 178 178
-0.00123028002 0.054 0.050619397 178 178 178
-0.0454522231 0.0449764417 0 178 178 178
-0.00522849075 0.099 0.0488788152 178 178 178
-0.0203370997 0.0160461713 0 178 178 178
0.0284428302 -0.054 0.0605605349 178 178 178
0.077 0.0444029319 0.0993504186 178 178 178
-0.06863524 -0.00349349981 0 178 178 178
-0.0292570456 -0.054 0.113797749 178 178 178
0.0356984746 -0.054 0.121730634 178 178 178
-0.077 0.00435343037 0.0644732785 178 178 178
0.051800025 0.009 0.1216794 178 178 178
0.0597686807 -0.054 0.110395812 178 178 178
0.00326334868 0.0545071526 0.03125 178 178 178
-0.00355951532 -0.0146234581 0.125 178 178 178
0.0393988225 0.054 0.0349243553 178 178 178
0.077 -0.0400574278 0.0979307564 178 178 178
0.030529777 -0.054 0.120994578 178 178 178
0.0241316935 0.0936232116 0.06875 178 178 178
-0.077 -0.0288713555 0.0699167467 178 178 178
0.0249903429 0.00344967181 0.125 178 178 178
0.0526666158 -0.054 0.123515187 178 178 178
0.0171932035 0.0565222696 0.06875 178 178 178
0.0275 -0.00841613505 0.142919346 178 178 178
-0.0507573074 0.054 0.095163358 178 178 178
0.0275 0.0885884512 0.0528919142 178 178 178
0.0344505317 0.009 0.137648539 178 178 178
-0.077 0.0157135665 0.017139685 178 178 178
-0.00040347512 0.054 0.0152272163 178 178 178
-0.0571796472 -0.026297778 0.125 178 178 178
0.0717124847 -0.054 0.0959275254 178 178 178
-0.0765772204 0.054 0.0107253037 178 178 178
-0.0493552821 -0.018 0.135419658 178 178 178
-0.0666596348 -0.054 0.0493698147 178 178 178
-0.0226923969 -0.054 0.0154766707 178 178 178
0.0258623373 -0.0477760589 0 178 178 178
-0.077 0.00237701376 0.0781435291 178 178 178
0.077 -0.0199831963 0.0552914248 178 178 178
-0.0110715429 0.043211267 0.03125 178 178 178
-0.0131740397 0.0328973048 0.125 178 178 178
-0.0600771863 0.054 0.057084511 178 178 178
0.0383200223 0.054 0.0290514563 178 178 178
0.077 -0.0492160153 0.0695424767 178 178 178
0.00740930091 -0.0156644161 0.125 178 178 178
0.0363949149 -0.054 0.0914401363 178 178 178
-0.077 -0.0299712506 0.0791560161 178 178 178
0.0216662541 -0.0101013329 0.125 178 178 178
-0.0235755873 0.0465005687 0 178 178 178
0.077 -0.0191865203 0.0781415049 178 178 178
-0.0622709778 0.00548466551 0.125 178 178 178
-0.0159125304 0.0911645655 0.03125 178 178 178
0.0229662583 0.0478844765 0.06875 178 178 178
-0.0532591278 0.009 0.11809499 178 178 178
-0.0119326169 0.0619206899 0.06875 178 178 178
0.0086549376 0.054 0.0414146509 178 178 178
0.0277430274 -0.0421230618 0.125 178 178 178
0.0266007602 0.0617117262 0.06875 178 178 178
-0.077 0.0389039164 0.0984535744 178 178 178
-0.077 -0.0312694175 0.0311519655 178 178 178
-0.077 0.0152720464 0.0714442412 178 178 178
0.00362804058 0.0986997385 0.06875 178 178 178
-0.0460056432 -0.054 0.0534155488 178 178 178
-0.0381697185 0.054 0.0217947098 178 178 178
0.077 0.0347243655 0.0277258368 178 178 178
0.00464257127 -0.054 0.112499104 178 178 178
-0.0676844743 -0.054 0.112740616 178 178 178
0.0187428376 -0.00243036433 0.125 178 178 178
0.077 0.00222223173 0.00137401181 178 178 178
0.0754338047 -0.054 0.0739301941 178 178 178
0.077 -0.00317012637 0.092949429 178 178 178
0.00171117587 0.036 0.0485457162 178 178 178
-0.077 0.031052893 0.0464837194 178 178 178
-0.077 -0.00492173364 0.11202591 178 178 178
0.0356949397 0.009 0.140793168 178 178 178
0.035633848 0.027523646 0.125 178 178 178
0.077 0.0129244335 0.0421362855 178 178 178
0.00897216313 0.0337208344 0 178 178 178
0.0754605153 -0.054 0.103980578 178 178 178
-0.055 0.00213629644 0.134767786 178 178 178
-0.000957771574 0.0418162996 0 178 178 178
-0.077 -0.0474313197 0.00419954947 178 178 178
0.0275 0.0640202873 0.0638739996 178 178 178
0.077 0.0213336445 0.0283338671 178 178 178
-0.004274877 0.0555150915 0.03125 178 178 178
0.077 -0.0527684535 0.104324188 178 178 178
0.0634270573 -0.054 0.0874312922 178 178 178
0.077 0.0519754273 0.0563850004 178 178 178
-0.0169048112 -0.014271017 0.125 178 178 178
-0.0691773808 -0.054 0.0421444605 178 178 178
0.0154435033 -0.054 0.099705631 178 178 178
0.029990031 0.009 0.117365176 178 178 178
-0.0711027803 -0.054 0.0345463284 178 178 178
-0.0627646923 0.0306290025 0.125 178 178 178
-0.0394688776 0.009 0.125604493 178 178 178
0.0769391411 0.00295723551 0.125 178 178 178
0.0327258136 -0.00176901097 0.14375 178 178 178
-0.0117544363 0.036 0.0342643864 178 178 178
-0.0592430495 0.054 0.0366049943 178 178 178
0.077 0.00488560978 0.0685468225 178 178 178
0.0226975831 0.00868172657 0.125 178 178 178
-0.0641199986 -0.014978741 0 178 178 178
-0.0291773754 0.00812368673 0 178 178 178
-0.0207736686 -0.054 0.0343154573 178 178 178
0.00112437118 -0.054 0.0318090209 178 178 178
-0.0545718833 -0.018 0.134777648 178 178 178
0.0665108786 0.054 0.0683470244 178 178 178
0.0325327657 0.009 0.13355367 178 178 178
-0.077 -0.0169727925 0.118659843 178 178 178
0.0399195375 -0.0300868312 0.125 178 178 178
0.070642765 0.054 0.0211688012 178 178 178
0.073873 0.019302513 0.125 178 178 178
-0.00850478372 -0.0168866712 0 178 178 178
-0.0436795579 0.009 0.119760457 178 178 178
-0.0380512481 -0.054 0.0907014619 178 178 178
0.044143484 -0.0493735653 0.125 178 178 178
-0.0359563185 0.00916668746 0 178 178 178
-0.0252062953 0.054 0.0383113161 178 178 178
0.077 -0.00179350781 0.0989650931 178 178 178
0.0271211041 -0.0509899859 0 178 178 178
-0.077 0.0310598943 0.0665401363 178 178 178
0.000837504726 0.0152162507 0.125 178 178 178
-0.077 -0.0129914386 0.0270422594 178 178 178
0.077 0.00435546464 0.00742514539 178 178 178
0.0399421076 0.054 0.0968804844 178 178 178
0.077 -0.0172390473 0.0894654094 178 178 178
-0.0217917393 0.054 0.0613656138 178 178 178
0.0318374252 0.009 0.131978005 178 178 178
0.022078024 0.041170923 0.03125 178 178 178
0.0223794798 0.0329950718 0 178 178 178
0.077 0.00908398695 0.0610484105 178 178 178
-0.0115672383 0.0505232007 0.125 178 178 178
-0.047719031 -0.0191352251 0 178 178 178
0.0612179029 -0.0311329033 0.125 178 178 178
0.000785231559 0.0160982933 0.125 178 178 178
0.0354543614 -0.000993604291 0.10625 178 178 178
-0.077 -0.0451713789 0.0394098918 178 178 178
0.0170227395 0.036 0.0473877165 178 178 178
-0.077 0.0209260242 0.123356293 178 178 178
-0.00433725492 -0.054 0.11712853 178 178 178
-0.0244886203 -0.054 0.0157281772 178 178 178
0.077 0.0191525309 0.0886667389 178 178 178
0.0331769452 -0.054 0.109516615 178 178 178
0.077 -0.0519338343 0.0359160753 178 178 178
-0.077 -0.0255453976 0.0331392122 178 178 178
0.0624953191 0.0536103556 0 178 178 178
-0.030161692 -0.054 0.0611100356 178 178 178
0.077 -0.0170910754 0.00643771905 178 178 178
-0.00584879634 0.054 0.0202291587 178 178 178
-0.0133676385 0.054 0.0645883239 178 178 178
-0.077 0.0295359122 0.0668223674 178 178 178
0.00447687893 0.0169921043 0 178 178 178
0.0635885063 -0.0205447879 0.125 178 178 178
0.00171056073 -0.054 0.0899116546 178 178 178
0.0101112183 -0.054 0.0959538222 178 178 178
-0.077 0.0183377555 0.0265664262 178 178 178
0.0275 0.00489009311 0.115796296 178 178 178
-0.077 0.0320800511 0.121898826 178 178 178
0.0137288163 0.00516536626 0 178 178 178
0.0636407538 -0.054 0.1216637 178 178 178
0.00339607435 0.072498032 0.03125 178 178 178
-0.0426018167 -0.018 0.136240065 178 178 178
-0.0129347306 0.054 0.10166795 178 178 178
-0.030802312 -0.054 0.0288381116 178 178 178
-0.0359834105 -0.054 0.0321912333 178 178 178
-0.0253519226 0.054 0.0829029975 178 178 178
0.0275 0.0518875311 0.0446287818 178 178 178
-0.0759739144 -0.054 0.0679877588 178 178 178
-0.0088464604 -0.0246713799 0.125 178 178 178
0.0091493488 -0.00576074977 0 178 178 178
0.0269855478 0.0150907721 0.125 178 178 178
0.00318841494 0.036 0.0373863021 178 178 178
-0.0121925648 0.054 0.041182347 178 178 178
0.0358293372 0.009 0.122207715 178 178 178
-0.0113385844 0.0352375973 0 178 178 178
-0.0454392572 -0.054 0.0166012653 178 178 178
0.0274314591 0.0902239882 0.03125 178 178 178
-0.0240791047 0.054 0.027076259 178 178 178
0.0135955395 0.0497603588 0 178 178 178
-0.0638938702 -0.054 0.00935841574 178 178 178
0.0400764227 0.054 0.0148570361 178 178 178
-0.077 0.0200276952 0.0393584723 178 178 178
0.077 0.0379958675 0.119421775 178 178 178
0.0218509962 0.010615091 0.125 178 178 178
0.0365099414 0.00683978831 0.14375 178 178 178
0.077 -0.0117290655 0.104180465 178 178 178
-0.077 0.041022372 0.0370413737 178 178 178
0.0666322615 0.054 0.0751768854 178 178 178
-0.00485417684 0.00817866841 0 178 178 178
-0.0215531737 0.0186951432 0.125 178 178 178
0.0567066366 0.0136072768 0 178 178 178
-0.0324686454 -0.0451412235 0.125 178 178 178
0.0226060432 0.049947331 0.125 178 178 178
0.0293155255 -0.054 0.0281536374 178 178 178
-0.0762012641 -0.054 0.0756002798 178 178 178
0.0516336865 -0.054 0.0816378074 178 178 178
0.00142081205 0.0579762298 0.06875 178 178 178
0.0529883481 -0.0306408701 0 178 178 178
-0.0162374911 0.0156526109 0 178 178 178
-0.00465744693 0.0795637849 0.03125 178 178 178
0.0542468786 0.054 0.0543581655 178 178 178
0.077 -0.0534937601 0.0563450089 178 178 178
0.0466470993 -0.054 0.116014152 178 178 178
-0.0348650816 0.054 0.0948949034 178 178 178
-0.0153858129 0.0161816076 0.125 178 178 178
0.0275 0.0511285588 0.0642620707 178 178 178
0.0250273069 0.0690725779 0.06875 178 178 178
-0.0210108362 -0.054 0.049821277 178 178 178
0.0768459046 0.0106997423 0 178 178 178
0.0209592948 0.099 0.0326020512 178 178 178
0.00747043319 -0.054 0.0979448583 178 178 178
-0.0020733891 0.054 0.00122973532 178 178 178
0.0275 0.0567217518 0.0500798293 178 178 178
0.0111824036 0.0407930907 0.03125 178 178 178
0.0275 0.0607545759 0.0603994436 178 178 178
0.077 0.017382651 0.00642751765 178 178 178
-0.0214815871 0.036 0.0629364405 178 178 178
0.077 -0.0486208 0.121853501 178 178 178
-0.0738115876 -0.00961834623 0.125 178 178 178
0.077 -0.00135784297 0.0566672706 178 178 178
-0.0573225576 -0.054 0.097593234 178 178 178
-0.077 -0.015175625 0.0183380576 178 178 178
-0.00898322888 0.0713803491 0.06875 178 178 178
0.0323831192 -0.0334197717 0.125 178 178 178
0.0515540966 -0.0140209776 0.125 178 178 178
0.0697991569 -0.054 0.0769847927 178 178 178
0.077 0.0283961101 0.121248022 178 178 178
0.0523952316 -0.013850277 0.10625 178 178 178
-0.0333261853 0.009 0.128327579 178 178 178
0.0382380759 0.00738388772 0.14375 178 178 178
-0.077 -0.00790623265 0.10532255 178 178 178
0.0126705031 0.054 0.0124798012 178 178 178
0.00821483316 -0.054 0.122042406 178 178 178
-0.000410341297 -0.054 0.0243672239 178 178 178
0.0501915194 -0.028933638 0 178 178 178
-0.000310305235 0.0885031984 0.06875 178 178 178
0.0467645639 -0.054 0.119115448 178 178 178
-0.00650707125 0.0341679969 0 178 178 178
0.0377739497 -0.054 0.12394147 178 178 178
-0.0578780637 -0.054 0.0305496617 178 178 178
-0.077 0.0432801818 0.0241930418 178 178 178
-0.00888755822 -0.0249558897 0 178 178 178
-0.060650878 0.0279138401 0.125 178 178 178
-0.0275 0.0901692564 0.0556657368 178 178 178
-0.0117013327 0.036 0.040131741 178 178 178
0.0077840388 0.054 0.0261190021 178 178 178
-0.00143006708 0.054 0.0951354044 178 178 178
-0.00787599795 0.014516132 0.125 178 178 178
0.0275 0.0910461985 0.0571864456 178 178 178
-0.077 -0.0198015914 0.0569119775 178 178 178
0.077 0.0471826291 0.100032633 178 178 178
0.0571441128 -0.0214415271 0.125 178 178 178
-0.0314615405 0.0219418566 0.125 178 178 178
0.015141244 -0.054 0.0543828179 178 178 178
-0.0609816673 -0.054 0.0578037444 178 178 178
0.00622795196 0.00139555875 0 178 178 178
0.0147661358 -0.054 0.0386000329 178 178 178
0.077 0.0103346936 0.0751286712 178 178 178
-0.0560692343 -0.054 0.0528877571 178 178 178
0.0289371611 -0.054 0.0674476608 178 178 178
-0.0401312846 -0.054 0.0418017575 178 178 178
0.0665242303 -0.054 0.0102368103 178 178 178
-0.0372454305 0.054 0.0775401288 178 178 178
0.077 -0.0206957344 0.00532107372 178 178 178
0.0111737075 -0.0284876441 0.125 178 178 178
0.000286537362 0.0647807274 0.03125 178 178 178
0.077 -0.0113222269 0.00265643368 178 178 178
0.077 -0.0220416302 0.0866601871 178 178 178
-0.077 0.0104883094 0.0535128339 178 178 178
-0.077 0.0119391342 0.0398987487 178 178 178
-0.00704201803 0.036 0.0626759743 178 178 178
-0.00743036124 0.0772916442 0.03125 178 178 178
-0.0492477034 0.054 0.0773539586 178 178 178
-0.077 0.0181695093 0.0856932433 178 178 178
0.0323270008 -0.0350362547 0.125 178 178 178
-0.077 0.047476768 0.0696747473 178 178 178
-0.0286359594 0.0165165884 0.125 178 178 178
-0.0208779566 0.02089459 0.125 178 178 178
-0.00459549139 0.0091963361 0 178 178 178
0.0629801937 -0.054 0.0406672188 178 178 178
-0.000575522478 -0.0404532805 0 178 178 178
0.00467895206 0.054 0.0251914881 178 178 178
-0.077 -0.00936665101 0.0314113255 178 178 178
-0.077 -0.0416993529 0.0278232359 178 178 178
-0.0677637234 0.0454284916 0 178 178 178
-0.038758492 0.054 0.00694423393 178 178 178
-0.0109150273 0.0738360095 0.06875 178 178 178
0.0470450284 -0.031139583 0 178 178 178
0.0630021349 0.0204004219 0.125 178 178 178
-0.0173063375 -0.054 0.0616044976 178 178 178
0.077 0.0130828309 0.102129407 178 178 178
0.052751135 -0.0352599687 0.125 178 178 178
-0.00318383161 0.054 0.0780873107 178 178 178
-0.0183963047 -0.054 0.0206920347 178 178 178
-0.0430254153 0.054 0.00998654953 178 178 178
0.0306044565 0.054 0.0573052682 178 178 178
-0.077 0.0126336979 0.0758301411 178 178 178
0.0181211903 0.0256961463 0.125 178 178 178
-0.077 -0.0150988472 0.122646603 178 178 178
-0.077 0.0126593955 0.0111073401 178 178 178
-0.077 0.0267383698 0.0339331721 178 178 178
-0.00865441876 0.0252797615 0 178 178 178
-0.0542059677 0.009 0.115314938 178 178 178
0.0671192274 0.054 0.026867793 178 178 178
-0.0169679534 -0.054 0.100165315 178 178 178
0.077 -0.0384165172 0.020647258 178 178 178
0.077 0.0261712432 0.00245213719 178 178 178
0.077 -0.0167182506 0.00226232167 178 178 178
0.0177245119 0.033681203 0.125 178 178 178
0.00149704491 -0.054 0.0751026138 178 178 178
0.0475944625 -0.054 0.0116794481 178 178 178
-0.077 -0.000883636311 0.0247790686 178 178 178
0.077 -0.0468015869 0.0342131529 178 178 178
-0.0113223944 -0.0531838409 0 178 178 178
0.077 -0.0109769128 0.0654211764 178 178 178
-0.0294729373 -0.010161084 0.125 178 178 178
-0.00839924914 -0.0188303097 0 178 178 178
0.055 -0.00644606507 0.133913223 178 178 178
-0.00997506886 -0.054 0.0826931343 178 178 178
-0.0235101549 0.054 0.113557563 178 178 178
0.0316360567 -0.054 0.0412979705 178 178 178
0.0361149214 -0.00175801861 0 178 178 178
-0.0275 0.0870916289 0.0628508922 178 178 178
-0.0275 0.00694271047 0.12238784 178 178 178
0.0407573005 -0.0233314268 0.125 178 178 178
0.077 -0.0422143499 0.0239863741 178 178 178
0.0273585067 -0.054 0.0629217873 178 178 178
-0.0493357422 -0.0370581706 0.125 178 178 178
-0.042771948 0.054 0.0335893894 178 178 178
-0.077 0.0264552036 0.0282916746 178 178 178
-0.077 -0.0253347349 0.0188933258 178 178 178
0.0173717364 0.054 0.0395872368 178 178 178
0.0654416019 0.023114559 0 178 178 178
-0.0601797831 -0.0208353568 0.125 178 178 178
0.077 0.0337011018 0.0100164106 178 178 178
-0.077 0.0335569636 0.104866522 178 178 178
0.00378582159 -0.054 0.0552375733 178 178 178
0.077 0.00213544791 0.0962397497 178 178 178
-0.00305938354 0.0721862728 0.06875 178 178 178
0.00136634895 -0.0347930563 0 178 178 178
-0.0399612792 -0.054 0.063695333 178 178 178
-0.0641704515 -0.054 0.0157350882 178 178 178
0.0275 0.002461772 0.137012253 178 178 178
-0.0609438446 -0.0250538761 0.125 178 178 178
-0.00864576116 -0.0268638018 0 178 178 178
-0.031590001 -0.054 0.0256943266 178 178 178
-0.0611097339 0.054 0.0957374622 178 178 178
0.0350589961 -0.0468175072 0.125 178 178 178
-0.0228889239 0.0790689798 0.06875 178 178 178
0.0406182426 -0.0529202342 0.125 178 178 178
-0.077 -0.0279995523 0.112379936 178 178 178
0.0446585911 -0.0068109159 0.125 178 178 178
-0.0064141505 0.099 0.0581162518 178 178 178
-0.0714597018 0.00643815939 0.125 178 178 178
-0.077 0.0103248972 0.0898564305 178 178 178
-0.00817847342 0.0985966955 0.06875 178 178 178
-0.0420351964 0.0275292968 0.125 178 178 178
-0.0658095966 0.0206055601 0 178 178 178
0.0714500663 0.054 0.117811515 178 178 178
0.077 -0.0287789843 0.00402714848 178 178 178
0.077 -0.0268333465 0.0289679732 178 178 178
-0.077 -0.0419547521 0.0358232337 178 178 178
0.077 -0.0240567814 0.121330338 178 178 178
0.077 -0.0296364809 0.0133403883 178 178 178
0.077 -0.0372499771 0.0014482764 178 178 178
0.077 -0.0454938483 0.0123463561 178 178 178
0.0399759287 -0.054 0.0855326887 178 178 178
-0.0198384151 -0.0261473336 0.125 178 178 178
-0.0206912252 -0.054 0.093653356 178 178 178
0.0129388569 -0.054 0.101841954 178 178 178
-0.0768924878 -0.0405337782 0.125 178 178 178
-0.077 -0.0467424134 0.0158658602 178 178 178
-0.0647590401 0.000277129089 0 178 178 178
0.0326014192 0.0263841928 0.125 178 178 178
0.0584567399 0.054 0.0743405844 178 178 178
-0.057760794 -0.054 0.0732362396 178 178 178
0.00445792475 0.0145911287 0.125 178 178 178
-0.0676186365 -0.054 0.00369528111 178 178 178
0.077 0.0167200803 0.0617789192 178 178 178
-0.00227887115 0.054 0.063256614 178 178 178
0.0439404862 -0.018 0.123813068 178 178 178
-0.00530157461 0.036 0.0361684705 178 178 178
0.077 -0.00820056598 0.0723349477 178 178 178
0.077 -0.0220021356 0.104540184 178 178 178
0.0757459374 -0.054 0.010211889 178 178 178
-0.0421504251 -0.00604885884 0.125 178 178 178
-0.055 -0.0161359192 0.123092301 178 178 178
-0.00390534121 0.0306789269 0 178 178 178
-0.0572598436 -0.0196763227 0.125 178 178 178
0.058332194 0.054 0.00971292916 178 178 178
-0.0424052129 0.054 0.117528173 178 178 178
-0.0442043053 -0.054 0.0604748189 178 178 178
-0.0275 -0.0091993677 0.115645144 178 178 178
0.0476889198 -0.054 0.0571541699 178 178 178
-0.0428158598 0.054 0.10507466 178 178 178
-0.0243971858 0.0481766034 0 178 178 178
-0.0114032429 0.099 0.0549890546 178 178 178
-0.0270377318 0.00632197776 0 178 178 178
0.00987747628 -0.054 0.0376113595 178 178 178
0.00261231768 0.099 0.0479828729 178 178 178
-0.0494179635 0.009 0.107402738 178 178 178
-0.0275 0.0378454506 0.0343014145 178 178 178
-0.0258749441 0.0543332298 0.06875 178 178 178
-0.0241182353 0.0131545223 0.125 178 178 178
0.0143442825 -0.0339803202 0 178 178 178
0.077 -0.0475214038 0.0353998076 178 178 178
0.0417719321 -0.0311578376 0 178 178 178
0.053305531 0.00876961907 0.10625 178 178 178
0.00400444326 -0.0149037846 0 178 178 178
-0.0288513982 -0.054 0.106588577 178 178 178
0.0252675294 0.0484907513 0.125 178 178 178
0.00311700535 -0.00819035555 0 178 178 178
0.077 0.0495328022 0.0512070155 178 178 178
0.0104459765 0.0394291878 0 178 178 178
-0.0275 0.0919124855 0.0613820054 178 178 178
-0.077 0.0230005491 0.055076279 178 178 178
0.00411006983 -0.054 0.0214156156 178 178 178
-0.0138075553 0.036 0.0432003053 178 178 178
0.0245534446 0.0442098735 0.03125 178 178 178
-0.0706068859 -0.054 0.112427284 178 178 178
-0.0132719936 0.036 0.0422847994 178 178 178
-0.0349605401 -0.018 0.11700548 178 178 178
0.00590947533 0.054 0.0522686886 178 178 178
0.0577498744 -0.054 0.0318263821 178 178 178
-0.0275 0.0963155803 0.0596397489 178 178 178
-0.0444015718 0.009 0.142711577 178 178 178
0.0543195157 -0.054 0.0474462986 178 178 178
-0.0630863327 -0.0197302809 0 178 178 178
0.0275 0.074465143 0.0519928584 178 178 178
-0.0399055707 0.054 0.00867428627 178 178 178
0.0612873826 0.049129447 0.125 178 178 178
-0.0153570829 0.054 0.0761318266 178 178 178
-0.0258676702 -0.054 0.054183244 178 178 178
-0.0403625632 -0.00810733805 0.14375 178 178 178
-0.000283154326 -0.054 0.00133690287 178 178 178
-0.0164697106 -0.0376246234 0.125 178 178 178
0.0133104368 -0.00849734455 0 178 178 178
-0.00015378376 -0.054 0.0211240628 178 178 178
0.0353521135 0.009 0.127505946 178 178 178
0.0472417942 0.048130325 0.125 178 178 178
0.077 0.0142440751 0.122111928 178 178 178
0.0384800112 -0.018 0.117915459 178 178 178
0.0392094585 -0.0231954588 0 178 178 178
-0.0588532859 -0.054 0.102610539 178 178 178
-0.0060207423 0.0499540882 0.06875 178 178 178
-0.0758258789 0.0247585459 0 178 178 178
-0.0426999802 -0.018 0.116586262 178 178 178
-0.0143769352 0.0740131766 0.06875 178 178 178
0.0106503351 -0.041893555 0.125 178 178 178
0.065490143 0.054 0.112843242 178 178 178
0.0680802833 0.054 0.0604813206 178 178 178
-0.077 -0.0051924239 0.0918643065 178 178 178
-0.0616404069 -0.054 0.0956549453 178 178 178
0.0114490869 -0.054 0.0279021204 178 178 178
0.0442623854 0.0501196469 0.125 178 178 178
-0.0270272425 -0.054 0.0720390999 178 178 178
0.0109542041 0.00273611471 0.125 178 178 178
-0.0275 0.0465694707 0.0560158774 178 178 178
-0.0109114064 0.099 0.0432872958 178 178 178
0.0541079553 -0.054 0.00488313612 178 178 178
-0.077 0.0263895786 0.0488744491 178 178 178
0.077 -0.0124396401 0.0145801016 178 178 178
0.00166998659 -0.054 0.107241809 178 178 178
0.0189930938 -0.054 0.0525183318 178 178 178
0.0429723142 0.00699700117 0.14375 178 178 178
-0.00258498987 -0.054 0.0598240826 178 178 178
0.0457379888 0.054 0.0612677473 178 178 178
-0.0530506168 0.009 0.11280515 178 178 178
-0.0580636873 -0.054 0.075177146 178 178 178
-0.0210918703 0.0568762325 0.03125 178 178 178
-0.0567927862 -0.00330897342 0 178 178 178
-0.077 -0.0407425902 0.0924949705 178 178 178
-0.0234707697 0.0684587786 0.03125 178 178 178
-0.01750135 0.0829670535 0.06875 178 178 178
0.0526232232 -0.018 0.107528558 178 178 178
-0.077 0.0249270255 0.097661948 178 178 178
0.055 -0.00367369985 0.13878415 178 178 178
0.0673923923 -0.054 0.123550291 178 178 178
0.077 0.00507620446 0.0123113139 178 178 178
-0.00697911403 0.0470946757 0.125 178 178 178
0.0150894985 0.0261722339 0 178 178 178
0.077 -0.0241996378 0.0560991519 178 178 178
-0.077 0.0309346379 0.0454134585 178 178 178
-0.077 -0.00784310591 0.0669998712 178 178 178
-0.0198623437 -0.0386730424 0 178 178 178
-0.0497425104 0.009 0.139192971 178 178 178
-0.0165493836 0.0266346391 0.125 178 178 178
-0.0711359532 -0.054 0.0262897891 178 178 178
0.00568980175 0.0950420556 0.06875 178 178 178
-0.0275 0.0769250444 0.060200459 178 178 178
-0.077 -0.0178726045 0.00717019993 178 178 178
-0.0486681414 -0.054 0.0469271452 178 178 178
0.077 -0.052065836 0.085682024 178 178 178
-0.0189960604 0.0963396174 0.06875 178 178 178
0.0407290867 -0.054 0.0787974841 178 178 178
-0.0256819415 0.0786922438 0.03125 178 178 178
-0.077 -0.0302188996 0.0624495694 178 178 178
0.077 -0.0260458255 0.0927496989 178 178 178
-0.0275 0.0504379136 0.0608639147 178 178 178
-0.00830625718 -0.054 0.0442615528 178 178 178
-0.077 0.0123575538 0.0182183376 178 178 178
0.0597678251 0.054 0.000731147978 178 178 178
0.050810133 -0.054 0.114006551 178 178 178
0.0755944346 0.054 0.0071143476 178 178 178
-0.000939444323 0.054 0.0334617566 178 178 178
0.0473016249 0.054 0.0956342797 178 178 178
-0.044333581 0.0223522853 0 178 178 178
0.0288898491 0.009 0.133093881 178 178 178
0.0297466595 -0.00553298951 0.14375 178 178 178
-0.0250052758 -0.044084881 0 178 178 178
-0.0385142852 0.009 0.119306244 178 178 178
-0.00084593358 0.054 0.0881971603 178 178 178
-0.0171212943 0.00428339341 0 178 178 178
0.00961568732 0.0615066733 0.06875 178 178 178
0.077 -0.0293373282 0.103672246 178 178 178
-0.077 0.0307219105 0.0708629071 178 178 178
-0.0138072734 0.0873803498 0.06875 178 178 178
0.069369931 0.054 0.0175205778 178 178 178
0.0368116348 0.00258335895 0 178 178 178
0.0248894921 0.0855777701 0.06875 178 178 178
-0.077 -0.0176775842 0.120814819 178 178 178
-0.0275 0.0513614516 0.0497572891 178 178 178
-0.0627123315 -0.054 0.123938447 178 178 178
-0.077 0.0016010344 0.0533846433 178 178 178
0.0275 0.0703690816 0.0332856944 178 178 178
0.0260873464 -0.054 0.0801640204 178 178 178
0.0328599712 -0.054 0.0645362322 178 178 178
0.0433824242 -0.054 0.11315574 178 178 178
0.0260063162 -0.0482593321 0 178 178 178
-0.0698775375 -0.030325697 0.125 178 178 178
-0.0423690068 -0.054 0.104573204 178 178 178
-0.0650668831 -0.00303722797 0 178 178 178
-0.077 -0.0474462681 0.103823324 178 178 178
0.077 -0.00698122577 0.0575531865 178 178 178
0.0669594367 0.054 0.067977446 178 178 178
-0.0447377189 -0.054 0.0463058859 178 178 178
0.00770964846 -0.054 0.0155901644 178 178 178
-0.077 -0.0297230256 0.042772514 178 178 178
0.077 -0.0256637092 0.0646276378 178 178 178
0.0621663425 0.054 0.027516292 178 178 178
0.077 -0.0331043513 0.0957150807 178 178 178
-0.0540394684 0.054 0.107159997 178 178 178
-0.0275 0.090603339 0.0436262464 178 178 178
-0.0128483795 -0.054 0.0814175425 178 178 178
0.077 -0.0257819357 0.0136367084 178 178 178
-0.077 0.0404829135 0.0162651439 178 178 178
-0.00575421567 0.01209547 0 178 178 178
0.0422202563 -0.00578725627 0.14375 178 178 178
0.077 0.047040756 0.0117956333 178 178 178
-0.0678896579 -0.0414470147 0.125 178 178 178
-0.077 -0.0328327774 0.036062316 178 178 178
0.0196090798 0.0562274068 0.06875 178 178 178
-0.0224469766 0.054 0.0175683504 178 178 178
-0.0518428025 0.00110621089 0.10625 178 178 178
-0.0541435184 -0.000312333963 0 178 178 178
0.0766165519 0.054 0.0627975731 178 178 178
-0.077 0.0291370252 0.0046845759 178 178 178
-0.0299385908 0.00769568475 0.10625 178 178 178
0.0509228633 0.054 0.00301237199 178 178 178
0.0199763248 0.054 0.0462347899 178 178 178
0.0540599749 -0.054 0.0239964404 178 178 178
0.0104613744 0.054 0.0845567783 178 178 178
0.0741393489 0.054 0.089441948 178 178 178
-0.0275 0.0648142596 0.0362613173 178 178 178
-0.00542135624 0.0466334582 0.06875 178 178 178
-0.077 -0.0425447687 0.0982162837 178 178 178
-0.0465168954 -0.018 0.119443471 178 178 178
0.00675985584 -0.0192745415 0 178 178 178
-0.077 -0.0396467135 0.058242096 178 178 178
0.077 0.00174413006 0.0682481459 178 178 178
-0.077 -0.0513400762 0.0971550389 178 178 178
-0.0656319925 -0.054 0.0523309833 178 178 178
0.077 0.0160061797 0.0907956661 178 178 178
0.0128429572 0.0747968725 0.06875 178 178 178
0.0319478623 0.00847227895 0 178 178 178
-0.0485572366 -0.054 0.109999503 178 178 178
0.077 -0.0308134585 0.0049932812 178 178 178
0.013136823 0.036 0.0476501371 178 178 178
0.00749134533 -0.054 0.111085434 178 178 178
-0.0151160554 0.0415718414 0.06875 178 178 178
-0.0320688882 0.0258255133 0.125 178 178 178
-0.0239986941 -0.054 0.0829776582 178 178 178
0.0133853716 0.054 0.0795109055 178 178 178
-0.0359271352 0.054 0.0791573103 178 178 178
-0.0123151061 0.099 0.0608894866 178 178 178
-0.0104846018 0.099 0.0627052137 178 178 178
-0.0466218716 0.0483579867 0.125 178 178 178
-0.077 -0.0335119389 0.0784725196 178 178 178
-0.0769191354 0.054 0.0756415712 178 178 178
0.0485700404 -0.054 0.0232751322 178 178 178
-0.077 -0.00202843773 0.0313337236 178 178 178
-0.0275 0.0913885066 0.0456376047 178 178 178
0.077 -0.0252436446 0.00770502127 178 178 178
-0.0435429292 -0.00401648672 0.10625 178 178 178
-0.0615064004 -0.0167236735 0 178 178 178
0.0503107218 -0.0320029062 0.125 178 178 178
-0.077 -0.0356794719 0.093210671 178 178 178
-0.00832725283 -0.054 0.0977930366 178 178 178
0.0204070446 0.054 0.0773397101 178 178 178
0.077 0.0195592084 0.00245093974 178 178 178
0.00144034496 -0.0154292992 0.125 178 178 178
-0.077 -0.0495131833 0.06469963 178 178 178
-0.077 0.0403961825 0.00100854832 178 178 178
0.0101959088 -0.000832775156 0.125 178 178 178
0.0275528218 0.0277383583 0.125 178 178 178
-0.0126684202 0.0627770953 0.03125 178 178 178
-0.0295827362 -0.00942677643 0.10625 178 178 178
0.0275 0.0796674039 0.031379425 178 178 178
0.077 0.011744107 0.0463849543 178 178 178
-0.0384021087 -0.054 0.0235827529 178 178 178
0.077 -0.0421253099 0.0662834344 178 178 178
0.0412539823 -0.0287568393 0.125 178 178 178
0.077 0.00327255263 0.024138546 178 178 178
-0.0691792726 -0.0310524031 0.125 178 178 178
0.0402381826 -0.0124861191 0.125 178 178 178
0.00789802954 -0.054 0.0491640111 178 178 178
0.064679264 0.0291916745 0 178 178 178
0.077 -0.0218613347 0.103967526 178 178 178
-0.077 -0.00247521242 0.10617465 178 178 178
-0.0682979323 0.054 0.0101918543 178 178 178
0.0522501074 -0.018 0.131941258 178 178 178
-0.00405948548 0.099 0.0322780858 178 178 178
-0.0391659057 0.054 0.0485266839 178 178 178
-0.0275 0.078476328 0.0503299153 178 178 178
0.077 -0.0408113059 0.056115912 178 178 178
-0.00254561867 0.0558506708 0.03125 178 178 178
-0.039860281 -0.054 0.0416507273 178 178 178
0.0324077488 0.054 0.0611163303 178 178 178
0.055 -0.0052013475 0.108693503 178 178 178
0.0174351467 0.054 0.102513108 178 178 178
0.077 0.000159710726 0.0617432017 178 178 178
-0.0156195104 0.0484301933 0.03125 178 178 178
-0.0202106087 -0.054 0.0811637574 178 178 178
-0.0123373488 0.0642410191 0.06875 178 178 178
0.0508616404 -0.000326734515 0 178 178 178
-0.0740103275 -0.00314687711 0.125 178 178 178
0.0379307682 0.00342435719 0.125 178 178 178
-0.0711952106 -0.0086878908 0.125 178 178 178
-0.0465947819 0.009 0.115368484 178 178 178
0.0664118629 0.031962589 0 178 178 178
-0.0209774447 -0.054 0.0688394263 178 178 178
-0.0139725777 0.054 0.0907604476 178 178 178
-0.077 0.030207852 0.0827854929 178 178 178
-0.077 0.0254227859 0.0320343967 178 178 178
-0.0548585101 -0.054 0.010609825 178 178 178
-0.0531427606 0.0451291908 0.125 178 178 178
0.00458689582 0.036 0.0464499054 178 178 178
0.0200911324 0.0354556066 0 178 178 178
0.0219316133 -0.0414658696 0 178 178 178
0.0199710807 0.0448840291 0.125 178 178 178
0.077 -0.00630594551 0.0222097441 178 178 178
-0.0432379752 0.009 0.132334157 178 178 178
-0.077 -0.0247158053 0.092566631 178 178 178
0.0444125263 0.054 0.111353316 178 178 178
0.077 -0.0354673463 0.00132832147 178 178 178
-0.077 0.00408637715 0.0752541463 178 178 178
-0.0291567589 0.054 0.0376684969 178 178 178
0.0379370845 -0.054 0.095919074 178 178 178
-0.0487580366 -0.0133792351 0 178 178 178
-0.0737866175 0.0256271558 0.125 178 178 178
-0.077 -0.0359357881 0.0910907761 178 178 178
-0.054851493 0.054 0.0735442643 178 178 178
-0.00144919238 0.0567775831 0.03125 178 178 178
0.0252445619 -0.0133939947 0 178 178 178
-0.0275 0.0755048251 0.0517198039 178 178 178
0.0188818298 -0.054 0.076367502 178 178 178
-0.0508917385 -0.018 0.128844062 178 178 178
-0.00604925597 0.054 0.121521591 178 178 178
0.065338702 0.054 0.0144656148 178 178 178
0.0260431626 0.0708396088 0.06875 178 178 178
0.0489827156 0.054 0.0177790576 178 178 178
0.0340125587 0.054 0.0240826557 178 178 178
-0.00709973621 -0.0422807609 0.125 178 178 178
-0.0054777981 0.054 0.0189051429 178 178 178
0.0656255563 -0.054 0.0871416295 178 178 178
-0.0700191001 0.0450526055 0 178 178 178
0.0718704508 0.0458121551 0.125 178 178 178
0.077 0.0134217381 0.0597424377 178 178 178
-0.0685074932 -0.040409463 0.125 178 178 178
-0.077 -0.0314375455 0.0193463972 178 178 178
-0.0135113885 0.04841092 0 178 178 178
-0.0265218875 -0.0300864515 0 178 178 178
0.0275 -0.0155654435 0.107911939 178 178 178
-0.0746116628 -0.054 0.0052816028 178 178 178
0.077 0.0384214814 0.0875605678 178 178 178
-0.0327138214 0.0218530375 0.125 178 178 178
0.00568884383 0.048927023 0.125 178 178 178
0.0670525465 -0.054 0.101205917 178 178 178
-0.0156400504 0.0365245012 0.03125 178 178 178
0.0316927294 0.00134037605 0 178 178 178
-0.000744003812 0.0669962183 0.06875 178 178 178
0.0367711819 0.009 0.107955203 178 178 178
0.0620826019 0.054 0.0321862454 178 178 178
0.0154712959 -0.054 0.040970597 178 178 178
0.00458989017 0.0150298796 0.125 178 178 178
-0.0673927923 -0.0538983481 0.125 178 178 178
-0.039214837 -0.054 0.0861066631 178 178 178
0.0245215708 0.036 0.032956327 178 178 178
-0.0390381745 -0.0353996525 0 178 178 178
0.0259594198 0.0450173358 0.03125 178 178 178
-0.0307248095 0.054 0.0480558593 178 178 178
-0.00632864916 -0.0538483515 0 178 178 178
0.0128330109 0.0523184279 0 178 178 178
-0.077 -0.020317527 0.0410247161 178 178 178
-0.024793268 0.054 0.0166901244 178 178 178
-0.0457556557 -0.054 0.0766964492 178 178 178
0.0275 0.0744154987 0.0664548235 178 178 178
-0.040185793 -0.0150711963 0.125 178 178 178
0.077 -0.0280354854 0.0573455413 178 178 178
-0.0453059681 0.0034759387 0 178 178 178
0.0385222546 0.054 0.0168677297 178 178 178
-0.0218949913 0.04522337 0 178 178 178
0.0306478679 -0.0132866285 0.125 178 178 178
-0.077 -0.0297672304 0.00853846927 178 178 178
0.077 0.0476278517 0.104335521 178 178 178
-0.0313214164 0.054 0.0119655353 178 178 178
-0.077 -0.00276896489 0.0167482407 178 178 178
-0.0352438155 0.054 0.0900829024 178 178 178
0.0319203741 -0.0325326779 0.125 178 178 178
-0.077 0.0325823272 0.0683311532 178 178 178
-0.0404562949 -0.00200637575 0 178 178 178
-0.0293141895 -0.054 0.0747703855 178 178 178
0.077 0.0140744157 0.107168532 178 178 178
-0.0448374108 -0.0100863942 0 178 178 178
-0.0210159917 0.0537880857 0 178 178 178
0.00230385486 0.054 0.0473366297 178 178 178
-0.077 -0.00239324797 0.0606513483 178 178 178
-0.0230179584 -0.054 0.0145365603 178 178 178
0.0194022893 -0.054 0.000897036976 178 178 178
-0.0697166293 0.0118583101 0.125 178 178 178
0.077 0.0351780133 0.00921611142 178 178 178
0.0209617223 0.054 0.118323997 178 178 178
-0.0275 -0.00921864889 0.124919847 178 178 178
0.0615479694 -0.0281494563 0 178 178 178
-0.0275 0.0640201573 0.0376775531 178 178 178
0.0374618117 0.009 0.119740942 178 178 178
-0.0218441748 -0.054 0.00918001396 178 178 178
-0.077 0.0257360548 0.118105363 178 178 178
0.00610469507 0.0616787971 0.06875 178 178 178
-0.0519257152 0.054 0.0392027568 178 178 178
-0.0743614458 -0.054 0.020324075 178 178 178
-0.0515803077 0.054 0.00258697555 178 178 178
0.0116090584 0.099 0.0490896492 178 178 178
-0.0741385119 0.0185666899 0 178 178 178
0.077 0.0346513864 0.0843320266 178 178 178
-0.0133699191 -0.0223591477 0 178 178 178
-0.0194511311 0.036 0.0584777369 178 178 178
-0.077 -0.0447309934 0.104781866 178 178 178
-0.0147475597 -0.0346608218 0 178 178 178
-0.077 -0.0198526553 0.0451901936 178 178 178
-0.077 0.0281411413 0.0536270109 178 178 178
-0.0458960516 -0.0131151385 0 178 178 178
0.077 0.0215997089 0.0703806009 178 178 178
-0.077 0.00421557769 0.0844712142 178 178 178
-0.0441207122 -0.054 0.100299167 178 178 178
0.077 0.0460269047 0.0821662762 178 178 178
0.055 -0.00026744522 0.137772099 178 178 178
-0.0123107985 0.054 0.0230679239 178 178 178
0.077 0.0212977962 0.0237876992 178 178 178
0.0494085904 0.0277199887 0 178 178 178
-0.056206873 0.0449083785 0 178 178 178
0.0179458192 0.036 0.0554342026 178 178 178
-0.077 -0.0225645535 0.00211768752 178 178 178
-0.017051342 0.0590162506 0.06875 178 178 178
-0.00314862648 0.054 0.116477746 178 178 178
0.0542478159 0.054 0.0663048224 178 178 178
0.0390205913 0.054 0.0795578516 178 178 178
-0.077 -0.0475773854 0.0520459427 178 178 178
-0.0746438273 -0.054 0.0569178964 178 178 178
0.077 0.0492418846 0.033434412 178 178 178
0.077 -0.0359675654 0.0598300588 178 178 178
0.0315194365 0.054 0.0113715162 178 178 178
0.00379222299 0.0234001572 0.125 178 178 178
0.0603380519 0.00557091299 0 178 178 178
0.0133921923 0.014508917 0 178 178 178
0.0643731199 -0.010683434 0.125 178 178 178
0.00712610252 0.036 0.046491155 178 178 178
-0.077 -0.0156810236 0.112853094 178 178 178
-0.077 0.0177348057 0.0121246696 178 178 178
0.077 -0.0251079783 0.0665409913 178 178 178
-0.0625212849 -0.0162026827 0 178 178 178
0.077 -0.0406743597 0.107500626 178 178 178
0.0275 0.0712333817 0.0569480467 178 178 178
0.077 0.0334472212 0.00311376798 178 178 178
0.00181064215 0.054 0.00606241269 178 178 178
0.0549984083 -0.054 0.0201509043 178 178 178
0.0764444257 0.0100132615 0.125 178 178 178
0.0336991401 0.054 0.00237007173 178 178 178
0.077 0.00698020301 0.030900029 178 178 178
0.0665937608 -0.054 0.0914681231 178 178 178
9.54737694e-05 0.0456664914 0.125 178 178 178
-0.077 -0.0318109951 0.11672843 178 178 178
-0.027293724 -0.054 0.0595016986 178 178 178
-0.0192702807 0.054 0.0938045585 178 178 178
-0.0754145574 -0.0223127884 0.125 178 178 178
-0.077 -0.0169041193 0.00247172575 178 178 178
0.0398912912 -0.054 0.00733973858 178 178 178
0.077 0.000915801776 0.0316006223 178 178 178
-0.0371328563 -0.018 0.108119231 178 178 178
-0.077 0.0421136475 0.075642238 178 178 178
-0.077 0.0225800255 0.0230860545 178 178 178
-0.0701842717 -0.054 0.0327226061 178 178 178
0.00506248252 0.0916796331 0.06875 178 178 178
-0.0686671573 -0.054 0.000557926974 178 178 178
0.027691236 0.009 0.108802662 178 178 178
-0.0275 0.0942277802 0.0667684869 178 178 178
-0.0760179421 0.054 0.0287585321 178 178 178
-0.000255414636 0.09184047 0.06875 178 178 178
0.0753099389 0.054 0.00620969009 178 178 178
-0.077 0.01722115 0.00447627451 178 178 178
-0.0360278476 0.00696826484 0 178 178 178
0.0432885124 0.009 0.121548885 178 178 178
-0.019057804 0.0514940466 0.03125 178 178 178
0.070468492 -0.0211507886 0.125 178 178 178
0.0480167689 0.0490389758 0.125 178 178 178
0.0501601014 0.054 0.109475922 178 178 178
-0.077 -0.00032867079 0.0256594378 178 178 178
0.0651768425 0.0370707565 0.125 178 178 178
0.0296969652 0.00643722555 0.10625 178 178 178
0.0106085897 -0.054 0.0704198225 178 178 178
0.0275 -0.000366097167 0.119648416 178 178 178
-0.077 0.0142342201 0.0200066643 178 178 178
0.077 0.015065969 0.01982696 178 178 178
0.0634802993 -0.054 0.0377227828 178 178 178
-0.0559682179 -0.0241602342 0 178 178 178
-0.0202826548 0.0167966468 0 178 178 178
-0.0147033301 0.054 0.0589562984 178 178 178
-0.077 -0.0480230819 0.0842459281 178 178 178
-0.0275 0.0743615256 0.0445349936 178 178 178
0.0476907361 -0.054 0.0740649711 178 178 178
-0.0275 -0.00265510172 0.113620882 178 178 178
-0.00869750631 -0.054 0.100507938 178 178 178
-0.0416512105 0.009 0.140253857 178 178 178
-0.0300274126 -0.00644906298 0.14375 178 178 178
0.0646062638 -0.0486053868 0.125 178 178 178
0.0275 0.0649743493 0.0515353081 178 178 178
-0.077 0.0390245947 0.0656567254 178 178 178
-0.077 0.0329383078 0.0437795247 178 178 178
-0.000573074022 0.0678343416 0.06875 178 178 178
0.0627632087 0.054 0.0431842396 178 178 178
0.077 0.0416273427 0.0330621467 178 178 178
-0.0435007892 -0.054 0.009579074 178 178 178
0.0275 0.0544677168 0.0476691846 178 178 178
-0.0275 0.0678425443 0.0645841336 178 178 178
0.0580008266 -0.0294485189 0.125 178 178 178
-0.077 -0.0525587979 0.0770350706 178 178 178
0.0123634769 -0.054 0.0774202188 178 178 178
-0.0442936038 -0.0440726379 0.125 178 178 178
0.0614437248 0.0102628051 0.125 178 178 178
