# Blender 4.2.1 LTS
# www.blender.org
o TruthJoined
v 0.088250 -0.013500 -0.002000
v 0.088250 -0.013500 0.002000
v 0.088250 0.013500 -0.002000
v 0.088250 0.013500 0.002000
v 0.089750 -0.013500 -0.002000
v 0.089750 -0.013500 0.002000
v 0.089750 0.013500 -0.002000
v 0.089750 0.013500 0.002000
v -0.045000 -0.015000 -0.006250
v -0.045000 -0.015000 0.006250
v -0.045000 0.015000 -0.006250
v -0.045000 0.015000 0.006250
v 0.045000 -0.015000 -0.006250
v 0.045000 -0.015000 0.006250
v 0.045000 0.015000 -0.006250
v 0.045000 0.015000 0.006250
v -0.054000 -0.004000 0.012500
v -0.054000 -0.004000 0.016500
v -0.052439 -0.004154 0.012500
v -0.052439 -0.004154 0.016500
v -0.050939 -0.004609 0.012500
v -0.050939 -0.004609 0.016500
v -0.049555 -0.005348 0.012500
v -0.049555 -0.005348 0.016500
v -0.048343 -0.006343 0.012500
v -0.048343 -0.006343 0.016500
v -0.047348 -0.007555 0.012500
v -0.047348 -0.007555 0.016500
v -0.046609 -0.008939 0.012500
v -0.046609 -0.008939 0.016500
v -0.046154 -0.010439 0.012500
v -0.046154 -0.010439 0.016500
v -0.046000 -0.012000 0.012500
v -0.046000 -0.012000 0.016500
v -0.046154 -0.013561 0.012500
v -0.046154 -0.013561 0.016500
v -0.046609 -0.015061 0.012500
v -0.046609 -0.015061 0.016500
v -0.047348 -0.016445 0.012500
v -0.047348 -0.016445 0.016500
v -0.048343 -0.017657 0.012500
v -0.048343 -0.017657 0.016500
v -0.049555 -0.018652 0.012500
v -0.049555 -0.018652 0.016500
v -0.050939 -0.019391 0.012500
v -0.050939 -0.019391 0.016500
v -0.052439 -0.019846 0.012500
v -0.052439 -0.019846 0.016500
v -0.054000 -0.020000 0.012500
v -0.054000 -0.020000 0.016500
v -0.055561 -0.019846 0.012500
v -0.055561 -0.019846 0.016500
v -0.057061 -0.019391 0.012500
v -0.057061 -0.019391 0.016500
v -0.058445 -0.018652 0.012500
v -0.058445 -0.018652 0.016500
v -0.059657 -0.017657 0.012500
v -0.059657 -0.017657 0.016500
v -0.060652 -0.016445 0.012500
v -0.060652 -0.016445 0.016500
v -0.061391 -0.015061 0.012500
v -0.061391 -0.015061 0.016500
v -0.061846 -0.013561 0.012500
v -0.061846 -0.013561 0.016500
v -0.062000 -0.012000 0.012500
v -0.062000 -0.012000 0.016500
v -0.061846 -0.010439 0.012500
v -0.061846 -0.010439 0.016500
v -0.061391 -0.008939 0.012500
v -0.061391 -0.008939 0.016500
v -0.060652 -0.007555 0.012500
v -0.060652 -0.007555 0.016500
v -0.059657 -0.006343 0.012500
v -0.059657 -0.006343 0.016500
v -0.058445 -0.005348 0.012500
v -0.058445 -0.005348 0.016500
v -0.057061 -0.004609 0.012500
v -0.057061 -0.004609 0.016500
v -0.055561 -0.004154 0.012500
v -0.055561 -0.004154 0.016500
v -0.054000 0.020000 0.012500
v -0.054000 0.020000 0.016500
v -0.052439 0.019846 0.012500
v -0.052439 0.019846 0.016500
v -0.050939 0.019391 0.012500
v -0.050939 0.019391 0.016500
v -0.049555 0.018652 0.012500
v -0.049555 0.018652 0.016500
v -0.048343 0.017657 0.012500
v -0.048343 0.017657 0.016500
v -0.047348 0.016445 0.012500
v -0.047348 0.016445 0.016500
v -0.046609 0.015061 0.012500
v -0.046609 0.015061 0.016500
v -0.046154 0.013561 0.012500
v -0.046154 0.013561 0.016500
v -0.046000 0.012000 0.012500
v -0.046000 0.012000 0.016500
v -0.046154 0.010439 0.012500
v -0.046154 0.010439 0.016500
v -0.046609 0.008939 0.012500
v -0.046609 0.008939 0.016500
v -0.047348 0.007555 0.012500
v -0.047348 0.007555 0.016500
v -0.048343 0.006343 0.012500
v -0.048343 0.006343 0.016500
v -0.049555 0.005348 0.012500
v -0.049555 0.005348 0.016500
v -0.050939 0.004609 0.012500
v -0.050939 0.004609 0.016500
v -0.052439 0.004154 0.012500
v -0.052439 0.004154 0.016500
v -0.054000 0.004000 0.012500
v -0.054000 0.004000 0.016500
v -0.055561 0.004154 0.012500
v -0.055561 0.004154 0.016500
v -0.057061 0.004609 0.012500
v -0.057061 0.004609 0.016500
v -0.058445 0.005348 0.012500
v -0.058445 0.005348 0.016500
v -0.059657 0.006343 0.012500
v -0.059657 0.006343 0.016500
v -0.060652 0.007555 0.012500
v -0.060652 0.007555 0.016500
v -0.061391 0.008939 0.012500
v -0.061391 0.008939 0.016500
v -0.061846 0.010439 0.012500
v -0.061846 0.010439 0.016500
v -0.062000 0.012000 0.012500
v -0.062000 0.012000 0.016500
v -0.061846 0.013561 0.012500
v -0.061846 0.013561 0.016500
v -0.061391 0.015061 0.012500
v -0.061391 0.015061 0.016500
v -0.060652 0.016445 0.012500
v -0.060652 0.016445 0.016500
v -0.059657 0.017657 0.012500
v -0.059657 0.017657 0.016500
v -0.058445 0.018652 0.012500
v -0.058445 0.018652 0.016500
v -0.057061 0.019391 0.012500
v -0.057061 0.019391 0.016500
v -0.055561 0.019846 0.012500
v -0.055561 0.019846 0.016500
v -0.018000 -0.004000 0.012500
v -0.018000 -0.004000 0.016500
v -0.016439 -0.004154 0.012500
v -0.016439 -0.004154 0.016500
v -0.014939 -0.004609 0.012500
v -0.014939 -0.004609 0.016500
v -0.013555 -0.005348 0.012500
v -0.013555 -0.005348 0.016500
v -0.012343 -0.006343 0.012500
v -0.012343 -0.006343 0.016500
v -0.011348 -0.007555 0.012500
v -0.011348 -0.007555 0.016500
v -0.010609 -0.008939 0.012500
v -0.010609 -0.008939 0.016500
v -0.010154 -0.010439 0.012500
v -0.010154 -0.010439 0.016500
v -0.010000 -0.012000 0.012500
v -0.010000 -0.012000 0.016500
v -0.010154 -0.013561 0.012500
v -0.010154 -0.013561 0.016500
v -0.010609 -0.015061 0.012500
v -0.010609 -0.015061 0.016500
v -0.011348 -0.016445 0.012500
v -0.011348 -0.016445 0.016500
v -0.012343 -0.017657 0.012500
v -0.012343 -0.017657 0.016500
v -0.013555 -0.018652 0.012500
v -0.013555 -0.018652 0.016500
v -0.014939 -0.019391 0.012500
v -0.014939 -0.019391 0.016500
v -0.016439 -0.019846 0.012500
v -0.016439 -0.019846 0.016500
v -0.018000 -0.020000 0.012500
v -0.018000 -0.020000 0.016500
v -0.019561 -0.019846 0.012500
v -0.019561 -0.019846 0.016500
v -0.021061 -0.019391 0.012500
v -0.021061 -0.019391 0.016500
v -0.022445 -0.018652 0.012500
v -0.022445 -0.018652 0.016500
v -0.023657 -0.017657 0.012500
v -0.023657 -0.017657 0.016500
v -0.024652 -0.016445 0.012500
v -0.024652 -0.016445 0.016500
v -0.025391 -0.015061 0.012500
v -0.025391 -0.015061 0.016500
v -0.025846 -0.013561 0.012500
v -0.025846 -0.013561 0.016500
v -0.026000 -0.012000 0.012500
v -0.026000 -0.012000 0.016500
v -0.025846 -0.010439 0.012500
v -0.025846 -0.010439 0.016500
v -0.025391 -0.008939 0.012500
v -0.025391 -0.008939 0.016500
v -0.024652 -0.007555 0.012500
v -0.024652 -0.007555 0.016500
v -0.023657 -0.006343 0.012500
v -0.023657 -0.006343 0.016500
v -0.022445 -0.005348 0.012500
v -0.022445 -0.005348 0.016500
v -0.021061 -0.004609 0.012500
v -0.021061 -0.004609 0.016500
v -0.019561 -0.004154 0.012500
v -0.019561 -0.004154 0.016500
v -0.018000 0.020000 0.012500
v -0.018000 0.020000 0.016500
v -0.016439 0.019846 0.012500
v -0.016439 0.019846 0.016500
v -0.014939 0.019391 0.012500
v -0.014939 0.019391 0.016500
v -0.013555 0.018652 0.012500
v -0.013555 0.018652 0.016500
v -0.012343 0.017657 0.012500
v -0.012343 0.017657 0.016500
v -0.011348 0.016445 0.012500
v -0.011348 0.016445 0.016500
v -0.010609 0.015061 0.012500
v -0.010609 0.015061 0.016500
v -0.010154 0.013561 0.012500
v -0.010154 0.013561 0.016500
v -0.010000 0.012000 0.012500
v -0.010000 0.012000 0.016500
v -0.010154 0.010439 0.012500
v -0.010154 0.010439 0.016500
v -0.010609 0.008939 0.012500
v -0.010609 0.008939 0.016500
v -0.011348 0.007555 0.012500
v -0.011348 0.007555 0.016500
v -0.012343 0.006343 0.012500
v -0.012343 0.006343 0.016500
v -0.013555 0.005348 0.012500
v -0.013555 0.005348 0.016500
v -0.014939 0.004609 0.012500
v -0.014939 0.004609 0.016500
v -0.016439 0.004154 0.012500
v -0.016439 0.004154 0.016500
v -0.018000 0.004000 0.012500
v -0.018000 0.004000 0.016500
v -0.019561 0.004154 0.012500
v -0.019561 0.004154 0.016500
v -0.021061 0.004609 0.012500
v -0.021061 0.004609 0.016500
v -0.022445 0.005348 0.012500
v -0.022445 0.005348 0.016500
v -0.023657 0.006343 0.012500
v -0.023657 0.006343 0.016500
v -0.024652 0.007555 0.012500
v -0.024652 0.007555 0.016500
v -0.025391 0.008939 0.012500
v -0.025391 0.008939 0.016500
v -0.025846 0.010439 0.012500
v -0.025846 0.010439 0.016500
v -0.026000 0.012000 0.012500
v -0.026000 0.012000 0.016500
v -0.025846 0.013561 0.012500
v -0.025846 0.013561 0.016500
v -0.025391 0.015061 0.012500
v -0.025391 0.015061 0.016500
v -0.024652 0.016445 0.012500
v -0.024652 0.016445 0.016500
v -0.023657 0.017657 0.012500
v -0.023657 0.017657 0.016500
v -0.022445 0.018652 0.012500
v -0.022445 0.018652 0.016500
v -0.021061 0.019391 0.012500
v -0.021061 0.019391 0.016500
v -0.019561 0.019846 0.012500
v -0.019561 0.019846 0.016500
v 0.018000 -0.004000 0.012500
v 0.018000 -0.004000 0.016500
v 0.019561 -0.004154 0.012500
v 0.019561 -0.004154 0.016500
v 0.021061 -0.004609 0.012500
v 0.021061 -0.004609 0.016500
v 0.022445 -0.005348 0.012500
v 0.022445 -0.005348 0.016500
v 0.023657 -0.006343 0.012500
v 0.023657 -0.006343 0.016500
v 0.024652 -0.007555 0.012500
v 0.024652 -0.007555 0.016500
v 0.025391 -0.008939 0.012500
v 0.025391 -0.008939 0.016500
v 0.025846 -0.010439 0.012500
v 0.025846 -0.010439 0.016500
v 0.026000 -0.012000 0.012500
v 0.026000 -0.012000 0.016500
v 0.025846 -0.013561 0.012500
v 0.025846 -0.013561 0.016500
v 0.025391 -0.015061 0.012500
v 0.025391 -0.015061 0.016500
v 0.024652 -0.016445 0.012500
v 0.024652 -0.016445 0.016500
v 0.023657 -0.017657 0.012500
v 0.023657 -0.017657 0.016500
v 0.022445 -0.018652 0.012500
v 0.022445 -0.018652 0.016500
v 0.021061 -0.019391 0.012500
v 0.021061 -0.019391 0.016500
v 0.019561 -0.019846 0.012500
v 0.019561 -0.019846 0.016500
v 0.018000 -0.020000 0.012500
v 0.018000 -0.020000 0.016500
v 0.016439 -0.019846 0.012500
v 0.016439 -0.019846 0.016500
v 0.014939 -0.019391 0.012500
v 0.014939 -0.019391 0.016500
v 0.013555 -0.018652 0.012500
v 0.013555 -0.018652 0.016500
v 0.012343 -0.017657 0.012500
v 0.012343 -0.017657 0.016500
v 0.011348 -0.016445 0.012500
v 0.011348 -0.016445 0.016500
v 0.010609 -0.015061 0.012500
v 0.010609 -0.015061 0.016500
v 0.010154 -0.013561 0.012500
v 0.010154 -0.013561 0.016500
v 0.010000 -0.012000 0.012500
v 0.010000 -0.012000 0.016500
v 0.010154 -0.010439 0.012500
v 0.010154 -0.010439 0.016500
v 0.010609 -0.008939 0.012500
v 0.010609 -0.008939 0.016500
v 0.011348 -0.007555 0.012500
v 0.011348 -0.007555 0.016500
v 0.012343 -0.006343 0.012500
v 0.012343 -0.006343 0.016500
v 0.013555 -0.005348 0.012500
v 0.013555 -0.005348 0.016500
v 0.014939 -0.004609 0.012500
v 0.014939 -0.004609 0.016500
v 0.016439 -0.004154 0.012500
v 0.016439 -0.004154 0.016500
v 0.018000 0.020000 0.012500
v 0.018000 0.020000 0.016500
v 0.019561 0.019846 0.012500
v 0.019561 0.019846 0.016500
v 0.021061 0.019391 0.012500
v 0.021061 0.019391 0.016500
v 0.022445 0.018652 0.012500
v 0.022445 0.018652 0.016500
v 0.023657 0.017657 0.012500
v 0.023657 0.017657 0.016500
v 0.024652 0.016445 0.012500
v 0.024652 0.016445 0.016500
v 0.025391 0.015061 0.012500
v 0.025391 0.015061 0.016500
v 0.025846 0.013561 0.012500
v 0.025846 0.013561 0.016500
v 0.026000 0.012000 0.012500
v 0.026000 0.012000 0.016500
v 0.025846 0.010439 0.012500
v 0.025846 0.010439 0.016500
v 0.025391 0.008939 0.012500
v 0.025391 0.008939 0.016500
v 0.024652 0.007555 0.012500
v 0.024652 0.007555 0.016500
v 0.023657 0.006343 0.012500
v 0.023657 0.006343 0.016500
v 0.022445 0.005348 0.012500
v 0.022445 0.005348 0.016500
v 0.021061 0.004609 0.012500
v 0.021061 0.004609 0.016500
v 0.019561 0.004154 0.012500
v 0.019561 0.004154 0.016500
v 0.018000 0.004000 0.012500
v 0.018000 0.004000 0.016500
v 0.016439 0.004154 0.012500
v 0.016439 0.004154 0.016500
v 0.014939 0.004609 0.012500
v 0.014939 0.004609 0.016500
v 0.013555 0.005348 0.012500
v 0.013555 0.005348 0.016500
v 0.012343 0.006343 0.012500
v 0.012343 0.006343 0.016500
v 0.011348 0.007555 0.012500
v 0.011348 0.007555 0.016500
v 0.010609 0.008939 0.012500
v 0.010609 0.008939 0.016500
v 0.010154 0.010439 0.012500
v 0.010154 0.010439 0.016500
v 0.010000 0.012000 0.012500
v 0.010000 0.012000 0.016500
v 0.010154 0.013561 0.012500
v 0.010154 0.013561 0.016500
v 0.010609 0.015061 0.012500
v 0.010609 0.015061 0.016500
v 0.011348 0.016445 0.012500
v 0.011348 0.016445 0.016500
v 0.012343 0.017657 0.012500
v 0.012343 0.017657 0.016500
v 0.013555 0.018652 0.012500
v 0.013555 0.018652 0.016500
v 0.014939 0.019391 0.012500
v 0.014939 0.019391 0.016500
v 0.016439 0.019846 0.012500
v 0.016439 0.019846 0.016500
v 0.054000 -0.004000 0.012500
v 0.054000 -0.004000 0.016500
v 0.055561 -0.004154 0.012500
v 0.055561 -0.004154 0.016500
v 0.057061 -0.004609 0.012500
v 0.057061 -0.004609 0.016500
v 0.058445 -0.005348 0.012500
v 0.058445 -0.005348 0.016500
v 0.059657 -0.006343 0.012500
v 0.059657 -0.006343 0.016500
v 0.060652 -0.007555 0.012500
v 0.060652 -0.007555 0.016500
v 0.061391 -0.008939 0.012500
v 0.061391 -0.008939 0.016500
v 0.061846 -0.010439 0.012500
v 0.061846 -0.010439 0.016500
v 0.062000 -0.012000 0.012500
v 0.062000 -0.012000 0.016500
v 0.061846 -0.013561 0.012500
v 0.061846 -0.013561 0.016500
v 0.061391 -0.015061 0.012500
v 0.061391 -0.015061 0.016500
v 0.060652 -0.016445 0.012500
v 0.060652 -0.016445 0.016500
v 0.059657 -0.017657 0.012500
v 0.059657 -0.017657 0.016500
v 0.058445 -0.018652 0.012500
v 0.058445 -0.018652 0.016500
v 0.057061 -0.019391 0.012500
v 0.057061 -0.019391 0.016500
v 0.055561 -0.019846 0.012500
v 0.055561 -0.019846 0.016500
v 0.054000 -0.020000 0.012500
v 0.054000 -0.020000 0.016500
v 0.052439 -0.019846 0.012500
v 0.052439 -0.019846 0.016500
v 0.050939 -0.019391 0.012500
v 0.050939 -0.019391 0.016500
v 0.049555 -0.018652 0.012500
v 0.049555 -0.018652 0.016500
v 0.048343 -0.017657 0.012500
v 0.048343 -0.017657 0.016500
v 0.047348 -0.016445 0.012500
v 0.047348 -0.016445 0.016500
v 0.046609 -0.015061 0.012500
v 0.046609 -0.015061 0.016500
v 0.046154 -0.013561 0.012500
v 0.046154 -0.013561 0.016500
v 0.046000 -0.012000 0.012500
v 0.046000 -0.012000 0.016500
v 0.046154 -0.010439 0.012500
v 0.046154 -0.010439 0.016500
v 0.046609 -0.008939 0.012500
v 0.046609 -0.008939 0.016500
v 0.047348 -0.007555 0.012500
v 0.047348 -0.007555 0.016500
v 0.048343 -0.006343 0.012500
v 0.048343 -0.006343 0.016500
v 0.049555 -0.005348 0.012500
v 0.049555 -0.005348 0.016500
v 0.050939 -0.004609 0.012500
v 0.050939 -0.004609 0.016500
v 0.052439 -0.004154 0.012500
v 0.052439 -0.004154 0.016500
v 0.054000 0.020000 0.012500
v 0.054000 0.020000 0.016500
v 0.055561 0.019846 0.012500
v 0.055561 0.019846 0.016500
v 0.057061 0.019391 0.012500
v 0.057061 0.019391 0.016500
v 0.058445 0.018652 0.012500
v 0.058445 0.018652 0.016500
v 0.059657 0.017657 0.012500
v 0.059657 0.017657 0.016500
v 0.060652 0.016445 0.012500
v 0.060652 0.016445 0.016500
v 0.061391 0.015061 0.012500
v 0.061391 0.015061 0.016500
v 0.061846 0.013561 0.012500
v 0.061846 0.013561 0.016500
v 0.062000 0.012000 0.012500
v 0.062000 0.012000 0.016500
v 0.061846 0.010439 0.012500
v 0.061846 0.010439 0.016500
v 0.061391 0.008939 0.012500
v 0.061391 0.008939 0.016500
v 0.060652 0.007555 0.012500
v 0.060652 0.007555 0.016500
v 0.059657 0.006343 0.012500
v 0.059657 0.006343 0.016500
v 0.058445 0.005348 0.012500
v 0.058445 0.005348 0.016500
v 0.057061 0.004609 0.012500
v 0.057061 0.004609 0.016500
v 0.055561 0.004154 0.012500
v 0.055561 0.004154 0.016500
v 0.054000 0.004000 0.012500
v 0.054000 0.004000 0.016500
v 0.052439 0.004154 0.012500
v 0.052439 0.004154 0.016500
v 0.050939 0.004609 0.012500
v 0.050939 0.004609 0.016500
v 0.049555 0.005348 0.012500
v 0.049555 0.005348 0.016500
v 0.048343 0.006343 0.012500
v 0.048343 0.006343 0.016500
v 0.047348 0.007555 0.012500
v 0.047348 0.007555 0.016500
v 0.046609 0.008939 0.012500
v 0.046609 0.008939 0.016500
v 0.046154 0.010439 0.012500
v 0.046154 0.010439 0.016500
v 0.046000 0.012000 0.012500
v 0.046000 0.012000 0.016500
v 0.046154 0.013561 0.012500
v 0.046154 0.013561 0.016500
v 0.046609 0.015061 0.012500
v 0.046609 0.015061 0.016500
v 0.047348 0.016445 0.012500
v 0.047348 0.016445 0.016500
v 0.048343 0.017657 0.012500
v 0.048343 0.017657 0.016500
v 0.049555 0.018652 0.012500
v 0.049555 0.018652 0.016500
v 0.050939 0.019391 0.012500
v 0.050939 0.019391 0.016500
v 0.052439 0.019846 0.012500
v 0.052439 0.019846 0.016500
v -0.089750 -0.013500 -0.002000
v -0.089750 -0.013500 0.002000
v -0.089750 0.013500 -0.002000
v -0.089750 0.013500 0.002000
v -0.088250 -0.013500 -0.002000
v -0.088250 -0.013500 0.002000
v -0.088250 0.013500 -0.002000
v -0.088250 0.013500 0.002000
v -0.020000 -0.009000 -0.013250
v -0.020000 -0.009000 -0.011750
v -0.020000 0.009000 -0.013250
v -0.020000 0.009000 -0.011750
v 0.020000 -0.009000 -0.013250
v 0.020000 -0.009000 -0.011750
v 0.020000 0.009000 -0.013250
v 0.020000 0.009000 -0.011750
vn -1.0000 -0.0000 -0.0000
vn -0.0000 1.0000 -0.0000
vn 1.0000 -0.0000 -0.0000
vn -0.0000 -1.0000 -0.0000
vn -0.0000 -0.0000 -1.0000
vn -0.0000 -0.0000 1.0000
vn 0.0980 0.9952 -0.0000
vn 0.2903 0.9569 -0.0000
vn 0.4714 0.8819 -0.0000
vn 0.6344 0.7730 -0.0000
vn 0.7730 0.6344 -0.0000
vn 0.8819 0.4714 -0.0000
vn 0.9569 0.2903 -0.0000
vn 0.9952 0.0980 -0.0000
vn 0.9952 -0.0980 -0.0000
vn 0.9569 -0.2903 -0.0000
vn 0.8819 -0.4714 -0.0000
vn 0.7730 -0.6344 -0.0000
vn 0.6344 -0.7730 -0.0000
vn 0.4714 -0.8819 -0.0000
vn 0.2903 -0.9569 -0.0000
vn 0.0980 -0.9952 -0.0000
vn -0.0980 -0.9952 -0.0000
vn -0.2903 -0.9569 -0.0000
vn -0.4714 -0.8819 -0.0000
vn -0.6344 -0.7730 -0.0000
vn -0.7730 -0.6344 -0.0000
vn -0.8819 -0.4714 -0.0000
vn -0.9569 -0.2903 -0.0000
vn -0.9952 -0.0980 -0.0000
vn -0.9952 0.0980 -0.0000
vn -0.9569 0.2903 -0.0000
vn -0.8819 0.4714 -0.0000
vn -0.7730 0.6344 -0.0000
vn -0.6344 0.7730 -0.0000
vn -0.4714 0.8819 -0.0000
vn -0.2903 0.9569 -0.0000
vn -0.0980 0.9952 -0.0000
vt 0.375000 0.000000
vt 0.625000 0.000000
vt 0.625000 0.250000
vt 0.375000 0.250000
vt 0.625000 0.500000
vt 0.375000 0.500000
vt 0.625000 0.750000
vt 0.375000 0.750000
vt 0.625000 1.000000
vt 0.375000 1.000000
vt 0.125000 0.500000
vt 0.125000 0.750000
vt 0.875000 0.500000
vt 0.875000 0.750000
vt 1.000000 0.500000
vt 1.000000 1.000000
vt 0.968750 1.000000
vt 0.968750 0.500000
vt 0.937500 1.000000
vt 0.937500 0.500000
vt 0.906250 1.000000
vt 0.906250 0.500000
vt 0.875000 1.000000
vt 0.843750 1.000000
vt 0.843750 0.500000
vt 0.812500 1.000000
vt 0.812500 0.500000
vt 0.781250 1.000000
vt 0.781250 0.500000
vt 0.750000 1.000000
vt 0.750000 0.500000
vt 0.718750 1.000000
vt 0.718750 0.500000
vt 0.687500 1.000000
vt 0.687500 0.500000
vt 0.656250 1.000000
vt 0.656250 0.500000
vt 0.593750 1.000000
vt 0.593750 0.500000
vt 0.562500 1.000000
vt 0.562500 0.500000
vt 0.531250 1.000000
vt 0.531250 0.500000
vt 0.500000 1.000000
vt 0.500000 0.500000
vt 0.468750 1.000000
vt 0.468750 0.500000
vt 0.437500 1.000000
vt 0.437500 0.500000
vt 0.406250 1.000000
vt 0.406250 0.500000
vt 0.343750 1.000000
vt 0.343750 0.500000
vt 0.312500 1.000000
vt 0.312500 0.500000
vt 0.281250 1.000000
vt 0.281250 0.500000
vt 0.250000 1.000000
vt 0.250000 0.500000
vt 0.218750 1.000000
vt 0.218750 0.500000
vt 0.187500 1.000000
vt 0.187500 0.500000
vt 0.156250 1.000000
vt 0.156250 0.500000
vt 0.125000 1.000000
vt 0.093750 1.000000
vt 0.093750 0.500000
vt 0.062500 1.000000
vt 0.062500 0.500000
vt 0.296822 0.485388
vt 0.250000 0.490000
vt 0.203178 0.485388
vt 0.158156 0.471731
vt 0.116663 0.449553
vt 0.080294 0.419706
vt 0.050447 0.383337
vt 0.028269 0.341844
vt 0.014612 0.296822
vt 0.010000 0.250000
vt 0.014612 0.203178
vt 0.028269 0.158156
vt 0.050447 0.116663
vt 0.080294 0.080294
vt 0.116663 0.050447
vt 0.158156 0.028269
vt 0.203178 0.014612
vt 0.250000 0.010000
vt 0.296822 0.014612
vt 0.341844 0.028269
vt 0.383337 0.050447
vt 0.419706 0.080294
vt 0.449553 0.116663
vt 0.471731 0.158156
vt 0.485388 0.203178
vt 0.490000 0.250000
vt 0.485388 0.296822
vt 0.471731 0.341844
vt 0.449553 0.383337
vt 0.419706 0.419706
vt 0.383337 0.449553
vt 0.341844 0.471731
vt 0.031250 1.000000
vt 0.031250 0.500000
vt 0.000000 1.000000
vt 0.000000 0.500000
vt 0.750000 0.490000
vt 0.796822 0.485388
vt 0.841844 0.471731
vt 0.883337 0.449553
vt 0.919706 0.419706
vt 0.949553 0.383337
vt 0.971731 0.341844
vt 0.985388 0.296822
vt 0.990000 0.250000
vt 0.985388 0.203178
vt 0.971731 0.158156
vt 0.949553 0.116663
vt 0.919706 0.080294
vt 0.883337 0.050447
vt 0.841844 0.028269
vt 0.796822 0.014612
vt 0.750000 0.010000
vt 0.703178 0.014612
vt 0.658156 0.028269
vt 0.616663 0.050447
vt 0.580294 0.080294
vt 0.550447 0.116663
vt 0.528269 0.158156
vt 0.514612 0.203178
vt 0.510000 0.250000
vt 0.514612 0.296822
vt 0.528269 0.341844
vt 0.550447 0.383337
vt 0.580294 0.419706
vt 0.616663 0.449553
vt 0.658156 0.471731
vt 0.703178 0.485388
s 0
f 1/1/1 2/2/1 4/3/1 3/4/1
f 3/4/2 4/3/2 8/5/2 7/6/2
f 7/6/3 8/5/3 6/7/3 5/8/3
f 5/8/4 6/7/4 2/9/4 1/10/4
f 3/11/5 7/6/5 5/8/5 1/12/5
f 8/5/6 4/13/6 2/14/6 6/7/6
f 9/1/1 10/2/1 12/3/1 11/4/1
f 11/4/2 12/3/2 16/5/2 15/6/2
f 15/6/3 16/5/3 14/7/3 13/8/3
f 13/8/4 14/7/4 10/9/4 9/10/4
f 11/11/5 15/6/5 13/8/5 9/12/5
f 16/5/6 12/13/6 10/14/6 14/7/6
f 17/15/7 18/16/7 20/17/7 19/18/7
f 19/18/8 20/17/8 22/19/8 21/20/8
f 21/20/9 22/19/9 24/21/9 23/22/9
f 23/22/10 24/21/10 26/23/10 25/13/10
f 25/13/11 26/23/11 28/24/11 27/25/11
f 27/25/12 28/24/12 30/26/12 29/27/12
f 29/27/13 30/26/13 32/28/13 31/29/13
f 31/29/14 32/28/14 34/30/14 33/31/14
f 33/31/15 34/30/15 36/32/15 35/33/15
f 35/33/16 36/32/16 38/34/16 37/35/16
f 37/35/17 38/34/17 40/36/17 39/37/17
f 39/37/18 40/36/18 42/9/18 41/5/18
f 41/5/19 42/9/19 44/38/19 43/39/19
f 43/39/20 44/38/20 46/40/20 45/41/20
f 45/41/21 46/40/21 48/42/21 47/43/21
f 47/43/22 48/42/22 50/44/22 49/45/22
f 49/45/23 50/44/23 52/46/23 51/47/23
f 51/47/24 52/46/24 54/48/24 53/49/24
f 53/49/25 54/48/25 56/50/25 55/51/25
f 55/51/26 56/50/26 58/10/26 57/6/26
f 57/6/27 58/10/27 60/52/27 59/53/27
f 59/53/28 60/52/28 62/54/28 61/55/28
f 61/55/29 62/54/29 64/56/29 63/57/29
f 63/57/30 64/56/30 66/58/30 65/59/30
f 65/59/31 66/58/31 68/60/31 67/61/31
f 67/61/32 68/60/32 70/62/32 69/63/32
f 69/63/33 70/62/33 72/64/33 71/65/33
f 71/65/34 72/64/34 74/66/34 73/11/34
f 73/11/35 74/66/35 76/67/35 75/68/35
f 75/68/36 76/67/36 78/69/36 77/70/36
f 20/71/6 18/72/6 80/73/6 78/74/6 76/75/6 74/76/6 72/77/6 70/78/6 68/79/6 66/80/6 64/81/6 62/82/6 60/83/6 58/84/6 56/85/6 54/86/6 52/87/6 50/88/6 48/89/6 46/90/6 44/91/6 42/92/6 40/93/6 38/94/6 36/95/6 34/96/6 32/97/6 30/98/6 28/99/6 26/100/6 24/101/6 22/102/6
f 77/70/37 78/69/37 80/103/37 79/104/37
f 79/104/38 80/103/38 18/105/38 17/106/38
f 17/107/5 19/108/5 21/109/5 23/110/5 25/111/5 27/112/5 29/113/5 31/114/5 33/115/5 35/116/5 37/117/5 39/118/5 41/119/5 43/120/5 45/121/5 47/122/5 49/123/5 51/124/5 53/125/5 55/126/5 57/127/5 59/128/5 61/129/5 63/130/5 65/131/5 67/132/5 69/133/5 71/134/5 73/135/5 75/136/5 77/137/5 79/138/5
f 81/15/7 82/16/7 84/17/7 83/18/7
f 83/18/8 84/17/8 86/19/8 85/20/8
f 85/20/9 86/19/9 88/21/9 87/22/9
f 87/22/10 88/21/10 90/23/10 89/13/10
f 89/13/11 90/23/11 92/24/11 91/25/11
f 91/25/12 92/24/12 94/26/12 93/27/12
f 93/27/13 94/26/13 96/28/13 95/29/13
f 95/29/14 96/28/14 98/30/14 97/31/14
f 97/31/15 98/30/15 100/32/15 99/33/15
f 99/33/16 100/32/16 102/34/16 101/35/16
f 101/35/17 102/34/17 104/36/17 103/37/17
f 103/37/18 104/36/18 106/9/18 105/5/18
f 105/5/19 106/9/19 108/38/19 107/39/19
f 107/39/20 108/38/20 110/40/20 109/41/20
f 109/41/21 110/40/21 112/42/21 111/43/21
f 111/43/22 112/42/22 114/44/22 113/45/22
f 113/45/23 114/44/23 116/46/23 115/47/23
f 115/47/24 116/46/24 118/48/24 117/49/24
f 117/49/25 118/48/25 120/50/25 119/51/25
f 119/51/26 120/50/26 122/10/26 121/6/26
f 121/6/27 122/10/27 124/52/27 123/53/27
f 123/53/28 124/52/28 126/54/28 125/55/28
f 125/55/29 126/54/29 128/56/29 127/57/29
f 127/57/30 128/56/30 130/58/30 129/59/30
f 129/59/31 130/58/31 132/60/31 131/61/31
f 131/61/32 132/60/32 134/62/32 133/63/32
f 133/63/33 134/62/33 136/64/33 135/65/33
f 135/65/34 136/64/34 138/66/34 137/11/34
f 137/11/35 138/66/35 140/67/35 139/68/35
f 139/68/36 140/67/36 142/69/36 141/70/36
f 84/71/6 82/72/6 144/73/6 142/74/6 140/75/6 138/76/6 136/77/6 134/78/6 132/79/6 130/80/6 128/81/6 126/82/6 124/83/6 122/84/6 120/85/6 118/86/6 116/87/6 114/88/6 112/89/6 110/90/6 108/91/6 106/92/6 104/93/6 102/94/6 100/95/6 98/96/6 96/97/6 94/98/6 92/99/6 90/100/6 88/101/6 86/102/6
f 141/70/37 142/69/37 144/103/37 143/104/37
f 143/104/38 144/103/38 82/105/38 81/106/38
f 81/107/5 83/108/5 85/109/5 87/110/5 89/111/5 91/112/5 93/113/5 95/114/5 97/115/5 99/116/5 101/117/5 103/118/5 105/119/5 107/120/5 109/121/5 111/122/5 113/123/5 115/124/5 117/125/5 119/126/5 121/127/5 123/128/5 125/129/5 127/130/5 129/131/5 131/132/5 133/133/5 135/134/5 137/135/5 139/136/5 141/137/5 143/138/5
f 145/15/7 146/16/7 148/17/7 147/18/7
f 147/18/8 148/17/8 150/19/8 149/20/8
f 149/20/9 150/19/9 152/21/9 151/22/9
f 151/22/10 152/21/10 154/23/10 153/13/10
f 153/13/11 154/23/11 156/24/11 155/25/11
f 155/25/12 156/24/12 158/26/12 157/27/12
f 157/27/13 158/26/13 160/28/13 159/29/13
f 159/29/14 160/28/14 162/30/14 161/31/14
f 161/31/15 162/30/15 164/32/15 163/33/15
f 163/33/16 164/32/16 166/34/16 165/35/16
f 165/35/17 166/34/17 168/36/17 167/37/17
f 167/37/18 168/36/18 170/9/18 169/5/18
f 169/5/19 170/9/19 172/38/19 171/39/19
f 171/39/20 172/38/20 174/40/20 173/41/20
f 173/41/21 174/40/21 176/42/21 175/43/21
f 175/43/22 176/42/22 178/44/22 177/45/22
f 177/45/23 178/44/23 180/46/23 179/47/23
f 179/47/24 180/46/24 182/48/24 181/49/24
f 181/49/25 182/48/25 184/50/25 183/51/25
f 183/51/26 184/50/26 186/10/26 185/6/26
f 185/6/27 186/10/27 188/52/27 187/53/27
f 187/53/28 188/52/28 190/54/28 189/55/28
f 189/55/29 190/54/29 192/56/29 191/57/29
f 191/57/30 192/56/30 194/58/30 193/59/30
f 193/59/31 194/58/31 196/60/31 195/61/31
f 195/61/32 196/60/32 198/62/32 197/63/32
f 197/63/33 198/62/33 200/64/33 199/65/33
f 199/65/34 200/64/34 202/66/34 201/11/34
f 201/11/35 202/66/35 204/67/35 203/68/35
f 203/68/36 204/67/36 206/69/36 205/70/36
f 148/71/6 146/72/6 208/73/6 206/74/6 204/75/6 202/76/6 200/77/6 198/78/6 196/79/6 194/80/6 192/81/6 190/82/6 188/83/6 186/84/6 184/85/6 182/86/6 180/87/6 178/88/6 176/89/6 174/90/6 172/91/6 170/92/6 168/93/6 166/94/6 164/95/6 162/96/6 160/97/6 158/98/6 156/99/6 154/100/6 152/101/6 150/102/6
f 205/70/37 206/69/37 208/103/37 207/104/37
f 207/104/38 208/103/38 146/105/38 145/106/38
f 145/107/5 147/108/5 149/109/5 151/110/5 153/111/5 155/112/5 157/113/5 159/114/5 161/115/5 163/116/5 165/117/5 167/118/5 169/119/5 171/120/5 173/121/5 175/122/5 177/123/5 179/124/5 181/125/5 183/126/5 185/127/5 187/128/5 189/129/5 191/130/5 193/131/5 195/132/5 197/133/5 199/134/5 201/135/5 203/136/5 205/137/5 207/138/5
f 209/15/7 210/16/7 212/17/7 211/18/7
f 211/18/8 212/17/8 214/19/8 213/20/8
f 213/20/9 214/19/9 216/21/9 215/22/9
f 215/22/10 216/21/10 218/23/10 217/13/10
f 217/13/11 218/23/11 220/24/11 219/25/11
f 219/25/12 220/24/12 222/26/12 221/27/12
f 221/27/13 222/26/13 224/28/13 223/29/13
f 223/29/14 224/28/14 226/30/14 225/31/14
f 225/31/15 226/30/15 228/32/15 227/33/15
f 227/33/16 228/32/16 230/34/16 229/35/16
f 229/35/17 230/34/17 232/36/17 231/37/17
f 231/37/18 232/36/18 234/9/18 233/5/18
f 233/5/19 234/9/19 236/38/19 235/39/19
f 235/39/20 236/38/20 238/40/20 237/41/20
f 237/41/21 238/40/21 240/42/21 239/43/21
f 239/43/22 240/42/22 242/44/22 241/45/22
f 241/45/23 242/44/23 244/46/23 243/47/23
f 243/47/24 244/46/24 246/48/24 245/49/24
f 245/49/25 246/48/25 248/50/25 247/51/25
f 247/51/26 248/50/26 250/10/26 249/6/26
f 249/6/27 250/10/27 252/52/27 251/53/27
f 251/53/28 252/52/28 254/54/28 253/55/28
f 253/55/29 254/54/29 256/56/29 255/57/29
f 255/57/30 256/56/30 258/58/30 257/59/30
f 257/59/31 258/58/31 260/60/31 259/61/31
f 259/61/32 260/60/32 262/62/32 261/63/32
f 261/63/33 262/62/33 264/64/33 263/65/33
f 263/65/34 264/64/34 266/66/34 265/11/34
f 265/11/35 266/66/35 268/67/35 267/68/35
f 267/68/36 268/67/36 270/69/36 269/70/36
f 212/71/6 210/72/6 272/73/6 270/74/6 268/75/6 266/76/6 264/77/6 262/78/6 260/79/6 258/80/6 256/81/6 254/82/6 252/83/6 250/84/6 248/85/6 246/86/6 244/87/6 242/88/6 240/89/6 238/90/6 236/91/6 234/92/6 232/93/6 230/94/6 228/95/6 226/96/6 224/97/6 222/98/6 220/99/6 218/100/6 216/101/6 214/102/6
f 269/70/37 270/69/37 272/103/37 271/104/37
f 271/104/38 272/103/38 210/105/38 209/106/38
f 209/107/5 211/108/5 213/109/5 215/110/5 217/111/5 219/112/5 221/113/5 223/114/5 225/115/5 227/116/5 229/117/5 231/118/5 233/119/5 235/120/5 237/121/5 239/122/5 241/123/5 243/124/5 245/125/5 247/126/5 249/127/5 251/128/5 253/129/5 255/130/5 257/131/5 259/132/5 261/133/5 263/134/5 265/135/5 267/136/5 269/137/5 271/138/5
f 273/15/7 274/16/7 276/17/7 275/18/7
f 275/18/8 276/17/8 278/19/8 277/20/8
f 277/20/9 278/19/9 280/21/9 279/22/9
f 279/22/10 280/21/10 282/23/10 281/13/10
f 281/13/11 282/23/11 284/24/11 283/25/11
f 283/25/12 284/24/12 286/26/12 285/27/12
f 285/27/13 286/26/13 288/28/13 287/29/13
f 287/29/14 288/28/14 290/30/14 289/31/14
f 289/31/15 290/30/15 292/32/15 291/33/15
f 291/33/16 292/32/16 294/34/16 293/35/16
f 293/35/17 294/34/17 296/36/17 295/37/17
f 295/37/18 296/36/18 298/9/18 297/5/18
f 297/5/19 298/9/19 300/38/19 299/39/19
f 299/39/20 300/38/20 302/40/20 301/41/20
f 301/41/21 302/40/21 304/42/21 303/43/21
f 303/43/22 304/42/22 306/44/22 305/45/22
f 305/45/23 306/44/23 308/46/23 307/47/23
f 307/47/24 308/46/24 310/48/24 309/49/24
f 309/49/25 310/48/25 312/50/25 311/51/25
f 311/51/26 312/50/26 314/10/26 313/6/26
f 313/6/27 314/10/27 316/52/27 315/53/27
f 315/53/28 316/52/28 318/54/28 317/55/28
f 317/55/29 318/54/29 320/56/29 319/57/29
f 319/57/30 320/56/30 322/58/30 321/59/30
f 321/59/31 322/58/31 324/60/31 323/61/31
f 323/61/32 324/60/32 326/62/32 325/63/32
f 325/63/33 326/62/33 328/64/33 327/65/33
f 327/65/34 328/64/34 330/66/34 329/11/34
f 329/11/35 330/66/35 332/67/35 331/68/35
f 331/68/36 332/67/36 334/69/36 333/70/36
f 276/71/6 274/72/6 336/73/6 334/74/6 332/75/6 330/76/6 328/77/6 326/78/6 324/79/6 322/80/6 320/81/6 318/82/6 316/83/6 314/84/6 312/85/6 310/86/6 308/87/6 306/88/6 304/89/6 302/90/6 300/91/6 298/92/6 296/93/6 294/94/6 292/95/6 290/96/6 288/97/6 286/98/6 284/99/6 282/100/6 280/101/6 278/102/6
f 333/70/37 334/69/37 336/103/37 335/104/37
f 335/104/38 336/103/38 274/105/38 273/106/38
f 273/107/5 275/108/5 277/109/5 279/110/5 281/111/5 283/112/5 285/113/5 287/114/5 289/115/5 291/116/5 293/117/5 295/118/5 297/119/5 299/120/5 301/121/5 303/122/5 305/123/5 307/124/5 309/125/5 311/126/5 313/127/5 315/128/5 317/129/5 319/130/5 321/131/5 323/132/5 325/133/5 327/134/5 329/135/5 331/136/5 333/137/5 335/138/5
f 337/15/7 338/16/7 340/17/7 339/18/7
f 339/18/8 340/17/8 342/19/8 341/20/8
f 341/20/9 342/19/9 344/21/9 343/22/9
f 343/22/10 344/21/10 346/23/10 345/13/10
f 345/13/11 346/23/11 348/24/11 347/25/11
f 347/25/12 348/24/12 350/26/12 349/27/12
f 349/27/13 350/26/13 352/28/13 351/29/13
f 351/29/14 352/28/14 354/30/14 353/31/14
f 353/31/15 354/30/15 356/32/15 355/33/15
f 355/33/16 356/32/16 358/34/16 357/35/16
f 357/35/17 358/34/17 360/36/17 359/37/17
f 359/37/18 360/36/18 362/9/18 361/5/18
f 361/5/19 362/9/19 364/38/19 363/39/19
f 363/39/20 364/38/20 366/40/20 365/41/20
f 365/41/21 366/40/21 368/42/21 367/43/21
f 367/43/22 368/42/22 370/44/22 369/45/22
f 369/45/23 370/44/23 372/46/23 371/47/23
f 371/47/24 372/46/24 374/48/24 373/49/24
f 373/49/25 374/48/25 376/50/25 375/51/25
f 375/51/26 376/50/26 378/10/26 377/6/26
f 377/6/27 378/10/27 380/52/27 379/53/27
f 379/53/28 380/52/28 382/54/28 381/55/28
f 381/55/29 382/54/29 384/56/29 383/57/29
f 383/57/30 384/56/30 386/58/30 385/59/30
f 385/59/31 386/58/31 388/60/31 387/61/31
f 387/61/32 388/60/32 390/62/32 389/63/32
f 389/63/33 390/62/33 392/64/33 391/65/33
f 391/65/34 392/64/34 394/66/34 393/11/34
f 393/11/35 394/66/35 396/67/35 395/68/35
f 395/68/36 396/67/36 398/69/36 397/70/36
f 340/71/6 338/72/6 400/73/6 398/74/6 396/75/6 394/76/6 392/77/6 390/78/6 388/79/6 386/80/6 384/81/6 382/82/6 380/83/6 378/84/6 376/85/6 374/86/6 372/87/6 370/88/6 368/89/6 366/90/6 364/91/6 362/92/6 360/93/6 358/94/6 356/95/6 354/96/6 352/97/6 350/98/6 348/99/6 346/100/6 344/101/6 342/102/6
f 397/70/37 398/69/37 400/103/37 399/104/37
f 399/104/38 400/103/38 338/105/38 337/106/38
f 337/107/5 339/108/5 341/109/5 343/110/5 345/111/5 347/112/5 349/113/5 351/114/5 353/115/5 355/116/5 357/117/5 359/118/5 361/119/5 363/120/5 365/121/5 367/122/5 369/123/5 371/124/5 373/125/5 375/126/5 377/127/5 379/128/5 381/129/5 383/130/5 385/131/5 387/132/5 389/133/5 391/134/5 393/135/5 395/136/5 397/137/5 399/138/5
f 401/15/7 402/16/7 404/17/7 403/18/7
f 403/18/8 404/17/8 406/19/8 405/20/8
f 405/20/9 406/19/9 408/21/9 407/22/9
f 407/22/10 408/21/10 410/23/10 409/13/10
f 409/13/11 410/23/11 412/24/11 411/25/11
f 411/25/12 412/24/12 414/26/12 413/27/12
f 413/27/13 414/26/13 416/28/13 415/29/13
f 415/29/14 416/28/14 418/30/14 417/31/14
f 417/31/15 418/30/15 420/32/15 419/33/15
f 419/33/16 420/32/16 422/34/16 421/35/16
f 421/35/17 422/34/17 424/36/17 423/37/17
f 423/37/18 424/36/18 426/9/18 425/5/18
f 425/5/19 426/9/19 428/38/19 427/39/19
f 427/39/20 428/38/20 430/40/20 429/41/20
f 429/41/21 430/40/21 432/42/21 431/43/21
f 431/43/22 432/42/22 434/44/22 433/45/22
f 433/45/23 434/44/23 436/46/23 435/47/23
f 435/47/24 436/46/24 438/48/24 437/49/24
f 437/49/25 438/48/25 440/50/25 439/51/25
f 439/51/26 440/50/26 442/10/26 441/6/26
f 441/6/27 442/10/27 444/52/27 443/53/27
f 443/53/28 444/52/28 446/54/28 445/55/28
f 445/55/29 446/54/29 448/56/29 447/57/29
f 447/57/30 448/56/30 450/58/30 449/59/30
f 449/59/31 450/58/31 452/60/31 451/61/31
f 451/61/32 452/60/32 454/62/32 453/63/32
f 453/63/33 454/62/33 456/64/33 455/65/33
f 455/65/34 456/64/34 458/66/34 457/11/34
f 457/11/35 458/66/35 460/67/35 459/68/35
f 459/68/36 460/67/36 462/69/36 461/70/36
f 404/71/6 402/72/6 464/73/6 462/74/6 460/75/6 458/76/6 456/77/6 454/78/6 452/79/6 450/80/6 448/81/6 446/82/6 444/83/6 442/84/6 440/85/6 438/86/6 436/87/6 434/88/6 432/89/6 430/90/6 428/91/6 426/92/6 424/93/6 422/94/6 420/95/6 418/96/6 416/97/6 414/98/6 412/99/6 410/100/6 408/101/6 406/102/6
f 461/70/37 462/69/37 464/103/37 463/104/37
f 463/104/38 464/103/38 402/105/38 401/106/38
f 401/107/5 403/108/5 405/109/5 407/110/5 409/111/5 411/112/5 413/113/5 415/114/5 417/115/5 419/116/5 421/117/5 423/118/5 425/119/5 427/120/5 429/121/5 431/122/5 433/123/5 435/124/5 437/125/5 439/126/5 441/127/5 443/128/5 445/129/5 447/130/5 449/131/5 451/132/5 453/133/5 455/134/5 457/135/5 459/136/5 461/137/5 463/138/5
f 465/15/7 466/16/7 468/17/7 467/18/7
f 467/18/8 468/17/8 470/19/8 469/20/8
f 469/20/9 470/19/9 472/21/9 471/22/9
f 471/22/10 472/21/10 474/23/10 473/13/10
f 473/13/11 474/23/11 476/24/11 475/25/11
f 475/25/12 476/24/12 478/26/12 477/27/12
f 477/27/13 478/26/13 480/28/13 479/29/13
f 479/29/14 480/28/14 482/30/14 481/31/14
f 481/31/15 482/30/15 484/32/15 483/33/15
f 483/33/16 484/32/16 486/34/16 485/35/16
f 485/35/17 486/34/17 488/36/17 487/37/17
f 487/37/18 488/36/18 490/9/18 489/5/18
f 489/5/19 490/9/19 492/38/19 491/39/19
f 491/39/20 492/38/20 494/40/20 493/41/20
f 493/41/21 494/40/21 496/42/21 495/43/21
f 495/43/22 496/42/22 498/44/22 497/45/22
f 497/45/23 498/44/23 500/46/23 499/47/23
f 499/47/24 500/46/24 502/48/24 501/49/24
f 501/49/25 502/48/25 504/50/25 503/51/25
f 503/51/26 504/50/26 506/10/26 505/6/26
f 505/6/27 506/10/27 508/52/27 507/53/27
f 507/53/28 508/52/28 510/54/28 509/55/28
f 509/55/29 510/54/29 512/56/29 511/57/29
f 511/57/30 512/56/30 514/58/30 513/59/30
f 513/59/31 514/58/31 516/60/31 515/61/31
f 515/61/32 516/60/32 518/62/32 517/63/32
f 517/63/33 518/62/33 520/64/33 519/65/33
f 519/65/34 520/64/34 522/66/34 521/11/34
f 521/11/35 522/66/35 524/67/35 523/68/35
f 523/68/36 524/67/36 526/69/36 525/70/36
f 468/71/6 466/72/6 528/73/6 526/74/6 524/75/6 522/76/6 520/77/6 518/78/6 516/79/6 514/80/6 512/81/6 510/82/6 508/83/6 506/84/6 504/85/6 502/86/6 500/87/6 498/88/6 496/89/6 494/90/6 492/91/6 490/92/6 488/93/6 486/94/6 484/95/6 482/96/6 480/97/6 478/98/6 476/99/6 474/100/6 472/101/6 470/102/6
f 525/70/37 526/69/37 528/103/37 527/104/37
f 527/104/38 528/103/38 466/105/38 465/106/38
f 465/107/5 467/108/5 469/109/5 471/110/5 473/111/5 475/112/5 477/113/5 479/114/5 481/115/5 483/116/5 485/117/5 487/118/5 489/119/5 491/120/5 493/121/5 495/122/5 497/123/5 499/124/5 501/125/5 503/126/5 505/127/5 507/128/5 509/129/5 511/130/5 513/131/5 515/132/5 517/133/5 519/134/5 521/135/5 523/136/5 525/137/5 527/138/5
f 529/1/1 530/2/1 532/3/1 531/4/1
f 531/4/2 532/3/2 536/5/2 535/6/2
f 535/6/3 536/5/3 534/7/3 533/8/3
f 533/8/4 534/7/4 530/9/4 529/10/4
f 531/11/5 535/6/5 533/8/5 529/12/5
f 536/5/6 532/13/6 530/14/6 534/7/6
f 537/1/1 538/2/1 540/3/1 539/4/1
f 539/4/2 540/3/2 544/5/2 543/6/2
f 543/6/3 544/5/3 542/7/3 541/8/3
f 541/8/4 542/7/4 538/9/4 537/10/4
f 539/11/5 543/6/5 541/8/5 537/12/5
f 544/5/6 540/13/6 538/14/6 542/7/6
