ply
format ascii 1.0
comment VisionMCP reconstruction mesh
element vertex 96
property float x
property float y
property float z
element face 144
property list uchar int vertex_indices
end_header
-0.09 -0.03 -0.0125
0.09 -0.03 -0.0125
0.09 0.03 -0.0125
-0.09 0.03 -0.0125
-0.09 -0.03 0.0125
0.09 -0.03 0.0125
0.09 0.03 0.0125
-0.09 0.03 0.0125
-0.05525 -0.0155 0.0125
-0.03925 -0.0155 0.0125
-0.03925 0.0005 0.0125
-0.05525 0.0005 0.0125
-0.05525 -0.0155 0.0165
-0.03925 -0.0155 0.0165
-0.03925 0.0005 0.0165
-0.05525 0.0005 0.0165
-0.05525 -0.0005 0.0125
-0.03925 -0.0005 0.0125
-0.03925 0.0155 0.0125
-0.05525 0.0155 0.0125
-0.05525 -0.0005 0.0165
-0.03925 -0.0005 0.0165
-0.03925 0.0155 0.0165
-0.05525 0.0155 0.0165
-0.02375 -0.0155 0.0125
-0.00775 -0.0155 0.0125
-0.00775 0.0005 0.0125
-0.02375 0.0005 0.0125
-0.02375 -0.0155 0.0165
-0.00775 -0.0155 0.0165
-0.00775 0.0005 0.0165
-0.02375 0.0005 0.0165
-0.02375 -0.0005 0.0125
-0.00775 -0.0005 0.0125
-0.00775 0.0155 0.0125
-0.02375 0.0155 0.0125
-0.02375 -0.0005 0.0165
-0.00775 -0.0005 0.0165
-0.00775 0.0155 0.0165
-0.02375 0.0155 0.0165
0.00775 -0.0155 0.0125
0.02375 -0.0155 0.0125
0.02375 0.0005 0.0125
0.00775 0.0005 0.0125
0.00775 -0.0155 0.0165
0.02375 -0.0155 0.0165
0.02375 0.0005 0.0165
0.00775 0.0005 0.0165
0.00775 -0.0005 0.0125
0.02375 -0.0005 0.0125
0.02375 0.0155 0.0125
0.00775 0.0155 0.0125
0.00775 -0.0005 0.0165
0.02375 -0.0005 0.0165
0.02375 0.0155 0.0165
0.00775 0.0155 0.0165
0.03925 -0.0155 0.0125
0.05525 -0.0155 0.0125
0.05525 0.0005 0.0125
0.03925 0.0005 0.0125
0.03925 -0.0155 0.0165
0.05525 -0.0155 0.0165
0.05525 0.0005 0.0165
0.03925 0.0005 0.0165
0.03925 -0.0005 0.0125
0.05525 -0.0005 0.0125
0.05525 0.0155 0.0125
0.03925 0.0155 0.0125
0.03925 -0.0005 0.0165
0.05525 -0.0005 0.0165
0.05525 0.0155 0.0165
0.03925 0.0155 0.0165
-0.04 -0.018 -0.014
0.04 -0.018 -0.014
0.04 0.018 -0.014
-0.04 0.018 -0.014
-0.04 -0.018 -0.011
0.04 -0.018 -0.011
0.04 0.018 -0.011
-0.04 0.018 -0.011
-0.088 -0.027 -0.00375
-0.09 -0.027 -0.00375
-0.09 0.027 -0.00375
-0.088 0.027 -0.00375
-0.088 -0.027 0.00375
-0.09 -0.027 0.00375
-0.09 0.027 0.00375
-0.088 0.027 0.00375
0.088 -0.027 -0.00375
0.09 -0.027 -0.00375
0.09 0.027 -0.00375
0.088 0.027 -0.00375
0.088 -0.027 0.00375
0.09 -0.027 0.00375
0.09 0.027 0.00375
0.088 0.027 0.00375
3 0 1 2
3 0 2 3
3 4 6 5
3 4 7 6
3 0 4 5
3 0 5 1
3 1 5 6
3 1 6 2
3 2 6 7
3 2 7 3
3 3 7 4
3 3 4 0
3 8 9 10
3 8 10 11
3 12 14 13
3 12 15 14
3 8 12 13
3 8 13 9
3 9 13 14
3 9 14 10
3 10 14 15
3 10 15 11
3 11 15 12
3 11 12 8
3 16 17 18
3 16 18 19
3 20 22 21
3 20 23 22
3 16 20 21
3 16 21 17
3 17 21 22
3 17 22 18
3 18 22 23
3 18 23 19
3 19 23 20
3 19 20 16
3 24 25 26
3 24 26 27
3 28 30 29
3 28 31 30
3 24 28 29
3 24 29 25
3 25 29 30
3 25 30 26
3 26 30 31
3 26 31 27
3 27 31 28
3 27 28 24
3 32 33 34
3 32 34 35
3 36 38 37
3 36 39 38
3 32 36 37
3 32 37 33
3 33 37 38
3 33 38 34
3 34 38 39
3 34 39 35
3 35 39 36
3 35 36 32
3 40 41 42
3 40 42 43
3 44 46 45
3 44 47 46
3 40 44 45
3 40 45 41
3 41 45 46
3 41 46 42
3 42 46 47
3 42 47 43
3 43 47 44
3 43 44 40
3 48 49 50
3 48 50 51
3 52 54 53
3 52 55 54
3 48 52 53
3 48 53 49
3 49 53 54
3 49 54 50
3 50 54 55
3 50 55 51
3 51 55 52
3 51 52 48
3 56 57 58
3 56 58 59
3 60 62 61
3 60 63 62
3 56 60 61
3 56 61 57
3 57 61 62
3 57 62 58
3 58 62 63
3 58 63 59
3 59 63 60
3 59 60 56
3 64 65 66
3 64 66 67
3 68 70 69
3 68 71 70
3 64 68 69
3 64 69 65
3 65 69 70
3 65 70 66
3 66 70 71
3 66 71 67
3 67 71 68
3 67 68 64
3 72 73 74
3 72 74 75
3 76 78 77
3 76 79 78
3 72 76 77
3 72 77 73
3 73 77 78
3 73 78 74
3 74 78 79
3 74 79 75
3 75 79 76
3 75 76 72
3 80 81 82
3 80 82 83
3 84 86 85
3 84 87 86
3 80 84 85
3 80 85 81
3 81 85 86
3 81 86 82
3 82 86 87
3 82 87 83
3 83 87 84
3 83 84 80
3 88 89 90
3 88 90 91
3 92 94 93
3 92 95 94
3 88 92 93
3 88 93 89
3 89 93 94
3 89 94 90
3 90 94 95
3 90 95 91
3 91 95 92
3 91 92 88
