ply
format ascii 1.0
comment VisionMCP oriented point archive (not a trained radiance field)
element vertex 798
property float x
property float y
property float z
property uchar red
property uchar green
property uchar blue
end_header
-0.09 -0.0138127972 -0.0114756619 140 140 140
-0.09 0.0187962144 0.0103188894 140 140 140
-0.09 0.0137697937 0.00109062479 140 140 140
-0.09 0.0189512132 -0.0124315375 140 140 140
-0.09 -0.0279848655 0.00574138616 140 140 140
-0.09 0.0217907353 0.00103653051 140 140 140
-0.09 -0.00463876673 -0.0117920082 140 140 140
-0.09 0.0102374649 0.00367973779 140 140 140
-0.09 -0.00697934674 0.0124302484 140 140 140
-0.09 0.0111325191 0.00376148191 140 140 140
-0.09 -0.00666471456 -0.00912258737 140 140 140
-0.09 0.00152125935 -0.00474395311 140 140 140
-0.09 0.0233692701 0.0108510879 140 140 140
-0.09 0.00429178984 -0.00445326522 140 140 140
-0.09 -0.00972532647 -0.00270952499 140 140 140
-0.09 -0.0163705444 0.00307967862 140 140 140
-0.09 0.0199586489 0.00717745769 140 140 140
-0.09 0.0225890538 -0.0110357991 140 140 140
-0.09 -0.020983232 -0.00124151583 140 140 140
-0.09 -0.0161614675 -0.0111994675 140 140 140
-0.09 -0.0180892173 -0.0102311739 140 140 140
-0.09 -0.012078232 0.00429987195 140 140 140
-0.09 0.0265267866 -0.00337224579 140 140 140
-0.09 0.00774648909 0.0106788638 140 140 140
-0.09 0.0272754296 -2.60465781e-06 140 140 140
-0.09 0.00721280712 0.0123774126 140 140 140
-0.09 -0.00239729164 0.00644322113 140 140 140
-0.09 0.00175872961 0.00714464252 140 140 140
-0.09 0.0140690143 0.00527857195 140 140 140
-0.09 -0.023104042 0.00572537793 140 140 140
-0.09 0.0280755714 -0.0121323424 140 140 140
-0.09 0.0288717024 0.0114302545 140 140 140
-0.09 0.0283577288 0.00974838889 140 140 140
-0.09 -0.00120072457 -0.00669067701 140 140 140
-0.09 0.0254118096 -0.00584674319 140 140 140
-0.09 -0.00343483026 0.0107754329 140 140 140
-0.09 0.0139203717 0.00285933117 140 140 140
-0.09 0.0131531864 -0.0121002068 140 140 140
-0.09 0.000765523396 0.0107276055 140 140 140
-0.09 0.0204790368 -0.0108327498 140 140 140
-0.09 -0.00418207608 0.011651552 140 140 140
-0.09 -0.0144681244 -0.00645810715 140 140 140
-0.09 -0.0164478343 -0.00938613235 140 140 140
-0.09 0.00516738389 0.00135226255 140 140 140
-0.09 0.00362855712 -0.00528946964 140 140 140
-0.09 0.0190872583 0.00316266156 140 140 140
-0.09 -0.00783573533 0.00131528776 140 140 140
-0.09 0.0208974725 -0.00886316155 140 140 140
-0.09 0.0245975377 -0.0114233278 140 140 140
-0.09 -0.00507695776 0.00824509963 140 140 140
-0.09 -0.00809723053 -0.0105342491 140 140 140
-0.09 -0.0135690541 0.00506630177 140 140 140
-0.09 -0.0223909739 0.00911945739 140 140 140
-0.09 -0.0071537695 -0.00175564847 140 140 140
-0.09 0.0285877393 0.0068922797 140 140 140
-0.09 -0.0138097929 0.0090780051 140 140 140
-0.09 0.000642390333 -0.00389260673 140 140 140
-0.09 -0.0110433873 -0.00793219053 140 140 140
-0.09 0.0187401239 0.00419723514 140 140 140
-0.09 0.0255428746 0.00620621258 140 140 140
-0.09 -0.0151711956 -0.00896883608 140 140 140
-0.09 0.0128771122 -0.00832367678 140 140 140
-0.09 0.024615346 0.00153501919 140 140 140
-0.09 -0.0183522136 0.000650556215 140 140 140
-0.09 -0.0246638616 0.0120485673 140 140 140
-0.09 -0.029615467 0.00681623003 140 140 140
-0.09 0.0053922017 -0.00450795909 140 140 140
-0.09 0.010351598 -0.00762231504 140 140 140
-0.09 0.00613435058 0.0115605773 140 140 140
-0.09 -1.63058048e-06 0.00610243698 140 140 140
-0.09 -0.00671599609 -0.0109276125 140 140 140
-0.09 -0.0247339268 -0.00262270729 140 140 140
-0.09 -0.00166197979 0.0103155483 140 140 140
-0.09 0.0249194376 -0.00931492477 140 140 140
-0.09 -0.0257804248 0.00922135736 140 140 140
-0.09 -0.000205698372 -0.0084114146 140 140 140
-0.09 -0.0109189567 0.00527199658 140 140 140
-0.09 0.000448191633 0.00724164331 140 140 140
-0.09 0.0047255102 -0.00756912632 140 140 140
-0.09 -0.000669237832 0.0122173833 140 140 140
-0.09 0.0277811484 0.00752292592 140 140 140
-0.09 0.0188120439 0.00257122263 140 140 140
-0.09 0.0248214458 -0.0108682396 140 140 140
-0.09 -0.0070911132 -0.0043613596 140 140 140
-0.09 0.0168714301 -0.000361621531 140 140 140
-0.09 0.0226517344 -0.0103296282 140 140 140
-0.09 0.0173492774 0.00747990949 140 140 140
-0.09 0.017798351 -0.00686678895 140 140 140
-0.09 -0.00495311327 0.00103524959 140 140 140
-0.09 -0.00558313196 -0.0124924827 140 140 140
-0.09 0.0211125547 -0.00902670802 140 140 140
-0.09 0.0192661853 0.0120457081 140 140 140
-0.09 -0.00455361087 0.0119922177 140 140 140
-0.09 0.000220618752 0.00633616346 140 140 140
-0.09 -0.00143117568 0.00909465603 140 140 140
-0.09 -0.0123645446 0.00669130675 140 140 140
-0.09 -0.0243692908 -0.00271548934 140 140 140
-0.09 -0.00142998221 -0.0017865098 140 140 140
-0.09 0.00517802122 -0.0094327335 140 140 140
-0.09 0.0110430269 0.00809453396 140 140 140
-0.09 0.00499920282 -0.0114945445 140 140 140
-0.09 0.00414155126 0.00814893055 140 140 140
-0.09 0.0187946457 0.0124252573 140 140 140
-0.09 -0.0197387136 -0.00270813001 140 140 140
-0.09 -0.00364626409 0.00220950274 140 140 140
-0.09 0.0135674107 -0.00549793995 140 140 140
-0.09 0.0217769999 0.00161032053 140 140 140
-0.09 0.0239294259 -0.0103496891 140 140 140
-0.09 -0.0103210626 -0.00811475625 140 140 140
-0.09 -0.00823068295 -0.00425260419 140 140 140
-0.09 -0.0180420996 0.000304341446 140 140 140
-0.09 -0.0201979145 0.00958546834 140 140 140
-0.09 0.0034101294 -0.0069386651 140 140 140
-0.09 -0.0292712084 0.00532484077 140 140 140
-0.09 0.00876270141 0.00278346711 140 140 140
-0.09 -0.0152156419 0.0018594512 140 140 140
-0.09 0.0295213937 0.0105936339 140 140 140
-0.09 0.00539763556 0.00490537765 140 140 140
-0.09 -0.0112442612 0.00539794617 140 140 140
-0.09 -0.00949544099 -0.00652640721 140 140 140
-0.09 0.00509896081 -0.000585289457 140 140 140
-0.09 -0.0256404991 -0.0120527145 140 140 140
-0.09 -0.0185333836 0.0118883245 140 140 140
-0.09 -0.0028746727 -0.00263350507 140 140 140
-0.09 0.0149253435 0.00359261905 140 140 140
-0.09 -0.0250314854 -0.00368141461 140 140 140
-0.09 -0.00439673138 -0.011484561 140 140 140
-0.09 0.0267014789 -0.00843575688 140 140 140
-0.09 0.0193282295 -0.00271765607 140 140 140
-0.09 0.0194401085 0.00451715814 140 140 140
-0.09 0.0154557951 0.00478178699 140 140 140
-0.09 0.019368428 -0.00802343281 140 140 140
-0.09 -0.0247991206 -0.00185359399 140 140 140
0.09 -0.0178699144 0.0109476277 140 140 140
0.09 -0.0297060351 -0.00442697991 140 140 140
0.09 -0.0141182923 0.00826735664 140 140 140
0.09 0.00518270129 0.0114602334 140 140 140
0.09 0.0288304785 0.00186391623 140 140 140
0.09 0.0202228219 0.00695620565 140 140 140
0.09 0.00788949104 -0.00359088634 140 140 140
0.09 -0.0164099763 0.0069386031 140 140 140
0.09 0.00463187694 0.000897473239 140 140 140
0.09 0.0156291959 -0.00975430285 140 140 140
0.09 -0.00516264705 0.00285503589 140 140 140
0.09 0.00512877515 0.00582215192 140 140 140
0.09 -0.00222793145 -0.00533077836 140 140 140
0.09 0.0117181264 0.00489278382 140 140 140
0.09 0.028310245 0.00427876951 140 140 140
0.09 0.0204705211 -0.000336989167 140 140 140
0.09 -0.014503536 -0.00859661297 140 140 140
0.09 0.0206466581 0.00444496945 140 140 140
0.09 0.00454332547 0.00158531184 140 140 140
0.09 -0.00673954728 -0.0083804337 140 140 140
0.09 0.0236837098 -0.0112933601 140 140 140
0.09 0.00817701922 0.00722112889 140 140 140
0.09 -0.0185046482 -0.00955896062 140 140 140
0.09 0.0189306244 -0.00707332047 140 140 140
0.09 0.00306269975 -0.0077045713 140 140 140
0.09 0.0163958759 0.00803066515 140 140 140
0.09 -0.0123554184 -0.00557197776 140 140 140
0.09 0.00461445859 0.000695501953 140 140 140
0.09 0.00824525875 0.00439418605 140 140 140
0.09 -0.0067623051 0.00309756955 140 140 140
0.09 -0.00958056856 -0.00491997468 140 140 140
0.09 0.00674050434 0.00276996097 140 140 140
0.09 0.00394643443 0.0121442409 140 140 140
0.09 0.0205808829 -0.0104669077 140 140 140
0.09 0.0265023693 -0.0059533996 140 140 140
0.09 -0.00101949519 -0.00793219356 140 140 140
0.09 0.0238619061 0.0115166221 140 140 140
0.09 0.000909622014 0.00831794623 140 140 140
0.09 -0.0150865394 0.010857151 140 140 140
0.09 0.0164133737 2.34489247e-05 140 140 140
0.09 -0.0122443892 0.00186026922 140 140 140
0.09 -0.0291757285 -0.00165271939 140 140 140
0.09 0.00684943642 -0.0043963406 140 140 140
0.09 -0.000929122013 0.0124875338 140 140 140
0.09 0.0198378865 -0.00601127735 140 140 140
0.09 -0.0180417655 -0.00169337589 140 140 140
0.09 -0.0183234391 0.00699861927 140 140 140
0.09 -0.0110397009 0.000201604919 140 140 140
0.09 0.0133426904 -0.00881318864 140 140 140
0.09 0.0138423598 0.00170480786 140 140 140
0.09 -0.00312849828 -0.00233467887 140 140 140
0.09 -0.0161176456 0.00376915837 140 140 140
0.09 0.0217365312 -0.00573379011 140 140 140
0.09 0.00409104851 0.00321146995 140 140 140
0.09 -0.0198006929 -0.00875461135 140 140 140
0.09 -0.0254136587 0.00085577559 140 140 140
0.09 0.0184300758 -0.0119347367 140 140 140
0.09 -0.00160776172 -0.00708679248 140 140 140
0.09 -0.0166325139 -0.00545429734 140 140 140
0.09 -0.00496947802 -0.00285337647 140 140 140
0.09 0.0098485114 0.00400691362 140 140 140
0.09 0.00491415474 0.00589809 140 140 140
0.09 0.00531205512 -0.00923567354 140 140 140
0.09 -0.0106167784 0.0106889702 140 140 140
0.09 0.0237284344 -0.00100812617 140 140 140
0.09 -0.000892369459 0.00521755654 140 140 140
0.09 0.0233919158 -0.00585729828 140 140 140
0.09 0.0132699472 0.00441511158 140 140 140
0.09 0.0112449001 0.00215660528 140 140 140
0.09 0.0101522233 -0.0123350369 140 140 140
0.09 -0.00474729569 -0.00304076549 140 140 140
0.09 -0.00438254376 0.00309043109 140 140 140
0.09 0.012509969 -0.00672694762 140 140 140
0.09 0.0149339907 0.00421820324 140 140 140
0.09 -0.0217939629 0.00409209348 140 140 140
0.09 -0.0201634408 0.00473254342 140 140 140
0.09 0.0249071169 0.00628849219 140 140 140
0.09 0.0262815792 -0.0118691811 140 140 140
0.09 -0.0154858217 0.00580200208 140 140 140
0.09 -0.00213747553 -0.00693666653 140 140 140
0.09 -0.0229736155 -0.00631646949 140 140 140
0.09 -0.00293715213 0.00942044341 140 140 140
0.09 0.0173726788 -0.00781491818 140 140 140
0.09 -0.00739763689 -0.000145019853 140 140 140
0.09 0.0193479695 -0.0081702367 140 140 140
0.09 0.0233427776 -0.0106120241 140 140 140
0.09 -0.0124348216 -0.00248138081 140 140 140
0.09 -0.0257154842 0.00703263163 140 140 140
0.09 -0.0222075885 -0.00334799228 140 140 140
0.09 -0.01538565 -0.00514090606 140 140 140
0.09 0.0277356837 -0.00102848578 140 140 140
0.09 -0.0281680757 -0.0108472435 140 140 140
0.09 0.0099566783 -0.00699418272 140 140 140
0.09 0.0177219681 -0.00420465203 140 140 140
0.09 0.0135245152 -0.000602555168 140 140 140
0.09 -0.024753293 0.00592918753 140 140 140
0.09 0.0234217247 0.000252225187 140 140 140
0.09 -0.0164605553 -0.00116190277 140 140 140
0.09 0.00901184513 -0.00564482608 140 140 140
0.09 -0.00387358948 0.0120690986 140 140 140
0.09 0.0202317809 -0.0121364592 140 140 140
0.09 -0.00609129343 -2.47673003e-05 140 140 140
0.09 0.0257706908 -0.00750887467 140 140 140
0.09 0.00584073741 0.00896108568 140 140 140
0.09 0.0197934769 0.000597414106 140 140 140
0.09 0.01299647 0.0103026315 140 140 140
0.09 0.0181347694 -0.00944081134 140 140 140
0.09 0.00697450502 -0.00571983293 140 140 140
0.09 -0.0195703094 0.00655429158 140 140 140
0.09 -0.0220317224 0.000420873419 140 140 140
0.09 0.0174009191 -0.000875192496 140 140 140
0.09 0.00396623259 0.0119562029 140 140 140
0.09 0.0292602522 -0.00211403542 140 140 140
0.09 0.0169248636 -0.00570702494 140 140 140
0.09 0.00876090479 -0.00750806855 140 140 140
0.09 0.0292220006 0.00793475358 140 140 140
0.09 0.0208781658 -0.00604674496 140 140 140
0.09 0.016356981 0.00643405031 140 140 140
0.09 -0.0218008795 0.00618965438 140 140 140
0.09 -0.0104469955 0.00585757194 140 140 140
0.09 -0.0106523545 -0.00862971108 140 140 140
0.09 0.0251513994 -0.00525397125 140 140 140
0.09 -0.0246184067 0.0103136477 140 140 140
0.09 -0.0181882131 -0.00510781883 140 140 140
0.09 -0.00865454015 0.0059058454 140 140 140
0.09 -0.0175782808 0.00275273775 140 140 140
0.09 -0.0232951311 -0.00846980457 140 140 140
0.09 -0.0292854157 0.0107476881 140 140 140
0.09 -0.013761687 -0.00310894186 140 140 140
0.09 -0.00889084025 -0.00172167859 140 140 140
0.09 0.0285747021 -0.00337856938 140 140 140
0.09 0.00947894365 0.00541512302 140 140 140
0.09 -0.0173168907 -0.00226871372 140 140 140
-0.0109677221 -0.03 0.00896088314 140 140 140
0.0217636017 -0.03 0.00469786303 140 140 140
0.0466198204 -0.03 -0.00301283708 140 140 140
-0.0311673964 -0.03 0.00382633046 140 140 140
-0.0573501981 -0.03 0.0123041972 140 140 140
-0.0871465249 -0.03 -0.0041421884 140 140 140
-0.0169950564 -0.03 -0.00154237404 140 140 140
0.0689540403 -0.03 -0.00188455763 140 140 140
-0.0445854442 -0.03 0.00360501295 140 140 140
-0.0517993074 -0.03 -0.00936421678 140 140 140
0.0736329533 -0.03 0.00800769486 140 140 140
0.0711651767 -0.03 -0.0116856913 140 140 140
-0.0575395044 -0.03 -0.0121146706 140 140 140
0.0115437708 -0.03 0.00666651706 140 140 140
-0.00371237464 -0.03 -0.00516479358 140 140 140
-0.00781586933 -0.03 0.00773799118 140 140 140
0.0733498062 -0.03 -0.000109443189 140 140 140
0.0618811829 -0.03 0.00414893517 140 140 140
0.0481294651 -0.03 0.00891429227 140 140 140
-0.0899657997 -0.03 -0.00497440048 140 140 140
0.0231530263 -0.03 -0.00725550325 140 140 140
0.0227088696 -0.03 -0.00781798279 140 140 140
0.0695114874 -0.03 0.00123921013 140 140 140
0.037097285 -0.03 0.00753608411 140 140 140
0.0600941243 -0.03 -0.00642127902 140 140 140
-0.0855920772 -0.03 -0.00221855764 140 140 140
0.0709669521 -0.03 0.00084380235 140 140 140
-0.0220600529 -0.03 0.00523424239 140 140 140
0.0328109208 -0.03 0.00193296463 140 140 140
0.00288782637 -0.03 0.00972451645 140 140 140
-0.023984796 -0.03 0.000122239094 140 140 140
-0.0746389889 -0.03 -0.00522009006 140 140 140
0.00501930804 -0.03 -0.00801361182 140 140 140
-0.00445956763 -0.03 0.00674550779 140 140 140
0.0793758533 -0.03 0.0105404505 140 140 140
-0.0294193868 -0.03 0.00659313646 140 140 140
0.00923021654 -0.03 -0.00284489261 140 140 140
-0.0376469787 -0.03 0.00361556152 140 140 140
0.0736268106 -0.03 -0.00177649854 140 140 140
0.0121270186 -0.03 -0.00108750932 140 140 140
0.0178752703 -0.03 -0.00400472113 140 140 140
-0.0899600941 -0.03 0.00270001663 140 140 140
-0.0732617172 -0.03 0.00759979553 140 140 140
0.0612506808 -0.03 0.00785559326 140 140 140
-0.0401147545 -0.03 0.00113641559 140 140 140
-0.0107821658 -0.03 -0.012165233 140 140 140
-0.0607601803 -0.03 0.00451406524 140 140 140
0.0371223564 -0.03 0.00669042766 140 140 140
-0.075680719 -0.03 0.00888377901 140 140 140
-0.0257692045 -0.03 8.75701433e-05 140 140 140
0.0227992628 -0.03 0.00674475566 140 140 140
-0.0677875809 -0.03 -0.00244644752 140 140 140
-0.00139290551 -0.03 -0.00322493123 140 140 140
-0.0817132552 -0.03 0.000566922485 140 140 140
0.0435860354 -0.03 0.00799217257 140 140 140
0.0116309122 -0.03 0.00354766412 140 140 140
-0.0589066795 -0.03 0.00452654001 140 140 140
0.0791655549 -0.03 -0.00687092256 140 140 140
0.0102847582 -0.03 0.00529720744 140 140 140
-0.0283865929 -0.03 0.0108817265 140 140 140
0.0332658078 -0.03 0.0102689583 140 140 140
0.0589723547 -0.03 -0.00982896558 140 140 140
-0.0376508099 -0.03 -0.0056298126 140 140 140
-0.0767329316 -0.03 0.00748174891 140 140 140
0.0255182055 -0.03 0.00149433297 140 140 140
-0.0861264087 -0.03 0.00892002937 140 140 140
-0.0759504177 -0.03 -0.00837840706 140 140 140
-0.0215985786 -0.03 0.008194073 140 140 140
-0.000676204139 -0.03 0.00254486789 140 140 140
0.0630050768 -0.03 -0.00581207569 140 140 140
-0.0810910426 -0.03 -0.0108447038 140 140 140
-0.0825194723 -0.03 -0.00790412781 140 140 140
-0.07663361 -0.03 -0.00878165269 140 140 140
-0.0729304577 -0.03 0.0041741741 140 140 140
0.0406357275 -0.03 -0.0107402571 140 140 140
0.0615379033 -0.03 -0.00268830439 140 140 140
-0.0656443361 -0.03 0.000556148323 140 140 140
0.0123738461 -0.03 0.00282811695 140 140 140
0.0679758234 -0.03 -0.00302130803 140 140 140
-0.0438169135 -0.03 0.00152017633 140 140 140
0.0531670214 -0.03 -0.0114809418 140 140 140
-0.0561321893 -0.03 -0.00416641465 140 140 140
0.0331877985 -0.03 0.00405318975 140 140 140
-0.00817287643 -0.03 -0.00509360112 140 140 140
0.00197288621 -0.03 -0.0064084653 140 140 140
0.0585542805 -0.03 0.00863640313 140 140 140
-0.0422113265 -0.03 -0.00970356634 140 140 140
0.0484528483 -0.03 -0.00659198341 140 140 140
0.0666995948 -0.03 0.0108119873 140 140 140
0.0772950601 -0.03 -0.00259736377 140 140 140
0.0644883306 -0.03 -0.00934569512 140 140 140
0.0633525064 -0.03 -0.00911086399 140 140 140
0.0659747731 -0.03 0.00608976896 140 140 140
-0.0417283163 -0.03 0.00870782037 140 140 140
0.0180384837 -0.03 -0.00335324784 140 140 140
0.0646264473 -0.03 -0.00407867761 140 140 140
-0.0286283043 -0.03 -0.00114252431 140 140 140
0.0807036305 -0.03 0.00641200823 140 140 140
-0.0385730113 -0.03 -0.0120600506 140 140 140
-0.0666322233 -0.03 0.00925229912 140 140 140
-0.0319502923 -0.03 -0.009823887 140 140 140
0.0120020915 -0.03 -0.00895994155 140 140 140
0.0541750311 -0.03 -0.0109686572 140 140 140
0.0183284784 -0.03 -0.0111795819 140 140 140
0.059499417 -0.03 0.0091368769 140 140 140
0.0439256642 -0.03 -0.0103797176 140 140 140
-0.0591556946 -0.03 -0.00355629651 140 140 140
0.0597567678 -0.03 0.00136874251 140 140 140
-0.020258596 -0.03 0.00472349478 140 140 140
0.0334390201 -0.03 -0.00253484678 140 140 140
-0.0685645486 -0.03 -0.00386193786 140 140 140
0.0345172709 -0.03 0.00504404339 140 140 140
0.0732034316 -0.03 0.00259293675 140 140 140
-0.0724819154 -0.03 0.0115061938 140 140 140
-0.083852356 -0.03 0.00831902588 140 140 140
0.0336395569 -0.03 0.00641272987 140 140 140
0.0169542134 -0.03 -0.012253316 140 140 140
0.0510866468 -0.03 -0.00983367001 140 140 140
0.00843026348 -0.03 0.00264644887 140 140 140
-0.0869990172 -0.03 0.000995773245 140 140 140
0.0197833349 -0.03 0.00340944689 140 140 140
0.0614198067 -0.03 0.000533269466 140 140 140
0.0731014695 -0.03 -0.0073319418 140 140 140
0.0839686815 -0.03 0.00810506102 140 140 140
-0.00854685437 -0.03 0.0105230669 140 140 140
0.0724902001 -0.03 -0.00442569173 140 140 140
0.0742733396 -0.03 -0.00599512558 140 140 140
0.0263435803 -0.03 -0.0112415929 140 140 140
-0.041604449 -0.03 0.00868116311 140 140 140
-0.0896548756 -0.03 -0.00413173604 140 140 140
0.0209832397 -0.03 -0.0109600364 140 140 140
0.0081456218 -0.03 0.00505618715 140 140 140
0.0572072993 -0.03 0.00899736428 140 140 140
-0.0580655753 0.03 -0.00921793472 140 140 140
-0.0346469927 0.03 0.00488167288 140 140 140
-0.0329669785 0.03 0.00378300533 140 140 140
0.051432358 0.03 -0.011091264 140 140 140
-0.0473306262 0.03 0.00944193144 140 140 140
0.0283580764 0.03 -0.0117056894 140 140 140
-0.000353372545 0.03 -0.00381458933 140 140 140
0.0826898482 0.03 -0.0102908071 140 140 140
-0.0350839511 0.03 -0.00575978538 140 140 140
0.0370477549 0.03 -0.0015451481 140 140 140
0.0602458727 0.03 0.00307984484 140 140 140
0.00720413503 0.03 -0.00381935577 140 140 140
0.0113649394 0.03 0.00709129117 140 140 140
-0.0034367407 0.03 -0.00575093825 140 140 140
-0.0823636761 0.03 -0.00189424433 140 140 140
0.0285376945 0.03 -0.00208039655 140 140 140
-0.0266353245 0.03 0.0120741768 140 140 140
-0.0764644881 0.03 -0.00711742705 140 140 140
-0.0654864756 0.03 -0.00870925839 140 140 140
-0.0288089879 0.03 0.0107892272 140 140 140
-0.032212729 0.03 0.011548371 140 140 140
0.0409413637 0.03 -0.000196363132 140 140 140
0.050877349 0.03 0.00818929246 140 140 140
0.00802336369 0.03 -0.0034200944 140 140 140
-0.0555468683 0.03 -0.0124279415 140 140 140
0.0510985694 0.03 0.00292002302 140 140 140
0.0170304931 0.03 0.00230505729 140 140 140
0.0464124714 0.03 0.00431901377 140 140 140
0.0375609083 0.03 0.0106654127 140 140 140
-0.0310425392 0.03 -0.00992042779 140 140 140
0.0893529031 0.03 -0.000955359163 140 140 140
0.0119015543 0.03 -0.00649800885 140 140 140
0.0854440302 0.03 -0.00895747765 140 140 140
0.013153907 0.03 0.00882182901 140 140 140
0.0650210909 0.03 -0.00380855661 140 140 140
0.0146846077 0.03 -0.00902885396 140 140 140
-0.0753442968 0.03 -0.00474149159 140 140 140
-0.0893277486 0.03 -0.00317555559 140 140 140
0.068964218 0.03 0.00406677659 140 140 140
0.0122541085 0.03 -0.000809698589 140 140 140
-0.0238212071 0.03 -0.0102969366 140 140 140
-0.0806181614 0.03 -0.0104170179 140 140 140
-0.0628863759 0.03 -0.00316752799 140 140 140
-0.0471287068 0.03 -0.0116771971 140 140 140
0.0882096508 0.03 -0.01147931 140 140 140
0.0226817622 0.03 -0.00277871202 140 140 140
0.0419997301 0.03 -0.00259111869 140 140 140
-0.0224413512 0.03 -0.00663809751 140 140 140
-0.058684696 0.03 0.00442547569 140 140 140
-0.0873413991 0.03 0.00770270303 140 140 140
-0.0302138475 0.03 -0.0111126579 140 140 140
0.00913923181 0.03 -0.00731853909 140 140 140
-0.00937857626 0.03 -0.00936729026 140 140 140
-0.00737339438 0.03 0.00514468539 140 140 140
-0.023565664 0.03 0.00747506981 140 140 140
-0.0426283087 0.03 0.0117251806 140 140 140
0.0671413227 0.03 -0.000570693463 140 140 140
-0.0836366241 0.03 0.00725394646 140 140 140
0.083723542 0.03 0.00782029146 140 140 140
-0.0293763381 0.03 0.0100140074 140 140 140
-0.0447087412 0.03 -0.0115537827 140 140 140
-0.0693511946 0.03 0.00547377041 140 140 140
0.0767689078 0.03 0.0117628335 140 140 140
-0.0105554449 0.03 0.00223625231 140 140 140
0.0345508159 0.03 0.00230058564 140 140 140
0.0730742309 0.03 0.00678396088 140 140 140
0.0896521422 0.03 0.00518110092 140 140 140
0.0725687746 0.03 0.00931896476 140 140 140
-0.0398255118 0.03 0.000202417404 140 140 140
0.0845411063 0.03 0.00401240252 140 140 140
0.0467602455 0.03 0.00925859491 140 140 140
0.000941224109 0.03 0.00974227893 140 140 140
0.0805390149 0.03 0.00836622667 140 140 140
0.0653074827 0.03 0.00373867603 140 140 140
-0.0236642287 0.03 -0.00855294761 140 140 140
0.0893135116 0.03 -0.00401108226 140 140 140
0.0753974489 0.03 -0.0041718864 140 140 140
0.077289211 0.03 -0.00450097441 140 140 140
-0.0846495547 0.03 -0.00979996058 140 140 140
-0.0812389956 0.03 0.0117088802 140 140 140
-0.0784482677 0.03 -0.0067834877 140 140 140
0.0650219488 0.03 -0.00764626872 140 140 140
0.0855261488 0.03 -0.00920702204 140 140 140
-0.0891505157 0.03 -0.00163933896 140 140 140
0.00590461136 0.03 -0.00865062155 140 140 140
-0.0326947116 0.03 0.0124125966 140 140 140
-0.013706944 0.03 -0.00536841965 140 140 140
-0.0644007821 0.03 -0.0121202414 140 140 140
0.0338901482 0.03 -0.0102099766 140 140 140
-0.0602568017 0.03 0.00340972408 140 140 140
0.080603966 0.03 -0.00179844093 140 140 140
-0.0384475455 0.03 -0.00781209213 140 140 140
-0.0216358404 0.03 0.0103346035 140 140 140
0.0563093309 0.03 0.00910198736 140 140 140
0.0524386198 0.03 0.00134441481 140 140 140
-0.0102216172 0.03 -0.00449295191 140 140 140
0.0743552145 0.03 -0.0100454527 140 140 140
0.00925936312 0.03 0.00778096575 140 140 140
0.0146854372 0.03 0.011748211 140 140 140
-0.0366723199 0.03 0.00469313617 140 140 140
0.0761898147 0.03 -0.00280737598 140 140 140
-0.0813568638 0.03 -0.0122028665 140 140 140
-0.080567476 0.03 0.00182826206 140 140 140
0.0517396521 0.03 -0.00451758772 140 140 140
-0.0217476891 0.03 0.00365840198 140 140 140
-0.0171448203 0.03 0.0046782802 140 140 140
0.0310043644 0.03 0.00104569719 140 140 140
-0.00585026417 0.03 0.00179567538 140 140 140
-0.0168844271 0.03 -0.00769351633 140 140 140
0.0869921253 0.03 -0.0124255966 140 140 140
-0.0759968721 0.03 -0.00704958459 140 140 140
0.0294575433 0.03 -0.00257893371 140 140 140
-0.0313404849 0.03 0.00687786059 140 140 140
-0.0353135111 0.03 -0.00778197978 140 140 140
0.0710884996 0.03 -0.00510138684 140 140 140
0.0870665295 0.03 0.00845736226 140 140 140
-0.0605369889 0.03 0.0114549995 140 140 140
-0.0685926188 0.03 0.000204499109 140 140 140
0.0274018525 0.03 -0.00628133081 140 140 140
0.0734076556 0.03 0.0120305792 140 140 140
-0.063125285 0.03 0.00579078088 140 140 140
0.0455510151 0.03 -0.0119613126 140 140 140
-0.0499211416 0.03 0.00980793227 140 140 140
-0.00740975042 0.03 0.0101558907 140 140 140
-0.0192328151 0.03 0.00451036078 140 140 140
0.0188747883 0.03 -0.00144721257 140 140 140
-0.0316824094 0.03 -0.000371392226 140 140 140
-0.0166211113 0.03 -0.0106568485 140 140 140
0.0851884722 0.03 -0.00410082458 140 140 140
0.0612554066 0.03 0.00839616715 140 140 140
-0.06034201 0.03 -0.00661846096 140 140 140
0.064840942 0.03 -0.00429897883 140 140 140
0.0780363762 0.03 -0.00279798677 140 140 140
0.0179743018 0.0290899682 -0.0125 140 140 140
-0.0544066972 0.00591781017 -0.0125 140 140 140
0.00581892282 -0.00195747013 -0.0125 140 140 140
-0.00827203897 0.00798861387 -0.0125 140 140 140
0.0473059766 0.0276617586 -0.0125 140 140 140
0.0570080501 -0.00158474004 -0.0125 140 140 140
-0.00195136138 -0.0231874531 -0.0125 140 140 140
-0.0273247242 0.0201978275 -0.0125 140 140 140
-0.0700157366 -0.027986682 -0.0125 140 140 140
-0.0452863536 0.00832309315 -0.0125 140 140 140
-0.0101531249 -0.0215165725 -0.0125 140 140 140
0.0123531709 0.00182827577 -0.0125 140 140 140
0.064807295 0.0128327162 -0.0125 140 140 140
-0.0701545228 -0.0195981476 -0.0125 140 140 140
-0.0459303087 -0.0162809359 -0.0125 140 140 140
-0.0685063565 -0.0172193907 -0.0125 140 140 140
-0.0688143536 -0.0166335962 -0.0125 140 140 140
0.0505914048 -0.00310388574 -0.0125 140 140 140
-0.0311529169 0.00562228539 -0.0125 140 140 140
-0.00733878308 -0.015281783 -0.0125 140 140 140
-0.0568435804 0.0231600535 -0.0125 140 140 140
0.0483408713 0.0231558887 -0.0125 140 140 140
-0.0806778208 0.0244988516 -0.0125 140 140 140
-0.0820898225 0.0165563009 -0.0125 140 140 140
0.0813613312 0.0290768986 -0.0125 140 140 140
0.073410857 -0.00857741068 -0.0125 140 140 140
0.0414309642 0.00353128251 -0.0125 140 140 140
-0.0272287833 -0.0294818275 -0.0125 140 140 140
-0.00581587601 -0.00828290043 -0.0125 140 140 140
-0.084694421 0.0269349079 -0.0125 140 140 140
-0.0748577764 0.00636348892 -0.0125 140 140 140
-0.0322419148 0.0249273276 -0.0125 140 140 140
-0.0590394234 0.0206180369 -0.0125 140 140 140
0.0107609327 0.0160673718 -0.0125 140 140 140
0.070282321 -0.016565875 -0.0125 140 140 140
-0.0594169191 -0.01572426 -0.0125 140 140 140
0.018359719 -0.0071215267 -0.0125 140 140 140
-0.00930193046 -0.0138167176 -0.0125 140 140 140
0.014122887 0.0231407407 -0.0125 140 140 140
-0.0735435842 -0.00055825594 -0.0125 140 140 140
0.0056455445 -0.0215168733 -0.0125 140 140 140
0.0500413309 0.0140722104 -0.0125 140 140 140
0.0631596749 -0.00418087499 -0.0125 140 140 140
0.0712100876 -0.0248546345 -0.0125 140 140 140
-0.0578868874 -0.00994106706 -0.0125 140 140 140
-0.0675150794 -0.00762658469 -0.0125 140 140 140
-0.0304941821 0.0206987217 -0.0125 140 140 140
0.0161690671 -0.00884245142 -0.0125 140 140 140
-0.0398830387 0.0189696882 -0.0125 140 140 140
-0.0278445644 0.023313854 -0.0125 140 140 140
0.0133270135 -0.0233759989 -0.0125 140 140 140
0.0524709672 -0.0072462042 -0.0125 140 140 140
-0.0217471901 0.0292219843 -0.0125 140 140 140
-0.0398241312 0.00283168529 -0.0125 140 140 140
-0.0453261265 -0.0122860035 -0.0125 140 140 140
-0.0246837335 0.0263684728 -0.0125 140 140 140
0.0161731868 0.0268046632 -0.0125 140 140 140
0.033515859 -0.0198869971 -0.0125 140 140 140
-0.0309337035 -0.00131368432 -0.0125 140 140 140
-0.0635622221 0.0188621101 -0.0125 140 140 140
-0.0891131961 0.0157051742 -0.0125 140 140 140
0.0806375612 0.0258267472 -0.0125 140 140 140
-0.0699946842 -0.00482875978 -0.0125 140 140 140
3.98281174e-06 -0.0150436147 -0.0125 140 140 140
-0.0784751795 0.0151445237 -0.0125 140 140 140
0.0325481859 -0.0133963019 -0.0125 140 140 140
-0.0471157526 -0.0227637938 -0.0125 140 140 140
-0.0489437546 -0.0195260959 -0.0125 140 140 140
-0.0787559258 0.00351081927 -0.0125 140 140 140
-0.0128891245 -0.00508265984 -0.0125 140 140 140
-0.0752274059 0.00522266069 -0.0125 140 140 140
0.0417097971 -0.00788657003 -0.0125 140 140 140
0.0811877332 -0.0286577161 -0.0125 140 140 140
-0.0867840566 -0.00707984439 -0.0125 140 140 140
-0.0755384409 0.0169913874 -0.0125 140 140 140
-0.0760794577 0.0286301738 -0.0125 140 140 140
-0.00142588224 -0.0281694242 -0.0125 140 140 140
-0.001516358 0.0213784469 -0.0125 140 140 140
-0.0265900398 -0.0189419338 -0.0125 140 140 140
-0.0308677487 -0.0262304287 -0.0125 140 140 140
0.0271345237 -0.0179069689 -0.0125 140 140 140
-0.0887241758 0.0247605384 -0.0125 140 140 140
-0.0729684287 0.0110741173 -0.0125 140 140 140
0.0579405353 -0.0192754457 -0.0125 140 140 140
0.0817204874 -0.0175041905 -0.0125 140 140 140
-0.0598995592 -0.0105008586 -0.0125 140 140 140
0.0193871674 0.00174778324 -0.0125 140 140 140
0.055409639 0.0146069137 -0.0125 140 140 140
-0.0354828788 -0.0025497352 -0.0125 140 140 140
-0.0565588909 -0.0181991747 -0.0125 140 140 140
-0.0294829111 0.0264660077 -0.0125 140 140 140
0.0665682987 -0.024082869 -0.0125 140 140 140
0.0600715728 -0.00376047869 -0.0125 140 140 140
-0.0409112915 -0.00400710108 -0.0125 140 140 140
0.0884935806 0.00297904434 -0.0125 140 140 140
0.0632839182 -0.00419522345 -0.0125 140 140 140
-0.0616947363 -0.00626468868 -0.0125 140 140 140
-0.000494532614 0.0191853657 -0.0125 140 140 140
-0.0355500389 -0.0139346925 -0.0125 140 140 140
-0.00497983378 -0.0141423141 -0.0125 140 140 140
-0.0541374951 0.00468934524 -0.0125 140 140 140
-0.0302707057 -0.0144853348 -0.0125 140 140 140
-0.0575292159 -0.0147311564 -0.0125 140 140 140
-0.0501793705 0.0197038691 -0.0125 140 140 140
0.0853730134 0.0152154087 -0.0125 140 140 140
0.0792076956 0.0205256773 -0.0125 140 140 140
-0.0119539902 -0.028142743 -0.0125 140 140 140
0.0386795008 -0.023368392 -0.0125 140 140 140
-0.0860971547 0.0294584076 -0.0125 140 140 140
-0.00704426147 0.00272828714 -0.0125 140 140 140
-0.0503104373 -0.0269658483 -0.0125 140 140 140
0.0850156868 -0.0224665514 -0.0125 140 140 140
0.0396971005 0.0150135205 -0.0125 140 140 140
-0.0796365162 0.0114253874 -0.0125 140 140 140
0.0285764844 -0.0159568612 -0.0125 140 140 140
-0.0680984743 0.0130727128 -0.0125 140 140 140
-0.00957708011 -0.0294801304 -0.0125 140 140 140
0.0327559835 0.0115448006 -0.0125 140 140 140
-0.0490155799 0.00978789523 -0.0125 140 140 140
0.0229825035 0.00433907448 -0.0125 140 140 140
-0.0505501125 0.0134749622 -0.0125 140 140 140
-0.0616761615 0.00796584714 -0.0125 140 140 140
-0.0716455623 -0.0142627016 -0.0125 140 140 140
0.0744896632 -0.0294968091 -0.0125 140 140 140
-0.0617722187 -0.00198030738 -0.0125 140 140 140
0.0373277477 -0.00838957472 -0.0125 140 140 140
0.0369021841 0.00251495238 -0.0125 140 140 140
-0.0819260485 -0.0196115626 -0.0125 140 140 140
-0.00602339458 0.00416676122 -0.0125 140 140 140
0.00772481915 0.00396698046 -0.0125 140 140 140
-0.0398136872 0.00108777245 -0.0125 140 140 140
0.0448688466 0.0271761434 -0.0125 140 140 140
0.0508188854 -0.0165700265 -0.0125 140 140 140
-0.0839631284 0.0281451478 0.0125 140 140 140
-0.0753153422 -0.0107066619 0.0125 140 140 140
-0.0791925736 0.0250743663 0.0125 140 140 140
-0.0759803218 0.00747874843 0.0125 140 140 140
-0.0240451732 -0.00920274608 0.0125 140 140 140
-0.0339755061 -0.0259480959 0.0125 140 140 140
-0.0285177455 -0.0200314621 0.0125 140 140 140
0.070782685 0.0184292643 0.0125 140 140 140
0.0744372131 -0.00547151626 0.0125 140 140 140
-0.0749454055 0.0290273954 0.0125 140 140 140
0.0441764654 0.0128647787 0.0125 140 140 140
-0.0459604702 0.0148757791 0.0125 140 140 140
-0.0815311006 -0.0241482542 0.0125 140 140 140
0.0625408104 -0.00446503405 0.0125 140 140 140
0.00628227351 -0.010186862 0.0125 140 140 140
-0.054323632 -0.00892219983 0.0125 140 140 140
0.0133387567 -0.00738970316 0.0125 140 140 140
-0.0510983113 -0.00129523638 0.0125 140 140 140
0.0688201677 -0.0265057071 0.0125 140 140 140
0.0649773885 0.0252485493 0.0125 140 140 140
-0.0174413815 -0.0278609292 0.0125 140 140 140
0.0269825804 -0.00970668231 0.0125 140 140 140
-0.00528792829 -0.0202608814 0.0125 140 140 140
-0.00774070891 0.0296884354 0.0125 140 140 140
0.0243382643 -0.0180350818 0.0125 140 140 140
0.0445388049 -0.000170394845 0.0125 140 140 140
0.0700439855 0.0223277754 0.0125 140 140 140
-0.0729606607 -0.00942801759 0.0125 140 140 140
0.0440770049 0.00831359456 0.0125 140 140 140
-0.0870525894 0.0279655351 0.0125 140 140 140
0.00494091344 -0.00410133753 0.0125 140 140 140
0.0701994765 -0.00941636997 0.0125 140 140 140
-0.0664987318 -0.0268536621 0.0125 140 140 140
-0.0668035428 -0.0218847877 0.0125 140 140 140
-0.0513176958 0.0168523981 0.0125 140 140 140
-0.0843872411 -0.00724323894 0.0125 140 140 140
-0.065796495 -0.0296826634 0.0125 140 140 140
-0.00920037685 -0.0037219914 0.0125 140 140 140
0.0378507108 0.0210995461 0.0125 140 140 140
0.0766635333 0.0130013828 0.0125 140 140 140
0.0792787767 -0.00642660874 0.0125 140 140 140
-0.0584145527 0.00127427773 0.0125 140 140 140
0.0278644757 -0.011648348 0.0125 140 140 140
-0.070399328 0.00384042688 0.0125 140 140 140
-0.0368204772 0.0216216743 0.0125 140 140 140
-0.0739778994 0.0137167285 0.0125 140 140 140
-0.075116583 -0.000926579071 0.0125 140 140 140
0.015081779 -0.00393732652 0.0125 140 140 140
0.0366911612 0.0293677347 0.0125 140 140 140
-0.010688867 0.0127227867 0.0125 140 140 140
-0.0858585265 -0.0278363735 0.0125 140 140 140
0.00828154002 -0.0268934004 0.0125 140 140 140
-0.0726250188 -0.0236313718 0.0125 140 140 140
0.02946646 0.0192072318 0.0125 140 140 140
-0.0203797507 0.0288109137 0.0125 140 140 140
0.030728458 -0.0161022628 0.0125 140 140 140
-0.00551880437 -0.0281824106 0.0125 140 140 140
-0.0367375064 -0.0241550249 0.0125 140 140 140
-0.0070644125 0.00864095726 0.0125 140 140 140
-0.0814505659 -0.00512490624 0.0125 140 140 140
0.0725608051 0.0267599212 0.0125 140 140 140
0.0137424479 0.0260411312 0.0125 140 140 140
0.0857138623 -0.00271264317 0.0125 140 140 140
-0.0597904046 0.0261506044 0.0125 140 140 140
0.0275272533 -0.0196162523 0.0125 140 140 140
0.0154241028 -0.00588303266 0.0125 140 140 140
0.00914167148 -0.0246568028 0.0125 140 140 140
-0.0339646625 -0.0197057475 0.0125 140 140 140
0.0554352449 -0.0125817295 0.0125 140 140 140
0.0842366516 -0.00348230576 0.0125 140 140 140
0.00907593759 0.0124248223 0.0125 140 140 140
-0.0840246919 0.0263798648 0.0125 140 140 140
0.036759774 0.00591971295 0.0125 140 140 140
0.0890534209 0.0172270631 0.0125 140 140 140
-0.0414547088 -0.0185117072 0.0125 140 140 140
0.0103746502 -0.0173339353 0.0125 140 140 140
0.0469887179 0.00639414792 0.0125 140 140 140
-0.0732888172 -0.0115094201 0.0125 140 140 140
0.00814789787 -0.00465578898 0.0125 140 140 140
-0.0204534097 -0.00552047161 0.0125 140 140 140
-0.0311160164 0.0155811103 0.0125 140 140 140
-0.087967403 -0.0053606229 0.0125 140 140 140
0.0171802048 0.0203627637 0.0125 140 140 140
-0.0678587137 3.0119333e-05 0.0125 140 140 140
-0.0108743556 -0.00785645375 0.0125 140 140 140
-0.0680961524 -0.0270066098 0.0125 140 140 140
-0.053903561 -0.00848152529 0.0125 140 140 140
-0.0644583771 0.0209874188 0.0125 140 140 140
-0.0554861985 0.0290930518 0.0125 140 140 140
-0.0499972976 0.0158049196 0.0125 140 140 140
0.0058065027 -0.00860611019 0.0125 140 140 140
0.0590305951 0.0123990828 0.0125 140 140 140
0.004983764 -0.0292359691 0.0125 140 140 140
-0.0499800777 -0.0115387147 0.0125 140 140 140
-0.054622709 0.0105834975 0.0125 140 140 140
0.0129967398 0.0162082945 0.0125 140 140 140
0.0890303024 0.00544975323 0.0125 140 140 140
-0.0367183172 0.0080107064 0.0125 140 140 140
-0.0165671039 0.0270310018 0.0125 140 140 140
0.0197322474 -0.0126190795 0.0125 140 140 140
-0.0463452059 -0.000385277233 0.0125 140 140 140
-0.00537121063 -0.00835578126 0.0125 140 140 140
0.056690917 -0.0218658391 0.0125 140 140 140
-0.00998270981 0.0299734349 0.0125 140 140 140
0.0197453248 -0.00318351249 0.0125 140 140 140
-0.0782150031 0.00704913579 0.0125 140 140 140
-0.0246314442 -0.00297300099 0.0125 140 140 140
-0.00788547895 0.00947873609 0.0125 140 140 140
-0.0824531564 0.00132620569 0.0125 140 140 140
-0.0498640306 -0.00370497449 0.0125 140 140 140
0.0436362004 -0.0179966364 0.0125 140 140 140
0.062569947 0.00472849347 0.0125 140 140 140
-0.0119763527 -0.0260673251 0.0125 140 140 140
-0.0624319894 0.0226984235 0.0125 140 140 140
-0.0330904811 -0.0251905064 0.0125 140 140 140
-0.0191936133 -0.0228885447 0.0125 140 140 140
-0.00543779944 -0.0218433518 0.0125 140 140 140
0.086528804 0.0124114594 0.0125 140 140 140
0.0857604515 -0.0189209208 0.0125 140 140 140
-0.0752414792 0.0106730798 0.0125 140 140 140
0.0613508622 0.0242765272 0.0125 140 140 140
-0.0196326017 -0.00858605934 0.0125 140 140 140
0.0646456625 0.0223635817 0.0125 140 140 140
-0.0866418792 -0.00392823602 0.0125 140 140 140
-0.0736307346 -0.00822350536 0.0125 140 140 140
-0.0393709654 0.0167817001 0.0125 140 140 140
-0.0141144215 -0.0192393661 0.0125 140 140 140
0.0780447834 0.00850579609 0.0125 140 140 140
-0.0234736926 0.0298103494 0.0125 140 140 140
0.0404857424 -0.0258962911 0.0125 140 140 140
0.0600533459 -0.00940433838 0.0125 140 140 140
-0.0762669286 -0.0120590899 0.0125 140 140 140
-0.0218577245 0.0162740891 0.0125 140 140 140
