ply
format ascii 1.0
comment VisionMCP reconstruction mesh
element vertex 8
property float x
property float y
property float z
element face 12
property list uchar int vertex_indices
end_header
-0.199951115 -0.199833071 -0.038479478
0.199973704 -0.199833071 -0.038479478
0.199973704 0.19987906 -0.038479478
-0.199951115 0.19987906 -0.038479478
-0.199951115 -0.199833071 0.0318295508
0.199973704 -0.199833071 0.0318295508
0.199973704 0.19987906 0.0318295508
-0.199951115 0.19987906 0.0318295508
3 0 1 2
3 0 2 3
3 4 6 5
3 4 7 6
3 0 4 5
3 0 5 1
3 1 5 6
3 1 6 2
3 2 6 7
3 2 7 3
3 3 7 4
3 3 4 0
