{
  "asset": {
    "version": "2.0",
    "generator": "VisionMCP RuntimeGltfCompiler/1"
  },
  "scene": 0,
  "scenes": [
    {
      "nodes": [
        0,
        1
      ]
    }
  ],
  "nodes": [
    {
      "name": "OwnedBox",
      "mesh": 0,
      "extras": {
        "visionmcpRuntimeId": "owned-box",
        "authority": "DERIVED_FROM_EXPLICIT_RUNTIME_HOOK"
      }
    },
    {
      "name": "runtime-camera",
      "camera": 0
    }
  ],
  "meshes": [
    {
      "name": "OwnedBox",
      "primitives": [
        {
          "attributes": {
            "POSITION": 0
          },
          "indices": 1,
          "material": 0,
          "mode": 4
        }
      ]
    }
  ],
  "materials": [
    {
      "name": "plastic",
      "pbrMetallicRoughness": {
        "baseColorFactor": [
          0.2,
          0.2,
          0.25,
          1.0
        ],
        "metallicFactor": 0.0,
        "roughnessFactor": 0.6
      },
      "doubleSided": true
    }
  ],
  "buffers": [
    {
      "byteLength": 168,
      "uri": "data:application/octet-stream;base64,"
    }
  ],
  "bufferViews": [
    {
      "buffer": 0,
      "byteOffset": 0,
      "byteLength": 96,
      "target": 34962
    },
    {
      "buffer": 0,
      "byteOffset": 96,
      "byteLength": 72,
      "target": 34963
    }
  ],
  "accessors": [
    {
      "bufferView": 0,
      "componentType": 5126,
      "count": 8,
      "type": "VEC3",
      "min": [
        -0.1,
        -0.05,
        -0.02
      ],
      "max": [
        0.1,
        0.05,
        0.02
      ]
    },
    {
      "bufferView": 1,
      "componentType": 5123,
      "count": 36,
      "type": "SCALAR",
      "min": [
        0
      ],
      "max": [
        7
      ]
    }
  ],
  "extras": {
    "sourceRevision": "fixture-1",
    "authority": "DERIVED_FROM_EXPLICIT_RUNTIME_HOOK"
  },
  "cameras": [
    {
      "name": "runtime-camera",
      "type": "perspective",
      "perspective": {
        "yfov": 0.8,
        "znear": 0.1,
        "zfar": 100.0,
        "aspectRatio": 1.0
      }
    }
  ]
}