# VisionMCP reconstruction mesh
v -0.2 -0.2 -0.0228356167
v -0.182608696 -0.2 -0.0122081634
v -0.165217391 -0.2 -0.0226573014
v -0.147826087 -0.2 0.0125369649
v -0.130434783 -0.2 -0.0029416531
v -0.113043478 -0.2 -0.0140990248
v -0.0956521739 -0.2 0.00397166199
v -0.0782608696 -0.2 0.00172004865
v -0.0608695652 -0.2 0.0107077014
v -0.0434782609 -0.2 -0.00646946557
v -0.0260869565 -0.2 -0.0012819365
v -0.00869565217 -0.2 0.00491664043
v 0.00869565217 -0.2 0.00109437019
v 0.0260869565 -0.2 0.00778453817
v 0.0434782609 -0.2 9.97287361e-05
v 0.0608695652 -0.2 0.0187786085
v 0.0782608696 -0.2 0.0036888877
v 0.0956521739 -0.2 0.00922261587
v 0.113043478 -0.2 -0.00472778436
v 0.130434783 -0.2 0.016446315
v 0.147826087 -0.2 0.00594721215
v 0.165217391 -0.2 0.00587158042
v 0.182608696 -0.2 -0.00999907862
v 0.2 -0.2 0.00722588
v -0.2 -0.182608696 -0.0273260483
v -0.182608696 -0.182608696 -0.00640884708
v -0.165217391 -0.182608696 -0.0212118209
v -0.147826087 -0.182608696 0.00216178205
v -0.130434783 -0.182608696 -0.0186735941
v -0.113043478 -0.182608696 -0.00455964983
v -0.0956521739 -0.182608696 -0.00497735955
v -0.0782608696 -0.182608696 0.003663264
v -0.0608695652 -0.182608696 -0.015234362
v -0.0434782609 -0.182608696 0.00188698296
v -0.0260869565 -0.182608696 -0.0174375248
v -0.00869565217 -0.182608696 -0.00828673144
v 0.00869565217 -0.182608696 0.00707919841
v 0.0260869565 -0.182608696 -0.00492787662
v 0.0434782609 -0.182608696 -0.00542340009
v 0.0608695652 -0.182608696 -0.00446819979
v 0.0782608696 -0.182608696 0.00369126914
v 0.0956521739 -0.182608696 -0.00337339922
v 0.113043478 -0.182608696 0.0103089716
v 0.130434783 -0.182608696 0.0077501222
v 0.147826087 -0.182608696 0.0059198479
v 0.165217391 -0.182608696 0.0178673527
v 0.182608696 -0.182608696 0.013198538
v 0.2 -0.182608696 0.00252278647
v -0.2 -0.165217391 -0.0160813123
v -0.182608696 -0.165217391 -0.0153848952
v -0.165217391 -0.165217391 -0.0133131329
v -0.147826087 -0.165217391 -0.0168613936
v -0.130434783 -0.165217391 -0.0105084879
v -0.113043478 -0.165217391 -0.00905795811
v -0.0956521739 -0.165217391 -0.00540735076
v -0.0782608696 -0.165217391 -0.0341091305
v -0.0608695652 -0.165217391 -0.0128386426
v -0.0434782609 -0.165217391 0.00958592489
v -0.0260869565 -0.165217391 0.0110342688
v -0.00869565217 -0.165217391 -0.0197324036
v 0.00869565217 -0.165217391 0.00479177609
v 0.0260869565 -0.165217391 -0.0013112552
v 0.0434782609 -0.165217391 0.00746953018
v 0.0608695652 -0.165217391 0.00543664643
v 0.0782608696 -0.165217391 0.0140241191
v 0.0956521739 -0.165217391 0.0107895755
v 0.113043478 -0.165217391 0.00229062951
v 0.130434783 -0.165217391 0.0187990882
v 0.147826087 -0.165217391 0.00390443748
v 0.165217391 -0.165217391 0.0122253509
v 0.182608696 -0.165217391 0.0149203151
v 0.2 -0.165217391 -0.00829548967
v -0.2 -0.147826087 -0.0169815439
v -0.182608696 -0.147826087 -0.0151365645
v -0.165217391 -0.147826087 -0.0225297352
v -0.147826087 -0.147826087 -0.00526136537
v -0.130434783 -0.147826087 -0.0139469165
v -0.113043478 -0.147826087 0.00427696147
v -0.0956521739 -0.147826087 -0.0243281456
v -0.0782608696 -0.147826087 -0.00732933474
v -0.0608695652 -0.147826087 0.00885654933
v -0.0434782609 -0.147826087 0.00333458861
v -0.0260869565 -0.147826087 0.00222949066
v -0.00869565217 -0.147826087 -0.00286018719
v 0.00869565217 -0.147826087 0.00679051863
v 0.0260869565 -0.147826087 0.00516584633
v 0.0434782609 -0.147826087 0.0182691749
v 0.0608695652 -0.147826087 -0.00184955569
v 0.0782608696 -0.147826087 0.0179743234
v 0.0956521739 -0.147826087 0.00731794122
v 0.113043478 -0.147826087 0.00466296002
v 0.130434783 -0.147826087 0.0086976413
v 0.147826087 -0.147826087 0.0170158137
v 0.165217391 -0.147826087 0.0132236854
v 0.182608696 -0.147826087 0.031687933
v 0.2 -0.147826087 0.00135163966
v -0.2 -0.130434783 -0.0245072325
v -0.182608696 -0.130434783 0.00132900404
v -0.165217391 -0.130434783 -0.0243478726
v -0.147826087 -0.130434783 -0.0297141897
v -0.130434783 -0.130434783 -0.00397180687
v -0.113043478 -0.130434783 -0.00715244865
v -0.0956521739 -0.130434783 -0.00920941381
v -0.0782608696 -0.130434783 -0.0158963376
v -0.0608695652 -0.130434783 0.00209942601
v -0.0434782609 -0.130434783 0.00190311978
v -0.0260869565 -0.130434783 0.00390831916
v -0.00869565217 -0.130434783 -0.00363519839
v 0.00869565217 -0.130434783 -0.0158859747
v 0.0260869565 -0.130434783 -0.00818424271
v 0.0434782609 -0.130434783 -0.00260598314
v 0.0608695652 -0.130434783 -0.000822126889
v 0.0782608696 -0.130434783 0.00677752081
v 0.0956521739 -0.130434783 0.00718767988
v 0.113043478 -0.130434783 0.0198144411
v 0.130434783 -0.130434783 0.0122844687
v 0.147826087 -0.130434783 0.013158416
v 0.165217391 -0.130434783 0.00809880541
v 0.182608696 -0.130434783 0.0173559127
v 0.2 -0.130434783 0.00726033568
v -0.2 -0.113043478 -0.0212516027
v -0.182608696 -0.113043478 -0.0132340907
v -0.165217391 -0.113043478 -0.0327759101
v -0.147826087 -0.113043478 -0.0340948308
v -0.130434783 -0.113043478 0.00273468385
v -0.113043478 -0.113043478 -0.011025838
v -0.0956521739 -0.113043478 -0.0184181987
v -0.0782608696 -0.113043478 0.00292540358
v -0.0608695652 -0.113043478 -0.0134853528
v -0.0434782609 -0.113043478 -0.00356177984
v -0.0260869565 -0.113043478 -0.00701047413
v -0.00869565217 -0.113043478 0.0015184619
v 0.00869565217 -0.113043478 0.00875945903
v 0.0260869565 -0.113043478 -0.00878023388
v 0.0434782609 -0.113043478 0.00372746634
v 0.0608695652 -0.113043478 0.0076103472
v 0.0782608696 -0.113043478 0.00375299712
v 0.0956521739 -0.113043478 0.00908462549
v 0.113043478 -0.113043478 0.0087470323
v 0.130434783 -0.113043478 0.0269626027
v 0.147826087 -0.113043478 0.0125033834
v 0.165217391 -0.113043478 0.0154615221
v 0.182608696 -0.113043478 0.00591401534
v 0.2 -0.113043478 0.00935812774
v -0.2 -0.0956521739 -0.0295094305
v -0.182608696 -0.0956521739 -0.0303411308
v -0.165217391 -0.0956521739 -0.0280373112
v -0.147826087 -0.0956521739 -0.0145590909
v -0.130434783 -0.0956521739 -0.00443433607
v -0.113043478 -0.0956521739 -0.0231302529
v -0.0956521739 -0.0956521739 -0.000235412195
v -0.0782608696 -0.0956521739 0.000922836199
v -0.0608695652 -0.0956521739 0.0104695248
v -0.0434782609 -0.0956521739 -0.00305830438
v -0.0260869565 -0.0956521739 -0.0120258257
v -0.00869565217 -0.0956521739 -0.016400202
v 0.00869565217 -0.0956521739 0.0107371769
v 0.0260869565 -0.0956521739 0.000606422222
v 0.0434782609 -0.0956521739 -0.00105467463
v 0.0608695652 -0.0956521739 0.0264537675
v 0.0782608696 -0.0956521739 0.017845
v 0.0956521739 -0.0956521739 0.0158834304
v 0.113043478 -0.0956521739 0.00824358951
v 0.130434783 -0.0956521739 0.0238818809
v 0.147826087 -0.0956521739 0.00269413027
v 0.165217391 -0.0956521739 0.01401693
v 0.182608696 -0.0956521739 0.0161021346
v 0.2 -0.0956521739 0.0296237525
v -0.2 -0.0782608696 -0.0116394862
v -0.182608696 -0.0782608696 -0.0042890602
v -0.165217391 -0.0782608696 -0.0298708191
v -0.147826087 -0.0782608696 -0.0258844228
v -0.130434783 -0.0782608696 -0.0240047073
v -0.113043478 -0.0782608696 -0.0201936906
v -0.0956521739 -0.0782608696 -0.0227635362
v -0.0782608696 -0.0782608696 -0.0161979639
v -0.0608695652 -0.0782608696 -0.0209562262
v -0.0434782609 -0.0782608696 0.00585301977
v -0.0260869565 -0.0782608696 0.00402260976
v -0.00869565217 -0.0782608696 -0.00213388418
v 0.00869565217 -0.0782608696 0.00411880458
v 0.0260869565 -0.0782608696 0.0112770621
v 0.0434782609 -0.0782608696 0.00762252757
v 0.0608695652 -0.0782608696 0.00738927807
v 0.0782608696 -0.0782608696 -0.00274059452
v 0.0956521739 -0.0782608696 -0.00630699351
v 0.113043478 -0.0782608696 0.00937742865
v 0.130434783 -0.0782608696 0.00148808995
v 0.147826087 -0.0782608696 0.0213991233
v 0.165217391 -0.0782608696 0.00805787568
v 0.182608696 -0.0782608696 0.0174850674
v 0.2 -0.0782608696 0.017314466
v -0.2 -0.0608695652 -0.034137939
v -0.182608696 -0.0608695652 -0.0250369538
v -0.165217391 -0.0608695652 -0.0141864408
v -0.147826087 -0.0608695652 -0.0212251804
v -0.130434783 -0.0608695652 -0.0298366888
v -0.113043478 -0.0608695652 -0.0265000429
v -0.0956521739 -0.0608695652 0.000115162919
v -0.0782608696 -0.0608695652 -0.0226171425
v -0.0608695652 -0.0608695652 -0.00988007664
v -0.0434782609 -0.0608695652 -0.0168495972
v -0.0260869565 -0.0608695652 -0.00310056139
v -0.00869565217 -0.0608695652 0.00861407933
v 0.00869565217 -0.0608695652 0.0224937502
v 0.0260869565 -0.0608695652 -0.0103369043
v 0.0434782609 -0.0608695652 0.0123038847
v 0.0608695652 -0.0608695652 0.00862667009
v 0.0782608696 -0.0608695652 0.00375373187
v 0.0956521739 -0.0608695652 0.0144115041
v 0.113043478 -0.0608695652 0.0239564274
v 0.130434783 -0.0608695652 0.0157181587
v 0.147826087 -0.0608695652 0.0143726134
v 0.165217391 -0.0608695652 0.0230587742
v 0.182608696 -0.0608695652 0.0200631018
v 0.2 -0.0608695652 0.0201937731
v -0.2 -0.0434782609 -0.0072040626
v -0.182608696 -0.0434782609 -0.0129853722
v -0.165217391 -0.0434782609 -0.00592033509
v -0.147826087 -0.0434782609 -0.00180028277
v -0.130434783 -0.0434782609 -0.00942307444
v -0.113043478 -0.0434782609 0.00112545124
v -0.0956521739 -0.0434782609 -0.017557287
v -0.0782608696 -0.0434782609 -0.0211455052
v -0.0608695652 -0.0434782609 -0.0162668243
v -0.0434782609 -0.0434782609 -0.00399035424
v -0.0260869565 -0.0434782609 -0.0234890256
v -0.00869565217 -0.0434782609 -0.000331396199
v 0.00869565217 -0.0434782609 0.00961784851
v 0.0260869565 -0.0434782609 0.0125491505
v 0.0434782609 -0.0434782609 -0.0220824942
v 0.0608695652 -0.0434782609 0.0060257741
v 0.0782608696 -0.0434782609 0.00317071707
v 0.0956521739 -0.0434782609 0.0137626235
v 0.113043478 -0.0434782609 0.0108154217
v 0.130434783 -0.0434782609 0.0120405153
v 0.147826087 -0.0434782609 0.0338231316
v 0.165217391 -0.0434782609 0.0110480189
v 0.182608696 -0.0434782609 0.0152146659
v 0.2 -0.0434782609 0.0238364486
v -0.2 -0.0260869565 -0.00378792247
v -0.182608696 -0.0260869565 -0.028682963
v -0.165217391 -0.0260869565 -0.039321989
v -0.147826087 -0.0260869565 -0.0230055761
v -0.130434783 -0.0260869565 -0.0141306304
v -0.113043478 -0.0260869565 -0.0301752244
v -0.0956521739 -0.0260869565 -0.028780956
v -0.0782608696 -0.0260869565 -0.0138113684
v -0.0608695652 -0.0260869565 -0.00998061431
v -0.0434782609 -0.0260869565 0.00408637864
v -0.0260869565 -0.0260869565 0.00877507733
v -0.00869565217 -0.0260869565 0.00284788886
v 0.00869565217 -0.0260869565 0.00647541149
v 0.0260869565 -0.0260869565 -0.0064822014
v 0.0434782609 -0.0260869565 0.0015083248
v 0.0608695652 -0.0260869565 0.0110690737
v 0.0782608696 -0.0260869565 0.000199663823
v 0.0956521739 -0.0260869565 0.0156079422
v 0.113043478 -0.0260869565 0.00239954474
v 0.130434783 -0.0260869565 0.0199570987
v 0.147826087 -0.0260869565 0.0162933593
v 0.165217391 -0.0260869565 3.89756139e-05
v 0.182608696 -0.0260869565 0.0193733025
v 0.2 -0.0260869565 0.0189298035
v -0.2 -0.00869565217 -0.0102234972
v -0.182608696 -0.00869565217 -0.029577251
v -0.165217391 -0.00869565217 -0.0265243918
v -0.147826087 -0.00869565217 -0.00736103237
v -0.130434783 -0.00869565217 -0.0220856196
v -0.113043478 -0.00869565217 -0.0220228863
v -0.0956521739 -0.00869565217 -0.0214112457
v -0.0782608696 -0.00869565217 -0.018692426
v -0.0608695652 -0.00869565217 -0.010006348
v -0.0434782609 -0.00869565217 -0.00887868399
v -0.0260869565 -0.00869565217 -0.00281244614
v -0.00869565217 -0.00869565217 0.01073826
v 0.00869565217 -0.00869565217 -0.00095504394
v 0.0260869565 -0.00869565217 0.0101610203
v 0.0434782609 -0.00869565217 0.00728854131
v 0.0608695652 -0.00869565217 0.0234306738
v 0.0782608696 -0.00869565217 -0.00914260576
v 0.0956521739 -0.00869565217 0.0356305479
v 0.113043478 -0.00869565217 0.0249885414
v 0.130434783 -0.00869565217 -0.000478470467
v 0.147826087 -0.00869565217 0.0197812017
v 0.165217391 -0.00869565217 0.00840476686
v 0.182608696 -0.00869565217 0.0138397961
v 0.2 -0.00869565217 0.0153273652
v -0.2 0.00869565217 -0.00761956804
v -0.182608696 0.00869565217 -0.0304702863
v -0.165217391 0.00869565217 -0.01213912
v -0.147826087 0.00869565217 0.0137921481
v -0.130434783 0.00869565217 -0.0155649595
v -0.113043478 0.00869565217 -0.0240479305
v -0.0956521739 0.00869565217 -0.0276735393
v -0.0782608696 0.00869565217 -0.00953794898
v -0.0608695652 0.00869565217 0.00370867549
v -0.0434782609 0.00869565217 -0.0103130932
v -0.0260869565 0.00869565217 0.00519822202
v -0.00869565217 0.00869565217 -0.0173239948
v 0.00869565217 0.00869565217 -0.0153085019
v 0.0260869565 0.00869565217 -0.00169662825
v 0.0434782609 0.00869565217 0.0276593026
v 0.0608695652 0.00869565217 0.0165570776
v 0.0782608696 0.00869565217 0.0133251877
v 0.0956521739 0.00869565217 0.0074536246
v 0.113043478 0.00869565217 0.00322996627
v 0.130434783 0.00869565217 0.00859890463
v 0.147826087 0.00869565217 0.0147100782
v 0.165217391 0.00869565217 0.0287355749
v 0.182608696 0.00869565217 0.00820818095
v 0.2 0.00869565217 0.0262161494
v -0.2 0.0260869565 -0.0179839045
v -0.182608696 0.0260869565 -0.0215271217
v -0.165217391 0.0260869565 -0.0129405786
v -0.147826087 0.0260869565 -0.00193226522
v -0.130434783 0.0260869565 -0.0218434527
v -0.113043478 0.0260869565 -0.0239532277
v -0.0956521739 0.0260869565 -0.0111839558
v -0.0782608696 0.0260869565 0.000272662353
v -0.0608695652 0.0260869565 -0.00895567785
v -0.0434782609 0.0260869565 0.00344371472
v -0.0260869565 0.0260869565 -0.0113172024
v -0.00869565217 0.0260869565 -0.0208760319
v 0.00869565217 0.0260869565 0.0156952286
v 0.0260869565 0.0260869565 0.00575324827
v 0.0434782609 0.0260869565 0.0216137718
v 0.0608695652 0.0260869565 0.0204064925
v 0.0782608696 0.0260869565 0.0246983038
v 0.0956521739 0.0260869565 0.0269967561
v 0.113043478 0.0260869565 0.0224854561
v 0.130434783 0.0260869565 0.0273876505
v 0.147826087 0.0260869565 0.0185662941
v 0.165217391 0.0260869565 0.0270285803
v 0.182608696 0.0260869565 0.0263450591
v 0.2 0.0260869565 0.0295992815
v -0.2 0.0434782609 -0.00276193881
v -0.182608696 0.0434782609 -0.0118246687
v -0.165217391 0.0434782609 -0.000790778876
v -0.147826087 0.0434782609 -0.0137861976
v -0.130434783 0.0434782609 -0.0130870588
v -0.113043478 0.0434782609 -0.0201947859
v -0.0956521739 0.0434782609 0.00454293635
v -0.0782608696 0.0434782609 -0.0129734451
v -0.0608695652 0.0434782609 -0.0155257767
v -0.0434782609 0.0434782609 0.000478468968
v -0.0260869565 0.0434782609 -0.00980164994
v -0.00869565217 0.0434782609 0.000716121324
v 0.00869565217 0.0434782609 0.00184510286
v 0.0260869565 0.0434782609 0.00113659084
v 0.0434782609 0.0434782609 0.0127551676
v 0.0608695652 0.0434782609 0.000288687941
v 0.0782608696 0.0434782609 0.00545032678
v 0.0956521739 0.0434782609 0.0206922974
v 0.113043478 0.0434782609 0.0100051669
v 0.130434783 0.0434782609 0.0197695509
v 0.147826087 0.0434782609 0.0290863669
v 0.165217391 0.0434782609 0.0236604074
v 0.182608696 0.0434782609 0.0286239817
v 0.2 0.0434782609 0.00664215124
v -0.2 0.0608695652 -0.0237316895
v -0.182608696 0.0608695652 -0.0355811342
v -0.165217391 0.0608695652 -0.0330080422
v -0.147826087 0.0608695652 -0.0115736841
v -0.130434783 0.0608695652 -0.0252966465
v -0.113043478 0.0608695652 0.0123554223
v -0.0956521739 0.0608695652 -0.0186925627
v -0.0782608696 0.0608695652 9.2191277e-05
v -0.0608695652 0.0608695652 0.00955577903
v -0.0434782609 0.0608695652 0.012682255
v -0.0260869565 0.0608695652 -0.00654806252
v -0.00869565217 0.0608695652 -0.0128431598
v 0.00869565217 0.0608695652 0.0081737995
v 0.0260869565 0.0608695652 -0.0120721758
v 0.0434782609 0.0608695652 0.00305398837
v 0.0608695652 0.0608695652 -0.00132486494
v 0.0782608696 0.0608695652 0.00792335787
v 0.0956521739 0.0608695652 0.0236591521
v 0.113043478 0.0608695652 0.0119394471
v 0.130434783 0.0608695652 0.0183322457
v 0.147826087 0.0608695652 0.0209642067
v 0.165217391 0.0608695652 0.0112426353
v 0.182608696 0.0608695652 0.0146306847
v 0.2 0.0608695652 0.00574009553
v -0.2 0.0782608696 -0.0198895984
v -0.182608696 0.0782608696 -0.0197526815
v -0.165217391 0.0782608696 -0.0285025816
v -0.147826087 0.0782608696 -0.0160276174
v -0.130434783 0.0782608696 0.00919858446
v -0.113043478 0.0782608696 -0.0155384155
v -0.0956521739 0.0782608696 -0.0145687084
v -0.0782608696 0.0782608696 -0.0145477833
v -0.0608695652 0.0782608696 -0.00419328646
v -0.0434782609 0.0782608696 0.0064287014
v -0.0260869565 0.0782608696 0.0142605711
v -0.00869565217 0.0782608696 0.00390614735
v 0.00869565217 0.0782608696 0.0168052184
v 0.0260869565 0.0782608696 0.007716257
v 0.0434782609 0.0782608696 -0.000288107581
v 0.0608695652 0.0782608696 -0.008327583
v 0.0782608696 0.0782608696 0.0190719577
v 0.0956521739 0.0782608696 0.0148075365
v 0.113043478 0.0782608696 0.0235487835
v 0.130434783 0.0782608696 0.0109877461
v 0.147826087 0.0782608696 0.0370232315
v 0.165217391 0.0782608696 -0.00801292391
v 0.182608696 0.0782608696 0.0323012919
v 0.2 0.0782608696 0.0118068786
v -0.2 0.0956521739 -0.0165820147
v -0.182608696 0.0956521739 -0.00791509194
v -0.165217391 0.0956521739 -0.0279790315
v -0.147826087 0.0956521739 -0.0028157441
v -0.130434783 0.0956521739 -0.0289582124
v -0.113043478 0.0956521739 -0.00303757257
v -0.0956521739 0.0956521739 -0.00573230246
v -0.0782608696 0.0956521739 -0.0192784025
v -0.0608695652 0.0956521739 -0.0131752314
v -0.0434782609 0.0956521739 0.00429939583
v -0.0260869565 0.0956521739 -0.000542216198
v -0.00869565217 0.0956521739 0.00265266571
v 0.00869565217 0.0956521739 0.0142725959
v 0.0260869565 0.0956521739 0.0131258352
v 0.0434782609 0.0956521739 0.0132612296
v 0.0608695652 0.0956521739 0.00437738745
v 0.0782608696 0.0956521739 0.019187754
v 0.0956521739 0.0956521739 -0.002810544
v 0.113043478 0.0956521739 0.00428223405
v 0.130434783 0.0956521739 0.00347515188
v 0.147826087 0.0956521739 0.022471714
v 0.165217391 0.0956521739 0.0177617697
v 0.182608696 0.0956521739 0.0184099809
v 0.2 0.0956521739 0.0144664239
v -0.2 0.113043478 -0.0219467508
v -0.182608696 0.113043478 -0.0219733646
v -0.165217391 0.113043478 -0.0211507358
v -0.147826087 0.113043478 -0.00919553534
v -0.130434783 0.113043478 -0.0107010642
v -0.113043478 0.113043478 -0.0127480422
v -0.0956521739 0.113043478 0.00174604841
v -0.0782608696 0.113043478 -0.0151714148
v -0.0608695652 0.113043478 -0.00128506946
v -0.0434782609 0.113043478 -0.0196217577
v -0.0260869565 0.113043478 0.000215796256
v -0.00869565217 0.113043478 -0.012437986
v 0.00869565217 0.113043478 0.000350730478
v 0.0260869565 0.113043478 0.00512051495
v 0.0434782609 0.113043478 -5.21941534e-05
v 0.0608695652 0.113043478 0.00912212742
v 0.0782608696 0.113043478 0.0226351632
v 0.0956521739 0.113043478 -0.00367343668
v 0.113043478 0.113043478 -0.00326775291
v 0.130434783 0.113043478 0.0181215324
v 0.147826087 0.113043478 0.0126720231
v 0.165217391 0.113043478 0.0298610245
v 0.182608696 0.113043478 0.0130793332
v 0.2 0.113043478 0.00603218786
v -0.2 0.130434783 -0.00919478637
v -0.182608696 0.130434783 -0.0157755977
v -0.165217391 0.130434783 -0.00958412272
v -0.147826087 0.130434783 -0.00823505747
v -0.130434783 0.130434783 -0.0281253971
v -0.113043478 0.130434783 -0.00288780648
v -0.0956521739 0.130434783 0.00727097543
v -0.0782608696 0.130434783 -0.00187451154
v -0.0608695652 0.130434783 0.00654646155
v -0.0434782609 0.130434783 -0.0171834358
v -0.0260869565 0.130434783 -0.0117926682
v -0.00869565217 0.130434783 -0.00823701048
v 0.00869565217 0.130434783 -0.0151322645
v 0.0260869565 0.130434783 -0.00859764884
v 0.0434782609 0.130434783 0.00321268649
v 0.0608695652 0.130434783 -0.00647894081
v 0.0782608696 0.130434783 0.00127013666
v 0.0956521739 0.130434783 0.00772496129
v 0.113043478 0.130434783 0.0279650072
v 0.130434783 0.130434783 0.00537022063
v 0.147826087 0.130434783 0.0178321384
v 0.165217391 0.130434783 0.0243509238
v 0.182608696 0.130434783 0.0163796611
v 0.2 0.130434783 0.0150061919
v -0.2 0.147826087 -0.0103813831
v -0.182608696 0.147826087 -0.0111804414
v -0.165217391 0.147826087 -0.0120542255
v -0.147826087 0.147826087 -0.00808955826
v -0.130434783 0.147826087 0.00176685896
v -0.113043478 0.147826087 -0.00741511499
v -0.0956521739 0.147826087 -0.0118789679
v -0.0782608696 0.147826087 0.00654521212
v -0.0608695652 0.147826087 -0.00181811186
v -0.0434782609 0.147826087 0.00679656319
v -0.0260869565 0.147826087 -0.00767651164
v -0.00869565217 0.147826087 0.00564311154
v 0.00869565217 0.147826087 0.0131995611
v 0.0260869565 0.147826087 0.0096008128
v 0.0434782609 0.147826087 0.00784509564
v 0.0608695652 0.147826087 0.0196626658
v 0.0782608696 0.147826087 0.0166928782
v 0.0956521739 0.147826087 0.00900385946
v 0.113043478 0.147826087 -0.00357273957
v 0.130434783 0.147826087 0.0175725629
v 0.147826087 0.147826087 0.016896029
v 0.165217391 0.147826087 0.0106258863
v 0.182608696 0.147826087 0.014161801
v 0.2 0.147826087 0.0199725875
v -0.2 0.165217391 0.0078158224
v -0.182608696 0.165217391 -0.00746964926
v -0.165217391 0.165217391 -0.00107207814
v -0.147826087 0.165217391 -0.0115593539
v -0.130434783 0.165217391 -0.0151728665
v -0.113043478 0.165217391 0.00280150134
v -0.0956521739 0.165217391 -0.0206425079
v -0.0782608696 0.165217391 -0.00167480626
v -0.0608695652 0.165217391 -0.0219262122
v -0.0434782609 0.165217391 -0.00639681771
v -0.0260869565 0.165217391 -0.0110084328
v -0.00869565217 0.165217391 0.015118186
v 0.00869565217 0.165217391 -0.00322859513
v 0.0260869565 0.165217391 0.00937032741
v 0.0434782609 0.165217391 -0.00380086894
v 0.0608695652 0.165217391 0.0226686653
v 0.0782608696 0.165217391 0.0186299856
v 0.0956521739 0.165217391 -0.00470988221
v 0.113043478 0.165217391 0.00554507431
v 0.130434783 0.165217391 0.0163478561
v 0.147826087 0.165217391 0.0168779622
v 0.165217391 0.165217391 -0.00219994011
v 0.182608696 0.165217391 0.0102171683
v 0.2 0.165217391 -0.00872916252
v -0.2 0.182608696 -0.0175840685
v -0.182608696 0.182608696 -0.0115418138
v -0.165217391 0.182608696 -0.0035971044
v -0.147826087 0.182608696 -0.0119861722
v -0.130434783 0.182608696 -0.00609109412
v -0.113043478 0.182608696 0.01923803
v -0.0956521739 0.182608696 -0.00296762838
v -0.0782608696 0.182608696 0.00368197653
v -0.0608695652 0.182608696 0.000172800618
v -0.0434782609 0.182608696 -0.00105435165
v -0.0260869565 0.182608696 0.0274063638
v -0.00869565217 0.182608696 -0.00323603154
v 0.00869565217 0.182608696 -0.00276833283
v 0.0260869565 0.182608696 0.00804545865
v 0.0434782609 0.182608696 -0.0052838801
v 0.0608695652 0.182608696 -0.00360826965
v 0.0782608696 0.182608696 0.0238175961
v 0.0956521739 0.182608696 -0.00636508723
v 0.113043478 0.182608696 0.0125896075
v 0.130434783 0.182608696 0.0113764975
v 0.147826087 0.182608696 0.021958839
v 0.165217391 0.182608696 0.0149858079
v 0.182608696 0.182608696 0.0145668734
v 0.2 0.182608696 0.0144997204
v -0.2 0.2 -0.00743903579
v -0.182608696 0.2 -0.0140151345
v -0.165217391 0.2 -0.00120607529
v -0.147826087 0.2 -0.0176258666
v -0.130434783 0.2 -0.0116685706
v -0.113043478 0.2 -0.00301787287
v -0.0956521739 0.2 -0.0125441867
v -0.0782608696 0.2 0.0152638776
v -0.0608695652 0.2 -0.0204226927
v -0.0434782609 0.2 -0.0147265639
v -0.0260869565 0.2 -0.0085189848
v -0.00869565217 0.2 0.000698164001
v 0.00869565217 0.2 -0.00129050725
v 0.0260869565 0.2 0.00704378745
v 0.0434782609 0.2 0.00345429226
v 0.0608695652 0.2 0.00498994074
v 0.0782608696 0.2 0.0081376641
v 0.0956521739 0.2 -0.011158749
v 0.113043478 0.2 -0.00463123731
v 0.130434783 0.2 0.0175922888
v 0.147826087 0.2 0.00480799367
v 0.165217391 0.2 0.00503048798
v 0.182608696 0.2 -0.00048858241
v 0.2 0.2 0.00999553956
f 1 2 26
f 1 26 25
f 2 3 27
f 2 27 26
f 3 4 28
f 3 28 27
f 4 5 29
f 4 29 28
f 5 6 30
f 5 30 29
f 6 7 31
f 6 31 30
f 7 8 32
f 7 32 31
f 8 9 33
f 8 33 32
f 9 10 34
f 9 34 33
f 10 11 35
f 10 35 34
f 11 12 36
f 11 36 35
f 12 13 37
f 12 37 36
f 13 14 38
f 13 38 37
f 14 15 39
f 14 39 38
f 15 16 40
f 15 40 39
f 16 17 41
f 16 41 40
f 17 18 42
f 17 42 41
f 18 19 43
f 18 43 42
f 19 20 44
f 19 44 43
f 20 21 45
f 20 45 44
f 21 22 46
f 21 46 45
f 22 23 47
f 22 47 46
f 23 24 48
f 23 48 47
f 25 26 50
f 25 50 49
f 26 27 51
f 26 51 50
f 27 28 52
f 27 52 51
f 28 29 53
f 28 53 52
f 29 30 54
f 29 54 53
f 30 31 55
f 30 55 54
f 31 32 56
f 31 56 55
f 32 33 57
f 32 57 56
f 33 34 58
f 33 58 57
f 34 35 59
f 34 59 58
f 35 36 60
f 35 60 59
f 36 37 61
f 36 61 60
f 37 38 62
f 37 62 61
f 38 39 63
f 38 63 62
f 39 40 64
f 39 64 63
f 40 41 65
f 40 65 64
f 41 42 66
f 41 66 65
f 42 43 67
f 42 67 66
f 43 44 68
f 43 68 67
f 44 45 69
f 44 69 68
f 45 46 70
f 45 70 69
f 46 47 71
f 46 71 70
f 47 48 72
f 47 72 71
f 49 50 74
f 49 74 73
f 50 51 75
f 50 75 74
f 51 52 76
f 51 76 75
f 52 53 77
f 52 77 76
f 53 54 78
f 53 78 77
f 54 55 79
f 54 79 78
f 55 56 80
f 55 80 79
f 56 57 81
f 56 81 80
f 57 58 82
f 57 82 81
f 58 59 83
f 58 83 82
f 59 60 84
f 59 84 83
f 60 61 85
f 60 85 84
f 61 62 86
f 61 86 85
f 62 63 87
f 62 87 86
f 63 64 88
f 63 88 87
f 64 65 89
f 64 89 88
f 65 66 90
f 65 90 89
f 66 67 91
f 66 91 90
f 67 68 92
f 67 92 91
f 68 69 93
f 68 93 92
f 69 70 94
f 69 94 93
f 70 71 95
f 70 95 94
f 71 72 96
f 71 96 95
f 73 74 98
f 73 98 97
f 74 75 99
f 74 99 98
f 75 76 100
f 75 100 99
f 76 77 101
f 76 101 100
f 77 78 102
f 77 102 101
f 78 79 103
f 78 103 102
f 79 80 104
f 79 104 103
f 80 81 105
f 80 105 104
f 81 82 106
f 81 106 105
f 82 83 107
f 82 107 106
f 83 84 108
f 83 108 107
f 84 85 109
f 84 109 108
f 85 86 110
f 85 110 109
f 86 87 111
f 86 111 110
f 87 88 112
f 87 112 111
f 88 89 113
f 88 113 112
f 89 90 114
f 89 114 113
f 90 91 115
f 90 115 114
f 91 92 116
f 91 116 115
f 92 93 117
f 92 117 116
f 93 94 118
f 93 118 117
f 94 95 119
f 94 119 118
f 95 96 120
f 95 120 119
f 97 98 122
f 97 122 121
f 98 99 123
f 98 123 122
f 99 100 124
f 99 124 123
f 100 101 125
f 100 125 124
f 101 102 126
f 101 126 125
f 102 103 127
f 102 127 126
f 103 104 128
f 103 128 127
f 104 105 129
f 104 129 128
f 105 106 130
f 105 130 129
f 106 107 131
f 106 131 130
f 107 108 132
f 107 132 131
f 108 109 133
f 108 133 132
f 109 110 134
f 109 134 133
f 110 111 135
f 110 135 134
f 111 112 136
f 111 136 135
f 112 113 137
f 112 137 136
f 113 114 138
f 113 138 137
f 114 115 139
f 114 139 138
f 115 116 140
f 115 140 139
f 116 117 141
f 116 141 140
f 117 118 142
f 117 142 141
f 118 119 143
f 118 143 142
f 119 120 144
f 119 144 143
f 121 122 146
f 121 146 145
f 122 123 147
f 122 147 146
f 123 124 148
f 123 148 147
f 124 125 149
f 124 149 148
f 125 126 150
f 125 150 149
f 126 127 151
f 126 151 150
f 127 128 152
f 127 152 151
f 128 129 153
f 128 153 152
f 129 130 154
f 129 154 153
f 130 131 155
f 130 155 154
f 131 132 156
f 131 156 155
f 132 133 157
f 132 157 156
f 133 134 158
f 133 158 157
f 134 135 159
f 134 159 158
f 135 136 160
f 135 160 159
f 136 137 161
f 136 161 160
f 137 138 162
f 137 162 161
f 138 139 163
f 138 163 162
f 139 140 164
f 139 164 163
f 140 141 165
f 140 165 164
f 141 142 166
f 141 166 165
f 142 143 167
f 142 167 166
f 143 144 168
f 143 168 167
f 145 146 170
f 145 170 169
f 146 147 171
f 146 171 170
f 147 148 172
f 147 172 171
f 148 149 173
f 148 173 172
f 149 150 174
f 149 174 173
f 150 151 175
f 150 175 174
f 151 152 176
f 151 176 175
f 152 153 177
f 152 177 176
f 153 154 178
f 153 178 177
f 154 155 179
f 154 179 178
f 155 156 180
f 155 180 179
f 156 157 181
f 156 181 180
f 157 158 182
f 157 182 181
f 158 159 183
f 158 183 182
f 159 160 184
f 159 184 183
f 160 161 185
f 160 185 184
f 161 162 186
f 161 186 185
f 162 163 187
f 162 187 186
f 163 164 188
f 163 188 187
f 164 165 189
f 164 189 188
f 165 166 190
f 165 190 189
f 166 167 191
f 166 191 190
f 167 168 192
f 167 192 191
f 169 170 194
f 169 194 193
f 170 171 195
f 170 195 194
f 171 172 196
f 171 196 195
f 172 173 197
f 172 197 196
f 173 174 198
f 173 198 197
f 174 175 199
f 174 199 198
f 175 176 200
f 175 200 199
f 176 177 201
f 176 201 200
f 177 178 202
f 177 202 201
f 178 179 203
f 178 203 202
f 179 180 204
f 179 204 203
f 180 181 205
f 180 205 204
f 181 182 206
f 181 206 205
f 182 183 207
f 182 207 206
f 183 184 208
f 183 208 207
f 184 185 209
f 184 209 208
f 185 186 210
f 185 210 209
f 186 187 211
f 186 211 210
f 187 188 212
f 187 212 211
f 188 189 213
f 188 213 212
f 189 190 214
f 189 214 213
f 190 191 215
f 190 215 214
f 191 192 216
f 191 216 215
f 193 194 218
f 193 218 217
f 194 195 219
f 194 219 218
f 195 196 220
f 195 220 219
f 196 197 221
f 196 221 220
f 197 198 222
f 197 222 221
f 198 199 223
f 198 223 222
f 199 200 224
f 199 224 223
f 200 201 225
f 200 225 224
f 201 202 226
f 201 226 225
f 202 203 227
f 202 227 226
f 203 204 228
f 203 228 227
f 204 205 229
f 204 229 228
f 205 206 230
f 205 230 229
f 206 207 231
f 206 231 230
f 207 208 232
f 207 232 231
f 208 209 233
f 208 233 232
f 209 210 234
f 209 234 233
f 210 211 235
f 210 235 234
f 211 212 236
f 211 236 235
f 212 213 237
f 212 237 236
f 213 214 238
f 213 238 237
f 214 215 239
f 214 239 238
f 215 216 240
f 215 240 239
f 217 218 242
f 217 242 241
f 218 219 243
f 218 243 242
f 219 220 244
f 219 244 243
f 220 221 245
f 220 245 244
f 221 222 246
f 221 246 245
f 222 223 247
f 222 247 246
f 223 224 248
f 223 248 247
f 224 225 249
f 224 249 248
f 225 226 250
f 225 250 249
f 226 227 251
f 226 251 250
f 227 228 252
f 227 252 251
f 228 229 253
f 228 253 252
f 229 230 254
f 229 254 253
f 230 231 255
f 230 255 254
f 231 232 256
f 231 256 255
f 232 233 257
f 232 257 256
f 233 234 258
f 233 258 257
f 234 235 259
f 234 259 258
f 235 236 260
f 235 260 259
f 236 237 261
f 236 261 260
f 237 238 262
f 237 262 261
f 238 239 263
f 238 263 262
f 239 240 264
f 239 264 263
f 241 242 266
f 241 266 265
f 242 243 267
f 242 267 266
f 243 244 268
f 243 268 267
f 244 245 269
f 244 269 268
f 245 246 270
f 245 270 269
f 246 247 271
f 246 271 270
f 247 248 272
f 247 272 271
f 248 249 273
f 248 273 272
f 249 250 274
f 249 274 273
f 250 251 275
f 250 275 274
f 251 252 276
f 251 276 275
f 252 253 277
f 252 277 276
f 253 254 278
f 253 278 277
f 254 255 279
f 254 279 278
f 255 256 280
f 255 280 279
f 256 257 281
f 256 281 280
f 257 258 282
f 257 282 281
f 258 259 283
f 258 283 282
f 259 260 284
f 259 284 283
f 260 261 285
f 260 285 284
f 261 262 286
f 261 286 285
f 262 263 287
f 262 287 286
f 263 264 288
f 263 288 287
f 265 266 290
f 265 290 289
f 266 267 291
f 266 291 290
f 267 268 292
f 267 292 291
f 268 269 293
f 268 293 292
f 269 270 294
f 269 294 293
f 270 271 295
f 270 295 294
f 271 272 296
f 271 296 295
f 272 273 297
f 272 297 296
f 273 274 298
f 273 298 297
f 274 275 299
f 274 299 298
f 275 276 300
f 275 300 299
f 276 277 301
f 276 301 300
f 277 278 302
f 277 302 301
f 278 279 303
f 278 303 302
f 279 280 304
f 279 304 303
f 280 281 305
f 280 305 304
f 281 282 306
f 281 306 305
f 282 283 307
f 282 307 306
f 283 284 308
f 283 308 307
f 284 285 309
f 284 309 308
f 285 286 310
f 285 310 309
f 286 287 311
f 286 311 310
f 287 288 312
f 287 312 311
f 289 290 314
f 289 314 313
f 290 291 315
f 290 315 314
f 291 292 316
f 291 316 315
f 292 293 317
f 292 317 316
f 293 294 318
f 293 318 317
f 294 295 319
f 294 319 318
f 295 296 320
f 295 320 319
f 296 297 321
f 296 321 320
f 297 298 322
f 297 322 321
f 298 299 323
f 298 323 322
f 299 300 324
f 299 324 323
f 300 301 325
f 300 325 324
f 301 302 326
f 301 326 325
f 302 303 327
f 302 327 326
f 303 304 328
f 303 328 327
f 304 305 329
f 304 329 328
f 305 306 330
f 305 330 329
f 306 307 331
f 306 331 330
f 307 308 332
f 307 332 331
f 308 309 333
f 308 333 332
f 309 310 334
f 309 334 333
f 310 311 335
f 310 335 334
f 311 312 336
f 311 336 335
f 313 314 338
f 313 338 337
f 314 315 339
f 314 339 338
f 315 316 340
f 315 340 339
f 316 317 341
f 316 341 340
f 317 318 342
f 317 342 341
f 318 319 343
f 318 343 342
f 319 320 344
f 319 344 343
f 320 321 345
f 320 345 344
f 321 322 346
f 321 346 345
f 322 323 347
f 322 347 346
f 323 324 348
f 323 348 347
f 324 325 349
f 324 349 348
f 325 326 350
f 325 350 349
f 326 327 351
f 326 351 350
f 327 328 352
f 327 352 351
f 328 329 353
f 328 353 352
f 329 330 354
f 329 354 353
f 330 331 355
f 330 355 354
f 331 332 356
f 331 356 355
f 332 333 357
f 332 357 356
f 333 334 358
f 333 358 357
f 334 335 359
f 334 359 358
f 335 336 360
f 335 360 359
f 337 338 362
f 337 362 361
f 338 339 363
f 338 363 362
f 339 340 364
f 339 364 363
f 340 341 365
f 340 365 364
f 341 342 366
f 341 366 365
f 342 343 367
f 342 367 366
f 343 344 368
f 343 368 367
f 344 345 369
f 344 369 368
f 345 346 370
f 345 370 369
f 346 347 371
f 346 371 370
f 347 348 372
f 347 372 371
f 348 349 373
f 348 373 372
f 349 350 374
f 349 374 373
f 350 351 375
f 350 375 374
f 351 352 376
f 351 376 375
f 352 353 377
f 352 377 376
f 353 354 378
f 353 378 377
f 354 355 379
f 354 379 378
f 355 356 380
f 355 380 379
f 356 357 381
f 356 381 380
f 357 358 382
f 357 382 381
f 358 359 383
f 358 383 382
f 359 360 384
f 359 384 383
f 361 362 386
f 361 386 385
f 362 363 387
f 362 387 386
f 363 364 388
f 363 388 387
f 364 365 389
f 364 389 388
f 365 366 390
f 365 390 389
f 366 367 391
f 366 391 390
f 367 368 392
f 367 392 391
f 368 369 393
f 368 393 392
f 369 370 394
f 369 394 393
f 370 371 395
f 370 395 394
f 371 372 396
f 371 396 395
f 372 373 397
f 372 397 396
f 373 374 398
f 373 398 397
f 374 375 399
f 374 399 398
f 375 376 400
f 375 400 399
f 376 377 401
f 376 401 400
f 377 378 402
f 377 402 401
f 378 379 403
f 378 403 402
f 379 380 404
f 379 404 403
f 380 381 405
f 380 405 404
f 381 382 406
f 381 406 405
f 382 383 407
f 382 407 406
f 383 384 408
f 383 408 407
f 385 386 410
f 385 410 409
f 386 387 411
f 386 411 410
f 387 388 412
f 387 412 411
f 388 389 413
f 388 413 412
f 389 390 414
f 389 414 413
f 390 391 415
f 390 415 414
f 391 392 416
f 391 416 415
f 392 393 417
f 392 417 416
f 393 394 418
f 393 418 417
f 394 395 419
f 394 419 418
f 395 396 420
f 395 420 419
f 396 397 421
f 396 421 420
f 397 398 422
f 397 422 421
f 398 399 423
f 398 423 422
f 399 400 424
f 399 424 423
f 400 401 425
f 400 425 424
f 401 402 426
f 401 426 425
f 402 403 427
f 402 427 426
f 403 404 428
f 403 428 427
f 404 405 429
f 404 429 428
f 405 406 430
f 405 430 429
f 406 407 431
f 406 431 430
f 407 408 432
f 407 432 431
f 409 410 434
f 409 434 433
f 410 411 435
f 410 435 434
f 411 412 436
f 411 436 435
f 412 413 437
f 412 437 436
f 413 414 438
f 413 438 437
f 414 415 439
f 414 439 438
f 415 416 440
f 415 440 439
f 416 417 441
f 416 441 440
f 417 418 442
f 417 442 441
f 418 419 443
f 418 443 442
f 419 420 444
f 419 444 443
f 420 421 445
f 420 445 444
f 421 422 446
f 421 446 445
f 422 423 447
f 422 447 446
f 423 424 448
f 423 448 447
f 424 425 449
f 424 449 448
f 425 426 450
f 425 450 449
f 426 427 451
f 426 451 450
f 427 428 452
f 427 452 451
f 428 429 453
f 428 453 452
f 429 430 454
f 429 454 453
f 430 431 455
f 430 455 454
f 431 432 456
f 431 456 455
f 433 434 458
f 433 458 457
f 434 435 459
f 434 459 458
f 435 436 460
f 435 460 459
f 436 437 461
f 436 461 460
f 437 438 462
f 437 462 461
f 438 439 463
f 438 463 462
f 439 440 464
f 439 464 463
f 440 441 465
f 440 465 464
f 441 442 466
f 441 466 465
f 442 443 467
f 442 467 466
f 443 444 468
f 443 468 467
f 444 445 469
f 444 469 468
f 445 446 470
f 445 470 469
f 446 447 471
f 446 471 470
f 447 448 472
f 447 472 471
f 448 449 473
f 448 473 472
f 449 450 474
f 449 474 473
f 450 451 475
f 450 475 474
f 451 452 476
f 451 476 475
f 452 453 477
f 452 477 476
f 453 454 478
f 453 478 477
f 454 455 479
f 454 479 478
f 455 456 480
f 455 480 479
f 457 458 482
f 457 482 481
f 458 459 483
f 458 483 482
f 459 460 484
f 459 484 483
f 460 461 485
f 460 485 484
f 461 462 486
f 461 486 485
f 462 463 487
f 462 487 486
f 463 464 488
f 463 488 487
f 464 465 489
f 464 489 488
f 465 466 490
f 465 490 489
f 466 467 491
f 466 491 490
f 467 468 492
f 467 492 491
f 468 469 493
f 468 493 492
f 469 470 494
f 469 494 493
f 470 471 495
f 470 495 494
f 471 472 496
f 471 496 495
f 472 473 497
f 472 497 496
f 473 474 498
f 473 498 497
f 474 475 499
f 474 499 498
f 475 476 500
f 475 500 499
f 476 477 501
f 476 501 500
f 477 478 502
f 477 502 501
f 478 479 503
f 478 503 502
f 479 480 504
f 479 504 503
f 481 482 506
f 481 506 505
f 482 483 507
f 482 507 506
f 483 484 508
f 483 508 507
f 484 485 509
f 484 509 508
f 485 486 510
f 485 510 509
f 486 487 511
f 486 511 510
f 487 488 512
f 487 512 511
f 488 489 513
f 488 513 512
f 489 490 514
f 489 514 513
f 490 491 515
f 490 515 514
f 491 492 516
f 491 516 515
f 492 493 517
f 492 517 516
f 493 494 518
f 493 518 517
f 494 495 519
f 494 519 518
f 495 496 520
f 495 520 519
f 496 497 521
f 496 521 520
f 497 498 522
f 497 522 521
f 498 499 523
f 498 523 522
f 499 500 524
f 499 524 523
f 500 501 525
f 500 525 524
f 501 502 526
f 501 526 525
f 502 503 527
f 502 527 526
f 503 504 528
f 503 528 527
f 505 506 530
f 505 530 529
f 506 507 531
f 506 531 530
f 507 508 532
f 507 532 531
f 508 509 533
f 508 533 532
f 509 510 534
f 509 534 533
f 510 511 535
f 510 535 534
f 511 512 536
f 511 536 535
f 512 513 537
f 512 537 536
f 513 514 538
f 513 538 537
f 514 515 539
f 514 539 538
f 515 516 540
f 515 540 539
f 516 517 541
f 516 541 540
f 517 518 542
f 517 542 541
f 518 519 543
f 518 543 542
f 519 520 544
f 519 544 543
f 520 521 545
f 520 545 544
f 521 522 546
f 521 546 545
f 522 523 547
f 522 547 546
f 523 524 548
f 523 548 547
f 524 525 549
f 524 549 548
f 525 526 550
f 525 550 549
f 526 527 551
f 526 551 550
f 527 528 552
f 527 552 551
f 529 530 554
f 529 554 553
f 530 531 555
f 530 555 554
f 531 532 556
f 531 556 555
f 532 533 557
f 532 557 556
f 533 534 558
f 533 558 557
f 534 535 559
f 534 559 558
f 535 536 560
f 535 560 559
f 536 537 561
f 536 561 560
f 537 538 562
f 537 562 561
f 538 539 563
f 538 563 562
f 539 540 564
f 539 564 563
f 540 541 565
f 540 565 564
f 541 542 566
f 541 566 565
f 542 543 567
f 542 567 566
f 543 544 568
f 543 568 567
f 544 545 569
f 544 569 568
f 545 546 570
f 545 570 569
f 546 547 571
f 546 571 570
f 547 548 572
f 547 572 571
f 548 549 573
f 548 573 572
f 549 550 574
f 549 574 573
f 550 551 575
f 550 575 574
f 551 552 576
f 551 576 575
