ply
format ascii 1.0
comment VisionMCP oriented point archive (not a trained radiance field)
element vertex 2200
property float x
property float y
property float z
property uchar red
property uchar green
property uchar blue
end_header
0.0888622014 0.00767639148 0.168 178 178 178
0.0837612981 -0.0118361729 0.224 178 178 178
0.0572295909 -0.00124507943 0.168 178 178 178
-0.0465398318 -0.125 0.016963319 178 178 178
-0.125 -0.0174587745 0.0128247686 178 178 178
-0.000772156249 0.08 0.183563957 178 178 178
-0.0882588041 -0.104351891 0 178 178 178
0.0391588035 0.0311580078 0.224 178 178 178
0.104224954 -0.029951647 0.224 178 178 178
-0.0835831433 -0.0609941899 0.112 178 178 178
-0.125 -0.0105480211 0.0284309307 178 178 178
-0.113022604 0.125 0.0346880051 178 178 178
0.125 0.124291109 0.0252525298 178 178 178
-0.0395143421 0.0928666425 0.112 178 178 178
0.13 -0.0193722508 0.0749392259 178 178 178
0.111090518 -0.0208598614 0.112 178 178 178
0.015 -0.0222904963 0.246196664 178 178 178
0.0460945921 -0.0316651173 0.224 178 178 178
0.0767571483 -0.0853865692 0.168 178 178 178
0.015 -0.0527624457 0.277797335 178 178 178
-0.114044617 -0.125 0.0524505895 178 178 178
-0.0499020314 0.0314318891 0.056 178 178 178
-0.0185474395 -0.0471772621 0.112 178 178 178
0.112243713 -0.0452616895 0 178 178 178
0.123279762 -0.117929516 0 178 178 178
0.117401008 0.11 0.0960466283 178 178 178
-0.0864996637 -0.00557993764 0.112 178 178 178
0.0988182762 0.0308650009 0.224 178 178 178
0.103541714 -0.0393938772 0.168 178 178 178
0.118031965 0.11 0.0948870404 178 178 178
0.13 0.00573095467 0.0892504341 178 178 178
0.125 -0.000555155644 0.00550248588 178 178 178
0.0112121738 -0.08832647 0 178 178 178
-0.0864126237 -0.0691986286 0.056 178 178 178
0.0409592508 -0.095 0.113359039 178 178 178
-0.0966274264 0.119070963 0.056 178 178 178
-0.0812906893 -0.0902029836 0.056 178 178 178
0.0882293939 -0.0257291518 0 178 178 178
0.0241009125 0.0621132429 0.224 178 178 178
0.034042058 -0.011753457 0.056 178 178 178
0.108316517 0.125 0.0432050356 178 178 178
-0.02 0.0313413871 0.194318958 178 178 178
0.13 0.069814874 0.0927210872 178 178 178
0.11461181 -0.08 0.195197582 178 178 178
0.107843232 -0.0832930241 0.168 178 178 178
-0.055 -0.0382341427 0.137593007 178 178 178
0.0434079413 0.121274227 0 178 178 178
-0.09 -0.0809409074 0.1081226 178 178 178
0.13 0.0564540989 0.0736440849 178 178 178
0.00783160628 0.08 0.187867491 178 178 178
-0.000321687559 0.00532414575 0.056 178 178 178
0.0112194856 0.0895669769 0.112 178 178 178
-0.000336688766 0.0758018654 0 178 178 178
0.118120936 -0.0150558519 0.112 178 178 178
0.028192314 -0.0629976079 0.056 178 178 178
0.122787865 0.102702548 0.056 178 178 178
0.0256004993 -0.0280445841 0.224 178 178 178
-0.0406165557 0.0502151545 0.056 178 178 178
0.103596079 0.065 0.242612939 178 178 178
0.00240520128 -0.0122271787 0.112 178 178 178
0.0643452382 0.0710898565 0.112 178 178 178
-0.00615298762 -0.0527781877 0.168 178 178 178
-0.0190668111 -0.095 0.146643608 178 178 178
-0.0155537835 -0.0511336165 0.056 178 178 178
-0.052681503 0.0928623571 0.112 178 178 178
0.125 -0.10601473 0.0160726339 178 178 178
0.037633544 -0.0198940638 0.112 178 178 178
-0.0921427239 0.106333603 0 178 178 178
0.145 -0.0169156634 0.270412951 178 178 178
0.0468816341 -0.125 0.0469642108 178 178 178
-0.0455869312 0.0941610387 0.168 178 178 178
-0.125 0.0867404788 0.00695499222 178 178 178
0.00954178235 0.08 0.17015847 178 178 178
-0.0467500607 0.068990755 0.168 178 178 178
0.0912426226 0.076222495 0.056 178 178 178
0.115199665 -0.08 0.1908091 178 178 178
0.025125095 -0.0300659041 0.28 178 178 178
0.0526637745 -0.0576860268 0.224 178 178 178
0.112027399 0.00667626439 0.112 178 178 178
0.07053939 -0.048564381 0.056 178 178 178
-0.100903253 0.00312935608 0.056 178 178 178
0.0275302695 -0.0592244074 0.28 178 178 178
-0.09 -0.0506840583 0.0782993386 178 178 178
-0.0613614564 -0.0498236356 0.056 178 178 178
-0.02 0.0705268431 0.216445074 178 178 178
0.0559056406 -0.00994800315 0.168 178 178 178
0.115733644 0.00147329307 0.112 178 178 178
-0.0242637605 -0.0419933968 0.056 178 178 178
0.0646235497 -0.0861407352 0.112 178 178 178
0.125 -0.0485457377 0.0176879331 178 178 178
0.0958449859 -0.0524986383 0 178 178 178
0.0202687701 0.08 0.177438482 178 178 178
-0.0634532727 -0.00342196058 0.112 178 178 178
-0.09 -0.105875164 0.0588555007 178 178 178
0.0916825698 -0.07153592 0.056 178 178 178
0.0727920109 -0.0794519576 0.168 178 178 178
0.106210457 -0.109212926 0 178 178 178
-0.016587247 0.0256139493 0.056 178 178 178
0.117701591 -0.115689953 0 178 178 178
0.0112708152 -0.122326872 0.056 178 178 178
0.145 0.0164067234 0.279560388 178 178 178
-0.0279838588 -0.0475064425 0.168 178 178 178
0.0985556328 -0.0395273278 0.112 178 178 178
0.0112405576 0.11 0.0735876809 178 178 178
0.0358275711 0.08 0.172165483 178 178 178
0.0854747152 0.0150834371 0.056 178 178 178
-0.031828909 -0.0543248718 0.112 178 178 178
0.0348319494 -0.095 0.130955508 178 178 178
-0.0292902842 -0.0390463853 0.056 178 178 178
0.0703673355 0.11 0.104161484 178 178 178
0.055258131 -0.0534227481 0.168 178 178 178
0.0993875968 0.0267704599 0.224 178 178 178
0.0182902237 -0.11424641 0.056 178 178 178
0.0781694031 -0.018127158 0.28 178 178 178
0.116761478 0.00555898482 0 178 178 178
0.0939818412 -0.0724620678 0.168 178 178 178
0.109042772 -0.0221927282 0.224 178 178 178
0.0848188192 -0.0507273599 0.056 178 178 178
0.109358273 0.0734603221 0.112 178 178 178
0.0600863269 0.00208783903 0.224 178 178 178
-0.0549131193 -0.11356594 0 178 178 178
0.0748752156 0.000730558353 0.168 178 178 178
0.0459708798 -0.0626169559 0.224 178 178 178
0.119410361 0.11 0.0640046527 178 178 178
-0.0472103269 0.095 0.118621316 178 178 178
0.0728929374 -0.125 0.033768565 178 178 178
-0.074473552 0.0359279218 0.056 178 178 178
-0.0649954337 -0.0287353564 0.056 178 178 178
0.0625903254 0.0931239045 0.056 178 178 178
0.0706158582 0.031955043 0.056 178 178 178
0.0306359834 -0.0107267885 0.28 178 178 178
0.133308292 0.00498655044 0.112 178 178 178
0.124521402 -0.0218556295 0.056 178 178 178
-0.115720417 0.125 0.0174675993 178 178 178
0.0418799482 -0.065 0.274915341 178 178 178
0.0445896881 0.0504015792 0.112 178 178 178
0.0941726888 0.065 0.254695488 178 178 178
0.0989380126 0.11 0.101207933 178 178 178
0.103122533 0.11 0.0777859767 178 178 178
0.117098649 -0.0306796145 0.224 178 178 178
-0.055 0.0461631957 0.113007357 178 178 178
-0.0328543696 -0.0848994191 0.112 178 178 178
0.0960940201 -0.0385906095 0.112 178 178 178
0.0463335971 0.08 0.170271728 178 178 178
0.0937034204 0.00084123344 0.112 178 178 178
0.129808979 -0.0588172671 0.28 178 178 178
0.036742934 0.103487372 0 178 178 178
-0.0878005395 0.0626445466 0.112 178 178 178
0.109223171 0.11 0.107530264 178 178 178
0.0880545489 -0.065 0.269455645 178 178 178
0.125 0.115738504 0.0333620377 178 178 178
0.131523444 -0.0547759469 0.224 178 178 178
-0.033932731 -0.095 0.123650395 178 178 178
0.0676029779 0.095 0.140971414 178 178 178
0.0634762547 -0.0182941827 0.168 178 178 178
0.145 0.000285258124 0.235607052 178 178 178
0.00252858802 -0.0454086375 0.056 178 178 178
0.115611557 0.0181415656 0.112 178 178 178
-0.10559975 -0.0854703401 0.056 178 178 178
-0.018387547 -0.0350603335 0 178 178 178
0.0775533851 -0.125 0.048827474 178 178 178
0.0549107207 -0.00356748777 0.224 178 178 178
-0.0145477313 -0.08 0.196463931 178 178 178
0.120900345 -0.0861866916 0.056 178 178 178
0.0367143397 0.0709269125 0.112 178 178 178
0.0528364267 -0.11 0.0935101828 178 178 178
-0.038368427 -0.024879498 0.112 178 178 178
-0.0187260418 0.00355243063 0.168 178 178 178
0.127918087 0.0752955123 0.056 178 178 178
0.130625339 -0.065 0.24652312 178 178 178
-0.048511305 -0.0518438557 0.112 178 178 178
0.104740486 -0.0766209467 0.168 178 178 178
0.0615105424 -0.0460861466 0.168 178 178 178
0.0759546285 0.0871179776 0.056 178 178 178
-0.043244444 0.0108873884 0 178 178 178
-0.0106275407 -0.0606907238 0.112 178 178 178
0.00245700528 -0.0656227352 0.168 178 178 178
0.0152326599 0.00700318828 0.224 178 178 178
-0.055 -0.0296770999 0.163942652 178 178 178
0.111012559 -0.0143668484 0.056 178 178 178
0.0426800502 0.0424505063 0.224 178 178 178
0.118368676 -0.055894505 0.224 178 178 178
0.0694132088 0.08 0.1786863 178 178 178
-0.000943832134 0.11 0.0588528716 178 178 178
0.0419826435 0.0582762829 0.224 178 178 178
0.123279098 0.0877895294 0 178 178 178
0.0414059174 -0.121757575 0 178 178 178
0.0952235553 -0.121600125 0 178 178 178
0.125 0.116537618 0.0197688201 178 178 178
0.125 0.124625001 0.0372990164 178 178 178
-0.00631442077 0.0109586727 0.056 178 178 178
0.0986618039 -0.0348009149 0.112 178 178 178
0.0311208626 -0.0088641097 0 178 178 178
0.0426929506 0.0345743716 0.112 178 178 178
-0.0180425576 0.0449114864 0.056 178 178 178
0.0353063729 -0.095 0.141553748 178 178 178
-0.0904809772 -0.0952412538 0 178 178 178
0.102613928 -0.0394178139 0.056 178 178 178
0.0672526648 0.0434520685 0.28 178 178 178
-0.09 0.00200518124 0.107343086 178 178 178
0.00158366236 -0.0173534751 0.224 178 178 178
-0.0102327968 -0.00249594821 0.168 178 178 178
-0.0498001115 0.0516979646 0.112 178 178 178
0.0878701329 0.116948696 0.056 178 178 178
0.0755031184 -0.0539515974 0.112 178 178 178
-0.0129655793 -0.0483768675 0 178 178 178
0.103385885 -0.0736386538 0.224 178 178 178
0.142207813 -0.065 0.258953917 178 178 178
0.14 0.0464868626 0.22017552 178 178 178
0.112033315 0.064000116 0 178 178 178
0.0509583888 0.0149943957 0.056 178 178 178
0.0226723763 -0.100494564 0.056 178 178 178
0.108262621 -0.107028292 0.056 178 178 178
0.113671115 -0.0918012498 0.168 178 178 178
0.127632168 0.0320011017 0.224 178 178 178
0.047605892 -0.0228861705 0.056 178 178 178
0.14 0.0055899759 0.195257286 178 178 178
0.058432575 -0.0488100686 0.224 178 178 178
0.1082676 -0.0570129762 0.056 178 178 178
0.133418417 0.0343891025 0.168 178 178 178
-0.02 -0.00307312006 0.201932685 178 178 178
-0.0563981233 0.108792297 0.056 178 178 178
0.0623383079 -0.0813952332 0.112 178 178 178
0.0721593825 -0.071725934 0.168 178 178 178
0.0843273708 0.0480034351 0.112 178 178 178
-0.0348093412 -0.00739336712 0 178 178 178
-0.0317231782 0.00325948067 0.168 178 178 178
0.0431127213 -0.0729386503 0.168 178 178 178
0.0160725201 0.00159538566 0.224 178 178 178
0.0948796443 -0.0613645123 0.224 178 178 178
-0.0202555479 -0.0634174739 0.056 178 178 178
-0.0328442612 0.095 0.119771959 178 178 178
0.0874145041 0.08 0.19141297 178 178 178
-0.02 -0.026609365 0.172475084 178 178 178
-0.069696759 0.075284549 0.056 178 178 178
-0.0321211397 -0.0919853684 0 178 178 178
0.021378186 0.0265394201 0.168 178 178 178
-0.0156407256 -0.125 0.0420247013 178 178 178
0.0859472813 0.0146232421 0.112 178 178 178
0.114308303 0.0578155355 0.28 178 178 178
0.0454764864 0.0849215827 0.056 178 178 178
0.125 -0.0380698373 0.0171166976 178 178 178
0.0588697667 0.0908183765 0.112 178 178 178
0.0418114084 0.0458813254 0.168 178 178 178
0.023869737 0.0808766811 0 178 178 178
-0.00701772506 -0.022006526 0.056 178 178 178
0.046752139 0.042779754 0.056 178 178 178
-0.0155395973 0.063955845 0.168 178 178 178
0.0190806705 0.0628803304 0.224 178 178 178
0.0665362329 0.0874873963 0.056 178 178 178
0.00733113769 -0.00748581257 0.056 178 178 178
-0.09 0.075795639 0.107102132 178 178 178
-0.0590438701 -0.125 0.0422207036 178 178 178
0.125 0.0794333346 0.0415680744 178 178 178
0.113015103 -0.0680621643 0.056 178 178 178
-0.0286312682 0.0300880152 0.112 178 178 178
-0.0885777399 0.114744332 0 178 178 178
0.130200295 0.0509055456 0.168 178 178 178
0.1157618 -0.0258326285 0.112 178 178 178
-0.125 -0.0290984831 0.0301716211 178 178 178
0.00778286527 0.0566945817 0 178 178 178
0.0465720649 -0.0350766911 0.168 178 178 178
0.0928551886 0.00411609414 0.056 178 178 178
0.110973341 -0.0236077944 0.056 178 178 178
-0.0247364671 -0.0986127398 0.056 178 178 178
-0.0513871324 0.0907468389 0 178 178 178
0.123311968 0.0280893284 0.224 178 178 178
0.120907729 0.125 0.0107019178 178 178 178
0.120663828 -0.0474545285 0.056 178 178 178
-0.0162242817 0.0307528559 0.224 178 178 178
0.0435767176 -0.0477944104 0.168 178 178 178
-0.0982998455 -0.0815643082 0.056 178 178 178
-0.0405976588 0.0845283259 0.112 178 178 178
-0.02 0.0748396838 0.200547166 178 178 178
-0.00547633988 0.0476486814 0.056 178 178 178
0.120939025 0.095 0.136712389 178 178 178
0.0318839787 0.0697751858 0 178 178 178
0.0152494454 0.095 0.133836041 178 178 178
-0.0121064357 0.0636974946 0.168 178 178 178
0.0270229429 0.0506065543 0.224 178 178 178
0.0594815076 0.0664138058 0.168 178 178 178
-0.020812728 0.000253020739 0.056 178 178 178
-0.0874288647 -0.0618277992 0 178 178 178
0.101085576 0.11 0.108531442 178 178 178
0.134766423 -0.0514312035 0.168 178 178 178
0.0295485057 0.0755464698 0.056 178 178 178
0.0219701653 0.125 0.0537646782 178 178 178
-0.09 0.0572538521 0.103063144 178 178 178
0.104535314 0.0429238724 0.168 178 178 178
0.099154339 0.00890079037 0.224 178 178 178
0.024082778 -0.0153237393 0.056 178 178 178
-0.0490295547 0.0499406301 0.056 178 178 178
0.0554613471 -0.0473200674 0.224 178 178 178
-0.0343547914 0.0292544988 0.168 178 178 178
-0.000373036183 0.095 0.13485165 178 178 178
0.015 0.0420329105 0.231083473 178 178 178
0.0810879594 0.0165586113 0.28 178 178 178
0.0653350599 -0.08 0.195043308 178 178 178
-0.0189074057 0.0474149829 0.168 178 178 178
0.108217403 0.0415258978 0.112 178 178 178
0.0939339838 0.00461417161 0.168 178 178 178
-0.10959729 0.0787071575 0.056 178 178 178
0.105363022 0.0344378834 0.168 178 178 178
0.0609925443 -0.0129293922 0.168 178 178 178
0.0184483478 0.095 0.144029096 178 178 178
0.0167636759 0.0921367019 0.112 178 178 178
0.0404052843 0.103980287 0.056 178 178 178
0.003649103 -0.0731085981 0.112 178 178 178
-0.099290267 -0.116363884 0 178 178 178
0.136886562 -0.08 0.170401612 178 178 178
-0.09 -0.0939731776 0.0966018535 178 178 178
-0.0591669141 0.0614862815 0.056 178 178 178
-0.09 -0.0888436937 0.093067314 178 178 178
-0.0114676979 0.095 0.127132478 178 178 178
0.029744005 0.0992675643 0.056 178 178 178
0.0215062842 -0.00107189676 0.224 178 178 178
0.0564100323 0.0216361427 0.224 178 178 178
-0.0226178623 0.0701553863 0.056 178 178 178
-0.00890985004 -0.0168038531 0.056 178 178 178
0.115275092 -0.071958467 0.168 178 178 178
0.015 0.000349787461 0.25268457 178 178 178
0.0856569838 0.0323485148 0.056 178 178 178
0.0742096952 0.095 0.162219733 178 178 178
0.00498093898 0.0242062173 0.224 178 178 178
0.0608362791 0.0643556405 0.224 178 178 178
0.0736466682 -0.121803717 0.056 178 178 178
0.00488246644 0.0924543971 0 178 178 178
0.015 0.0590051368 0.232036555 178 178 178
-0.0410313949 -0.0703779292 0.056 178 178 178
-0.1192846 0.0858741875 0.056 178 178 178
0.129516851 -0.078420638 0.112 178 178 178
-0.0816216834 0.0643739621 0.112 178 178 178
0.132868567 -0.030484108 0.168 178 178 178
-0.0651353778 -0.0641850061 0.056 178 178 178
0.120416261 0.0577553606 0.224 178 178 178
0.0035323172 -0.125 0.0524524375 178 178 178
0.0805960848 0.0468819053 0.168 178 178 178
0.0328093501 0.0388355002 0 178 178 178
0.0646072255 -0.11 0.10301826 178 178 178
-0.0015300743 -0.109288341 0 178 178 178
0.089761154 -0.085708505 0.056 178 178 178
0.0933088726 0.0398021858 0.056 178 178 178
-0.00460829515 0.095 0.143118292 178 178 178
-0.067683267 0.00219456642 0.112 178 178 178
-0.124348078 -0.113524688 0 178 178 178
0.015 0.00747911464 0.243963011 178 178 178
-0.02 -0.0660980961 0.176608425 178 178 178
0.0565215541 -0.00510478054 0.224 178 178 178
0.125 -0.0864449248 0.015267672 178 178 178
0.0192571239 -0.0347224567 0.112 178 178 178
0.0551341161 -0.125 0.0266627504 178 178 178
0.0664212901 -0.112037743 0.056 178 178 178
0.109140339 0.0875402379 0 178 178 178
0.13 0.0933966739 0.0987218803 178 178 178
0.121061476 -0.0571929443 0.056 178 178 178
-0.092191126 0.110088842 0.056 178 178 178
0.14 0.0273619792 0.194328445 178 178 178
-0.00713298535 -0.11 0.0755995368 178 178 178
0.0333497224 0.119410055 0.056 178 178 178
0.011019258 -0.00412472597 0.168 178 178 178
-0.0221641519 0.125 0.044169756 178 178 178
0.0168620813 0.11 0.0624976114 178 178 178
-0.125 0.035800996 0.0506118861 178 178 178
0.112532587 0.11 0.0810923796 178 178 178
0.0682490248 0.0277182585 0.168 178 178 178
-0.09 0.0646034779 0.0822484084 178 178 178
0.114086698 -0.0963854059 0.112 178 178 178
0.105925476 -0.010583917 0.224 178 178 178
0.0129212101 0.08 0.185087159 178 178 178
0.00352712884 0.0152001475 0.056 178 178 178
-0.0199726968 -0.110561452 0.056 178 178 178
0.106481299 -0.0647658981 0.056 178 178 178
0.0776666384 0.065 0.272967194 178 178 178
0.0408267955 0.0464097259 0.28 178 178 178
0.124642097 -0.125 0.0140530154 178 178 178
0.145 0.0322424815 0.248395048 178 178 178
-0.050388868 -0.0193600469 0.056 178 178 178
0.13 0.0617608036 0.0899539177 178 178 178
0.13 0.000926770019 0.0860160415 178 178 178
0.0928318286 0.0281056929 0.224 178 178 178
0.0444334906 0.00898144387 0 178 178 178
0.0751506348 0.0370424708 0.056 178 178 178
0.0996504667 0.0873778554 0.112 178 178 178
-0.0946308046 0.100027886 0 178 178 178
0.125 -0.0212054728 0.0360819762 178 178 178
0.0300434091 0.088894198 0.112 178 178 178
-0.02 0.0422967104 0.219948023 178 178 178
0.120761561 -0.0337771673 0.168 178 178 178
0.00793180542 0.0388088713 0.224 178 178 178
0.13173411 -0.0130261101 0.168 178 178 178
0.135 0.0382658573 0.125830682 178 178 178
0.14 -0.0420473804 0.186228439 178 178 178
0.0149485654 -0.095 0.141212731 178 178 178
-0.055 0.0415673997 0.157408817 178 178 178
-0.125 -0.0289331032 0.0228905233 178 178 178
-0.000888369535 0.0375614148 0.056 178 178 178
0.0814719047 0.018819938 0.168 178 178 178
-0.100720484 -0.0154450483 0.056 178 178 178
0.0383456968 -0.0252420905 0.224 178 178 178
-0.0245310548 -0.052907032 0.112 178 178 178
0.0904144174 0.0658368925 0.056 178 178 178
0.0162169217 0.00900985847 0.28 178 178 178
0.0439780825 -0.106814392 0.056 178 178 178
-0.0332798743 0.11 0.110155021 178 178 178
0.00722921629 0.0729054701 0 178 178 178
0.145 0.0146453178 0.274420344 178 178 178
0.110891763 -0.0336781213 0.112 178 178 178
0.136252941 -0.0232549031 0.224 178 178 178
0.0603758067 0.125 0.00831849997 178 178 178
0.0791666799 -0.07157307 0.224 178 178 178
0.135 0.0901512653 0.141598617 178 178 178
0.0744837535 -0.0706972869 0.168 178 178 178
0.0879327422 0.0615615328 0.28 178 178 178
-0.0547703926 -0.0154098806 0.112 178 178 178
-0.0360010035 -0.108203786 0.112 178 178 178
0.124795255 -0.095 0.154638372 178 178 178
0.0731841306 -0.08 0.203912251 178 178 178
0.0668455201 0.0439119786 0.056 178 178 178
0.101100855 0.0888465486 0.168 178 178 178
-0.0535167784 -0.00789178052 0.056 178 178 178
-0.09 -0.10647341 0.0768045659 178 178 178
-0.0127890714 0.0207555489 0.168 178 178 178
-0.0545061113 -0.000647101205 0 178 178 178
0.0431483706 0.095 0.116754741 178 178 178
0.0550084755 0.0144390839 0 178 178 178
0.103835387 -0.065 0.229407778 178 178 178
0.00126656041 0.0970923983 0.112 178 178 178
-0.0404134893 -0.0927705881 0.112 178 178 178
0.0951562157 0.095 0.122659904 178 178 178
0.0440070777 0.11 0.0763111854 178 178 178
-0.055 0.079108855 0.155581687 178 178 178
-0.0665203858 0.0959842481 0 178 178 178
0.0766144147 -0.0482613891 0.112 178 178 178
0.0938508515 0.0402109048 0.112 178 178 178
0.119207252 0.0309521246 0.28 178 178 178
-0.0902733773 -0.119012996 0 178 178 178
0.001304306 -0.00082225364 0.112 178 178 178
0.134786899 0.0153700669 0.168 178 178 178
-0.09 -0.0165311168 0.0811106536 178 178 178
-0.0717260013 0.118236898 0 178 178 178
0.0470563863 0.0383085444 0.112 178 178 178
-0.0101910892 -0.125 0.0264184961 178 178 178
-0.121622159 -0.112713756 0.056 178 178 178
-0.02 0.0159290482 0.194119692 178 178 178
-0.0570155644 0.0167531041 0.056 178 178 178
0.0463827779 0.0358157663 0.112 178 178 178
0.0869934292 -0.048302001 0.168 178 178 178
0.135 0.0456955519 0.115105342 178 178 178
0.0758310614 -0.0553930623 0.112 178 178 178
0.00900540636 -0.0639939819 0.224 178 178 178
-0.0180932378 0.00367151437 0.112 178 178 178
0.131356879 -0.0119780337 0.168 178 178 178
-0.00222826245 -0.0535080816 0.224 178 178 178
0.0582975146 -0.095 0.159979236 178 178 178
0.0761375255 0.00101779222 0.168 178 178 178
0.0949731351 0.0733538505 0.112 178 178 178
0.0545595783 -0.0157349798 0.112 178 178 178
0.0438457233 -0.0564975527 0.112 178 178 178
-0.055 -0.0415860686 0.129576619 178 178 178
0.0158135246 0.0998272302 0.056 178 178 178
0.0270473516 0.016071392 0.112 178 178 178
0.0268840481 -0.0660749601 0.168 178 178 178
0.13 -0.0669695238 0.0569636976 178 178 178
0.116562086 -0.0753118055 0.056 178 178 178
0.0422411573 0.00961938152 0.224 178 178 178
-0.085551472 -0.033940505 0.056 178 178 178
0.103565439 -0.08 0.204578542 178 178 178
0.0138054764 0.0670691038 0.168 178 178 178
-0.0434863441 0.060346972 0.112 178 178 178
0.130631295 0.095 0.133812102 178 178 178
0.0342428466 -0.0563327563 0 178 178 178
0.023569725 -0.0758125464 0.112 178 178 178
0.14 -0.0594028189 0.173165643 178 178 178
0.131711649 0.0824248521 0.112 178 178 178
0.0737545258 -0.0947078977 0.112 178 178 178
-0.0363253646 -0.0252614886 0.168 178 178 178
0.00605640462 -0.095 0.164678877 178 178 178
0.0636399727 0.0935820492 0.112 178 178 178
0.108732681 0.0291761593 0.112 178 178 178
-0.122309532 0.000908178365 0.056 178 178 178
-0.125 0.102088058 0.0244446811 178 178 178
-0.125 0.0776007875 0.0405801944 178 178 178
0.0230127882 0.0580513492 0.112 178 178 178
0.015 -0.056839995 0.256681674 178 178 178
-0.0299325864 0.106366722 0.056 178 178 178
0.00288307928 0.0999112437 0.112 178 178 178
-0.00516811936 0.0186726008 0.056 178 178 178
0.0903964751 -0.0718853786 0.112 178 178 178
0.0254469225 -0.0192487895 0.28 178 178 178
-0.02 -0.0352529357 0.171973503 178 178 178
-0.0581121052 -0.0514742096 0.056 178 178 178
0.0988513042 0.125 0.0186822586 178 178 178
-0.02 0.0678006589 0.187555361 178 178 178
0.13 -0.00411729103 0.0867455995 178 178 178
0.0507328443 -0.095 0.121218325 178 178 178
-0.0608657966 0.0849167026 0 178 178 178
0.104501689 0.08 0.183441559 178 178 178
-0.016655776 -0.0923016637 0.056 178 178 178
0.13 0.0202910287 0.101367625 178 178 178
-0.110353012 0.0800592832 0.056 178 178 178
0.0954323241 -0.0478619585 0.112 178 178 178
0.0237504705 0.0557776261 0.224 178 178 178
0.0662192925 0.0502722495 0.224 178 178 178
-0.0529384695 -0.11 0.0976285183 178 178 178
0.117763823 -0.0312999906 0.168 178 178 178
-0.0478979346 -0.0471832242 0.112 178 178 178
-0.0838743432 -0.00874950222 0.056 178 178 178
-0.09 -0.0794369053 0.0877914061 178 178 178
-0.106445839 -0.0152980943 0.056 178 178 178
0.0702760604 -0.0900293479 0.056 178 178 178
0.135 0.00193750694 0.121389831 178 178 178
-0.00889662059 0.0250744522 0.168 178 178 178
0.0994594338 0.10333335 0 178 178 178
-0.055 0.0417350424 0.157516668 178 178 178
-0.00196446491 0.0267559268 0.224 178 178 178
0.0198396932 0.00506016837 0.112 178 178 178
0.0696336723 0.0993070465 0 178 178 178
-0.0444341813 -0.095 0.157391879 178 178 178
0.125 0.00235585282 0.037144038 178 178 178
0.122146076 -0.094817089 0.168 178 178 178
-0.0485899286 0.0730712644 0.056 178 178 178
0.133145787 0.0715831375 0.168 178 178 178
0.125 0.0787747487 0.0270281586 178 178 178
0.0185288817 -0.11 0.109123354 178 178 178
-0.033217055 0.11 0.0602071181 178 178 178
0.105096985 -0.0555101296 0.168 178 178 178
-0.111227095 0.10446018 0.056 178 178 178
0.0540989193 -0.065 0.233212243 178 178 178
-0.125 -0.00905103061 0.0385637683 178 178 178
0.0812050469 -0.0170081777 0.056 178 178 178
0.125 -0.0649044941 0.00448579228 178 178 178
-0.117761312 0.0970957092 0 178 178 178
0.0960978988 -0.106025999 0.112 178 178 178
0.00525166344 0.0748148478 0.168 178 178 178
0.135 0.0208901816 0.126621791 178 178 178
-0.0723307035 0.0462374687 0.056 178 178 178
0.113732918 0.0756099068 0.056 178 178 178
0.0511245994 -0.0863638985 0.056 178 178 178
0.0325407608 0.0661485758 0.168 178 178 178
0.0528152288 -0.11 0.0642553543 178 178 178
0.0905520487 -0.0543240842 0.28 178 178 178
0.036444881 0.00504436995 0.168 178 178 178
0.0327902699 -0.0324811523 0.168 178 178 178
0.0850934404 -0.0448490098 0.168 178 178 178
0.0443154815 -0.067379462 0.168 178 178 178
0.110186146 -0.00111413386 0.056 178 178 178
0.125 0.1217831 0.00295000382 178 178 178
-0.0379732654 -0.0413263082 0.112 178 178 178
-0.0384902764 -0.11 0.0633843456 178 178 178
-0.109715923 -0.112146718 0.056 178 178 178
0.0890062455 0.102395531 0.112 178 178 178
-0.00338278448 -0.0896433057 0.168 178 178 178
0.0811825596 -0.0771797744 0.056 178 178 178
0.0128034406 -0.0274549441 0.056 178 178 178
-0.0815635787 -0.0136950291 0.056 178 178 178
-0.125 0.0525907958 0.0277940502 178 178 178
0.12295962 -0.065 0.227819107 178 178 178
-0.0914763299 -0.116860423 0 178 178 178
-0.0274211285 0.107488894 0.056 178 178 178
-0.113664881 0.0633815463 0.056 178 178 178
-0.0896679326 -0.11 0.0831812422 178 178 178
-0.0108896934 -0.0972294711 0 178 178 178
0.0540153943 0.0680141966 0.112 178 178 178
0.00894079016 0.0733259203 0.056 178 178 178
0.0577756464 0.125 0.0315849798 178 178 178
0.0724710837 -0.0254046544 0.224 178 178 178
-0.0799140623 0.0451912238 0.056 178 178 178
0.126295453 -0.0525899845 0.168 178 178 178
0.0714128215 -0.0273122976 0.112 178 178 178
0.111641742 0.077521573 0.112 178 178 178
0.0603325074 0.0480851399 0.224 178 178 178
0.0611513015 0.0624354828 0.056 178 178 178
0.105968415 0.0193449125 0.28 178 178 178
-0.02 -0.0520003521 0.168134555 178 178 178
-0.041745638 0.0382072085 0.168 178 178 178
0.0880105711 -0.0594546326 0 178 178 178
0.0241635862 -0.0139291526 0.168 178 178 178
-0.0519917793 0.0128682757 0.112 178 178 178
0.101905352 0.0695104309 0.168 178 178 178
-0.01178936 -0.125 0.0352055346 178 178 178
0.0881286677 -0.065 0.275418629 178 178 178
-0.02 -0.0749569878 0.200647643 178 178 178
0.0651427891 -0.0838670166 0.056 178 178 178
-0.0197845052 -0.0654400079 0.056 178 178 178
0.0925046026 -0.0760371935 0 178 178 178
0.0439975667 0.0505606844 0.224 178 178 178
0.0353640061 0.00510219897 0.224 178 178 178
0.015 -0.0100598217 0.276022121 178 178 178
0.00533176567 0.0370085012 0.112 178 178 178
-0.0215434899 -0.0496379037 0.168 178 178 178
-0.0483243753 -0.095 0.126600456 178 178 178
0.035790017 -0.091102941 0.112 178 178 178
0.0183339602 -0.065 0.267731403 178 178 178
0.0100935977 0.0765458562 0.112 178 178 178
-0.020764238 -0.0799201751 0.056 178 178 178
0.102536209 0.11 0.0643640736 178 178 178
0.0722471211 0.0666269275 0 178 178 178
0.0134201507 0.095 0.143820774 178 178 178
0.135 -0.0471614897 0.149214899 178 178 178
0.109303894 0.00569511957 0.112 178 178 178
0.14 0.0038192241 0.221684596 178 178 178
0.137357369 0.0631155498 0.168 178 178 178
0.104193776 0.00651199033 0.056 178 178 178
-0.115069844 -0.110715576 0 178 178 178
-0.028012191 -0.0923141301 0.056 178 178 178
-0.0619542413 0.0665846987 0.056 178 178 178
-0.125 -0.119346737 0.0243447035 178 178 178
-0.08380628 -0.0472145185 0.112 178 178 178
0.108286684 -0.0243257754 0.28 178 178 178
-0.0324157691 0.125 0.0183863178 178 178 178
0.0979184149 -0.0114802148 0.224 178 178 178
0.000796558769 -0.095 0.141020616 178 178 178
0.14 -0.032315373 0.197139171 178 178 178
0.0174096205 -0.0817794829 0.112 178 178 178
-0.0447032507 -0.114284465 0 178 178 178
0.00958450414 0.0390974214 0.168 178 178 178
0.125 -0.0208610805 0.0373964129 178 178 178
0.0860887187 -0.0592688088 0.056 178 178 178
0.107993619 -0.00314912657 0.224 178 178 178
0.130461616 -0.095 0.162007008 178 178 178
0.00933649601 -0.125 0.0326350513 178 178 178
-0.0692074925 0.125 0.0526069578 178 178 178
0.0937100822 0.0156386463 0.28 178 178 178
0.0314548402 0.125 0.0455183008 178 178 178
0.135 0.0754691271 0.117789848 178 178 178
0.0324761196 -0.104767421 0.056 178 178 178
0.0387698571 0.0268720652 0.224 178 178 178
0.0736284776 -0.105239342 0.056 178 178 178
0.0703471504 0.11 0.0746389274 178 178 178
0.0573048336 -0.106281405 0 178 178 178
-0.09 0.0422123871 0.0709464434 178 178 178
0.0558727371 -0.08 0.183737097 178 178 178
-0.0328222092 0.0723350748 0 178 178 178
-0.121495965 0.125 0.0191793844 178 178 178
0.139948948 0.0102665846 0.168 178 178 178
-0.0429762873 0.00200917442 0.112 178 178 178
-0.00584660673 -0.0426170974 0.056 178 178 178
0.0818249796 0.0278015029 0.168 178 178 178
-0.0404188217 0.0361593076 0.112 178 178 178
0.14 0.0185572023 0.171867218 178 178 178
-0.125 -0.0404918087 0.0490909711 178 178 178
0.114788883 -0.0778805873 0.168 178 178 178
0.0874146315 -0.0418444873 0.168 178 178 178
-0.055 -0.0547820958 0.15056959 178 178 178
-0.00665930093 0.0578146239 0.056 178 178 178
-0.0213175279 0.095 0.112269382 178 178 178
0.135 -0.0812346048 0.165940728 178 178 178
-0.0522335918 0.104053139 0.056 178 178 178
0.122423657 -0.00532190386 0 178 178 178
0.13553738 -0.065 0.225101198 178 178 178
0.0821446839 0.095 0.13012376 178 178 178
-0.114097406 0.0430165483 0.056 178 178 178
-0.055 -0.0130593604 0.161507978 178 178 178
-0.0106312387 0.125 0.00424438485 178 178 178
-0.0421482688 0.061363385 0.112 178 178 178
0.14 -0.0423945516 0.171885958 178 178 178
-0.0647540633 -0.0107233065 0.112 178 178 178
-0.125 0.0925340784 0.035427268 178 178 178
-0.125 0.0587649368 0.00990768901 178 178 178
-0.00987448405 0.0378510576 0 178 178 178
-0.00958291526 -0.125 0.0268631538 178 178 178
-0.107079547 0.125 0.0397689348 178 178 178
-0.0650712722 0.0161585901 0.056 178 178 178
-0.0456846093 0.029257484 0 178 178 178
0.0461777955 0.0870233971 0.112 178 178 178
0.0564115124 -0.125 0.0418941366 178 178 178
-0.055 0.05247775 0.116838554 178 178 178
0.0756387445 -0.056547644 0.28 178 178 178
-0.0703957172 0.125 0.0380162811 178 178 178
0.0298354954 -0.0388904628 0.112 178 178 178
0.13 -0.000371888113 0.0790937752 178 178 178
-0.0996036183 0.0723155068 0 178 178 178
0.0508168724 -0.0538916342 0.056 178 178 178
-0.02 0.0686956433 0.197049973 178 178 178
0.049855969 -0.11 0.0978766086 178 178 178
0.107373254 -0.0194972448 0.224 178 178 178
-0.0994825818 -0.0753937614 0 178 178 178
0.0363568905 0.0044277265 0.112 178 178 178
0.0595053192 0.08 0.199064128 178 178 178
0.0629255637 0.08 0.220494464 178 178 178
-0.0683631883 -0.0760332761 0 178 178 178
0.000380188922 0.11 0.0865113075 178 178 178
-0.0589171472 -0.0129627115 0.056 178 178 178
0.113400137 -0.0299119208 0.168 178 178 178
-0.02065305 0.100171352 0 178 178 178
0.0875944466 0.125 0.0134209962 178 178 178
0.102762974 0.0686624689 0.224 178 178 178
0.0794498645 -0.11 0.102717577 178 178 178
-0.0729137552 -0.00752182647 0.112 178 178 178
0.145 0.0419398346 0.277591525 178 178 178
0.0290934435 -0.096088615 0.056 178 178 178
0.0969888942 -0.122600402 0 178 178 178
-0.0297667422 -0.0679108562 0.112 178 178 178
0.0438284942 -0.00423348137 0.056 178 178 178
-0.0843063571 0.0527911831 0 178 178 178
0.124907593 0.00581157082 0.112 178 178 178
0.0611545987 -0.065 0.275218594 178 178 178
0.0854438373 0.0160428025 0.112 178 178 178
-0.0146360824 -0.051867034 0.168 178 178 178
0.0542598791 -0.0174867079 0.056 178 178 178
0.0613961514 -0.0189870861 0.112 178 178 178
0.139639146 0.0575552273 0.168 178 178 178
0.0558672681 0.0617608136 0.112 178 178 178
0.0818304218 -0.0795802924 0.224 178 178 178
-0.09 -0.0228800176 0.0838640163 178 178 178
-0.11507942 0.0940290143 0.056 178 178 178
0.00380178491 -0.0465977588 0.112 178 178 178
0.13 -0.075324352 0.106617861 178 178 178
-0.0563012836 0.0797712959 0.056 178 178 178
0.0703565389 -0.0339623156 0.168 178 178 178
-0.00501022724 0.0548497747 0.224 178 178 178
0.032681336 -0.0341405394 0.056 178 178 178
-0.09 0.0267559957 0.0696911135 178 178 178
-0.055 0.0844832497 0.148159695 178 178 178
-0.040138679 -0.090204291 0.112 178 178 178
0.0917183797 0.125 0.0165285274 178 178 178
0.0324879173 0.0357685827 0.056 178 178 178
-0.09 -0.047474618 0.106866822 178 178 178
0.0307469751 -0.095 0.12690953 178 178 178
0.079459974 -0.091538164 0.112 178 178 178
0.122354558 -0.0951663286 0.056 178 178 178
0.0395536213 0.0655429796 0.224 178 178 178
0.138460648 0.0471164876 0.28 178 178 178
0.0210558585 0.0803910944 0 178 178 178
0.125 0.0668775662 0.0320189249 178 178 178
-0.116623281 0.0656967703 0.056 178 178 178
0.14 -0.038946269 0.211422066 178 178 178
0.0886934967 0.0236457651 0.224 178 178 178
0.0251303028 -0.0929321787 0 178 178 178
0.0174827485 -0.0375302113 0.056 178 178 178
-0.114883485 -0.0611125923 0.056 178 178 178
-0.0871295421 -0.11 0.0900235446 178 178 178
0.108701091 0.0490671337 0.224 178 178 178
0.00594402548 0.0608571798 0 178 178 178
-0.108292456 -0.0237614785 0.056 178 178 178
0.108513033 -0.11 0.0763505848 178 178 178
0.0852023209 0.11 0.0573730271 178 178 178
-0.055 -0.0883403808 0.121154194 178 178 178
-0.00643153073 0.0676157943 0.112 178 178 178
0.061432105 -0.0850218952 0.056 178 178 178
-0.0603925622 0.031316122 0.056 178 178 178
0.0269194157 0.065 0.242581291 178 178 178
-0.00682325341 -0.0694233269 0.168 178 178 178
-0.0934629248 -0.105404013 0.056 178 178 178
0.0954125551 -0.0509057094 0.224 178 178 178
0.0299090241 -0.0473232327 0.056 178 178 178
0.00649778431 0.0213889842 0.168 178 178 178
0.058132191 0.0103608141 0 178 178 178
0.106524617 0.08 0.178943348 178 178 178
0.0816424087 0.122873576 0.056 178 178 178
-0.0834634223 0.0711016942 0.112 178 178 178
-0.0294627291 -0.0352501535 0.168 178 178 178
0.13 0.0790733552 0.07568315 178 178 178
0.0252770832 0.0575001283 0.056 178 178 178
0.0822056207 0.0702814965 0.056 178 178 178
-0.125 -0.0191991089 0.0480983932 178 178 178
0.123918385 -0.0391267154 0 178 178 178
-0.121474763 -0.125 0.0192692235 178 178 178
0.124526659 0.0415973278 0.056 178 178 178
0.00731878861 0.0419208151 0.112 178 178 178
0.000447335147 -0.0113814812 0.056 178 178 178
-0.0373795613 0.0211347971 0.112 178 178 178
-0.0258970028 0.125 0.0323484645 178 178 178
0.111557619 -0.0684397669 0 178 178 178
0.0692972036 -0.0574928383 0.056 178 178 178
0.0213273363 -0.0773460887 0.168 178 178 178
0.125 0.0863757605 0.00352765096 178 178 178
0.0652168917 -0.104772442 0.112 178 178 178
0.124408657 0.0506808867 0.168 178 178 178
-0.0425809766 -0.0720100822 0.112 178 178 178
-0.02 -0.0688089701 0.176689183 178 178 178
0.0963491359 0.057838771 0.224 178 178 178
-0.0700364369 -0.104235075 0.056 178 178 178
-0.055 0.00446365612 0.150673285 178 178 178
0.125 -0.0378303516 0.017859326 178 178 178
0.0569031156 0.0559171423 0.056 178 178 178
-0.0288362211 -0.0442964388 0.112 178 178 178
0.0606125715 0.0839478015 0.112 178 178 178
0.0707095842 -0.053576876 0.28 178 178 178
0.079358142 -0.00765369072 0.056 178 178 178
0.120757017 0.095 0.15727257 178 178 178
-0.0308707906 -0.11 0.0877188656 178 178 178
-0.0092227518 -0.0290141344 0.056 178 178 178
0.145 0.0593686564 0.273242857 178 178 178
0.135 -0.0942814535 0.123171482 178 178 178
0.00102601022 -0.0494867866 0.056 178 178 178
0.0893065967 -0.0457864846 0.224 178 178 178
0.00187429523 0.0660775607 0 178 178 178
-0.119181112 0.0269027331 0 178 178 178
-0.0165834717 -0.0491245322 0.056 178 178 178
0.0843036044 0.0331767278 0.28 178 178 178
0.0877329606 -0.0730824821 0 178 178 178
0.0422965766 0.0441367494 0.224 178 178 178
-0.0148340025 0.0379442131 0.112 178 178 178
-0.0596297042 0.0134864679 0 178 178 178
-0.0357498354 -0.0904013949 0.112 178 178 178
-0.0566258817 0.0505847491 0.112 178 178 178
0.0956332741 -0.031812565 0.112 178 178 178
-0.055 0.0601000665 0.149199261 178 178 178
0.109644937 -0.095 0.166846128 178 178 178
0.015 0.00653828982 0.237453381 178 178 178
0.100569473 -0.0522982422 0.056 178 178 178
0.101691385 0.0556493568 0.224 178 178 178
0.118632123 -0.0309444488 0.112 178 178 178
0.109110438 0.0738459409 0.168 178 178 178
-0.02 0.0021539905 0.1865445 178 178 178
0.015 -0.0501552888 0.277766097 178 178 178
0.117696878 0.125 0.035560144 178 178 178
-0.0498114162 0.0712938752 0.112 178 178 178
0.0934298124 0.0619013325 0.28 178 178 178
0.100684839 0.0353072911 0.28 178 178 178
-0.0598371069 0.0579694975 0.056 178 178 178
0.04029092 -0.0303956128 0.28 178 178 178
0.0799349418 -0.0593969674 0.112 178 178 178
-0.0223307941 -0.00197224525 0.056 178 178 178
0.0796963564 -0.0738797198 0.168 178 178 178
-0.00402442778 -0.11 0.090423243 178 178 178
-0.0742450355 0.107049 0.112 178 178 178
-0.0545756565 0.0656965961 0.056 178 178 178
-0.0654357387 0.0773187609 0.112 178 178 178
-0.0210874953 -0.0236384206 0.056 178 178 178
-0.12489225 0.0129049992 0 178 178 178
0.129876868 -0.054916611 0.168 178 178 178
0.010883767 -0.0566607512 0.112 178 178 178
-0.0435831744 0.0904927214 0.168 178 178 178
0.0846022043 -0.0779915654 0.224 178 178 178
0.0311143601 -0.125 0.0343888946 178 178 178
0.0543463247 -0.125 0.0125381656 178 178 178
-0.0414436345 0.125 0.00582771468 178 178 178
-0.125 -0.0464883951 0.0270323138 178 178 178
0.0841827146 -0.07917591 0.168 178 178 178
0.0874683899 0.0742966043 0.056 178 178 178
0.0256399906 -0.102953103 0.056 178 178 178
0.0225268925 -0.0759622382 0.168 178 178 178
-0.0379079471 0.0397985904 0.056 178 178 178
-0.0507119767 -0.117311642 0.056 178 178 178
0.135 -0.0146201177 0.149456287 178 178 178
0.0924946349 -0.0131704205 0.168 178 178 178
-0.125 -0.0964071257 0.0395857269 178 178 178
0.00774176135 -0.0462895324 0.168 178 178 178
0.032495519 0.0291192203 0 178 178 178
0.104367975 -0.100732923 0.112 178 178 178
0.0555034708 -0.0466240954 0.112 178 178 178
0.125 0.103612747 0.0104975956 178 178 178
-0.0378135468 0.0764675996 0.056 178 178 178
-0.0269679145 -0.0561909171 0.112 178 178 178
0.0393547884 0.0229345435 0.112 178 178 178
0.0938560677 -0.0700207814 0.056 178 178 178
0.135 0.0428697855 0.113517317 178 178 178
-0.121643336 0.0800730511 0 178 178 178
0.145 0.0643501206 0.259817018 178 178 178
-0.111535069 0.0804347636 0.056 178 178 178
0.125 0.0597378178 0.028173548 178 178 178
-0.108919168 0.104961414 0.056 178 178 178
0.015 -0.0192183583 0.260730642 178 178 178
-0.125 0.117163492 0.00571505286 178 178 178
-0.0398787143 0.00417838982 0.112 178 178 178
0.015 0.0402936552 0.267186376 178 178 178
0.136516789 0.0615914195 0.28 178 178 178
0.0697972454 -0.029718196 0 178 178 178
0.0322913422 0.11 0.0858279181 178 178 178
0.0208743207 0.0943536377 0.112 178 178 178
0.135 0.0251900503 0.120287552 178 178 178
0.0150033202 -0.102348666 0.056 178 178 178
0.0735888386 -0.0956644505 0.056 178 178 178
0.0216405701 -0.0726106746 0 178 178 178
-0.0414969526 -0.0517185803 0 178 178 178
-0.09 -0.0757381376 0.0602874092 178 178 178
-0.0648363912 0.082885293 0 178 178 178
0.0225867395 0.121498808 0.056 178 178 178
-0.00861719618 -0.106002711 0.056 178 178 178
-0.107838289 0.113555608 0 178 178 178
0.0982128352 0.0223021525 0 178 178 178
0.0804005439 -0.0398793723 0.28 178 178 178
0.0382447413 0.04230571 0.112 178 178 178
-0.0780822767 0.0734540455 0.056 178 178 178
0.135 0.0116282039 0.123944661 178 178 178
-0.0430118726 -0.0690115281 0 178 178 178
0.125 0.0479640008 0.0512355972 178 178 178
0.0677574917 -0.065 0.244573087 178 178 178
0.106066793 0.00132442012 0.224 178 178 178
0.0707020623 -0.0827745887 0.168 178 178 178
-0.0367142436 0.112569487 0 178 178 178
0.0744754133 -0.0820563006 0.056 178 178 178
0.037865843 0.0246249281 0 178 178 178
-0.0997695604 -0.125 0.0553467794 178 178 178
0.0234387501 -0.0908039266 0 178 178 178
0.0880858227 -0.0940764708 0.056 178 178 178
0.0369012992 -0.0572072816 0.168 178 178 178
0.0195283143 0.0925457965 0 178 178 178
0.0916869757 -0.0824149353 0.056 178 178 178
0.13330394 0.0115855587 0.224 178 178 178
0.0631692672 -0.0919052668 0.056 178 178 178
0.0136930205 -0.0859329839 0.056 178 178 178
-0.0873519636 0.073743608 0 178 178 178
0.132649088 -0.0511670244 0.224 178 178 178
-0.0471423623 -0.095 0.143170438 178 178 178
-0.09 0.078762625 0.0598044138 178 178 178
0.0267214503 -0.0715491953 0.168 178 178 178
0.0378857454 0.116469116 0 178 178 178
0.123778344 0.125 0.00435825112 178 178 178
-0.0292988196 -0.0509050071 0.112 178 178 178
0.053109032 -0.065 0.24156048 178 178 178
0.0903438743 0.0710996855 0.224 178 178 178
0.0626338465 -0.00246651948 0.168 178 178 178
-0.0245513176 0.11 0.102571364 178 178 178
0.0850409359 0.0152202253 0 178 178 178
-0.02 -0.0254063958 0.194187526 178 178 178
0.0314809779 0.088948405 0 178 178 178
0.0447840292 0.0147259705 0.056 178 178 178
0.135 -0.0383972933 0.153221645 178 178 178
0.0119124579 0.00862529939 0.224 178 178 178
-0.0149628017 -0.0729516122 0.168 178 178 178
0.0580661208 0.0594582893 0.112 178 178 178
-0.0269590457 0.00384849195 0.056 178 178 178
0.00614010318 -0.0603771736 0 178 178 178
0.14 0.0643991617 0.220496774 178 178 178
0.0923189736 0.065 0.257686246 178 178 178
0.125 -0.0488639894 0.017915957 178 178 178
0.0352266437 0.08 0.212461669 178 178 178
0.0714327201 -0.0509742658 0.112 178 178 178
-0.0372141616 -0.0733817393 0.056 178 178 178
0.13 0.0199511365 0.0634455236 178 178 178
0.0704494333 0.0230004765 0 178 178 178
0.0116467143 0.00635467931 0.112 178 178 178
-0.040601495 0.123263043 0.056 178 178 178
0.073283113 0.095 0.162055592 178 178 178
0.13 0.046217354 0.0859450626 178 178 178
-0.00113546109 0.08 0.221582649 178 178 178
0.0392305299 -0.0431008645 0.224 178 178 178
0.014248268 -0.0639183165 0.056 178 178 178
-0.114117203 0.125 0.0320736267 178 178 178
0.0272881484 0.0277217797 0.28 178 178 178
0.13 -0.0192364347 0.056571134 178 178 178
-0.0630667808 0.063760822 0 178 178 178
0.0886338699 0.080851404 0 178 178 178
0.015 0.00115890876 0.26750072 178 178 178
-0.0143029916 -0.074084369 0.112 178 178 178
-0.112965153 -0.0770875719 0 178 178 178
0.00549743156 0.11 0.0917298975 178 178 178
0.13 -0.0819460289 0.0571074019 178 178 178
-0.0679281853 -0.0462075528 0.112 178 178 178
0.0678127603 -0.065 0.268889667 178 178 178
0.0963278131 0.0210803322 0.28 178 178 178
-0.0518906863 -0.0889053183 0.056 178 178 178
0.109047857 -0.0786718845 0.056 178 178 178
0.0435468639 -0.0465453534 0.112 178 178 178
0.10517996 -0.08 0.220627239 178 178 178
0.0933022136 0.0431774537 0.168 178 178 178
-0.055 0.0948147717 0.156128844 178 178 178
0.0687235005 -0.0837789766 0.112 178 178 178
-0.0356573037 0.0799381977 0.056 178 178 178
0.0090148941 -0.00104155557 0.224 178 178 178
0.00184318171 -0.00335956789 0 178 178 178
0.135 0.0821853882 0.16438047 178 178 178
-0.109815311 -0.0121568301 0.056 178 178 178
0.0240477527 -0.11 0.0907943401 178 178 178
0.145 0.047186301 0.247720124 178 178 178
-0.09 0.00367973259 0.0881696247 178 178 178
-0.029589849 0.0262407382 0 178 178 178
0.0720873538 0.0997717478 0.112 178 178 178
-0.0546054471 -0.00866614749 0.168 178 178 178
-0.0596572151 -0.00222503952 0 178 178 178
0.125 0.110416039 0.035185918 178 178 178
0.00615713984 -0.0919491629 0 178 178 178
-0.09 0.071989253 0.0881990117 178 178 178
0.0300146933 0.0966113844 0.056 178 178 178
0.13 0.0146708083 0.0719958571 178 178 178
-0.125 -0.124621994 0.0265611608 178 178 178
0.0714807736 0.0771866398 0.168 178 178 178
0.065195362 0.105036716 0.056 178 178 178
0.0767571533 -0.0056217199 0.224 178 178 178
0.0755672199 -0.065 0.232632362 178 178 178
0.13 -0.0610053998 0.104580646 178 178 178
0.0257901154 0.0900342777 0.112 178 178 178
0.14 -0.00418248442 0.182899917 178 178 178
-0.125 0.0983226607 0.0254157648 178 178 178
0.0589623952 -0.0272860902 0.224 178 178 178
-0.125 0.103747599 0.0207737551 178 178 178
0.0116900961 0.095 0.128761426 178 178 178
0.0660159582 -0.0996807451 0.056 178 178 178
0.013784589 0.0555882214 0.112 178 178 178
0.0455855123 -0.0470103521 0.28 178 178 178
-0.0161191926 -0.0153998288 0 178 178 178
0.0347451862 -0.0403529204 0.224 178 178 178
-0.09 -0.000995147545 0.0850989603 178 178 178
-0.0501307039 -0.0151737964 0.056 178 178 178
0.109080235 0.102874611 0.056 178 178 178
-0.060488362 0.0277545426 0 178 178 178
0.125 -0.0318275364 0.00617803951 178 178 178
0.100108166 0.0392078016 0.168 178 178 178
0.0222870468 0.121590016 0 178 178 178
-0.0187823231 0.0743466626 0.168 178 178 178
0.119664904 -0.065 0.244624129 178 178 178
0.0792570905 0.065 0.258437109 178 178 178
-0.02 -0.0216091019 0.195039579 178 178 178
0.0679465764 -0.00431723066 0.224 178 178 178
-0.0937713976 0.0994745445 0.056 178 178 178
0.145 0.0515179354 0.243355439 178 178 178
-0.112870345 0.0498918732 0.056 178 178 178
0.0618064318 0.08 0.219990595 178 178 178
0.010785868 0.08 0.176592594 178 178 178
0.102317386 -0.0582598217 0.168 178 178 178
0.0535613199 0.11 0.0850324835 178 178 178
-0.123654542 -0.00212679628 0.056 178 178 178
0.0846712119 0.11 0.0827237225 178 178 178
-0.125 0.0668767027 0.0534942393 178 178 178
0.0986413917 -0.0165755305 0.056 178 178 178
0.112073375 0.0760696765 0.056 178 178 178
0.12512794 0.0455016959 0.224 178 178 178
0.131632419 -0.0593257801 0.28 178 178 178
0.0400864012 -0.105290213 0.056 178 178 178
0.093748894 -0.103628694 0 178 178 178
0.0405242935 0.125 0.0228605614 178 178 178
0.0774498418 0.0640891405 0.056 178 178 178
-0.107477848 -0.0733022285 0.056 178 178 178
-0.0538691142 0.0917202858 0.112 178 178 178
0.116313709 -0.0977374403 0.112 178 178 178
-0.0482291135 -0.02064738 0.112 178 178 178
0.0288662952 0.0941902897 0.056 178 178 178
0.0109870069 0.0774346922 0.168 178 178 178
-0.125 0.0815136999 0.0114774084 178 178 178
0.0755286973 0.0031978055 0.112 178 178 178
-0.060583632 0.0325934159 0.112 178 178 178
0.117258662 -0.0502279968 0.224 178 178 178
0.125 0.023452502 0.0527223586 178 178 178
0.0448870097 0.095 0.159614965 178 178 178
0.0110932384 -0.0187375815 0.056 178 178 178
0.111822482 -0.0507840159 0.224 178 178 178
0.0748891235 -0.077770301 0.112 178 178 178
0.13 -0.0865218282 0.0563356958 178 178 178
0.0819009533 0.08 0.17314684 178 178 178
-0.0418983359 0.0189177296 0.168 178 178 178
-0.0357081692 -0.0195205623 0 178 178 178
-0.00322582184 -0.0139259318 0.056 178 178 178
0.015 0.0293151481 0.270046571 178 178 178
0.120114689 0.0610412006 0 178 178 178
-0.125 -0.0442004159 0.0324091966 178 178 178
0.119491886 -0.065 0.248802309 178 178 178
0.093146717 -0.115314639 0 178 178 178
0.0140987072 0.0800851477 0.056 178 178 178
-0.105011073 -0.125 0.0453915442 178 178 178
-0.123228394 -0.116438615 0 178 178 178
0.0357151217 -0.11 0.108230834 178 178 178
0.00676004946 -0.0187004559 0.112 178 178 178
0.00346596426 -0.0447241912 0.056 178 178 178
0.0535024388 -0.00882736022 0.056 178 178 178
0.10257146 -0.0216201241 0.224 178 178 178
0.119077996 -0.0183276973 0.224 178 178 178
0.0478326786 -0.0670682146 0.112 178 178 178
0.118050543 0.0166810659 0.056 178 178 178
-0.09 -0.0271139618 0.100386346 178 178 178
0.119566619 -0.0713439044 0.168 178 178 178
0.0619459412 -0.0870023687 0.112 178 178 178
0.115750657 0.08 0.182937082 178 178 178
-0.0657898428 -0.106911855 0.112 178 178 178
0.13 0.0660350329 0.0945177272 178 178 178
0.0381978971 -0.122356883 0.056 178 178 178
0.0711000412 -0.0893181691 0.112 178 178 178
0.0713526267 0.00214501949 0.168 178 178 178
-0.055 0.0314854075 0.135646092 178 178 178
0.125 0.0470607158 0.0235057404 178 178 178
0.015 0.0131339531 0.252267258 178 178 178
-0.0445226638 0.095 0.114243424 178 178 178
0.00301069255 -0.0322514884 0.112 178 178 178
0.126415322 -0.0341215855 0.112 178 178 178
0.127741694 0.0684023396 0.168 178 178 178
-0.0221281546 0.0298455142 0.056 178 178 178
0.112033332 0.0617628476 0.168 178 178 178
0.0383144672 0.095 0.154674485 178 178 178
0.12595882 0.11 0.0942251453 178 178 178
-0.00417699916 0.08 0.198107221 178 178 178
0.0838111804 0.0905250913 0.112 178 178 178
-0.0597385807 -0.011243118 0.112 178 178 178
-0.125 -0.105632413 0.0533033683 178 178 178
0.0273101341 -0.0417147941 0.224 178 178 178
-0.0736500468 -0.107024722 0.056 178 178 178
0.135 0.028712833 0.150946258 178 178 178
0.0307665451 -0.00800403358 0.112 178 178 178
0.099516954 -0.0306880055 0.28 178 178 178
0.0998220169 0.024973737 0.28 178 178 178
0.0460865992 0.0359329259 0 178 178 178
0.015 -0.0588649685 0.247710062 178 178 178
0.0884381451 0.087063102 0.112 178 178 178
-0.0515345095 0.0220977342 0 178 178 178
0.13 -0.0755480514 0.0860324376 178 178 178
0.0771754129 -0.0614496796 0 178 178 178
-0.09 0.0120027218 0.0730247115 178 178 178
-0.093074843 0.033208537 0.056 178 178 178
0.0891832775 0.076411133 0.056 178 178 178
-0.125 0.106142341 0.00105297092 178 178 178
0.109771524 0.071921901 0.112 178 178 178
0.0585629332 0.0570631851 0.224 178 178 178
0.0447044743 0.0158996103 0.28 178 178 178
0.0195235063 -0.0388068003 0.056 178 178 178
0.0846263347 -0.0139356144 0.112 178 178 178
0.010932316 -0.059883194 0 178 178 178
-0.0456221075 0.0893503165 0.056 178 178 178
0.114906523 -0.065 0.242419233 178 178 178
0.0134582536 -0.110940818 0.056 178 178 178
0.0558495475 0.08 0.218327819 178 178 178
0.0747936756 0.0531011154 0.168 178 178 178
-0.125 0.0465265144 0.0203429039 178 178 178
0.0101905798 0.0229491576 0.168 178 178 178
-0.125 0.0673917736 0.039189357 178 178 178
0.141357214 -0.00351315045 0.224 178 178 178
0.00538377156 0.0165683265 0 178 178 178
0.0424286207 -0.0789929326 0.056 178 178 178
0.13813265 0.0221801121 0.168 178 178 178
0.0275312491 0.0336170649 0.112 178 178 178
0.102363718 0.0831727341 0.056 178 178 178
0.121195951 0.11 0.0734379918 178 178 178
-0.125 -0.0318867716 0.0124358681 178 178 178
-0.09 0.0156805751 0.0624302937 178 178 178
-0.055 -0.0836390124 0.160769685 178 178 178
0.14 0.0389411649 0.208350179 178 178 178
-0.0460824664 -0.00812783825 0 178 178 178
-0.0168965872 -0.0373147441 0.112 178 178 178
0.0606594131 0.065 0.258439492 178 178 178
-0.0833354433 -0.0416920759 0.112 178 178 178
0.0687246522 0.0314552386 0.168 178 178 178
0.0854072184 0.0884226688 0 178 178 178
0.0508602747 0.08 0.194587318 178 178 178
0.0227566058 -0.0930080221 0.112 178 178 178
-0.02 -0.0162031848 0.189215512 178 178 178
-0.00360696725 -0.0147799234 0.168 178 178 178
0.0427862656 0.08 0.219442001 178 178 178
-0.0943409835 -0.0474901073 0 178 178 178
0.0584902674 0.095 0.160203686 178 178 178
-0.0979177138 0.0194470505 0.056 178 178 178
0.114704349 0.125 0.0477931795 178 178 178
0.103169528 -0.0741622809 0.056 178 178 178
-0.0513104632 -0.025175202 0.112 178 178 178
0.11025706 -0.0642536813 0.168 178 178 178
0.14141594 -0.0106337712 0.28 178 178 178
0.0632572443 -0.00954282691 0 178 178 178
0.0246124988 0.0757694807 0.056 178 178 178
-0.0677487638 0.0149526133 0.056 178 178 178
-0.00385928826 -0.0131663208 0.224 178 178 178
-0.09 -0.0798112537 0.0655525317 178 178 178
0.000809614717 0.11 0.106724559 178 178 178
0.0526446573 -0.059804593 0.168 178 178 178
-0.0365915872 -0.0310063066 0.168 178 178 178
-0.125 0.0995717695 0.0332377418 178 178 178
-0.0354639281 0.0728136092 0 178 178 178
0.0387557916 0.0229255278 0.112 178 178 178
-0.02 -0.0440657328 0.222983113 178 178 178
0.0858949317 0.0740332731 0.112 178 178 178
0.0856248588 0.114294639 0 178 178 178
-0.0420056461 0.0603604444 0.112 178 178 178
0.0698172826 0.0812551551 0.056 178 178 178
0.130285266 -0.0686129215 0.112 178 178 178
-0.0453826781 -0.059138895 0.112 178 178 178
0.0460132371 -0.065 0.266460802 178 178 178
0.00515941141 -0.0561849971 0.056 178 178 178
0.106171951 0.0243305516 0.112 178 178 178
-0.0535875393 -0.0033583026 0.112 178 178 178
-0.02 -0.057787144 0.187669494 178 178 178
0.135 0.0145790577 0.139788187 178 178 178
0.0480361715 -0.11 0.101201534 178 178 178
0.0181963695 0.0518384501 0.224 178 178 178
0.119730373 -0.11 0.0850915834 178 178 178
0.145 -0.0301169993 0.276304716 178 178 178
-0.125 0.0440032505 0.0370533402 178 178 178
0.0825178748 0.0187300253 0.056 178 178 178
0.00191078478 -0.0116677336 0.224 178 178 178
-0.125 0.0467087003 0.0147732803 178 178 178
0.11520364 -0.08 0.169888264 178 178 178
0.0884102199 0.0859329997 0.112 178 178 178
0.13 0.0800995179 0.0907082044 178 178 178
-0.019018668 0.0547155831 0 178 178 178
0.0919912907 0.0469540249 0.168 178 178 178
0.0396779855 0.0886116242 0 178 178 178
0.145 -0.0250432863 0.266254176 178 178 178
0.0435918548 0.08 0.182041808 178 178 178
-0.125 -0.105591726 0.0239491979 178 178 178
0.0269187367 -0.029085722 0.056 178 178 178
-0.02 -0.0229063273 0.221234817 178 178 178
0.106700655 -0.11 0.0687369589 178 178 178
0.0976291356 0.0385817286 0.056 178 178 178
0.13 -0.0618650885 0.107133026 178 178 178
0.125 0.123346066 0.0208394909 178 178 178
0.128882143 0.0188352357 0.112 178 178 178
0.079538749 -0.072161974 0.168 178 178 178
0.0940721841 0.0148500319 0.224 178 178 178
0.117001127 -0.0171968063 0.224 178 178 178
-0.0392506396 0.1209578 0.056 178 178 178
-0.0529122692 -0.11 0.100451574 178 178 178
0.13 -0.0793874723 0.0649779012 178 178 178
0.015 0.0594615101 0.234995743 178 178 178
-0.0889911678 0.0453240811 0 178 178 178
0.13 0.0852557417 0.0632527061 178 178 178
0.0189877092 0.0574693664 0.224 178 178 178
0.0447232947 0.00904767276 0.112 178 178 178
0.0969433009 0.125 0.0402721108 178 178 178
0.0810901751 -0.0835659481 0.112 178 178 178
-0.0223413795 -0.0883174611 0.056 178 178 178
0.0188795665 -0.0646381816 0.28 178 178 178
-0.0605376138 0.0559139875 0 178 178 178
-0.0975093173 0.0525322678 0.056 178 178 178
0.0827986871 0.107327119 0 178 178 178
0.0742946718 0.095 0.135869587 178 178 178
-0.125 -0.0188713643 0.0517065284 178 178 178
0.0827069103 -0.0648363154 0.224 178 178 178
-0.02 -0.0374941363 0.184968574 178 178 178
0.124309504 0.0235414372 0.28 178 178 178
0.125 -0.0297126116 0.0150773313 178 178 178
0.118210476 -0.100460514 0 178 178 178
-0.0881450199 0.105314774 0.056 178 178 178
0.143034617 -0.065 0.253956473 178 178 178
-0.0124229685 -0.0753257083 0.168 178 178 178
0.0345921548 0.0755355308 0 178 178 178
0.135 0.0606464291 0.140670274 178 178 178
0.0580492521 0.0569447337 0.224 178 178 178
0.145 -0.0214269323 0.249136284 178 178 178
0.0743143986 0.095 0.131721935 178 178 178
0.14 0.0639496881 0.205906051 178 178 178
0.0618507952 -0.08 0.189777213 178 178 178
-0.0562573311 -0.0534677388 0.056 178 178 178
-0.0725752676 -0.04920408 0 178 178 178
-0.0176135633 0.095 0.120118602 178 178 178
0.0580058911 -0.00994721206 0.056 178 178 178
0.029194247 0.0802584044 0.056 178 178 178
0.015 -0.0517918266 0.249026687 178 178 178
-0.0451131608 -0.0894245882 0.112 178 178 178
-0.0824951847 0.11 0.0909811194 178 178 178
0.0160662166 0.0569283321 0.28 178 178 178
-0.125 -0.052584736 0.0540932747 178 178 178
0.015 -0.048975891 0.267465003 178 178 178
0.0267352097 0.015532475 0.224 178 178 178
-0.00746404678 -0.00040476486 0.056 178 178 178
0.120149819 -0.0562795544 0.056 178 178 178
0.0370598946 -0.0496936791 0.056 178 178 178
0.0234086333 0.0258053794 0.224 178 178 178
-0.0454861911 0.0839322489 0.056 178 178 178
0.0824249083 -0.0253371661 0 178 178 178
-0.02 -0.0532359645 0.195291916 178 178 178
0.0782186026 0.0550395389 0.112 178 178 178
-0.0159386332 0.0405049764 0.168 178 178 178
-0.055 -0.0575494685 0.161044771 178 178 178
0.0322797588 0.0227505369 0 178 178 178
-0.0296002975 0.00305318954 0 178 178 178
0.13 0.0830009763 0.109393355 178 178 178
0.104943611 -0.121365306 0 178 178 178
0.13 0.076410307 0.0693504424 178 178 178
-0.055 0.0930008766 0.134970859 178 178 178
-0.0377031756 -0.0544018037 0.168 178 178 178
0.127483798 0.0121643458 0.168 178 178 178
0.117759651 -0.0194123815 0 178 178 178
0.125 -0.00219421784 0.0292278737 178 178 178
0.118140192 -0.0286683923 0.224 178 178 178
-0.0911145802 -0.0917270093 0.056 178 178 178
-0.09 0.0947694439 0.0911361581 178 178 178
0.0847600082 0.0321661773 0 178 178 178
0.0250377784 0.0131123855 0.28 178 178 178
-0.111814128 0.099599305 0.056 178 178 178
0.120188896 0.0591262384 0.112 178 178 178
-0.09 0.0285085115 0.0564612782 178 178 178
0.0649195116 0.095 0.158455332 178 178 178
0.026805763 0.0147150129 0.28 178 178 178
-0.055 0.0427543254 0.13538522 178 178 178
-0.00908753169 0.0200127743 0.056 178 178 178
-0.0473972224 0.0485319395 0 178 178 178
0.135 0.0848379595 0.112212495 178 178 178
0.145 0.0487334335 0.238741067 178 178 178
-0.107008945 -0.115376725 0 178 178 178
-0.0199360549 -0.0419876033 0.168 178 178 178
0.00102207215 0.124230737 0.056 178 178 178
-0.015669986 0.0541359831 0.112 178 178 178
-0.0418516455 0.11 0.0625349023 178 178 178
0.0578481319 -0.0902683149 0.168 178 178 178
0.015 -0.0202858954 0.275062725 178 178 178
0.0868050195 -0.095 0.13853063 178 178 178
0.0793566632 -0.00883474098 0.112 178 178 178
0.134157046 0.095 0.139972791 178 178 178
-0.0435122014 0.0838883488 0.112 178 178 178
0.0118123014 -0.087287681 0.112 178 178 178
-0.048343484 -0.0284939835 0.056 178 178 178
0.13 0.0356384568 0.0992825627 178 178 178
-0.103079718 0.125 0.0168543531 178 178 178
0.125 -0.048381606 0.0303164443 178 178 178
0.0124096266 -0.0983197872 0.056 178 178 178
-0.0476703549 -0.0249727457 0.112 178 178 178
-0.125 -0.00455012271 0.0434919838 178 178 178
0.0487965722 -0.08 0.217164501 178 178 178
0.0367095154 -0.08 0.180851057 178 178 178
0.0709416521 0.0131223121 0.056 178 178 178
0.0845852119 0.0346546194 0.168 178 178 178
0.0574754239 -0.0234939207 0.224 178 178 178
-0.0837212992 0.0502063879 0.056 178 178 178
0.0440696603 -0.0127329439 0.112 178 178 178
-0.0441049543 -0.0118282306 0.112 178 178 178
0.0298770911 0.0936227516 0.168 178 178 178
0.054074202 -0.065 0.234058134 178 178 178
0.0215066278 -0.0457792377 0.056 178 178 178
0.145 -0.0423283471 0.268046183 178 178 178
0.0416036168 0.0258895677 0.168 178 178 178
0.00140088029 -0.0774546617 0.224 178 178 178
0.121837596 -0.00670819757 0.168 178 178 178
0.0732491839 0.08 0.195389616 178 178 178
0.0512259443 -0.0688125562 0.056 178 178 178
0.135 0.086102883 0.119497171 178 178 178
-0.114581978 0.125 0.05514073 178 178 178
0.13 0.10041648 0.0736520481 178 178 178
0.0622831327 -0.095 0.147901778 178 178 178
0.0315816033 0.0906565762 0.056 178 178 178
-0.0544070943 0.105276965 0 178 178 178
0.0510583139 -0.0425569971 0.224 178 178 178
0.137538342 0.068110853 0.224 178 178 178
-0.0474201011 -0.0344943621 0.168 178 178 178
0.0884195889 0.0376940001 0.056 178 178 178
-0.0381299341 -0.00210687553 0.168 178 178 178
-0.0886434639 -0.00907923103 0 178 178 178
-0.0437302895 -0.0246100276 0.168 178 178 178
0.129418494 0.0442701772 0.112 178 178 178
0.0130493822 -0.0919858451 0.168 178 178 178
0.0399240434 0.100152964 0.112 178 178 178
-0.023232407 -0.125 0.0219094271 178 178 178
0.025978891 0.095 0.120450084 178 178 178
-0.0418584947 -0.00883014026 0.112 178 178 178
-0.055 -0.0938503557 0.119470715 178 178 178
-0.0329273185 -0.0429385776 0.056 178 178 178
0.041884356 0.106998281 0 178 178 178
-0.09 -0.0105899182 0.058479829 178 178 178
0.130412257 -0.0648204006 0.168 178 178 178
0.0252340675 0.0476085429 0.224 178 178 178
-0.02 -0.0021845534 0.181788698 178 178 178
-0.06686707 0.0535239204 0 178 178 178
-0.0156882069 -0.0157769284 0.168 178 178 178
0.0197211687 0.125 0.0357343156 178 178 178
0.135 -0.0923065759 0.121082023 178 178 178
0.0635077969 0.0716303536 0.056 178 178 178
0.0794601733 -0.109553689 0.056 178 178 178
0.0246987191 -0.11 0.081944685 178 178 178
0.10462993 0.11 0.0622820804 178 178 178
0.135 -0.0241521678 0.166265891 178 178 178
0.0121485843 -0.069258412 0.168 178 178 178
0.0386673357 -0.095 0.144058694 178 178 178
-0.0692697207 -0.0749425135 0.056 178 178 178
-0.0360796759 -0.095 0.146668562 178 178 178
0.0494331758 0.0167346731 0.056 178 178 178
-0.0434718404 0.0437789773 0.112 178 178 178
0.0323363995 0.0151603406 0.112 178 178 178
0.0399533964 -0.0927651016 0.112 178 178 178
0.0966113761 0.00593342949 0 178 178 178
0.13 -0.0367388721 0.0855754797 178 178 178
-0.0480316499 -0.125 0.0322697079 178 178 178
0.035207226 0.0441702824 0.056 178 178 178
-0.114628495 0.00581743925 0 178 178 178
0.031912339 0.0669551128 0.168 178 178 178
-0.02 0.0336301189 0.183626712 178 178 178
-0.00823905676 0.0150601835 0.056 178 178 178
-0.080776166 0.037186761 0 178 178 178
0.0415178779 -0.0180585165 0.168 178 178 178
0.104112134 -0.0737860765 0.056 178 178 178
-0.02 -0.0152101549 0.194325697 178 178 178
0.037143915 -0.0330147723 0.056 178 178 178
0.0165865414 0.0406326145 0.056 178 178 178
0.13 -0.0844063199 0.107023742 178 178 178
-0.00808680512 -0.111420844 0.056 178 178 178
0.110284038 -0.0417957794 0.056 178 178 178
-0.118461269 0.125 0.0135540607 178 178 178
0.0476588127 0.095 0.140884029 178 178 178
0.0915114148 0.065 0.240524924 178 178 178
0.104296628 0.0853838296 0.056 178 178 178
0.069493378 -0.0375089145 0.224 178 178 178
-0.00577843396 -0.0338505974 0.056 178 178 178
-0.00191497991 -0.0486089368 0.112 178 178 178
-0.0615984641 0.0623581313 0.112 178 178 178
-0.125 -0.0495613263 0.0542055709 178 178 178
-0.0161433742 0.0702012901 0.224 178 178 178
-0.055 -0.0507921995 0.143322703 178 178 178
0.0405687385 0.00798535142 0.056 178 178 178
-0.125 -0.0854977529 0.0553348039 178 178 178
0.0578965424 0.0500165921 0.224 178 178 178
0.015 -0.0188554651 0.278759556 178 178 178
0.0896483041 0.062622652 0.112 178 178 178
0.0064420287 0.08 0.200318592 178 178 178
0.0361517325 0.065 0.229042294 178 178 178
-0.055 0.0276442374 0.119678579 178 178 178
0.0173524252 0.00049779398 0.168 178 178 178
-0.0928241025 -0.125 0.0143641151 178 178 178
0.0788324447 0.102446407 0.056 178 178 178
0.134478389 -0.0786975384 0.168 178 178 178
0.11612148 0.00943735928 0.28 178 178 178
-0.125 0.0262603706 0.0183575442 178 178 178
-0.0124177098 -0.0827610595 0.112 178 178 178
0.0419843138 -0.110592729 0 178 178 178
0.135 -0.00418178347 0.147008301 178 178 178
-0.0207065111 -0.0126870924 0.112 178 178 178
0.0277918752 -0.0505224538 0.224 178 178 178
0.0761511684 -0.125 0.0218484216 178 178 178
0.0273527472 0.0741212039 0.168 178 178 178
-0.0514361631 -0.0472779495 0.168 178 178 178
-0.0802548461 0.012394759 0.112 178 178 178
-0.0767116917 0.0120280859 0.056 178 178 178
0.0719927355 0.05093464 0.112 178 178 178
-0.055 -0.0527272 0.147461895 178 178 178
-0.0664447945 0.0351724904 0.056 178 178 178
-0.0382720573 0.107640205 0 178 178 178
-0.0190836525 0.0275290487 0.112 178 178 178
0.012695985 -0.125 0.0254878926 178 178 178
0.120100484 -0.0462909976 0.224 178 178 178
0.0966281356 0.0668109331 0.224 178 178 178
0.0957077913 0.0567704224 0.28 178 178 178
0.0252869328 -0.08 0.191040613 178 178 178
-0.0336284391 -0.0106781698 0.168 178 178 178
0.0175444697 0.0450373821 0.056 178 178 178
0.0720844076 0.0773840297 0.224 178 178 178
-0.0146494332 0.095 0.148279602 178 178 178
0.106325063 0.00645054708 0.168 178 178 178
0.135 -0.026867489 0.14400702 178 178 178
0.0705542999 0.0792374311 0.224 178 178 178
-0.125 0.0181689024 0.0126594907 178 178 178
0.053964551 0.0470925099 0.168 178 178 178
-0.001937346 0.11 0.102005227 178 178 178
0.107998424 0.00663224468 0.056 178 178 178
0.108423485 -0.0966921062 0.056 178 178 178
0.0304266844 -0.00562584335 0.056 178 178 178
0.13 0.00210850756 0.0851522683 178 178 178
0.0401171415 0.107762578 0.056 178 178 178
0.073590995 -0.0499513402 0.112 178 178 178
0.14 -0.0688170896 0.197742288 178 178 178
-0.0146300895 -0.095 0.132824706 178 178 178
0.0486586055 -0.095 0.162187608 178 178 178
0.0252503514 0.065 0.236272341 178 178 178
0.0578471558 -0.125 0.0422715201 178 178 178
0.13 0.0263275498 0.0748770559 178 178 178
0.0145651999 0.078057487 0 178 178 178
0.127800736 0.0730058168 0.112 178 178 178
0.0480474616 0.0338616578 0.28 178 178 178
-0.00155482398 0.0967969899 0 178 178 178
0.130268622 0.0648931985 0.168 178 178 178
0.0688373656 0.08 0.216718506 178 178 178
0.13 0.043457424 0.0686935725 178 178 178
0.0475639942 -0.061998143 0.224 178 178 178
-0.0874912941 0.0736105703 0.112 178 178 178
0.0638790743 0.0906100819 0.056 178 178 178
0.13 0.10587587 0.0812604802 178 178 178
-0.119408114 -0.0274428753 0.056 178 178 178
-0.0158257495 -0.0988248297 0.056 178 178 178
-0.125 -0.074411262 0.0110523033 178 178 178
0.015 -0.0146963335 0.274929391 178 178 178
-0.0291984621 -0.1015754 0.056 178 178 178
0.0709004688 -0.125 0.0387052295 178 178 178
0.0715801486 0.00209557614 0.28 178 178 178
0.124901203 0.00684545257 0.056 178 178 178
0.145 -0.040296154 0.257664274 178 178 178
0.14 -0.0470561058 0.184031847 178 178 178
0.0574524828 0.073092074 0.168 178 178 178
0.0306424076 -0.109309761 0.112 178 178 178
-0.108249863 0.0368467258 0.056 178 178 178
-0.0346730115 -0.104090907 0.056 178 178 178
-0.0473658692 0.0188048304 0 178 178 178
-0.0296047951 -0.0296766694 0.056 178 178 178
0.0216062445 -0.0540161231 0.112 178 178 178
0.113895846 0.0318720216 0.28 178 178 178
-0.09 0.0950155409 0.0866194669 178 178 178
0.015 0.0534439794 0.269751459 178 178 178
-0.0453629607 0.095 0.128358902 178 178 178
0.064804444 -0.0696454426 0.056 178 178 178
-0.0228234221 -0.0871566581 0.112 178 178 178
-0.0497580418 0.119923701 0.056 178 178 178
-0.0138064671 -0.0390895167 0 178 178 178
0.0446489326 0.0114851828 0.28 178 178 178
0.0696345729 -0.0543589258 0.056 178 178 178
0.0609521606 0.0716615001 0.056 178 178 178
-0.058370647 0.0212191839 0 178 178 178
0.0128654756 0.031098676 0.168 178 178 178
0.0163465582 0.0641785639 0.112 178 178 178
0.0440277664 -0.118032375 0 178 178 178
0.0946424066 0.095 0.141809981 178 178 178
0.125 0.0352228026 0.00758536061 178 178 178
0.014614092 0.0192465757 0.168 178 178 178
0.0288722428 -0.11 0.0593264651 178 178 178
-0.09 0.0570601538 0.099402457 178 178 178
-0.0151165778 0.0474591206 0.112 178 178 178
-0.0263898208 -0.095 0.147924269 178 178 178
0.015 0.0446946099 0.271167425 178 178 178
0.124226979 0.051094476 0.224 178 178 178
0.0363303243 0.0763774811 0 178 178 178
0.13 -0.0889407846 0.0887102155 178 178 178
0.116951853 -0.125 0.0304034837 178 178 178
-0.0774659594 -0.0442945026 0 178 178 178
0.0464466184 0.0993797125 0.056 178 178 178
0.125 0.0372645678 0.00806172445 178 178 178
0.096882646 -0.065 0.240197972 178 178 178
-0.055 -0.0794681666 0.129655632 178 178 178
0.14 -0.0193335602 0.213332244 178 178 178
0.135 -0.0368143019 0.167263619 178 178 178
0.116146214 -0.00619607846 0.056 178 178 178
-0.0149837432 -0.0823184081 0.112 178 178 178
0.0590144148 0.0460534604 0.112 178 178 178
-0.125 -0.0538586773 0.0490634434 178 178 178
-0.0267877074 -0.0509965634 0.112 178 178 178
0.0224181917 0.0378450335 0.168 178 178 178
0.10145344 0.124098045 0 178 178 178
0.00277992886 0.125 0.0103451839 178 178 178
-0.0261455391 -0.11 0.0751379609 178 178 178
0.0164677261 -0.095 0.142126835 178 178 178
-0.0416817113 0.016492541 0.168 178 178 178
0.0334300016 0.095 0.129251338 178 178 178
0.0072676606 0.0393335749 0 178 178 178
0.025785474 0.103228095 0.056 178 178 178
0.0682445121 0.00244365819 0.056 178 178 178
-0.0669076443 0.125 0.0113105057 178 178 178
0.0328329548 -0.0611720707 0.168 178 178 178
0.015 0.0452115594 0.238255801 178 178 178
-0.016437127 -0.095 0.166610674 178 178 178
0.0222870394 0.0119568663 0 178 178 178
-0.125 -0.1183274 0.00336324534 178 178 178
0.0726934145 0.00987948902 0.224 178 178 178
0.118965559 -0.0196440345 0.28 178 178 178
-0.0114231502 0.0595352837 0.112 178 178 178
-0.0392449236 -0.0440033029 0.056 178 178 178
-0.0333434294 -0.0514048721 0.056 178 178 178
0.071278346 0.0310125562 0.168 178 178 178
0.0996507146 0.08 0.187978981 178 178 178
0.0296584554 -0.108534163 0.056 178 178 178
-0.0822514613 -0.014361137 0.056 178 178 178
0.014852839 -0.0133350689 0 178 178 178
0.0438077075 0.0349323428 0.056 178 178 178
0.14 -0.0169061669 0.199246386 178 178 178
0.0550427747 -0.0324028326 0.168 178 178 178
0.015 0.0296951274 0.263038441 178 178 178
-0.0184067929 0.0815685122 0 178 178 178
-0.060781773 -0.0649132246 0.056 178 178 178
0.139800608 -0.0579111076 0.224 178 178 178
0.0285520726 0.0297079863 0.168 178 178 178
0.022070681 0.115186016 0 178 178 178
-0.0712769574 -0.0935291883 0.112 178 178 178
-0.00944493705 -0.0724173051 0.168 178 178 178
0.00482487795 -0.095 0.112017326 178 178 178
0.0973989894 0.100182323 0.112 178 178 178
-0.114099574 0.0354723964 0.056 178 178 178
0.145 -0.0224075498 0.275519561 178 178 178
-0.00389254091 0.0733576185 0.112 178 178 178
0.112168988 0.095 0.128594535 178 178 178
-0.09 0.095188945 0.0896792447 178 178 178
-0.00788015721 0.0189321028 0 178 178 178
0.125 -0.0349889183 0.037693778 178 178 178
-0.0644420977 0.0920562282 0 178 178 178
-0.0732152671 -0.05270884 0.056 178 178 178
0.0366981221 0.115618822 0.056 178 178 178
0.0618793221 -0.0604495982 0.112 178 178 178
0.0430564925 -0.108858949 0.056 178 178 178
0.0536825411 0.0737624093 0.056 178 178 178
0.00832062437 0.00413327141 0.224 178 178 178
0.0860200456 -0.0709279399 0 178 178 178
-0.0263595634 0.0362328956 0 178 178 178
0.0906381838 -0.0135489365 0.224 178 178 178
-0.09 0.0774955409 0.0803524582 178 178 178
-0.0889687706 -0.0108327843 0.112 178 178 178
-0.0757258106 0.125 0.0519743399 178 178 178
-0.09 -0.05701503 0.0578347053 178 178 178
-0.024976969 -0.125 0.0363904632 178 178 178
0.14 0.0608515016 0.203850418 178 178 178
0.0488128624 0.072806711 0.224 178 178 178
-0.00231455242 -0.0300154803 0.056 178 178 178
0.124749845 0.0247679221 0 178 178 178
-0.02 0.0609724939 0.170019063 178 178 178
-0.125 -0.0708897166 0.0131627754 178 178 178
0.0406888798 0.00255807747 0.168 178 178 178
0.14 0.000340605104 0.177699877 178 178 178
0.0925306287 0.0203576998 0.224 178 178 178
0.14 0.0443709593 0.189525768 178 178 178
0.0554091039 -0.11 0.0588795279 178 178 178
0.115195479 -0.08 0.209190579 178 178 178
-0.0790423703 0.104462161 0.112 178 178 178
0.119824006 0.125 0.0230127094 178 178 178
0.0172340236 -0.11 0.0813869372 178 178 178
0.0817640918 -0.0818893681 0.056 178 178 178
0.0824824075 -0.000990306187 0.168 178 178 178
0.0338669705 0.00985485483 0.224 178 178 178
0.0525699987 -0.0773605825 0.056 178 178 178
-0.0088523181 0.0836917153 0.056 178 178 178
0.0454932352 0.0997130813 0.056 178 178 178
0.077843928 0.103396519 0.112 178 178 178
0.034980148 -0.065 0.274695744 178 178 178
0.0425419667 0.0115356063 0.28 178 178 178
0.145 -0.0142381866 0.276648063 178 178 178
-0.055 -0.013909113 0.159184502 178 178 178
0.00539826331 -0.095 0.135392544 178 178 178
-0.119084813 0.125 0.023687786 178 178 178
-0.0471136859 -0.000586201853 0.056 178 178 178
0.0814797393 -0.0669760138 0 178 178 178
0.0590972939 0.0533414563 0.224 178 178 178
-0.113230896 0.125 0.00835842471 178 178 178
-0.0105634274 0.0790925854 0 178 178 178
0.128136987 0.0539627853 0.056 178 178 178
-0.0362325955 -0.0826829482 0.056 178 178 178
0.0982265765 0.095 0.117280058 178 178 178
-0.0144278543 -0.0577682633 0 178 178 178
0.0646153705 -0.125 0.0365287077 178 178 178
0.0996412208 -0.0467778307 0.224 178 178 178
0.14 -0.0719356689 0.184085916 178 178 178
0.0303963158 -0.0552991168 0.168 178 178 178
0.0896058148 0.00176436847 0.112 178 178 178
-0.012785711 -0.125 0.0355268832 178 178 178
0.000200130858 0.08 0.206731759 178 178 178
0.089335691 -0.0435116402 0.168 178 178 178
0.0999446706 0.11 0.108465067 178 178 178
0.0173995814 0.0927664169 0.056 178 178 178
-0.0510739293 -0.125 0.039377259 178 178 178
0.00571375958 0.0216303486 0.056 178 178 178
0.0117345902 -0.0871166676 0.056 178 178 178
-0.118120148 0.0101103116 0 178 178 178
0.0410944797 -0.0420639421 0.112 178 178 178
0.0410521536 0.0222264613 0.112 178 178 178
-0.125 0.0910214843 0.0236937152 178 178 178
0.0287078829 0.0413388016 0.056 178 178 178
-0.0164289068 -0.0573304065 0.056 178 178 178
-0.0719832139 0.0950346148 0.056 178 178 178
0.0859521546 0.0228609958 0.168 178 178 178
0.13 -0.0515230672 0.0732688785 178 178 178
-0.0409172437 0.0181391356 0.056 178 178 178
0.0608335632 -0.0722603475 0.224 178 178 178
0.0477391188 0.11 0.0781292157 178 178 178
-0.024899617 0.0425219293 0.112 178 178 178
0.0584516554 0.095 0.13597375 178 178 178
0.0423123938 -0.0687580046 0.168 178 178 178
0.14 -0.0204858706 0.214929455 178 178 178
0.0848676679 -0.0216155963 0.224 178 178 178
-0.0168178635 0.0607601536 0.168 178 178 178
0.00474627016 0.095 0.1318118 178 178 178
0.0524788974 -0.0811024414 0.056 178 178 178
0.135 -0.0835239438 0.143214287 178 178 178
0.125 0.0382328434 0.0189772331 178 178 178
0.125 0.0483671065 0.0184262161 178 178 178
0.021287815 -0.00746021329 0.056 178 178 178
0.109971705 -0.0384256949 0.112 178 178 178
-0.000934289737 -0.0936418529 0 178 178 178
-0.00406379498 -0.00577273307 0.168 178 178 178
0.07387652 -0.0263299766 0.168 178 178 178
0.0156137419 0.0617768191 0.168 178 178 178
0.105158545 -0.110006044 0.056 178 178 178
0.0878189187 -0.0844447644 0.168 178 178 178
0.0282471932 -0.08 0.201632008 178 178 178
0.0763717994 -0.072082368 0 178 178 178
-0.0699470059 0.102276193 0.056 178 178 178
0.0280947038 0.125 0.0275988149 178 178 178
0.0466502111 0.0697477561 0.112 178 178 178
0.0422552574 0.0856349594 0.056 178 178 178
-0.09 -0.00454833088 0.0909831152 178 178 178
-0.0062804353 -0.0626984164 0.056 178 178 178
0.0779037493 0.0530833045 0.168 178 178 178
0.029142728 0.11 0.0648016534 178 178 178
0.0602618145 -0.095 0.12452271 178 178 178
0.125 0.0294175167 0.0413239277 178 178 178
0.135 0.0914228365 0.131116646 178 178 178
-0.055 0.0391543157 0.133435869 178 178 178
0.0834215785 0.095 0.113066401 178 178 178
-0.0140493811 0.0585179664 0 178 178 178
0.109821274 0.0612463927 0.28 178 178 178
-0.0141609547 -0.0828094364 0.112 178 178 178
-0.0753306296 0.125 0.0230442259 178 178 178
-0.0582558683 -0.0736608259 0.112 178 178 178
-0.0289960301 0.11 0.0975702742 178 178 178
0.0580373817 0.11 0.0753312775 178 178 178
0.125 0.0779657477 0.0110190504 178 178 178
-0.00243026771 0.125 0.033645971 178 178 178
-0.0694441714 0.0679920893 0.056 178 178 178
0.0117172078 0.00130909083 0.168 178 178 178
-0.0753365658 -0.0497848509 0.112 178 178 178
-0.0183805104 -0.123110743 0 178 178 178
-0.00236037802 0.00514127044 0.112 178 178 178
-0.0478456774 -0.0235210277 0.056 178 178 178
-0.0136351447 -0.04358868 0 178 178 178
0.0893699429 0.065 0.265310413 178 178 178
-0.125 0.0161932936 0.0370465241 178 178 178
-0.09 -0.0335859356 0.106873788 178 178 178
-0.0173155719 0.0451943668 0.056 178 178 178
-0.0623023933 0.0586281191 0 178 178 178
0.12454976 -0.0404271707 0.224 178 178 178
0.135094532 -0.00905548871 0.28 178 178 178
-0.00482761888 0.0661644488 0.056 178 178 178
-0.0477839815 -0.0917917872 0.112 178 178 178
0.0207423457 0.039083581 0.056 178 178 178
-0.119307688 -0.0800904906 0.056 178 178 178
0.0417147133 0.0527705852 0.168 178 178 178
0.0162133434 -0.0391928942 0.168 178 178 178
0.0975329406 0.0133494836 0.168 178 178 178
-0.0416052617 -0.095 0.133683005 178 178 178
0.106236367 0.0535059237 0 178 178 178
-0.0482299925 -0.125 0.0110800392 178 178 178
-0.0310215099 0.11 0.101474645 178 178 178
0.135 0.0643971135 0.148380109 178 178 178
0.00721812894 0.00540831656 0.056 178 178 178
0.0243499865 0.0593819594 0.112 178 178 178
0.0719016451 -0.08 0.175280584 178 178 178
0.00221809895 -0.0805394822 0 178 178 178
0.0648722065 0.125 0.0285355092 178 178 178
-0.125 0.104172811 0.00704931952 178 178 178
0.015 0.033519643 0.269938298 178 178 178
-0.0579950836 -0.125 0.00917049932 178 178 178
-0.0140353266 -0.0621847265 0 178 178 178
-0.0251285728 -0.0647779851 0.112 178 178 178
-0.0301258163 0.0753951263 0.168 178 178 178
0.0569139547 -0.108373859 0.056 178 178 178
-0.00658596046 -0.08 0.206283538 178 178 178
0.0634392476 0.0659387055 0.056 178 178 178
0.135 0.0758175021 0.119827925 178 178 178
-0.0367362782 0.0724977128 0.056 178 178 178
-0.02 -0.0186593469 0.208120269 178 178 178
-0.116006009 0.0149031467 0.056 178 178 178
-0.055 0.018164171 0.152255681 178 178 178
0.0362080773 -0.08 0.223641507 178 178 178
0.125 0.063725224 0.0295599761 178 178 178
-0.106833761 0.0476980558 0 178 178 178
0.117226182 0.0840735028 0.112 178 178 178
0.13 -0.0657116382 0.0690775637 178 178 178
-0.0856441536 -0.11 0.0700864129 178 178 178
0.0258537392 0.0621551883 0.168 178 178 178
-0.0290045548 0.103541395 0.112 178 178 178
0.13 -0.0838496925 0.0686329358 178 178 178
-0.0558795831 -0.11 0.0566488278 178 178 178
-0.072672654 -0.0882704133 0.112 178 178 178
0.0771084696 0.0405375321 0.112 178 178 178
-0.0966789842 -0.0322052192 0.056 178 178 178
-0.125 -0.062306712 0.0214807854 178 178 178
-0.0210046379 0.125 0.0456251955 178 178 178
0.125 -0.0938281903 0.00694339002 178 178 178
0.00030830101 0.0692480198 0.168 178 178 178
0.000641502521 -0.105128312 0.056 178 178 178
0.0529243818 0.0610745203 0.056 178 178 178
-0.000839428509 0.11 0.0825615781 178 178 178
0.0388957817 -0.08251542 0.056 178 178 178
0.125 0.00723689083 0.0355657705 178 178 178
-0.0834963052 -0.0965980521 0.056 178 178 178
0.13 0.0340594229 0.0836769558 178 178 178
-0.053338459 0.00281159428 0.168 178 178 178
0.145 0.012718662 0.250227515 178 178 178
0.14 -0.0364082368 0.190602033 178 178 178
0.00329514338 0.0173095079 0.112 178 178 178
-0.0248191652 0.0739907246 0.112 178 178 178
0.128208482 -0.0920270753 0.112 178 178 178
0.125 -0.0684260147 0.0248635547 178 178 178
0.0776381541 -0.065 0.276133758 178 178 178
-0.00633983963 0.0710160344 0 178 178 178
-0.0929542915 -0.0455470433 0.056 178 178 178
-0.0467319437 -0.0719682913 0.168 178 178 178
-0.0236752964 0.0836428234 0.112 178 178 178
0.0040503622 0.125 0.0151670117 178 178 178
0.0248035819 -0.0226265852 0.28 178 178 178
0.0881270282 -0.00940866104 0.112 178 178 178
-0.0431112795 0.0647134826 0.112 178 178 178
-0.039605821 0.111519915 0 178 178 178
-0.02 -0.0331730703 0.203450322 178 178 178
-0.0438924218 0.0146342078 0 178 178 178
0.0341106804 -0.0438040073 0.112 178 178 178
-0.02 0.0789930607 0.193340186 178 178 178
0.114616033 0.0386121913 0.28 178 178 178
0.141191927 0.0506136905 0.224 178 178 178
-0.0152725648 -0.0334394163 0.224 178 178 178
0.030450283 -0.125 0.0155911308 178 178 178
0.0232861729 -0.0786581485 0 178 178 178
-0.0768028595 -0.0476963387 0.112 178 178 178
0.0149362021 0.067811578 0 178 178 178
0.143890758 -0.065 0.276549445 178 178 178
0.00650071957 -0.0344995013 0 178 178 178
0.097595896 -0.0412162832 0.056 178 178 178
0.0410187166 0.112247109 0.056 178 178 178
0.00506007361 -0.0189591564 0 178 178 178
0.13 0.0107758052 0.109683675 178 178 178
0.016957754 0.0912712681 0 178 178 178
0.119457619 -0.0503749702 0.224 178 178 178
0.0287159441 -0.095 0.120600384 178 178 178
-0.0523085165 0.00587152833 0.056 178 178 178
0.0309879694 -0.08 0.171904391 178 178 178
0.131428202 0.0505777301 0.224 178 178 178
0.107872021 -0.10086698 0.056 178 178 178
0.0270818108 -0.08 0.169991936 178 178 178
0.109731992 -0.0277143374 0.28 178 178 178
0.0327090889 -0.0155515933 0.168 178 178 178
-0.0339855674 0.0824998205 0.056 178 178 178
0.113417796 -0.0594607212 0.224 178 178 178
0.0948983396 0.0614001327 0.28 178 178 178
-0.0064945145 0.0775993081 0.056 178 178 178
-0.102412878 -0.0456719465 0 178 178 178
0.13081361 0.08 0.202191238 178 178 178
0.0760492305 0.0492341457 0.168 178 178 178
0.113725572 -0.125 0.00318820714 178 178 178
0.0607203764 0.0189470504 0.112 178 178 178
0.00536250941 -0.0369538146 0.056 178 178 178
0.0626313353 0.00419515567 0.224 178 178 178
0.0195954938 -0.00275745524 0.056 178 178 178
-0.0646425075 -0.0267365431 0.056 178 178 178
0.021607852 -0.0196697791 0 178 178 178
0.0197803089 -0.0373980415 0.056 178 178 178
0.015 0.0458063618 0.264010242 178 178 178
0.0766912244 -0.125 0.0529564648 178 178 178
0.0490157084 0.104916994 0.112 178 178 178
0.145 -0.0130944924 0.241420419 178 178 178
0.0636517184 -0.0536931917 0 178 178 178
-0.125 -0.080221078 0.0393707163 178 178 178
0.00704615909 -0.0175148867 0.224 178 178 178
-0.123093959 0.0573114489 0 178 178 178
0.0731455482 -0.0291676255 0.28 178 178 178
0.0181761885 -0.08 0.20178949 178 178 178
0.0172895051 -0.0969758217 0.056 178 178 178
0.102321255 0.076521728 0.112 178 178 178
0.0369316073 -0.0839951547 0.112 178 178 178
0.135 0.00913481983 0.153155209 178 178 178
0.0783527037 -0.0880577241 0.056 178 178 178
-0.0408922681 0.0163558385 0.056 178 178 178
0.125 0.0718545218 0.0539879651 178 178 178
-0.125 0.0438753936 0.0322735168 178 178 178
-0.1135508 0.0177827989 0.056 178 178 178
0.123189981 -0.0426650605 0.224 178 178 178
-0.02 -0.031742273 0.185975695 178 178 178
-0.0814056804 0.077297079 0.056 178 178 178
0.135 -0.0464261104 0.133895753 178 178 178
0.13 -0.0510009866 0.0775498162 178 178 178
-0.0894836186 0.125 0.0194370627 178 178 178
0.0024322639 0.0271329911 0.056 178 178 178
0.145 0.00814184896 0.275845632 178 178 178
0.0163071573 -0.108983228 0.056 178 178 178
0.0381269759 -0.0564299861 0.112 178 178 178
0.113060215 0.055784734 0.28 178 178 178
-0.125 -0.025354292 0.0267934295 178 178 178
0.0330190032 -0.0613581681 0.224 178 178 178
-0.0076596607 -0.0921960815 0.056 178 178 178
-0.055 0.068915576 0.161125788 178 178 178
0.0624349933 -0.0682786028 0.224 178 178 178
0.00908698191 -0.08 0.209748492 178 178 178
0.145 0.0537643279 0.225909313 178 178 178
0.0838531004 0.095 0.155752553 178 178 178
0.0760215178 0.065 0.272584331 178 178 178
-0.122100581 0.125 0.00284420572 178 178 178
0.00965958351 0.11 0.0615154686 178 178 178
-0.0113297306 -0.125 0.0524194615 178 178 178
0.0244959391 0.0605838749 0 178 178 178
-0.0292955585 -0.0112654927 0.112 178 178 178
0.0659715431 0.095 0.120385412 178 178 178
0.0657598352 0.0116194162 0.168 178 178 178
-0.0322440645 -0.0895209314 0 178 178 178
0.120146413 0.049202301 0.28 178 178 178
0.125 0.0616542571 0.0198285113 178 178 178
-0.125 0.115480443 0.0117778255 178 178 178
0.0765521506 0.0699480776 0.224 178 178 178
0.115361591 -0.0194485043 0.224 178 178 178
-0.055 -0.0205438411 0.149267276 178 178 178
-0.00740822441 -0.0695259162 0.056 178 178 178
-0.0860600364 0.0408003622 0.112 178 178 178
0.00473873328 -0.08 0.221635215 178 178 178
0.048683572 0.0581844096 0.056 178 178 178
0.0884247463 -0.0747111025 0.224 178 178 178
0.0599354489 0.0447687401 0.168 178 178 178
-0.0330563113 0.0532394701 0.112 178 178 178
0.117661571 0.0352074799 0.224 178 178 178
-0.0120996671 -0.0118660817 0.056 178 178 178
0.0416925129 -0.0416269592 0.168 178 178 178
-0.0337395245 -0.0938886551 0.168 178 178 178
0.110651529 0.0725859043 0.056 178 178 178
0.117478748 0.11 0.058676113 178 178 178
-0.00413812991 0.00115905468 0.112 178 178 178
-0.09 0.0675737498 0.0988441573 178 178 178
0.0517414012 -0.071970099 0.056 178 178 178
0.015 0.0346289824 0.277169762 178 178 178
0.145 -0.0543794277 0.249857503 178 178 178
-0.0405929802 -0.102048336 0 178 178 178
0.0218058831 -0.0129324702 0.28 178 178 178
-0.0252270022 0.11 0.0672047156 178 178 178
0.00991526253 -0.027794309 0.056 178 178 178
0.0231940558 0.0279729086 0.224 178 178 178
-0.039761224 0.0724631525 0.112 178 178 178
0.0940478055 0.095 0.143746582 178 178 178
0.0198333864 0.0504897773 0.224 178 178 178
-0.09 0.0990999015 0.0638492189 178 178 178
0.0597591474 0.00597999756 0 178 178 178
0.00649399799 0.0724057952 0.224 178 178 178
0.135 0.0310994536 0.166125039 178 178 178
0.0791586022 0.0333017665 0.224 178 178 178
0.101805733 0.125 0.0555244245 178 178 178
0.0483323434 -0.00237190281 0.168 178 178 178
0.0527134435 0.08 0.17103997 178 178 178
0.0510886759 0.0372676377 0.056 178 178 178
0.066942816 0.00358376874 0.112 178 178 178
0.109154103 0.0619748918 0.056 178 178 178
0.0422180457 -0.111711417 0 178 178 178
-0.0701983727 -0.125 0.00968557814 178 178 178
0.0940488383 -0.0605271525 0.056 178 178 178
-0.00703062029 -0.105628057 0.056 178 178 178
0.130290768 -0.0626030876 0.168 178 178 178
0.0112936082 -0.104485376 0.112 178 178 178
0.0483257179 -0.0826122921 0.112 178 178 178
-0.125 0.072626167 0.0207450369 178 178 178
-0.0625613106 0.0110137835 0.056 178 178 178
0.104034112 -0.010714706 0.168 178 178 178
-0.0322779262 -0.11 0.0849531817 178 178 178
-0.0314765019 -0.0531752361 0.112 178 178 178
0.0784585421 0.0158933318 0.112 178 178 178
0.107883195 0.0666720714 0.112 178 178 178
0.057904321 -0.0476735566 0.224 178 178 178
0.0208577589 0.125 0.0364750591 178 178 178
0.0965193647 0.11 0.0706315889 178 178 178
-0.0302769812 -0.095 0.112277925 178 178 178
-0.0093412592 0.0279987731 0 178 178 178
0.0845866663 -0.065 0.249330135 178 178 178
0.13 0.0750634476 0.108391503 178 178 178
0.125 -0.110210484 0.00650895534 178 178 178
0.108641152 0.00248138716 0.168 178 178 178
0.0656734039 0.0570445958 0.224 178 178 178
0.0676943218 -0.0682961074 0.168 178 178 178
0.0299249336 0.0269928672 0.224 178 178 178
-0.087895322 -0.000722995284 0 178 178 178
0.0194762714 0.11 0.0839938771 178 178 178
-0.055 0.0512595813 0.11409869 178 178 178
0.133472116 0.0587199636 0.224 178 178 178
-0.0228269093 -0.0904211946 0.168 178 178 178
0.0152768807 -0.024646115 0.112 178 178 178
0.0972285356 -0.0677662648 0.112 178 178 178
0.073526303 -0.0129068905 0.112 178 178 178
0.0809517609 -0.0914706253 0.112 178 178 178
0.0855420041 -0.0118305627 0.224 178 178 178
0.0172231738 -0.0157712182 0.224 178 178 178
-0.055 0.0744414731 0.16206025 178 178 178
0.0607373656 -0.0593645835 0.28 178 178 178
-0.069409214 0.0109737919 0 178 178 178
0.0545498828 0.0587358718 0.168 178 178 178
0.0235528575 0.0101167367 0.112 178 178 178
0.136059372 -0.0482990776 0.168 178 178 178
-0.125 0.0203380334 0.0193104596 178 178 178
0.0526051808 0.0498003724 0.112 178 178 178
-0.00117040959 0.0373613301 0.224 178 178 178
0.0518634129 0.0196117568 0 178 178 178
-0.125 0.0788266828 0.0492797774 178 178 178
-0.0427681561 -0.11 0.05823699 178 178 178
0.14 -0.031757706 0.209375674 178 178 178
-0.0121612749 0.125 0.0497662744 178 178 178
0.00187531222 -0.0439739795 0.224 178 178 178
0.125 -0.0520598834 0.0413910069 178 178 178
-0.125 -0.0409553164 0.0179007887 178 178 178
0.0658565764 -0.0165144196 0.112 178 178 178
-0.0359934254 0.0443256863 0.168 178 178 178
-0.02 -0.0358257632 0.212261633 178 178 178
-0.02 -0.0305006597 0.214973119 178 178 178
0.125 0.111939784 0.0420279195 178 178 178
-0.055 -0.0589561889 0.147155689 178 178 178
0.134900232 0.0199751882 0.168 178 178 178
-0.0490357673 0.069385772 0.056 178 178 178
0.0201071663 0.00300509293 0.168 178 178 178
0.0648770296 -0.0492937437 0.224 178 178 178
-0.0449830765 -0.11 0.0709107028 178 178 178
0.0691606984 0.00232802688 0.224 178 178 178
-0.0387122072 -0.0998480526 0.056 178 178 178
0.030754051 0.0816732497 0.056 178 178 178
0.112858477 -0.066451182 0.168 178 178 178
-0.125 -0.0705860733 0.0188393723 178 178 178
-0.00726611803 0.0225563594 0.112 178 178 178
0.13 0.0355291779 0.0941418117 178 178 178
0.00233822234 -0.0357159703 0.056 178 178 178
0.133352864 -0.00946266236 0.168 178 178 178
-0.055 0.071067358 0.11245183 178 178 178
0.0165518 -0.00192772027 0.056 178 178 178
-0.0447286068 0.125 0.0423828525 178 178 178
0.0480053214 -0.0368535861 0.224 178 178 178
0.0938758541 0.055154338 0.224 178 178 178
0.0296508702 0.08 0.20681547 178 178 178
0.13 0.0239231808 0.0767804595 178 178 178
-0.048494355 -0.0548601553 0.056 178 178 178
-0.0658108164 0.0066588445 0.112 178 178 178
0.00853750813 0.0669707504 0.056 178 178 178
0.13 -0.03581753 0.0856968791 178 178 178
-0.0718805627 -0.125 0.00905485309 178 178 178
-0.0307752217 0.065321725 0.056 178 178 178
-0.00347134041 0.0112828993 0.056 178 178 178
-0.0875745155 0.104998805 0 178 178 178
-0.0245323484 -0.11 0.102577451 178 178 178
0.135 0.00435454037 0.159566243 178 178 178
0.108772064 0.0842636827 0.168 178 178 178
0.145 0.0520005077 0.262365612 178 178 178
-0.02 -0.00742291279 0.200133294 178 178 178
0.088321572 -0.0212394405 0.168 178 178 178
0.0811437065 -0.0226495658 0.224 178 178 178
-0.0631341416 -0.0112359948 0.112 178 178 178
0.0525945639 -0.0578198381 0.224 178 178 178
-0.125 0.0647082484 0.0186595258 178 178 178
0.0224352586 0.11 0.0671647519 178 178 178
0.0918476704 0.065 0.250545353 178 178 178
0.02733082 0.0608199248 0.112 178 178 178
0.13 0.000325336665 0.0836609544 178 178 178
-0.0170073205 -0.0454385756 0.168 178 178 178
0.0528482131 -0.0288722982 0.056 178 178 178
0.0241095308 -0.00827677686 0.224 178 178 178
0.0825675981 -0.000756329896 0 178 178 178
0.125 -0.120146635 0.0263682859 178 178 178
-0.0713508304 0.0615759224 0.056 178 178 178
0.125 -0.0201108583 0.0213843352 178 178 178
0.0736554985 0.0252662417 0.28 178 178 178
0.107811466 0.0739874744 0 178 178 178
-0.125 -0.0126788526 0.0104682247 178 178 178
0.0829558804 0.0172388946 0.112 178 178 178
0.135 0.0308339492 0.136751231 178 178 178
0.0210040278 -0.0376633865 0.168 178 178 178
-0.071326708 -0.0783693002 0.056 178 178 178
-0.0862707153 -0.125 0.0514003211 178 178 178
0.14 -0.0515092327 0.200670294 178 178 178
0.0820731635 0.0326154746 0.056 178 178 178
0.00658907755 0.0356032683 0 178 178 178
0.103898215 -0.125 0.0160109891 178 178 178
0.13 -0.0519345942 0.0807302505 178 178 178
0.0893977011 0.0254250783 0.28 178 178 178
-0.055 -0.0434815093 0.153469851 178 178 178
0.114257041 -0.0547946753 0.112 178 178 178
0.0945861438 0.11 0.0656095241 178 178 178
0.135 -0.00718899683 0.145713858 178 178 178
0.0759726246 -0.0377438846 0.168 178 178 178
0.0788175703 0.054195835 0.056 178 178 178
-0.0791526568 -0.0309704517 0 178 178 178
-0.11978347 0.05932212 0.056 178 178 178
0.0965961934 0.0532382046 0.168 178 178 178
0.10767392 0.0167872818 0.168 178 178 178
0.0557841676 -0.0569842973 0.224 178 178 178
0.0409814316 -0.0310046173 0 178 178 178
0.0859619869 -0.0165178931 0.224 178 178 178
0.0444068035 0.0269740425 0.056 178 178 178
0.093326083 -0.00609478953 0.28 178 178 178
0.0272494502 0.089712818 0.112 178 178 178
-0.09 0.084540518 0.0582401234 178 178 178
0.0472803812 0.0757619275 0.224 178 178 178
-0.0204332205 -0.0679758324 0.168 178 178 178
-0.038569183 -0.0419635464 0.168 178 178 178
-0.0115255458 -0.0978721318 0.056 178 178 178
-0.0262641828 0.00675832233 0.112 178 178 178
0.063369268 0.0937507948 0.056 178 178 178
-0.11366737 0.104288439 0 178 178 178
0.11667281 0.106046655 0.056 178 178 178
-0.0578061129 -0.11 0.0909594197 178 178 178
0.111213463 0.125 0.00704694509 178 178 178
0.106574141 0.021810753 0.168 178 178 178
0.112062315 -0.0219340723 0.056 178 178 178
-0.0430550122 -0.0696445638 0 178 178 178
0.015 -0.0532780611 0.226481828 178 178 178
-0.0807043791 -0.10658809 0.056 178 178 178
0.13 0.0782659807 0.0952271344 178 178 178
-0.0531068529 0.0505857349 0.056 178 178 178
0.00923513608 0.113256998 0.056 178 178 178
0.115789352 0.0681224132 0.112 178 178 178
0.0131696052 -0.0454983284 0.168 178 178 178
0.051449236 0.00310272233 0 178 178 178
0.0578356253 -0.08 0.195552194 178 178 178
0.015 -0.0152612228 0.261120502 178 178 178
-0.00607690695 -0.0765954179 0.112 178 178 178
-0.0178917493 0.0221018513 0.056 178 178 178
0.034791388 -0.125 0.00612421993 178 178 178
-0.109639189 -0.109403884 0.056 178 178 178
0.0615477271 -0.0560211957 0.056 178 178 178
0.14 0.0640551504 0.220967418 178 178 178
-0.0633736599 -0.0819436401 0 178 178 178
0.112617142 0.0755183122 0.168 178 178 178
0.00486232645 0.0379072325 0.168 178 178 178
-0.0102737811 -0.124648962 0 178 178 178
0.0208328099 0.121107472 0 178 178 178
-0.055 0.0266137709 0.150535014 178 178 178
0.0452201077 0.0305890969 0.168 178 178 178
0.0449857506 -0.0653652224 0.056 178 178 178
0.14 0.070207247 0.186425426 178 178 178
-0.0652366769 -0.0348870284 0.056 178 178 178
0.0109281526 -0.0619625253 0.112 178 178 178
0.00804615439 -0.0735486496 0.056 178 178 178
-0.0331664061 -0.0475274569 0.168 178 178 178
-0.035543817 0.104683727 0 178 178 178
-0.0444908832 0.0497530323 0.056 178 178 178
0.104099601 0.0331703599 0.168 178 178 178
0.13 -0.0866108186 0.108695923 178 178 178
0.0604556923 0.0386433059 0.168 178 178 178
-0.055 0.0205859988 0.14143576 178 178 178
0.0819260116 0.0434826296 0.112 178 178 178
0.00212591388 0.0518187891 0.056 178 178 178
0.135 -0.0573207608 0.142612357 178 178 178
-0.00464438831 -0.0656758033 0.056 178 178 178
0.04758797 0.125 0.0334971327 178 178 178
0.0486701061 0.0786166162 0.112 178 178 178
-0.0233481348 -0.0727880045 0.056 178 178 178
0.124509458 -0.0341168697 0.056 178 178 178
-0.0347940956 -0.00284241833 0.168 178 178 178
-0.055 -0.00421034365 0.139171804 178 178 178
-0.0644156539 -0.0328827977 0.056 178 178 178
0.0477175561 -0.108421215 0.112 178 178 178
-0.113176346 0.0274497918 0.056 178 178 178
-0.0516589161 0.11 0.0601288179 178 178 178
0.124852475 -0.0258618651 0.112 178 178 178
0.0797221353 -0.0425584442 0.28 178 178 178
0.0999155347 -0.0651607784 0 178 178 178
0.0372821842 0.00718062775 0.224 178 178 178
0.015 0.0288608008 0.259714129 178 178 178
-0.0112059641 -0.0473627886 0.056 178 178 178
-0.0445201522 0.095 0.150255824 178 178 178
0.0125431204 0.0177591129 0.224 178 178 178
0.0444760038 0.0640641941 0.168 178 178 178
-0.125 0.120716633 0.00910518562 178 178 178
0.103638042 -0.0910677972 0.168 178 178 178
0.0638841632 0.08 0.178460675 178 178 178
0.0429784489 -0.120354727 0.056 178 178 178
0.0905861575 -0.11 0.0937807479 178 178 178
-0.0217044141 -0.0517572863 0 178 178 178
0.0961716774 -0.08 0.200464875 178 178 178
0.114120789 0.0662681384 0.168 178 178 178
-0.0239408437 -0.0802333837 0 178 178 178
-0.055 -0.0349259676 0.132245207 178 178 178
0.0265130566 -0.095 0.122616604 178 178 178
-0.030359117 -0.0745065773 0.056 178 178 178
-0.023999407 0.11 0.0875305092 178 178 178
0.0733962455 -0.095 0.124028959 178 178 178
0.0865265341 -0.0630295888 0.056 178 178 178
0.13 0.0937585096 0.0928104918 178 178 178
0.0596210325 0.065 0.271073001 178 178 178
0.0551886474 -0.0599367557 0.168 178 178 178
0.13 0.0433843997 0.0666568892 178 178 178
-0.10895789 0.0802087506 0 178 178 178
0.10395458 -0.0912449237 0.056 178 178 178
0.14 -0.0509799116 0.214272107 178 178 178
-0.055 -0.0396968996 0.112948724 178 178 178
0.0103960959 -0.08 0.188458889 178 178 178
0.122046174 0.00388466903 0.112 178 178 178
0.0457833301 -0.0669291236 0.112 178 178 178
-0.0100218188 0.11 0.0778312234 178 178 178
-0.055 -0.00459112292 0.164669755 178 178 178
0.0101754976 -0.106634039 0.056 178 178 178
0.13 0.0414629775 0.109532829 178 178 178
-0.0532672629 -0.11 0.0828038663 178 178 178
-0.0161723211 -0.0388876165 0.168 178 178 178
0.00615620616 -0.125 0.0401334148 178 178 178
0.097951383 0.0128956319 0 178 178 178
0.0217405719 0.0335854561 0 178 178 178
0.00423198925 0.104501818 0.056 178 178 178
0.14 0.0207304801 0.190760125 178 178 178
0.012413014 0.095 0.162558186 178 178 178
0.0337262138 -0.0417933632 0.168 178 178 178
-0.0311458817 0.00711214475 0.112 178 178 178
-0.101495592 -0.03750621 0 178 178 178
-0.0628551772 0.079201102 0.112 178 178 178
0.14 0.0296449991 0.175057188 178 178 178
0.13 0.0681332284 0.0573949681 178 178 178
0.0377660909 -0.0857851327 0.168 178 178 178
-0.0545344084 0.0785691547 0.056 178 178 178
0.124098094 0.0231788461 0.056 178 178 178
-0.00157686121 -0.091397491 0.168 178 178 178
0.034218932 -0.11 0.069843213 178 178 178
0.115133944 -0.0658499527 0.056 178 178 178
0.125 0.105709471 0.0236442037 178 178 178
0.135 0.0559637877 0.164294337 178 178 178
0.0147229895 -0.0389910343 0.056 178 178 178
0.0875829289 0.0237750217 0.112 178 178 178
0.12242623 0.125 0.016430406 178 178 178
0.0850431397 0.0218793307 0.168 178 178 178
-0.0770820601 0.0569875588 0.056 178 178 178
-0.0337515731 -0.11 0.0844748602 178 178 178
0.099462861 -0.0585199996 0.28 178 178 178
0.114088824 0.095 0.145887723 178 178 178
-0.055 0.0748149217 0.128291839 178 178 178
-0.0324082133 -0.100263245 0.056 178 178 178
0.0747272219 -0.08 0.217493007 178 178 178
-0.0890180485 -0.0980959391 0.056 178 178 178
0.015 -0.0552467486 0.279610574 178 178 178
0.138130755 -0.0551525622 0.224 178 178 178
0.0900754014 0.0937883702 0.168 178 178 178
0.0592569756 0.0618170666 0.224 178 178 178
-0.09 0.0990709454 0.0581673735 178 178 178
-0.055 0.0371004049 0.131070515 178 178 178
0.0161302427 -0.0584867657 0.056 178 178 178
0.015 0.0626727386 0.247848847 178 178 178
0.0193499596 -0.0554408842 0.224 178 178 178
0.114396903 -0.0489601587 0.056 178 178 178
0.125 0.0779493001 0.0534276171 178 178 178
0.111403401 -0.0618858394 0.112 178 178 178
0.0604869197 -0.0323571607 0.168 178 178 178
0.105806563 0.0858119362 0.056 178 178 178
0.132660716 -0.065 0.22847382 178 178 178
0.0351551281 -0.10878376 0.056 178 178 178
0.015 0.0185521582 0.224582322 178 178 178
0.0389122666 -0.0466962637 0.168 178 178 178
0.0506899369 -0.11 0.0648824781 178 178 178
-0.0236079023 0.0906861419 0.056 178 178 178
-0.0908574966 -0.055926468 0 178 178 178
-0.0329263876 0.0388811269 0 178 178 178
0.0581404721 -0.00538642644 0.168 178 178 178
0.087834788 0.0711453066 0.168 178 178 178
0.0658412963 -0.0602133483 0.224 178 178 178
0.0403543492 0.0681296229 0.056 178 178 178
0.0633304529 0.00888284359 0.28 178 178 178
-0.125 -0.0760158754 0.0201902856 178 178 178
0.0818966314 0.0528800387 0.28 178 178 178
0.0706156227 0.0530522314 0.224 178 178 178
0.104880298 -0.11251247 0.056 178 178 178
0.14 0.00655064801 0.17253775 178 178 178
0.135 0.00479822265 0.133649188 178 178 178
0.135 -0.0284551225 0.12069235 178 178 178
0.0583328756 -0.08 0.196297193 178 178 178
-0.09 0.0896617267 0.0753465393 178 178 178
0.13 0.0847964387 0.0708118417 178 178 178
-0.0731408298 -0.0621439845 0.056 178 178 178
0.0930978621 0.08 0.192519316 178 178 178
0.13055833 -0.00070683747 0.224 178 178 178
0.0373250539 0.0941571861 0.056 178 178 178
0.0786048904 0.0778648857 0.168 178 178 178
-0.0298404375 0.125 0.00218844824 178 178 178
-0.0948852059 -0.071905201 0.056 178 178 178
-0.0490101869 0.0997463065 0.056 178 178 178
