ply
format ascii 1.0
comment VisionMCP reconstruction mesh
element vertex 56
property float x
property float y
property float z
element face 84
property list uchar int vertex_indices
end_header
-0.01 -0.01 0
0.01 -0.01 0
0.01 0.01 0
-0.01 0.01 0
-0.01 -0.01 0.35
0.01 -0.01 0.35
0.01 0.01 0.35
-0.01 0.01 0.35
0.02 0 0.045
0.08 0 0.045
0.08 0 0.045
0.02 0 0.045
0.02 0 0.055
0.08 0 0.055
0.08 0 0.055
0.02 0 0.055
0.00907192243 0.0178241472 0.095
0.0362876897 0.0178241472 0.095
0.0362876897 0.0712965888 0.095
0.00907192243 0.0712965888 0.095
0.00907192243 0.0178241472 0.105
0.0362876897 0.0178241472 0.105
0.0362876897 0.0712965888 0.105
0.00907192243 0.0712965888 0.105
-0.0117700223 0.0161699281 0.145
-0.0470800894 0.0161699281 0.145
-0.0470800894 0.0646797123 0.145
-0.0117700223 0.0646797123 0.145
-0.0117700223 0.0161699281 0.155
-0.0470800894 0.0161699281 0.155
-0.0470800894 0.0646797123 0.155
-0.0117700223 0.0646797123 0.155
-0.0197495954 -0.00315491388 0.195
-0.0789983816 -0.00315491388 0.195
-0.0789983816 -0.0126196555 0.195
-0.0197495954 -0.0126196555 0.195
-0.0197495954 -0.00315491388 0.205
-0.0789983816 -0.00315491388 0.205
-0.0789983816 -0.0126196555 0.205
-0.0197495954 -0.0126196555 0.205
-0.0061466574 -0.0190320415 0.245
-0.0245866296 -0.0190320415 0.245
-0.0245866296 -0.0761281659 0.245
-0.0061466574 -0.0761281659 0.245
-0.0061466574 -0.0190320415 0.255
-0.0245866296 -0.0190320415 0.255
-0.0245866296 -0.0761281659 0.255
-0.0061466574 -0.0761281659 0.255
0.0141733955 -0.0141108065 0.295
0.0566935819 -0.0141108065 0.295
0.0566935819 -0.056443226 0.295
0.0141733955 -0.056443226 0.295
0.0141733955 -0.0141108065 0.305
0.0566935819 -0.0141108065 0.305
0.0566935819 -0.056443226 0.305
0.0141733955 -0.056443226 0.305
3 0 1 2
3 0 2 3
3 4 6 5
3 4 7 6
3 0 4 5
3 0 5 1
3 1 5 6
3 1 6 2
3 2 6 7
3 2 7 3
3 3 7 4
3 3 4 0
3 8 9 10
3 8 10 11
3 12 14 13
3 12 15 14
3 8 12 13
3 8 13 9
3 9 13 14
3 9 14 10
3 10 14 15
3 10 15 11
3 11 15 12
3 11 12 8
3 16 17 18
3 16 18 19
3 20 22 21
3 20 23 22
3 16 20 21
3 16 21 17
3 17 21 22
3 17 22 18
3 18 22 23
3 18 23 19
3 19 23 20
3 19 20 16
3 24 25 26
3 24 26 27
3 28 30 29
3 28 31 30
3 24 28 29
3 24 29 25
3 25 29 30
3 25 30 26
3 26 30 31
3 26 31 27
3 27 31 28
3 27 28 24
3 32 33 34
3 32 34 35
3 36 38 37
3 36 39 38
3 32 36 37
3 32 37 33
3 33 37 38
3 33 38 34
3 34 38 39
3 34 39 35
3 35 39 36
3 35 36 32
3 40 41 42
3 40 42 43
3 44 46 45
3 44 47 46
3 40 44 45
3 40 45 41
3 41 45 46
3 41 46 42
3 42 46 47
3 42 47 43
3 43 47 44
3 43 44 40
3 48 49 50
3 48 50 51
3 52 54 53
3 52 55 54
3 48 52 53
3 48 53 49
3 49 53 54
3 49 54 50
3 50 54 55
3 50 55 51
3 51 55 52
3 51 52 48
