ply
format ascii 1.0
comment VisionMCP oriented point archive (not a trained radiance field)
element vertex 798
property float x
property float y
property float z
property uchar red
property uchar green
property uchar blue
end_header
-0.12 -0.0368341258 -0.0367221181 140 140 140
-0.12 0.0501232383 0.0330204462 140 140 140
-0.12 0.0367194498 0.00348999932 140 140 140
-0.12 0.0505365687 -0.03978092 140 140 140
-0.12 -0.074626308 0.0183724357 140 140 140
-0.12 0.0581086276 0.00331689762 140 140 140
-0.12 -0.0123700446 -0.0377344263 140 140 140
-0.12 0.0272999064 0.0117751609 140 140 140
-0.12 -0.0186115913 0.0397767949 140 140 140
-0.12 0.0296867175 0.0120367421 140 140 140
-0.12 -0.0177725722 -0.0291922796 140 140 140
-0.12 0.0040566916 -0.01518065 140 140 140
-0.12 0.0623180535 0.0347234813 140 140 140
-0.12 0.0114447729 -0.0142504487 140 140 140
-0.12 -0.0259342039 -0.00867047996 140 140 140
-0.12 -0.043654785 0.00985497157 140 140 140
-0.12 0.0532230636 0.0229678646 140 140 140
-0.12 0.0602374769 -0.0353145572 140 140 140
-0.12 -0.0559552853 -0.00397285067 140 140 140
-0.12 -0.0430972466 -0.0358382959 140 140 140
-0.12 -0.0482379129 -0.0327397564 140 140 140
-0.12 -0.0322086187 0.0137595902 140 140 140
-0.12 0.0707380977 -0.0107911865 140 140 140
-0.12 0.0206573042 0.0341723642 140 140 140
-0.12 0.072734479 -8.33490499e-06 140 140 140
-0.12 0.0192341523 0.0396077204 140 140 140
-0.12 -0.00639277771 0.0206183076 140 140 140
-0.12 0.00468994563 0.0228628561 140 140 140
-0.12 0.0375173715 0.0168914302 140 140 140
-0.12 -0.0616107787 0.0183212094 140 140 140
-0.12 0.0748681904 -0.0388234956 140 140 140
-0.12 0.0769912064 0.0365768144 140 140 140
-0.12 0.0756206102 0.0311948445 140 140 140
-0.12 -0.00320193219 -0.0214101664 140 140 140
-0.12 0.0677648256 -0.0187095782 140 140 140
-0.12 -0.00915954736 0.0344813853 140 140 140
-0.12 0.0371209913 0.00914985976 140 140 140
-0.12 0.0350751637 -0.0387206616 140 140 140
-0.12 0.00204139572 0.0343283377 140 140 140
-0.12 0.0546107647 -0.0346647993 140 140 140
-0.12 -0.0111522029 0.0372849665 140 140 140
-0.12 -0.0385816651 -0.0206659429 140 140 140
-0.12 -0.0438608915 -0.0300356235 140 140 140
-0.12 0.0137796904 0.00432724017 140 140 140
-0.12 0.00967615232 -0.0169263028 140 140 140
-0.12 0.0508993554 0.010120517 140 140 140
-0.12 -0.0208952942 0.00420892084 140 140 140
-0.12 0.0557265933 -0.0283621169 140 140 140
-0.12 0.0655934339 -0.0365546489 140 140 140
-0.12 -0.013538554 0.0263843188 140 140 140
-0.12 -0.0215926148 -0.033709597 140 140 140
-0.12 -0.0361841442 0.0162121657 140 140 140
-0.12 -0.0597092636 0.0291822636 140 140 140
-0.12 -0.0190767187 -0.00561807511 140 140 140
-0.12 0.0762339715 0.022055295 140 140 140
-0.12 -0.0368261143 0.0290496163 140 140 140
-0.12 0.00171304089 -0.0124563415 140 140 140
-0.12 -0.0294490327 -0.0253830097 140 140 140
-0.12 0.0499736637 0.0134311524 140 140 140
-0.12 0.0681143324 0.0198598803 140 140 140
-0.12 -0.0404565215 -0.0287002754 140 140 140
-0.12 0.0343389659 -0.0266357657 140 140 140
-0.12 0.0656409226 0.0049120614 140 140 140
-0.12 -0.0489392363 0.00208177989 140 140 140
-0.12 -0.0657702976 0.0385554155 140 140 140
-0.12 -0.0789745788 0.0218119361 140 140 140
-0.12 0.0143792045 -0.0144254691 140 140 140
-0.12 0.0276042614 -0.0243914081 140 140 140
-0.12 0.0163582682 0.0369938474 140 140 140
-0.12 -4.34821462e-06 0.0195277983 140 140 140
-0.12 -0.0179093229 -0.0349683601 140 140 140
-0.12 -0.0659571381 -0.00839266333 140 140 140
-0.12 -0.00443194612 0.0330097547 140 140 140
-0.12 0.0664518336 -0.0298077593 140 140 140
-0.12 -0.0687477994 0.0295083435 140 140 140
-0.12 -0.000548528992 -0.0269165267 140 140 140
-0.12 -0.0291172179 0.0168703891 140 140 140
-0.12 0.00119517769 0.0231732586 140 140 140
-0.12 0.0126013605 -0.0242212042 140 140 140
-0.12 -0.00178463422 0.0390956267 140 140 140
-0.12 0.0740830624 0.0240733629 140 140 140
-0.12 0.0501654503 0.00822791242 140 140 140
-0.12 0.066190522 -0.0347783667 140 140 140
-0.12 -0.0189096352 -0.0139563507 140 140 140
-0.12 0.0449904803 -0.0011571889 140 140 140
-0.12 0.0604046249 -0.0330548102 140 140 140
-0.12 0.0462647398 0.0239357104 140 140 140
-0.12 0.0474622692 -0.0219737246 140 140 140
-0.12 -0.013208302 0.00331279869 140 140 140
-0.12 -0.0148883519 -0.0399759448 140 140 140
-0.12 0.056300146 -0.0288854657 140 140 140
-0.12 0.0513764941 0.0385462658 140 140 140
-0.12 -0.0121429623 0.0383750967 140 140 140
-0.12 0.000588316672 0.0202757231 140 140 140
-0.12 -0.00381646848 0.0291028993 140 140 140
-0.12 -0.032972119 0.0214121816 140 140 140
-0.12 -0.0649847755 -0.0086895659 140 140 140
-0.12 -0.00381328589 -0.00571683135 140 140 140
-0.12 0.0138080566 -0.0301847472 140 140 140
-0.12 0.0294480717 0.0259025087 140 140 140
-0.12 0.0133312075 -0.0367825423 140 140 140
-0.12 0.0110441367 0.0260765778 140 140 140
-0.12 0.0501190553 0.0397608234 140 140 140
-0.12 -0.0526365696 -0.00866601604 140 140 140
-0.12 -0.0097233709 0.00707040875 140 140 140
-0.12 0.0361797617 -0.0175934079 140 140 140
-0.12 0.0580719998 0.00515302569 140 140 140
-0.12 0.0638118024 -0.0331190051 140 140 140
-0.12 -0.0275228336 -0.02596722 140 140 140
-0.12 -0.0219484879 -0.0136083334 140 140 140
-0.12 -0.0481122655 0.000973892627 140 140 140
-0.12 -0.0538611054 0.0306734987 140 140 140
-0.12 0.00909367841 -0.0222037283 140 140 140
-0.12 -0.0780565558 0.0170394905 140 140 140
-0.12 0.0233672038 0.00890709474 140 140 140
-0.12 -0.040575045 0.00595024385 140 140 140
-0.12 0.0787237166 0.0338996286 140 140 140
-0.12 0.0143936948 0.0156972085 140 140 140
-0.12 -0.0299846965 0.0172734278 140 140 140
-0.12 -0.025321176 -0.0208845031 140 140 140
-0.12 0.0135972288 -0.00187292626 140 140 140
-0.12 -0.0683746642 -0.0385686863 140 140 140
-0.12 -0.0494223562 0.0380426383 140 140 140
-0.12 -0.00766579387 -0.00842721623 140 140 140
-0.12 0.039800916 0.011496381 140 140 140
-0.12 -0.0667506279 -0.0117805267 140 140 140
-0.12 -0.011724617 -0.0367505951 140 140 140
-0.12 0.0712039437 -0.026994422 140 140 140
-0.12 0.0515419455 -0.00869649943 140 140 140
-0.12 0.0518402892 0.014454906 140 140 140
-0.12 0.0412154537 0.0153017184 140 140 140
-0.12 0.0516491413 -0.025674985 140 140 140
-0.12 -0.0661309883 -0.00593150078 140 140 140
0.12 -0.047653105 0.0350324087 140 140 140
0.12 -0.0792160936 -0.0141663357 140 140 140
0.12 -0.0376487795 0.0264555412 140 140 140
0.12 0.0138205368 0.0366727468 140 140 140
0.12 0.076881276 0.00596453193 140 140 140
0.12 0.0539275251 0.0222598581 140 140 140
0.12 0.0210386428 -0.0114908363 140 140 140
0.12 -0.0437599367 0.0222035299 140 140 140
0.12 0.0123516718 0.00287191437 140 140 140
0.12 0.0416778558 -0.0312137691 140 140 140
0.12 -0.0137670588 0.00913611485 140 140 140
0.12 0.0136767337 0.0186308861 140 140 140
0.12 -0.00594115054 -0.0170584908 140 140 140
0.12 0.031248337 0.0156569082 140 140 140
0.12 0.0754939867 0.0136920624 140 140 140
0.12 0.0545880562 -0.00107836534 140 140 140
0.12 -0.038676096 -0.0275091615 140 140 140
0.12 0.0550577549 0.0142239022 140 140 140
0.12 0.0121155346 0.00507299789 140 140 140
0.12 -0.0179721261 -0.0268173878 140 140 140
0.12 0.0631565595 -0.0361387524 140 140 140
0.12 0.0218053846 0.0231076125 140 140 140
0.12 -0.0493457286 -0.030588674 140 140 140
0.12 0.0504816651 -0.0226346255 140 140 140
0.12 0.00816719933 -0.0246546281 140 140 140
0.12 0.0437223357 0.0256981285 140 140 140
0.12 -0.0329477824 -0.0178303288 140 140 140
0.12 0.0123052229 0.00222560625 140 140 140
0.12 0.0219873567 0.0140613954 140 140 140
0.12 -0.0180328136 0.00991222256 140 140 140
0.12 -0.0255481828 -0.015743919 140 140 140
0.12 0.0179746782 0.00886387511 140 140 140
0.12 0.0105238252 0.0388615708 140 140 140
0.12 0.0548823543 -0.0334941047 140 140 140
0.12 0.0706729849 -0.0190508787 140 140 140
0.12 -0.00271865385 -0.0253830194 140 140 140
0.12 0.0636317496 0.0368531909 140 140 140
0.12 0.0024256587 0.026617428 140 140 140
0.12 -0.0402307718 0.0347428831 140 140 140
0.12 0.0437689965 7.50365591e-05 140 140 140
0.12 -0.0326517045 0.0059528615 140 140 140
0.12 -0.0778019426 -0.00528870205 140 140 140
0.12 0.0182651638 -0.0140682899 140 140 140
0.12 -0.0024776587 0.0399601082 140 140 140
0.12 0.0529010306 -0.0192360875 140 140 140
0.12 -0.0481113745 -0.00541880285 140 140 140
0.12 -0.0488625044 0.0223955817 140 140 140
0.12 -0.0294392023 0.000645135741 140 140 140
0.12 0.0355805078 -0.0282022036 140 140 140
0.12 0.0369129593 0.00545538514 140 140 140
0.12 -0.00834266208 -0.0074709724 140 140 140
0.12 -0.0429803884 0.0120613068 140 140 140
0.12 0.0579640833 -0.0183481283 140 140 140
0.12 0.0109094627 0.0102767038 140 140 140
0.12 -0.0528018478 -0.0280147563 140 140 140
0.12 -0.0677697567 0.00273848189 140 140 140
0.12 0.0491468688 -0.0381911576 140 140 140
0.12 -0.00428736458 -0.0226777359 140 140 140
0.12 -0.0443533703 -0.0174537515 140 140 140
0.12 -0.0132519414 -0.0091308047 140 140 140
0.12 0.0262626971 0.0128221236 140 140 140
0.12 0.0131044126 0.018873888 140 140 140
0.12 0.0141654803 -0.0295541553 140 140 140
0.12 -0.0283114091 0.0342047048 140 140 140
0.12 0.0632758251 -0.00322600374 140 140 140
0.12 -0.00237965189 0.0166961809 140 140 140
0.12 0.0623784422 -0.0187433545 140 140 140
0.12 0.0353865258 0.0141283571 140 140 140
0.12 0.0299864004 0.00690113688 140 140 140
0.12 0.0270725956 -0.0394721181 140 140 140
0.12 -0.0126594552 -0.00973044957 140 140 140
0.12 -0.0116867834 0.00988937949 140 140 140
0.12 0.0333599173 -0.0215262324 140 140 140
0.12 0.0398239751 0.0134982504 140 140 140
0.12 -0.0581172344 0.0130946991 140 140 140
0.12 -0.0537691755 0.015144139 140 140 140
0.12 0.0664189784 0.020123175 140 140 140
0.12 0.0700842111 -0.0379813795 140 140 140
0.12 -0.0412955246 0.0185664067 140 140 140
0.12 -0.00569993474 -0.0221973329 140 140 140
0.12 -0.0612629747 -0.0202127024 140 140 140
0.12 -0.00783240569 0.0301454189 140 140 140
0.12 0.0463271435 -0.0250077382 140 140 140
0.12 -0.0197270317 -0.000464063529 140 140 140
0.12 0.0515945852 -0.0261447574 140 140 140
0.12 0.0622474071 -0.0339584772 140 140 140
0.12 -0.0331595243 -0.00794041858 140 140 140
0.12 -0.0685746245 0.0225044212 140 140 140
0.12 -0.059220236 -0.0107135753 140 140 140
0.12 -0.0410284 -0.0164508994 140 140 140
0.12 0.0739618232 -0.00329115448 140 140 140
0.12 -0.0751148685 -0.0347111793 140 140 140
0.12 0.0265511421 -0.0223813847 140 140 140
0.12 0.0472585817 -0.0134548865 140 140 140
0.12 0.0360653739 -0.00192817654 140 140 140
0.12 -0.0660087812 0.0189734001 140 140 140
0.12 0.0624579325 0.000807120599 140 140 140
0.12 -0.043894814 -0.00371808888 140 140 140
0.12 0.024031587 -0.0180634434 140 140 140
0.12 -0.0103295719 0.0386211156 140 140 140
0.12 0.0539514158 -0.0388366695 140 140 140
0.12 -0.0162434492 -7.92553608e-05 140 140 140
0.12 0.0687218422 -0.0240283989 140 140 140
0.12 0.0155752998 0.0286754742 140 140 140
0.12 0.052782605 0.00191172514 140 140 140
0.12 0.0346572534 0.0329684209 140 140 140
0.12 0.048359385 -0.0302105963 140 140 140
0.12 0.01859868 -0.0183034654 140 140 140
0.12 -0.0521874917 0.020973733 140 140 140
0.12 -0.0587512597 0.00134679494 140 140 140
0.12 0.0464024509 -0.00280061599 140 140 140
0.12 0.0105766203 0.0382598491 140 140 140
0.12 0.0780273391 -0.00676491334 140 140 140
0.12 0.0451329697 -0.0182624798 140 140 140
0.12 0.0233624128 -0.0240258193 140 140 140
0.12 0.077925335 0.0253912114 140 140 140
0.12 0.0556751088 -0.0193495839 140 140 140
0.12 0.0436186161 0.020588961 140 140 140
0.12 -0.0581356787 0.019806894 140 140 140
0.12 -0.0278586547 0.0187442302 140 140 140
0.12 -0.0284062788 -0.0276150755 140 140 140
0.12 0.0670703983 -0.016812708 140 140 140
0.12 -0.0656490844 0.0330036726 140 140 140
0.12 -0.0485019016 -0.0163450202 140 140 140
0.12 -0.0230787737 0.0188987053 140 140 140
0.12 -0.0468754156 0.00880876079 140 140 140
0.12 -0.0621203496 -0.0271033746 140 140 140
0.12 -0.0780944419 0.0343926019 140 140 140
0.12 -0.0366978319 -0.00994861394 140 140 140
0.12 -0.0237089073 -0.0055093715 140 140 140
0.12 0.0761992056 -0.010811422 140 140 140
0.12 0.0252771831 0.0173283937 140 140 140
0.12 -0.0461783751 -0.00725988391 140 140 140
-0.0146236295 -0.08 0.028674826 140 140 140
0.0290181356 -0.08 0.0150331617 140 140 140
0.0621597605 -0.08 -0.00964107866 140 140 140
-0.0415565286 -0.08 0.0122442575 140 140 140
-0.0764669308 -0.08 0.0393734309 140 140 140
-0.116195367 -0.08 -0.0132550029 140 140 140
-0.0226600752 -0.08 -0.00493559694 140 140 140
0.0919387204 -0.08 -0.00603058441 140 140 140
-0.059447259 -0.08 0.0115360414 140 140 140
-0.0690657432 -0.08 -0.0299654937 140 140 140
0.0981772711 -0.08 0.0256246235 140 140 140
0.0948869023 -0.08 -0.037394212 140 140 140
-0.0767193392 -0.08 -0.0387669459 140 140 140
0.0153916944 -0.08 0.0213328546 140 140 140
-0.00494983286 -0.08 -0.0165273394 140 140 140
-0.0104211591 -0.08 0.0247615718 140 140 140
0.0977997416 -0.08 -0.000350218204 140 140 140
0.0825082439 -0.08 0.0132765926 140 140 140
0.0641726202 -0.08 0.0285257353 140 140 140
-0.1199544 -0.08 -0.0159180815 140 140 140
0.0308707017 -0.08 -0.0232176104 140 140 140
0.0302784928 -0.08 -0.0250175449 140 140 140
0.0926819832 -0.08 0.0039654724 140 140 140
0.0494630466 -0.08 0.0241154691 140 140 140
0.0801254991 -0.08 -0.0205480929 140 140 140
-0.11412277 -0.08 -0.00709938444 140 140 140
0.0946226028 -0.08 0.00270016752 140 140 140
-0.0294134038 -0.08 0.0167495756 140 140 140
0.0437478944 -0.08 0.00618548682 140 140 140
0.00385043516 -0.08 0.0311184526 140 140 140
-0.031979728 -0.08 0.000391165101 140 140 140
-0.0995186518 -0.08 -0.0167042882 140 140 140
0.00669241072 -0.08 -0.0256435578 140 140 140
-0.00594609017 -0.08 0.0215856249 140 140 140
0.105834471 -0.08 0.0337294415 140 140 140
-0.039225849 -0.08 0.0210980367 140 140 140
0.0123069554 -0.08 -0.00910365635 140 140 140
-0.0501959716 -0.08 0.0115697969 140 140 140
0.0981690808 -0.08 -0.00568479531 140 140 140
0.0161693582 -0.08 -0.00348002983 140 140 140
0.0238336937 -0.08 -0.0128151076 140 140 140
-0.119946792 -0.08 0.00864005321 140 140 140
-0.0976822896 -0.08 0.0243193457 140 140 140
0.0816675744 -0.08 0.0251378984 140 140 140
-0.0534863393 -0.08 0.00363652989 140 140 140
-0.0143762211 -0.08 -0.0389287457 140 140 140
-0.0810135737 -0.08 0.0144450088 140 140 140
0.0494964752 -0.08 0.0214093685 140 140 140
-0.100907625 -0.08 0.0284280928 140 140 140
-0.0343589393 -0.08 0.000280224459 140 140 140
0.0303990171 -0.08 0.0215832181 140 140 140
-0.0903834412 -0.08 -0.00782863207 140 140 140
-0.00185720735 -0.08 -0.0103197799 140 140 140
-0.108951007 -0.08 0.00181415195 140 140 140
0.0581147139 -0.08 0.0255749522 140 140 140
0.015507883 -0.08 0.0113525252 140 140 140
-0.0785422393 -0.08 0.014484928 140 140 140
0.105554073 -0.08 -0.0219869522 140 140 140
0.013713011 -0.08 0.0169510638 140 140 140
-0.0378487906 -0.08 0.0348215249 140 140 140
0.0443544103 -0.08 0.0328606664 140 140 140
0.0786298063 -0.08 -0.0314526899 140 140 140
-0.0502010799 -0.08 -0.0180154003 140 140 140
-0.102310575 -0.08 0.0239415965 140 140 140
0.034024274 -0.08 0.00478186552 140 140 140
-0.114835212 -0.08 0.028544094 140 140 140
-0.101267224 -0.08 -0.0268109026 140 140 140
-0.0287981048 -0.08 0.0262210336 140 140 140
-0.000901605518 -0.08 0.00814357725 140 140 140
0.084006769 -0.08 -0.0185986422 140 140 140
-0.10812139 -0.08 -0.0347030521 140 140 140
-0.110025963 -0.08 -0.025293209 140 140 140
-0.102178147 -0.08 -0.0281012886 140 140 140
-0.0972406102 -0.08 0.0133573571 140 140 140
0.05418097 -0.08 -0.0343688229 140 140 140
0.0820505377 -0.08 -0.00860257405 140 140 140
-0.0875257814 -0.08 0.00177967463 140 140 140
0.0164984615 -0.08 0.00904997424 140 140 140
0.0906344311 -0.08 -0.0096681857 140 140 140
-0.0584225514 -0.08 0.00486456427 140 140 140
0.0708893619 -0.08 -0.0367390138 140 140 140
-0.0748429191 -0.08 -0.0133325269 140 140 140
0.0442503979 -0.08 0.0129702072 140 140 140
-0.0108971686 -0.08 -0.0162995236 140 140 140
0.00263051494 -0.08 -0.020507089 140 140 140
0.078072374 -0.08 0.02763649 140 140 140
-0.0562817687 -0.08 -0.0310514123 140 140 140
0.0646037977 -0.08 -0.0210943469 140 140 140
0.088932793 -0.08 0.0345983594 140 140 140
0.10306008 -0.08 -0.00831156406 140 140 140
0.0859844408 -0.08 -0.0299062244 140 140 140
0.0844700085 -0.08 -0.0291547648 140 140 140
0.0879663641 -0.08 0.0194872607 140 140 140
-0.055637755 -0.08 0.0278650252 140 140 140
0.0240513115 -0.08 -0.0107303931 140 140 140
0.0861685964 -0.08 -0.0130517684 140 140 140
-0.0381710724 -0.08 -0.0036560778 140 140 140
0.107604841 -0.08 0.0205184263 140 140 140
-0.0514306818 -0.08 -0.0385921619 140 140 140
-0.0888429644 -0.08 0.0296073572 140 140 140
-0.0426003897 -0.08 -0.0314364384 140 140 140
0.0160027886 -0.08 -0.028671813 140 140 140
0.0722333748 -0.08 -0.0350997031 140 140 140
0.0244379713 -0.08 -0.0357746621 140 140 140
0.079332556 -0.08 0.0292380061 140 140 140
0.0585675523 -0.08 -0.0332150963 140 140 140
-0.0788742594 -0.08 -0.0113801488 140 140 140
0.0796756904 -0.08 0.00437997604 140 140 140
-0.0270114613 -0.08 0.0151151833 140 140 140
0.0445853602 -0.08 -0.0081115097 140 140 140
-0.0914193981 -0.08 -0.0123582012 140 140 140
0.0460230279 -0.08 0.0161409388 140 140 140
0.0976045755 -0.08 0.00829739759 140 140 140
-0.0966425539 -0.08 0.0368198202 140 140 140
-0.111803141 -0.08 0.0266208828 140 140 140
0.0448527425 -0.08 0.0205207356 140 140 140
0.0226056179 -0.08 -0.0392106112 140 140 140
0.068115529 -0.08 -0.031467744 140 140 140
0.0112403513 -0.08 0.0084686364 140 140 140
-0.11599869 -0.08 0.00318647439 140 140 140
0.0263777799 -0.08 0.01091023 140 140 140
0.0818930756 -0.08 0.00170646229 140 140 140
0.097468626 -0.08 -0.0234622138 140 140 140
0.111958242 -0.08 0.0259361953 140 140 140
-0.0113958058 -0.08 0.0336738139 140 140 140
0.0966536001 -0.08 -0.0141622135 140 140 140
0.0990311195 -0.08 -0.0191844019 140 140 140
0.0351247738 -0.08 -0.0359730973 140 140 140
-0.0554725987 -0.08 0.0277797219 140 140 140
-0.119539834 -0.08 -0.0132215553 140 140 140
0.0279776529 -0.08 -0.0350721164 140 140 140
0.0108608291 -0.08 0.0161797989 140 140 140
0.0762763991 -0.08 0.0287915657 140 140 140
-0.0774207671 0.08 -0.0294973911 140 140 140
-0.0461959903 0.08 0.0156213532 140 140 140
-0.0439559714 0.08 0.0121056171 140 140 140
0.0685764774 0.08 -0.0354920449 140 140 140
-0.0631075016 0.08 0.0302141806 140 140 140
0.0378107685 0.08 -0.037458206 140 140 140
-0.000471163393 0.08 -0.0122066859 140 140 140
0.110253131 0.08 -0.0329305826 140 140 140
-0.0467786014 0.08 -0.0184313132 140 140 140
0.0493970065 0.08 -0.00494447392 140 140 140
0.0803278303 0.08 0.00985550349 140 140 140
0.00960551338 0.08 -0.0122219385 140 140 140
0.0151532526 0.08 0.0226921317 140 140 140
-0.00458232093 0.08 -0.0184030024 140 140 140
-0.109818235 0.08 -0.00606158185 140 140 140
0.0380502593 0.08 -0.00665726894 140 140 140
-0.035513766 0.08 0.0386373656 140 140 140
-0.101952651 0.08 -0.0227757666 140 140 140
-0.0873153008 0.08 -0.0278696268 140 140 140
-0.0384119839 0.08 0.034525527 140 140 140
-0.0429503053 0.08 0.0369547873 140 140 140
0.054588485 0.08 -0.000628362021 140 140 140
0.0678364654 0.08 0.0262057359 140 140 140
0.0106978183 0.08 -0.0109443021 140 140 140
-0.0740624911 0.08 -0.0397694127 140 140 140
0.0681314259 0.08 0.00934407365 140 140 140
0.0227073242 0.08 0.00737618334 140 140 140
0.0618832952 0.08 0.013820844 140 140 140
0.050081211 0.08 0.0341293205 140 140 140
-0.0413900522 0.08 -0.0317453689 140 140 140
0.119137204 0.08 -0.00305714932 140 140 140
0.0158687391 0.08 -0.0207936283 140 140 140
0.113925374 0.08 -0.0286639285 140 140 140
0.0175385427 0.08 0.0282298528 140 140 140
0.0866947879 0.08 -0.0121873811 140 140 140
0.0195794769 0.08 -0.0288923327 140 140 140
-0.100459062 0.08 -0.0151727731 140 140 140
-0.119103665 0.08 -0.0101617779 140 140 140
0.0919522906 0.08 0.0130136851 140 140 140
0.0163388113 0.08 -0.00259103549 140 140 140
-0.0317616094 0.08 -0.032950197 140 140 140
-0.107490882 0.08 -0.0333344572 140 140 140
-0.0838485011 0.08 -0.0101360896 140 140 140
-0.0628382758 0.08 -0.0373670306 140 140 140
0.117612868 0.08 -0.0367337919 140 140 140
0.0302423496 0.08 -0.00889187846 140 140 140
0.0559996401 0.08 -0.00829157981 140 140 140
-0.0299218015 0.08 -0.021241912 140 140 140
-0.0782462614 0.08 0.0141615222 140 140 140
-0.116455199 0.08 0.0246486497 140 140 140
-0.04028513 0.08 -0.0355605052 140 140 140
0.0121856424 0.08 -0.0234193251 140 140 140
-0.0125047684 0.08 -0.0299753288 140 140 140
-0.00983119251 0.08 0.0164629932 140 140 140
-0.0314208854 0.08 0.0239202234 140 140 140
-0.056837745 0.08 0.0375205778 140 140 140
0.0895217636 0.08 -0.00182621908 140 140 140
-0.111515499 0.08 0.0232126287 140 140 140
0.111631389 0.08 0.0250249327 140 140 140
-0.0391684508 0.08 0.0320448237 140 140 140
-0.0596116549 0.08 -0.0369721047 140 140 140
-0.0924682594 0.08 0.0175160653 140 140 140
0.102358544 0.08 0.0376410673 140 140 140
-0.0140739265 0.08 0.00715600738 140 140 140
0.0460677545 0.08 0.00736187406 140 140 140
0.0974323079 0.08 0.0217086748 140 140 140
0.11953619 0.08 0.016579523 140 140 140
0.0967583661 0.08 0.0298206872 140 140 140
-0.0531006824 0.08 0.000647735694 140 140 140
0.112721475 0.08 0.0128396881 140 140 140
0.0623469939 0.08 0.0296275037 140 140 140
0.00125496548 0.08 0.0311752926 140 140 140
0.107385353 0.08 0.0267719254 140 140 140
0.0870766435 0.08 0.0119637633 140 140 140
-0.0315523049 0.08 -0.0273694323 140 140 140
0.119084682 0.08 -0.0128354632 140 140 140
0.100529932 0.08 -0.0133500365 140 140 140
0.103052281 0.08 -0.0144031181 140 140 140
-0.112866073 0.08 -0.0313598738 140 140 140
-0.108318661 0.08 0.0374684166 140 140 140
-0.10459769 0.08 -0.0217071606 140 140 140
0.0866959317 0.08 -0.0244680599 140 140 140
0.114034865 0.08 -0.0294624705 140 140 140
-0.118867354 0.08 -0.00524588468 140 140 140
0.00787281515 0.08 -0.0276819889 140 140 140
-0.0435929488 0.08 0.0397203092 140 140 140
-0.0182759253 0.08 -0.0171789429 140 140 140
-0.0858677095 0.08 -0.0387847725 140 140 140
0.0451868643 0.08 -0.032671925 140 140 140
-0.0803424023 0.08 0.0109111171 140 140 140
0.107471955 0.08 -0.00575501098 140 140 140
-0.0512633939 0.08 -0.0249986948 140 140 140
-0.0288477871 0.08 0.033070731 140 140 140
0.0750791079 0.08 0.0291263596 140 140 140
0.0699181598 0.08 0.00430212738 140 140 140
-0.013628823 0.08 -0.0143774461 140 140 140
0.099140286 0.08 -0.0321454486 140 140 140
0.0123458175 0.08 0.0248990904 140 140 140
0.019580583 0.08 0.0375942751 140 140 140
-0.0488964266 0.08 0.0150180357 140 140 140
0.10158642 0.08 -0.00898360314 140 140 140
-0.108475818 0.08 -0.0390491728 140 140 140
-0.107423301 0.08 0.00585043861 140 140 140
0.0689862028 0.08 -0.0144562807 140 140 140
-0.0289969188 0.08 0.0117068863 140 140 140
-0.0228597605 0.08 0.0149704966 140 140 140
0.0413391525 0.08 0.00334623102 140 140 140
-0.00780035223 0.08 0.00574616121 140 140 140
-0.0225125694 0.08 -0.0246192523 140 140 140
0.1159895 0.08 -0.039761909 140 140 140
-0.101329163 0.08 -0.0225586707 140 140 140
0.0392767245 0.08 -0.00825258788 140 140 140
-0.0417873132 0.08 0.0220091539 140 140 140
-0.0470846815 0.08 -0.0249023353 140 140 140
0.0947846661 0.08 -0.0163244379 140 140 140
0.116088706 0.08 0.0270635592 140 140 140
-0.0807159852 0.08 0.0366559984 140 140 140
-0.091456825 0.08 0.00065439715 140 140 140
0.0365358033 0.08 -0.0201002586 140 140 140
0.0978768741 0.08 0.0384978535 140 140 140
-0.0841670466 0.08 0.0185304988 140 140 140
0.0607346868 0.08 -0.0382762004 140 140 140
-0.0665615221 0.08 0.0313853833 140 140 140
-0.00987966723 0.08 0.0324988502 140 140 140
-0.0256437535 0.08 0.0144331545 140 140 140
0.0251663843 0.08 -0.00463108021 140 140 140
-0.0422432126 0.08 -0.00118845512 140 140 140
-0.0221614817 0.08 -0.0341019152 140 140 140
0.11358463 0.08 -0.0131226387 140 140 140
0.0816738755 0.08 0.0268677349 140 140 140
-0.0804560134 0.08 -0.0211790751 140 140 140
0.0864545893 0.08 -0.0137567323 140 140 140
0.104048502 0.08 -0.00895355766 140 140 140
0.0239657358 0.0775732486 -0.04 140 140 140
-0.072542263 0.0157808271 -0.04 140 140 140
0.00775856375 -0.00521992033 -0.04 140 140 140
-0.0110293853 0.0213029703 -0.04 140 140 140
0.0630746355 0.0737646897 -0.04 140 140 140
0.0760107335 -0.00422597343 -0.04 140 140 140
-0.00260181517 -0.0618332083 -0.04 140 140 140
-0.0364329655 0.0538608732 -0.04 140 140 140
-0.0933543154 -0.0746311521 -0.04 140 140 140
-0.0603818047 0.0221949151 -0.04 140 140 140
-0.0135374999 -0.0573775267 -0.04 140 140 140
0.0164708946 0.00487540206 -0.04 140 140 140
0.0864097266 0.0342205766 -0.04 140 140 140
-0.0935393637 -0.052261727 -0.04 140 140 140
-0.0612404116 -0.0434158291 -0.04 140 140 140
-0.0913418087 -0.0459183753 -0.04 140 140 140
-0.0917524714 -0.0443562566 -0.04 140 140 140
0.0674552064 -0.00827702863 -0.04 140 140 140
-0.0415372225 0.014992761 -0.04 140 140 140
-0.00978504411 -0.0407514212 -0.04 140 140 140
-0.0757914405 0.0617601427 -0.04 140 140 140
0.0644544951 0.0617490365 -0.04 140 140 140
-0.107570428 0.0653302708 -0.04 140 140 140
-0.109453097 0.0441501358 -0.04 140 140 140
0.108481775 0.0775383963 -0.04 140 140 140
0.0978811427 -0.0228730951 -0.04 140 140 140
0.0552412856 0.00941675336 -0.04 140 140 140
-0.0363050445 -0.0786182065 -0.04 140 140 140
-0.00775450135 -0.0220877345 -0.04 140 140 140
-0.112925895 0.0718264211 -0.04 140 140 140
-0.0998103686 0.0169693038 -0.04 140 140 140
-0.0429892197 0.0664728736 -0.04 140 140 140
-0.0787192312 0.0549814318 -0.04 140 140 140
0.0143479102 0.0428463248 -0.04 140 140 140
0.0937097614 -0.0441756666 -0.04 140 140 140
-0.0792225587 -0.04193136 -0.04 140 140 140
0.0244796253 -0.0189907379 -0.04 140 140 140
-0.0124025739 -0.0368445802 -0.04 140 140 140
0.018830516 0.061708642 -0.04 140 140 140
-0.0980581123 -0.00148868251 -0.04 140 140 140
0.00752739267 -0.0573783289 -0.04 140 140 140
0.0667217745 0.0375258945 -0.04 140 140 140
0.0842128999 -0.011149 -0.04 140 140 140
0.0949467834 -0.0662790252 -0.04 140 140 140
-0.0771825166 -0.0265095122 -0.04 140 140 140
-0.0900201059 -0.0203375592 -0.04 140 140 140
-0.0406589094 0.0551965912 -0.04 140 140 140
0.0215587561 -0.0235798705 -0.04 140 140 140
-0.0531773849 0.0505858353 -0.04 140 140 140
-0.0371260858 0.0621702773 -0.04 140 140 140
0.0177693513 -0.0623359972 -0.04 140 140 140
0.0699612896 -0.0193232112 -0.04 140 140 140
-0.0289962534 0.0779252915 -0.04 140 140 140
-0.0530988416 0.00755116078 -0.04 140 140 140
-0.0604348354 -0.0327626761 -0.04 140 140 140
-0.0329116447 0.0703159275 -0.04 140 140 140
0.0215642491 0.0714791019 -0.04 140 140 140
0.044687812 -0.0530319924 -0.04 140 140 140
-0.041244938 -0.00350315818 -0.04 140 140 140
-0.0847496295 0.0502989603 -0.04 140 140 140
-0.118817595 0.0418804647 -0.04 140 140 140
0.107516748 0.0688713258 -0.04 140 140 140
-0.0933262455 -0.0128766927 -0.04 140 140 140
5.31041565e-06 -0.040116306 -0.04 140 140 140
-0.104633573 0.0403853966 -0.04 140 140 140
0.0433975812 -0.0357234718 -0.04 140 140 140
-0.0628210035 -0.0607034501 -0.04 140 140 140
-0.0652583395 -0.0520695891 -0.04 140 140 140
-0.105007901 0.00936218472 -0.04 140 140 140
-0.0171854994 -0.0135537596 -0.04 140 140 140
-0.100303208 0.0139270952 -0.04 140 140 140
0.0556130629 -0.0210308534 -0.04 140 140 140
0.108250311 -0.0764205762 -0.04 140 140 140
-0.115712075 -0.0188795851 -0.04 140 140 140
-0.100717921 0.0453103664 -0.04 140 140 140
-0.101439277 0.0763471301 -0.04 140 140 140
-0.00190117632 -0.0751184644 -0.04 140 140 140
-0.00202181066 0.0570091917 -0.04 140 140 140
-0.0354533864 -0.0505118235 -0.04 140 140 140
-0.0411569983 -0.0699478098 -0.04 140 140 140
0.036179365 -0.047751917 -0.04 140 140 140
-0.118298901 0.0660281025 -0.04 140 140 140
-0.0972912382 0.0295309794 -0.04 140 140 140
0.0772540471 -0.0514011884 -0.04 140 140 140
0.10896065 -0.0466778413 -0.04 140 140 140
-0.079866079 -0.0280022895 -0.04 140 140 140
0.0258495565 0.00466075531 -0.04 140 140 140
0.0738795186 0.0389517698 -0.04 140 140 140
-0.0473105051 -0.00679929385 -0.04 140 140 140
-0.0754118546 -0.0485311326 -0.04 140 140 140
-0.0393105482 0.0705760204 -0.04 140 140 140
0.0887577316 -0.0642209839 -0.04 140 140 140
0.0800954304 -0.0100279432 -0.04 140 140 140
-0.0545483886 -0.0106856029 -0.04 140 140 140
0.117991441 0.00794411825 -0.04 140 140 140
0.0843785576 -0.0111872625 -0.04 140 140 140
-0.0822596483 -0.0167058365 -0.04 140 140 140
-0.000659376818 0.0511609751 -0.04 140 140 140
-0.0474000519 -0.03715918 -0.04 140 140 140
-0.00663977838 -0.0377128376 -0.04 140 140 140
-0.0721833268 0.0125049206 -0.04 140 140 140
-0.0403609409 -0.0386275595 -0.04 140 140 140
-0.0767056212 -0.0392830838 -0.04 140 140 140
-0.0669058274 0.052543651 -0.04 140 140 140
0.113830684 0.0405744231 -0.04 140 140 140
0.105610261 0.0547351394 -0.04 140 140 140
-0.0159386536 -0.0750473146 -0.04 140 140 140
0.0515726677 -0.0623157121 -0.04 140 140 140
-0.114796206 0.0785557537 -0.04 140 140 140
-0.00939234863 0.00727543237 -0.04 140 140 140
-0.0670805831 -0.0719089288 -0.04 140 140 140
0.113354249 -0.0599108039 -0.04 140 140 140
0.0529294673 0.0400360546 -0.04 140 140 140
-0.106182022 0.0304676998 -0.04 140 140 140
0.0381019792 -0.0425516298 -0.04 140 140 140
-0.0907979657 0.0348605674 -0.04 140 140 140
-0.0127694402 -0.078613681 -0.04 140 140 140
0.0436746447 0.0307861349 -0.04 140 140 140
-0.0653541065 0.0261010539 -0.04 140 140 140
0.030643338 0.0115708653 -0.04 140 140 140
-0.06740015 0.0359332325 -0.04 140 140 140
-0.0822348821 0.0212422591 -0.04 140 140 140
-0.0955274164 -0.0380338709 -0.04 140 140 140
0.099319551 -0.0786581576 -0.04 140 140 140
-0.0823629582 -0.00528081968 -0.04 140 140 140
0.0497703303 -0.0223721993 -0.04 140 140 140
0.0492029121 0.00670653968 -0.04 140 140 140
-0.109234731 -0.0522975001 -0.04 140 140 140
-0.00803119277 0.0111113633 -0.04 140 140 140
0.0102997589 0.0105786146 -0.04 140 140 140
-0.0530849163 0.00290072654 -0.04 140 140 140
0.0598251287 0.0724697158 -0.04 140 140 140
0.0677585139 -0.0441867374 -0.04 140 140 140
-0.111950838 0.0750537275 0.04 140 140 140
-0.100420456 -0.0285510985 0.04 140 140 140
-0.105590098 0.0668649769 0.04 140 140 140
-0.101307096 0.0199433292 0.04 140 140 140
-0.032060231 -0.0245406562 0.04 140 140 140
-0.0453006748 -0.0691949224 0.04 140 140 140
-0.0380236606 -0.0534172322 0.04 140 140 140
0.0943769133 0.0491447047 0.04 140 140 140
0.0992496174 -0.01459071 0.04 140 140 140
-0.0999272073 0.0774063877 0.04 140 140 140
0.0589019539 0.0343060766 0.04 140 140 140
-0.0612806269 0.0396687443 0.04 140 140 140
-0.108708134 -0.0643953446 0.04 140 140 140
0.0833877472 -0.0119067575 0.04 140 140 140
0.00837636469 -0.0271649652 0.04 140 140 140
-0.0724315093 -0.0237925329 0.04 140 140 140
0.017785009 -0.0197058751 0.04 140 140 140
-0.0681310817 -0.00345396369 0.04 140 140 140
0.0917602236 -0.0706818856 0.04 140 140 140
0.086636518 0.0673294649 0.04 140 140 140
-0.0232551754 -0.0742958113 0.04 140 140 140
0.0359767739 -0.0258844862 0.04 140 140 140
-0.00705057105 -0.054029017 0.04 140 140 140
-0.0103209452 0.0791691611 0.04 140 140 140
0.0324510191 -0.0480935514 0.04 140 140 140
0.0593850732 -0.000454386252 0.04 140 140 140
0.0933919806 0.0595407343 0.04 140 140 140
-0.0972808809 -0.0251413803 0.04 140 140 140
0.0587693399 0.0221695855 0.04 140 140 140
-0.116070119 0.0745747604 0.04 140 140 140
0.00658788458 -0.0109369001 0.04 140 140 140
0.093599302 -0.0251103199 0.04 140 140 140
-0.0886649757 -0.0716097656 0.04 140 140 140
-0.0890713904 -0.0583594339 0.04 140 140 140
-0.0684235944 0.0449397283 0.04 140 140 140
-0.112516322 -0.0193153038 0.04 140 140 140
-0.08772866 -0.0791537691 0.04 140 140 140
-0.0122671691 -0.00992531041 0.04 140 140 140
0.0504676144 0.0562654562 0.04 140 140 140
0.102218044 0.0346703541 0.04 140 140 140
0.105705036 -0.0171376233 0.04 140 140 140
-0.0778860703 0.00339807394 0.04 140 140 140
0.0371526343 -0.0310622614 0.04 140 140 140
-0.0938657706 0.0102411383 0.04 140 140 140
-0.0490939696 0.0576577983 0.04 140 140 140
-0.0986371992 0.0365779427 0.04 140 140 140
-0.100155444 -0.00247087752 0.04 140 140 140
0.0201090386 -0.0104995374 0.04 140 140 140
0.0489215483 0.0783139592 0.04 140 140 140
-0.0142518226 0.0339274313 0.04 140 140 140
-0.114478035 -0.0742303294 0.04 140 140 140
0.0110420534 -0.0717157345 0.04 140 140 140
-0.0968333584 -0.0630169916 0.04 140 140 140
0.0392886133 0.0512192849 0.04 140 140 140
-0.027173001 0.0768291031 0.04 140 140 140
0.0409712773 -0.0429393675 0.04 140 140 140
-0.00735840583 -0.0751530948 0.04 140 140 140
-0.0489833419 -0.0644133998 0.04 140 140 140
-0.00941921667 0.0230425527 0.04 140 140 140
-0.108600755 -0.0136664166 0.04 140 140 140
0.0967477401 0.07135979 0.04 140 140 140
0.0183232639 0.0694430165 0.04 140 140 140
0.11428515 -0.00723371512 0.04 140 140 140
-0.0797205395 0.069734945 0.04 140 140 140
0.0367030044 -0.0523100062 0.04 140 140 140
0.0205654704 -0.0156880871 0.04 140 140 140
0.0121888953 -0.065751474 0.04 140 140 140
-0.0452862166 -0.05254866 0.04 140 140 140
0.0739136599 -0.0335512786 0.04 140 140 140
0.112315535 -0.0092861487 0.04 140 140 140
0.0121012501 0.0331328595 0.04 140 140 140
-0.112032923 0.0703463061 0.04 140 140 140
0.0490130319 0.0157859012 0.04 140 140 140
0.118737894 0.045938835 0.04 140 140 140
-0.0552729451 -0.0493645526 0.04 140 140 140
0.0138328669 -0.0462238274 0.04 140 140 140
0.0626516239 0.0170510611 0.04 140 140 140
-0.0977184229 -0.030691787 0.04 140 140 140
0.0108638638 -0.0124154373 0.04 140 140 140
-0.0272712129 -0.0147212576 0.04 140 140 140
-0.0414880219 0.0415496275 0.04 140 140 140
-0.117289871 -0.0142949944 0.04 140 140 140
0.0229069397 0.0543007032 0.04 140 140 140
-0.090478285 8.03182213e-05 0.04 140 140 140
-0.0144991408 -0.0209505433 0.04 140 140 140
-0.0907948699 -0.0720176262 0.04 140 140 140
-0.0718714147 -0.0226174008 0.04 140 140 140
-0.0859445028 0.0559664501 0.04 140 140 140
-0.0739815979 0.0775814714 0.04 140 140 140
-0.0666630635 0.0421464524 0.04 140 140 140
0.0077420036 -0.0229496272 0.04 140 140 140
0.0787074601 0.0330642209 0.04 140 140 140
0.00664501866 -0.0779625843 0.04 140 140 140
-0.0666401036 -0.0307699059 0.04 140 140 140
-0.0728302787 0.02822266 0.04 140 140 140
0.0173289864 0.0432221187 0.04 140 140 140
0.11870707 0.0145326753 0.04 140 140 140
-0.0489577563 0.0213618837 0.04 140 140 140
-0.0220894719 0.0720826716 0.04 140 140 140
0.0263096633 -0.0336508787 0.04 140 140 140
-0.0617936079 -0.00102740596 0.04 140 140 140
-0.00716161418 -0.0222820833 0.04 140 140 140
0.0755878893 -0.0583089043 0.04 140 140 140
-0.0133102797 0.0799291598 0.04 140 140 140
0.0263270997 -0.00848936665 0.04 140 140 140
-0.104286671 0.0187976954 0.04 140 140 140
-0.0328419256 -0.00792800264 0.04 140 140 140
-0.0105139719 0.0252766296 0.04 140 140 140
-0.109937542 0.00353654851 0.04 140 140 140
-0.0664853742 -0.00987993196 0.04 140 140 140
0.0581816006 -0.0479910305 0.04 140 140 140
0.0834265961 0.0126093159 0.04 140 140 140
-0.0159684703 -0.069512867 0.04 140 140 140
-0.0832426526 0.0605291292 0.04 140 140 140
-0.0441206415 -0.0671746837 0.04 140 140 140
-0.0255914844 -0.0610361191 0.04 140 140 140
-0.00725039925 -0.0582489382 0.04 140 140 140
0.115371739 0.0330972249 0.04 140 140 140
0.114347269 -0.0504557889 0.04 140 140 140
-0.100321972 0.0284615461 0.04 140 140 140
0.0818011496 0.064737406 0.04 140 140 140
-0.0261768022 -0.0228961582 0.04 140 140 140
0.0861942167 0.0596362178 0.04 140 140 140
-0.115522506 -0.010475296 0.04 140 140 140
-0.0981743129 -0.0219293476 0.04 140 140 140
-0.0524946205 0.0447512002 0.04 140 140 140
-0.0188192287 -0.0513049763 0.04 140 140 140
0.104059711 0.0226821229 0.04 140 140 140
-0.0312982568 0.079494265 0.04 140 140 140
0.0539809898 -0.0690567764 0.04 140 140 140
0.0800711278 -0.0250782357 0.04 140 140 140
-0.101689238 -0.0321575731 0.04 140 140 140
-0.0291436326 0.0433975709 0.04 140 140 140
