# VisionMCP reconstruction mesh
v -0.01 -0.01 0
v 0.01 -0.01 0
v 0.01 0.01 0
v -0.01 0.01 0
v -0.01 -0.01 0.35
v 0.01 -0.01 0.35
v 0.01 0.01 0.35
v -0.01 0.01 0.35
v 0.02 0 0.045
v 0.08 0 0.045
v 0.08 0 0.045
v 0.02 0 0.045
v 0.02 0 0.055
v 0.08 0 0.055
v 0.08 0 0.055
v 0.02 0 0.055
v 0.00907192243 0.0178241472 0.095
v 0.0362876897 0.0178241472 0.095
v 0.0362876897 0.0712965888 0.095
v 0.00907192243 0.0712965888 0.095
v 0.00907192243 0.0178241472 0.105
v 0.0362876897 0.0178241472 0.105
v 0.0362876897 0.0712965888 0.105
v 0.00907192243 0.0712965888 0.105
v -0.0117700223 0.0161699281 0.145
v -0.0470800894 0.0161699281 0.145
v -0.0470800894 0.0646797123 0.145
v -0.0117700223 0.0646797123 0.145
v -0.0117700223 0.0161699281 0.155
v -0.0470800894 0.0161699281 0.155
v -0.0470800894 0.0646797123 0.155
v -0.0117700223 0.0646797123 0.155
v -0.0197495954 -0.00315491388 0.195
v -0.0789983816 -0.00315491388 0.195
v -0.0789983816 -0.0126196555 0.195
v -0.0197495954 -0.0126196555 0.195
v -0.0197495954 -0.00315491388 0.205
v -0.0789983816 -0.00315491388 0.205
v -0.0789983816 -0.0126196555 0.205
v -0.0197495954 -0.0126196555 0.205
v -0.0061466574 -0.0190320415 0.245
v -0.0245866296 -0.0190320415 0.245
v -0.0245866296 -0.0761281659 0.245
v -0.0061466574 -0.0761281659 0.245
v -0.0061466574 -0.0190320415 0.255
v -0.0245866296 -0.0190320415 0.255
v -0.0245866296 -0.0761281659 0.255
v -0.0061466574 -0.0761281659 0.255
v 0.0141733955 -0.0141108065 0.295
v 0.0566935819 -0.0141108065 0.295
v 0.0566935819 -0.056443226 0.295
v 0.0141733955 -0.056443226 0.295
v 0.0141733955 -0.0141108065 0.305
v 0.0566935819 -0.0141108065 0.305
v 0.0566935819 -0.056443226 0.305
v 0.0141733955 -0.056443226 0.305
f 1 2 3
f 1 3 4
f 5 7 6
f 5 8 7
f 1 5 6
f 1 6 2
f 2 6 7
f 2 7 3
f 3 7 8
f 3 8 4
f 4 8 5
f 4 5 1
f 9 10 11
f 9 11 12
f 13 15 14
f 13 16 15
f 9 13 14
f 9 14 10
f 10 14 15
f 10 15 11
f 11 15 16
f 11 16 12
f 12 16 13
f 12 13 9
f 17 18 19
f 17 19 20
f 21 23 22
f 21 24 23
f 17 21 22
f 17 22 18
f 18 22 23
f 18 23 19
f 19 23 24
f 19 24 20
f 20 24 21
f 20 21 17
f 25 26 27
f 25 27 28
f 29 31 30
f 29 32 31
f 25 29 30
f 25 30 26
f 26 30 31
f 26 31 27
f 27 31 32
f 27 32 28
f 28 32 29
f 28 29 25
f 33 34 35
f 33 35 36
f 37 39 38
f 37 40 39
f 33 37 38
f 33 38 34
f 34 38 39
f 34 39 35
f 35 39 40
f 35 40 36
f 36 40 37
f 36 37 33
f 41 42 43
f 41 43 44
f 45 47 46
f 45 48 47
f 41 45 46
f 41 46 42
f 42 46 47
f 42 47 43
f 43 47 48
f 43 48 44
f 44 48 45
f 44 45 41
f 49 50 51
f 49 51 52
f 53 55 54
f 53 56 55
f 49 53 54
f 49 54 50
f 50 54 55
f 50 55 51
f 51 55 56
f 51 56 52
f 52 56 53
f 52 53 49
