ply
format ascii 1.0
comment VisionMCP oriented point archive (not a trained radiance field)
element vertex 798
property float x
property float y
property float z
property uchar red
property uchar green
property uchar blue
end_header
-0.6 -0.138127972 -0.918052952 140 140 140
-0.6 0.187962144 0.825511155 140 140 140
-0.6 0.137697937 0.0872499829 140 140 140
-0.6 0.189512132 -0.994523 140 140 140
-0.6 -0.279848655 0.459310893 140 140 140
-0.6 0.217907353 0.0829224405 140 140 140
-0.6 -0.0463876673 -0.943360658 140 140 140
-0.6 0.102374649 0.294379023 140 140 140
-0.6 -0.0697934674 0.994419872 140 140 140
-0.6 0.111325191 0.300918553 140 140 140
-0.6 -0.0666471456 -0.72980699 140 140 140
-0.6 0.0152125935 -0.379516249 140 140 140
-0.6 0.233692701 0.868087032 140 140 140
-0.6 0.0429178984 -0.356261218 140 140 140
-0.6 -0.0972532647 -0.216761999 140 140 140
-0.6 -0.163705444 0.246374289 140 140 140
-0.6 0.199586489 0.574196615 140 140 140
-0.6 0.225890538 -0.88286393 140 140 140
-0.6 -0.20983232 -0.0993212667 140 140 140
-0.6 -0.161614675 -0.895957398 140 140 140
-0.6 -0.180892173 -0.818493909 140 140 140
-0.6 -0.12078232 0.343989756 140 140 140
-0.6 0.265267866 -0.269779664 140 140 140
-0.6 0.0774648909 0.854309106 140 140 140
-0.6 0.272754296 -0.000208372625 140 140 140
-0.6 0.0721280712 0.99019301 140 140 140
-0.6 -0.0239729164 0.515457691 140 140 140
-0.6 0.0175872961 0.571571401 140 140 140
-0.6 0.140690143 0.422285756 140 140 140
-0.6 -0.23104042 0.458030234 140 140 140
-0.6 0.280755714 -0.97058739 140 140 140
-0.6 0.288717024 0.914420359 140 140 140
-0.6 0.283577288 0.779871111 140 140 140
-0.6 -0.0120072457 -0.535254161 140 140 140
-0.6 0.254118096 -0.467739455 140 140 140
-0.6 -0.0343483026 0.862034632 140 140 140
-0.6 0.139203717 0.228746494 140 140 140
-0.6 0.131531864 -0.968016541 140 140 140
-0.6 0.00765523396 0.858208442 140 140 140
-0.6 0.204790368 -0.866619982 140 140 140
-0.6 -0.0418207608 0.932124162 140 140 140
-0.6 -0.144681244 -0.516648572 140 140 140
-0.6 -0.164478343 -0.750890588 140 140 140
-0.6 0.0516738389 0.108181004 140 140 140
-0.6 0.0362855712 -0.423157571 140 140 140
-0.6 0.190872583 0.253012925 140 140 140
-0.6 -0.0783573533 0.105223021 140 140 140
-0.6 0.208974725 -0.709052924 140 140 140
-0.6 0.245975377 -0.913866223 140 140 140
-0.6 -0.0507695776 0.659607971 140 140 140
-0.6 -0.0809723053 -0.842739926 140 140 140
-0.6 -0.135690541 0.405304141 140 140 140
-0.6 -0.223909739 0.729556591 140 140 140
-0.6 -0.071537695 -0.140451878 140 140 140
-0.6 0.285877393 0.551382376 140 140 140
-0.6 -0.138097929 0.726240408 140 140 140
-0.6 0.00642390333 -0.311408538 140 140 140
-0.6 -0.110433873 -0.634575242 140 140 140
-0.6 0.187401239 0.335778811 140 140 140
-0.6 0.255428746 0.496497007 140 140 140
-0.6 -0.151711956 -0.717506886 140 140 140
-0.6 0.128771122 -0.665894142 140 140 140
-0.6 0.24615346 0.122801535 140 140 140
-0.6 -0.183522136 0.0520444972 140 140 140
-0.6 -0.246638616 0.963885386 140 140 140
-0.6 -0.29615467 0.545298402 140 140 140
-0.6 0.053922017 -0.360636727 140 140 140
-0.6 0.10351598 -0.609785203 140 140 140
-0.6 0.0613435058 0.924846186 140 140 140
-0.6 -1.63058048e-05 0.488194959 140 140 140
-0.6 -0.0671599609 -0.874209003 140 140 140
-0.6 -0.247339268 -0.209816583 140 140 140
-0.6 -0.0166197979 0.825243867 140 140 140
-0.6 0.249194376 -0.745193982 140 140 140
-0.6 -0.257804248 0.737708589 140 140 140
-0.6 -0.00205698372 -0.672913168 140 140 140
-0.6 -0.109189567 0.421759727 140 140 140
-0.6 0.00448191633 0.579331465 140 140 140
-0.6 0.047255102 -0.605530105 140 140 140
-0.6 -0.00669237832 0.977390667 140 140 140
-0.6 0.277811484 0.601834073 140 140 140
-0.6 0.188120439 0.20569781 140 140 140
-0.6 0.248214458 -0.869459167 140 140 140
-0.6 -0.070911132 -0.348908768 140 140 140
-0.6 0.168714301 -0.0289297224 140 140 140
-0.6 0.226517344 -0.826370256 140 140 140
-0.6 0.173492774 0.598392759 140 140 140
-0.6 0.17798351 -0.549343116 140 140 140
-0.6 -0.0495311327 0.0828199673 140 140 140
-0.6 -0.0558313196 -0.99939862 140 140 140
-0.6 0.211125547 -0.722136642 140 140 140
-0.6 0.192661853 0.963656646 140 140 140
-0.6 -0.0455361087 0.959377417 140 140 140
-0.6 0.00220618752 0.506893077 140 140 140
-0.6 -0.0143117568 0.727572482 140 140 140
-0.6 -0.123645446 0.53530454 140 140 140
-0.6 -0.243692908 -0.217239147 140 140 140
-0.6 -0.0142998221 -0.142920784 140 140 140
-0.6 0.0517802122 -0.75461868 140 140 140
-0.6 0.110430269 0.647562717 140 140 140
-0.6 0.0499920282 -0.919563558 140 140 140
-0.6 0.0414155126 0.651914444 140 140 140
-0.6 0.187946457 0.994020586 140 140 140
-0.6 -0.197387136 -0.216650401 140 140 140
-0.6 -0.0364626409 0.176760219 140 140 140
-0.6 0.135674107 -0.439835196 140 140 140
-0.6 0.217769999 0.128825642 140 140 140
-0.6 0.239294259 -0.827975128 140 140 140
-0.6 -0.103210626 -0.6491805 140 140 140
-0.6 -0.0823068295 -0.340208335 140 140 140
-0.6 -0.180420996 0.0243473157 140 140 140
-0.6 -0.201979145 0.766837467 140 140 140
-0.6 0.034101294 -0.555093208 140 140 140
-0.6 -0.292712084 0.425987262 140 140 140
-0.6 0.0876270141 0.222677369 140 140 140
-0.6 -0.152156419 0.148756096 140 140 140
-0.6 0.295213937 0.847490715 140 140 140
-0.6 0.0539763556 0.392430212 140 140 140
-0.6 -0.112442612 0.431835694 140 140 140
-0.6 -0.0949544099 -0.522112577 140 140 140
-0.6 0.0509896081 -0.0468231566 140 140 140
-0.6 -0.256404991 -0.964217158 140 140 140
-0.6 -0.185333836 0.951065957 140 140 140
-0.6 -0.028746727 -0.210680406 140 140 140
-0.6 0.149253435 0.287409524 140 140 140
-0.6 -0.250314854 -0.294513169 140 140 140
-0.6 -0.0439673138 -0.918764876 140 140 140
-0.6 0.267014789 -0.67486055 140 140 140
-0.6 0.193282295 -0.217412486 140 140 140
-0.6 0.194401085 0.361372651 140 140 140
-0.6 0.154557951 0.382542959 140 140 140
-0.6 0.19368428 -0.641874625 140 140 140
-0.6 -0.247991206 -0.148287519 140 140 140
0.6 -0.178699144 0.875810217 140 140 140
0.6 -0.297060351 -0.354158393 140 140 140
0.6 -0.141182923 0.661388531 140 140 140
0.6 0.0518270129 0.91681867 140 140 140
0.6 0.288304785 0.149113298 140 140 140
0.6 0.202228219 0.556496452 140 140 140
0.6 0.0788949104 -0.287270907 140 140 140
0.6 -0.164099763 0.555088248 140 140 140
0.6 0.0463187694 0.0717978592 140 140 140
0.6 0.156291959 -0.780344228 140 140 140
0.6 -0.0516264705 0.228402871 140 140 140
0.6 0.0512877515 0.465772154 140 140 140
0.6 -0.0222793145 -0.426462269 140 140 140
0.6 0.117181264 0.391422706 140 140 140
0.6 0.28310245 0.342301561 140 140 140
0.6 0.204705211 -0.0269591334 140 140 140
0.6 -0.14503536 -0.687729037 140 140 140
0.6 0.206466581 0.355597556 140 140 140
0.6 0.0454332547 0.126824947 140 140 140
0.6 -0.0673954728 -0.670434696 140 140 140
0.6 0.236837098 -0.90346881 140 140 140
0.6 0.0817701922 0.577690311 140 140 140
0.6 -0.185046482 -0.764716849 140 140 140
0.6 0.189306244 -0.565865638 140 140 140
0.6 0.0306269975 -0.616365704 140 140 140
0.6 0.163958759 0.642453212 140 140 140
0.6 -0.123554184 -0.445758221 140 140 140
0.6 0.0461445859 0.0556401562 140 140 140
0.6 0.0824525875 0.351534884 140 140 140
0.6 -0.067623051 0.247805564 140 140 140
0.6 -0.0958056856 -0.393597975 140 140 140
0.6 0.0674050434 0.221596878 140 140 140
0.6 0.0394643443 0.97153927 140 140 140
0.6 0.205808829 -0.837352617 140 140 140
0.6 0.265023693 -0.476271968 140 140 140
0.6 -0.0101949519 -0.634575485 140 140 140
0.6 0.238619061 0.921329772 140 140 140
0.6 0.00909622014 0.665435699 140 140 140
0.6 -0.150865394 0.868572077 140 140 140
0.6 0.164133737 0.00187591398 140 140 140
0.6 -0.122443892 0.148821538 140 140 140
0.6 -0.291757285 -0.132217551 140 140 140
0.6 0.0684943642 -0.351707248 140 140 140
0.6 -0.00929122013 0.999002705 140 140 140
0.6 0.198378865 -0.480902188 140 140 140
0.6 -0.180417655 -0.135470071 140 140 140
0.6 -0.183234391 0.559889542 140 140 140
0.6 -0.110397009 0.0161283935 140 140 140
0.6 0.133426904 -0.705055091 140 140 140
0.6 0.138423598 0.136384629 140 140 140
0.6 -0.0312849828 -0.18677431 140 140 140
0.6 -0.161176456 0.30153267 140 140 140
0.6 0.217365312 -0.458703209 140 140 140
0.6 0.0409104851 0.256917596 140 140 140
0.6 -0.198006929 -0.700368908 140 140 140
0.6 -0.254136587 0.0684620472 140 140 140
0.6 0.184300758 -0.954778939 140 140 140
0.6 -0.0160776172 -0.566943399 140 140 140
0.6 -0.166325139 -0.436343787 140 140 140
0.6 -0.0496947802 -0.228270117 140 140 140
0.6 0.098485114 0.32055309 140 140 140
0.6 0.0491415474 0.4718472 140 140 140
0.6 0.0531205512 -0.738853884 140 140 140
0.6 -0.106167784 0.855117619 140 140 140
0.6 0.237284344 -0.0806500934 140 140 140
0.6 -0.00892369459 0.417404523 140 140 140
0.6 0.233919158 -0.468583863 140 140 140
0.6 0.132699472 0.353208926 140 140 140
0.6 0.112449001 0.172528422 140 140 140
0.6 0.101522233 -0.986802952 140 140 140
0.6 -0.0474729569 -0.243261239 140 140 140
0.6 -0.0438254376 0.247234487 140 140 140
0.6 0.12509969 -0.538155809 140 140 140
0.6 0.149339907 0.33745626 140 140 140
0.6 -0.217939629 0.327367479 140 140 140
0.6 -0.201634408 0.378603474 140 140 140
0.6 0.249071169 0.503079375 140 140 140
0.6 0.262815792 -0.949534488 140 140 140
0.6 -0.154858217 0.464160167 140 140 140
0.6 -0.0213747553 -0.554933322 140 140 140
0.6 -0.229736155 -0.505317559 140 140 140
0.6 -0.0293715213 0.753635473 140 140 140
0.6 0.173726788 -0.625193454 140 140 140
0.6 -0.0739763689 -0.0116015882 140 140 140
0.6 0.193479695 -0.653618936 140 140 140
0.6 0.233427776 -0.848961929 140 140 140
0.6 -0.124348216 -0.198510464 140 140 140
0.6 -0.257154842 0.56261053 140 140 140
0.6 -0.222075885 -0.267839383 140 140 140
0.6 -0.1538565 -0.411272485 140 140 140
0.6 0.277356837 -0.082278862 140 140 140
0.6 -0.281680757 -0.867779483 140 140 140
0.6 0.099566783 -0.559534618 140 140 140
0.6 0.177219681 -0.336372163 140 140 140
0.6 0.135245152 -0.0482044134 140 140 140
0.6 -0.24753293 0.474335002 140 140 140
0.6 0.234217247 0.020178015 140 140 140
0.6 -0.164605553 -0.092952222 140 140 140
0.6 0.0901184513 -0.451586086 140 140 140
0.6 -0.0387358948 0.96552789 140 140 140
0.6 0.202317809 -0.970916737 140 140 140
0.6 -0.0609129343 -0.00198138402 140 140 140
0.6 0.257706908 -0.600709973 140 140 140
0.6 0.0584073741 0.716886855 140 140 140
0.6 0.197934769 0.0477931285 140 140 140
0.6 0.1299647 0.824210522 140 140 140
0.6 0.181347694 -0.755264907 140 140 140
0.6 0.0697450502 -0.457586634 140 140 140
0.6 -0.195703094 0.524343326 140 140 140
0.6 -0.220317224 0.0336698735 140 140 140
0.6 0.174009191 -0.0700153996 140 140 140
0.6 0.0396623259 0.956496228 140 140 140
0.6 0.292602522 -0.169122833 140 140 140
0.6 0.169248636 -0.456561995 140 140 140
0.6 0.0876090479 -0.600645484 140 140 140
0.6 0.292220006 0.634780286 140 140 140
0.6 0.208781658 -0.483739596 140 140 140
0.6 0.16356981 0.514724025 140 140 140
0.6 -0.218008795 0.49517235 140 140 140
0.6 -0.104469955 0.468605755 140 140 140
0.6 -0.106523545 -0.690376887 140 140 140
0.6 0.251513994 -0.4203177 140 140 140
0.6 -0.246184067 0.825091815 140 140 140
0.6 -0.181882131 -0.408625506 140 140 140
0.6 -0.0865454015 0.472467632 140 140 140
0.6 -0.175782808 0.22021902 140 140 140
0.6 -0.232951311 -0.677584366 140 140 140
0.6 -0.292854157 0.859815047 140 140 140
0.6 -0.13761687 -0.248715349 140 140 140
0.6 -0.0889084025 -0.137734288 140 140 140
0.6 0.285747021 -0.27028555 140 140 140
0.6 0.0947894365 0.433209841 140 140 140
0.6 -0.173168907 -0.181497098 140 140 140
-0.0731181474 -0.3 0.716870651 140 140 140
0.145090678 -0.3 0.375829043 140 140 140
0.310798803 -0.3 -0.241026967 140 140 140
-0.207782643 -0.3 0.306106437 140 140 140
-0.382334654 -0.3 0.984335773 140 140 140
-0.580976833 -0.3 -0.331375072 140 140 140
-0.113300376 -0.3 -0.123389923 140 140 140
0.459693602 -0.3 -0.15076461 140 140 140
-0.297236295 -0.3 0.288401036 140 140 140
-0.345328716 -0.3 -0.749137343 140 140 140
0.490886355 -0.3 0.640615589 140 140 140
0.474434511 -0.3 -0.9348553 140 140 140
-0.383596696 -0.3 -0.969173648 140 140 140
0.076958472 -0.3 0.533321365 140 140 140
-0.0247491643 -0.3 -0.413183486 140 140 140
-0.0521057956 -0.3 0.619039294 140 140 140
0.488998708 -0.3 -0.0087554551 140 140 140
0.412541219 -0.3 0.331914814 140 140 140
0.320863101 -0.3 0.713143382 140 140 140
-0.599771998 -0.3 -0.397952038 140 140 140
0.154353509 -0.3 -0.58044026 140 140 140
0.151392464 -0.3 -0.625438623 140 140 140
0.463409916 -0.3 0.0991368101 140 140 140
0.247315233 -0.3 0.602886729 140 140 140
0.400627496 -0.3 -0.513702321 140 140 140
-0.570613848 -0.3 -0.177484611 140 140 140
0.473113014 -0.3 0.067504188 140 140 140
-0.147067019 -0.3 0.418739391 140 140 140
0.218739472 -0.3 0.15463717 140 140 140
0.0192521758 -0.3 0.777961316 140 140 140
-0.15989864 -0.3 0.00977912752 140 140 140
-0.497593259 -0.3 -0.417607205 140 140 140
0.0334620536 -0.3 -0.641088946 140 140 140
-0.0297304508 -0.3 0.539640623 140 140 140
0.529172355 -0.3 0.843236038 140 140 140
-0.196129245 -0.3 0.527450917 140 140 140
0.0615347769 -0.3 -0.227591409 140 140 140
-0.250979858 -0.3 0.289244922 140 140 140
0.490845404 -0.3 -0.142119883 140 140 140
0.0808467908 -0.3 -0.0870007457 140 140 140
0.119168469 -0.3 -0.32037769 140 140 140
-0.59973396 -0.3 0.21600133 140 140 140
-0.488411448 -0.3 0.607983642 140 140 140
0.408337872 -0.3 0.628447461 140 140 140
-0.267431696 -0.3 0.0909132473 140 140 140
-0.0718811053 -0.3 -0.973218642 140 140 140
-0.405067869 -0.3 0.36112522 140 140 140
0.247482376 -0.3 0.535234213 140 140 140
-0.504538127 -0.3 0.710702321 140 140 140
-0.171794696 -0.3 0.00700561147 140 140 140
0.151995086 -0.3 0.539580453 140 140 140
-0.451917206 -0.3 -0.195715802 140 140 140
-0.00928603673 -0.3 -0.257994499 140 140 140
-0.544755034 -0.3 0.0453537988 140 140 140
0.290573569 -0.3 0.639373805 140 140 140
0.0775394149 -0.3 0.283813129 140 140 140
-0.392711197 -0.3 0.362123201 140 140 140
0.527770366 -0.3 -0.549673805 140 140 140
0.068565055 -0.3 0.423776595 140 140 140
-0.189243953 -0.3 0.870538123 140 140 140
0.221772052 -0.3 0.821516661 140 140 140
0.393149031 -0.3 -0.786317247 140 140 140
-0.2510054 -0.3 -0.450385008 140 140 140
-0.511552877 -0.3 0.598539913 140 140 140
0.17012137 -0.3 0.119546638 140 140 140
-0.574176058 -0.3 0.713602349 140 140 140
-0.506336118 -0.3 -0.670272565 140 140 140
-0.143990524 -0.3 0.65552584 140 140 140
-0.00450802759 -0.3 0.203589431 140 140 140
0.420033845 -0.3 -0.464966055 140 140 140
-0.540606951 -0.3 -0.867576304 140 140 140
-0.550129815 -0.3 -0.632330225 140 140 140
-0.510890734 -0.3 -0.702532215 140 140 140
-0.486203051 -0.3 0.333933928 140 140 140
0.27090485 -0.3 -0.859220572 140 140 140
0.410252688 -0.3 -0.215064351 140 140 140
-0.437628907 -0.3 0.0444918658 140 140 140
0.0824923075 -0.3 0.226249356 140 140 140
0.453172156 -0.3 -0.241704643 140 140 140
-0.292112757 -0.3 0.121614107 140 140 140
0.354446809 -0.3 -0.918475345 140 140 140
-0.374214596 -0.3 -0.333313172 140 140 140
0.22125199 -0.3 0.32425518 140 140 140
-0.0544858429 -0.3 -0.40748809 140 140 140
0.0131525747 -0.3 -0.512677224 140 140 140
0.39036187 -0.3 0.69091225 140 140 140
-0.281408844 -0.3 -0.776285307 140 140 140
0.323018989 -0.3 -0.527358673 140 140 140
0.444663965 -0.3 0.864958986 140 140 140
0.515300401 -0.3 -0.207789102 140 140 140
0.429922204 -0.3 -0.74765561 140 140 140
0.422350043 -0.3 -0.728869119 140 140 140
0.43983182 -0.3 0.487181517 140 140 140
-0.278188775 -0.3 0.69662563 140 140 140
0.120256558 -0.3 -0.268259827 140 140 140
0.430842982 -0.3 -0.326294209 140 140 140
-0.190855362 -0.3 -0.0914019449 140 140 140
0.538024203 -0.3 0.512960658 140 140 140
-0.257153409 -0.3 -0.964804047 140 140 140
-0.444214822 -0.3 0.740183929 140 140 140
-0.213001948 -0.3 -0.78591096 140 140 140
0.0800139432 -0.3 -0.716795324 140 140 140
0.361166874 -0.3 -0.877492578 140 140 140
0.122189856 -0.3 -0.894366553 140 140 140
0.39666278 -0.3 0.730950152 140 140 140
0.292837762 -0.3 -0.830377408 140 140 140
-0.394371297 -0.3 -0.284503721 140 140 140
0.398378452 -0.3 0.109499401 140 140 140
-0.135057307 -0.3 0.377879583 140 140 140
0.222926801 -0.3 -0.202787743 140 140 140
-0.457096991 -0.3 -0.308955029 140 140 140
0.230115139 -0.3 0.403523471 140 140 140
0.488022877 -0.3 0.20743494 140 140 140
-0.483212769 -0.3 0.920495506 140 140 140
-0.559015707 -0.3 0.66552207 140 140 140
0.224263712 -0.3 0.51301839 140 140 140
0.113028089 -0.3 -0.980265281 140 140 140
0.340577645 -0.3 -0.786693601 140 140 140
0.0562017565 -0.3 0.21171591 140 140 140
-0.579993448 -0.3 0.0796618596 140 140 140
0.131888899 -0.3 0.272755751 140 140 140
0.409465378 -0.3 0.0426615573 140 140 140
0.48734313 -0.3 -0.586555344 140 140 140
0.55979121 -0.3 0.648404882 140 140 140
-0.0569790291 -0.3 0.841845348 140 140 140
0.483268001 -0.3 -0.354055338 140 140 140
0.495155597 -0.3 -0.479610047 140 140 140
0.175623869 -0.3 -0.899327434 140 140 140
-0.277362994 -0.3 0.694493049 140 140 140
-0.597699171 -0.3 -0.330538883 140 140 140
0.139888264 -0.3 -0.87680291 140 140 140
0.0543041454 -0.3 0.404494972 140 140 140
0.381381996 -0.3 0.719789143 140 140 140
-0.387103835 0.3 -0.737434778 140 140 140
-0.230979951 0.3 0.39053383 140 140 140
-0.219779857 0.3 0.302640426 140 140 140
0.342882387 0.3 -0.887301122 140 140 140
-0.315537508 0.3 0.755354516 140 140 140
0.189053843 0.3 -0.93645515 140 140 140
-0.00235581696 0.3 -0.305167147 140 140 140
0.551265655 0.3 -0.823264564 140 140 140
-0.233893007 0.3 -0.46078283 140 140 140
0.246985033 0.3 -0.123611848 140 140 140
0.401639151 0.3 0.246387587 140 140 140
0.0480275669 0.3 -0.305548462 140 140 140
0.075766263 0.3 0.567303294 140 140 140
-0.0229116047 0.3 -0.46007506 140 140 140
-0.549091174 0.3 -0.151539546 140 140 140
0.190251297 0.3 -0.166431724 140 140 140
-0.17756883 0.3 0.965934141 140 140 140
-0.509763254 0.3 -0.569394164 140 140 140
-0.436576504 0.3 -0.696740671 140 140 140
-0.19205992 0.3 0.863138175 140 140 140
-0.214751527 0.3 0.923869683 140 140 140
0.272942425 0.3 -0.0157090505 140 140 140
0.339182327 0.3 0.655143396 140 140 140
0.0534890913 0.3 -0.273607552 140 140 140
-0.370312455 0.3 -0.994235318 140 140 140
0.34065713 0.3 0.233601841 140 140 140
0.113536621 0.3 0.184404584 140 140 140
0.309416476 0.3 0.345521101 140 140 140
0.250406055 0.3 0.853233013 140 140 140
-0.206950261 0.3 -0.793634223 140 140 140
0.59568602 0.3 -0.0764287331 140 140 140
0.0793436955 0.3 -0.519840708 140 140 140
0.569626868 0.3 -0.716598212 140 140 140
0.0876927134 0.3 0.705746321 140 140 140
0.433473939 0.3 -0.304684529 140 140 140
0.0978973847 0.3 -0.722308317 140 140 140
-0.502295312 0.3 -0.379319327 140 140 140
-0.595518324 0.3 -0.254044447 140 140 140
0.459761453 0.3 0.325342127 140 140 140
0.0816940565 0.3 -0.0647758871 140 140 140
-0.158808047 0.3 -0.823754924 140 140 140
-0.537454409 0.3 -0.83336143 140 140 140
-0.419242506 0.3 -0.25340224 140 140 140
-0.314191379 0.3 -0.934175765 140 140 140
0.588064338 0.3 -0.918344797 140 140 140
0.151211748 0.3 -0.222296962 140 140 140
0.2799982 0.3 -0.207289495 140 140 140
-0.149609008 0.3 -0.531047801 140 140 140
-0.391231307 0.3 0.354038055 140 140 140
-0.582275994 0.3 0.616216243 140 140 140
-0.20142565 0.3 -0.889012629 140 140 140
0.060928212 0.3 -0.585483128 140 140 140
-0.0625238418 0.3 -0.749383221 140 140 140
-0.0491559625 0.3 0.411574831 140 140 140
-0.157104427 0.3 0.598005585 140 140 140
-0.284188725 0.3 0.938014445 140 140 140
0.447608818 0.3 -0.045655477 140 140 140
-0.557577494 0.3 0.580315717 140 140 140
0.558156946 0.3 0.625623317 140 140 140
-0.195842254 0.3 0.801120592 140 140 140
-0.298058274 0.3 -0.924302617 140 140 140
-0.462341297 0.3 0.437901633 140 140 140
0.511792719 0.3 0.941026683 140 140 140
-0.0703696327 0.3 0.178900185 140 140 140
0.230338772 0.3 0.184046852 140 140 140
0.487161539 0.3 0.54271687 140 140 140
0.597680948 0.3 0.414488074 140 140 140
0.483791831 0.3 0.745517181 140 140 140
-0.265503412 0.3 0.0161933924 140 140 140
0.563607375 0.3 0.320992202 140 140 140
0.31173497 0.3 0.740687593 140 140 140
0.0062748274 0.3 0.779382315 140 140 140
0.536926766 0.3 0.669298134 140 140 140
0.435383218 0.3 0.299094083 140 140 140
-0.157761525 0.3 -0.684235809 140 140 140
0.595423411 0.3 -0.320886581 140 140 140
0.502649659 0.3 -0.333750912 140 140 140
0.515261407 0.3 -0.360077953 140 140 140
-0.564330365 0.3 -0.783996846 140 140 140
-0.541593304 0.3 0.936710414 140 140 140
-0.522988451 0.3 -0.542679016 140 140 140
0.433479659 0.3 -0.611701498 140 140 140
0.570174325 0.3 -0.736561763 140 140 140
-0.594336771 0.3 -0.131147117 140 140 140
0.0393640757 0.3 -0.692049724 140 140 140
-0.217964744 0.3 0.993007731 140 140 140
-0.0913796264 0.3 -0.429473572 140 140 140
-0.429338548 0.3 -0.969619313 140 140 140
0.225934321 0.3 -0.816798126 140 140 140
-0.401712011 0.3 0.272777926 140 140 140
0.537359773 0.3 -0.143875275 140 140 140
-0.25631697 0.3 -0.62496737 140 140 140
-0.144238936 0.3 0.826768276 140 140 140
0.37539554 0.3 0.728158989 140 140 140
0.349590799 0.3 0.107553184 140 140 140
-0.0681441148 0.3 -0.359436153 140 140 140
0.49570143 0.3 -0.803636216 140 140 140
0.0617290875 0.3 0.62247726 140 140 140
0.0979029148 0.3 0.939856877 140 140 140
-0.244482133 0.3 0.375450894 140 140 140
0.507932098 0.3 -0.224590078 140 140 140
-0.542379092 0.3 -0.97622932 140 140 140
-0.537116507 0.3 0.146260965 140 140 140
0.344931014 0.3 -0.361407017 140 140 140
-0.144984594 0.3 0.292672158 140 140 140
-0.114298802 0.3 0.374262416 140 140 140
0.206695763 0.3 0.0836557756 140 140 140
-0.0390017612 0.3 0.14365403 140 140 140
-0.112562847 0.3 -0.615481306 140 140 140
0.579947502 0.3 -0.994047726 140 140 140
-0.506645814 0.3 -0.563966767 140 140 140
0.196383622 0.3 -0.206314697 140 140 140
-0.208936566 0.3 0.550228847 140 140 140
-0.235423407 0.3 -0.622558383 140 140 140
0.473923331 0.3 -0.408110947 140 140 140
0.58044353 0.3 0.676588981 140 140 140
-0.403579926 0.3 0.91639996 140 140 140
-0.457284125 0.3 0.0163599288 140 140 140
0.182679016 0.3 -0.502506465 140 140 140
0.489384371 0.3 0.962446337 140 140 140
-0.420835233 0.3 0.46326247 140 140 140
0.303673434 0.3 -0.956905011 140 140 140
-0.332807611 0.3 0.784634581 140 140 140
-0.0493983361 0.3 0.812471256 140 140 140
-0.128218768 0.3 0.360828863 140 140 140
0.125831922 0.3 -0.115777005 140 140 140
-0.211216063 0.3 -0.029711378 140 140 140
-0.110807409 0.3 -0.85254788 140 140 140
0.567923148 0.3 -0.328065966 140 140 140
0.408369378 0.3 0.671693372 140 140 140
-0.402280067 0.3 -0.529476877 140 140 140
0.432272947 0.3 -0.343918307 140 140 140
0.520242508 0.3 -0.223838941 140 140 140
0.119828679 0.290899682 -1 140 140 140
-0.362711315 0.0591781017 -1 140 140 140
0.0387928188 -0.0195747013 -1 140 140 140
-0.0551469265 0.0798861387 -1 140 140 140
0.315373178 0.276617586 -1 140 140 140
0.380053668 -0.0158474004 -1 140 140 140
-0.0130090759 -0.231874531 -1 140 140 140
-0.182164828 0.201978275 -1 140 140 140
-0.466771577 -0.27986682 -1 140 140 140
-0.301909024 0.0832309315 -1 140 140 140
-0.0676874995 -0.215165725 -1 140 140 140
0.082354473 0.0182827577 -1 140 140 140
0.432048633 0.128327162 -1 140 140 140
-0.467696819 -0.195981476 -1 140 140 140
-0.306202058 -0.162809359 -1 140 140 140
-0.456709043 -0.172193907 -1 140 140 140
-0.458762357 -0.166335962 -1 140 140 140
0.337276032 -0.0310388574 -1 140 140 140
-0.207686113 0.0562228539 -1 140 140 140
-0.0489252205 -0.15281783 -1 140 140 140
-0.378957203 0.231600535 -1 140 140 140
0.322272475 0.231558887 -1 140 140 140
-0.537852139 0.244988516 -1 140 140 140
-0.547265484 0.165563009 -1 140 140 140
0.542408875 0.290768986 -1 140 140 140
0.489405713 -0.0857741068 -1 140 140 140
0.276206428 0.0353128251 -1 140 140 140
-0.181525222 -0.294818275 -1 140 140 140
-0.0387725067 -0.0828290043 -1 140 140 140
-0.564629474 0.269349079 -1 140 140 140
-0.499051843 0.0636348892 -1 140 140 140
-0.214946099 0.249273276 -1 140 140 140
-0.393596156 0.206180369 -1 140 140 140
0.0717395512 0.160673718 -1 140 140 140
0.468548807 -0.16565875 -1 140 140 140
-0.396112794 -0.1572426 -1 140 140 140
0.122398127 -0.071215267 -1 140 140 140
-0.0620128697 -0.138167176 -1 140 140 140
0.0941525802 0.231407407 -1 140 140 140
-0.490290561 -0.0055825594 -1 140 140 140
0.0376369634 -0.215168733 -1 140 140 140
0.333608872 0.140722104 -1 140 140 140
0.4210645 -0.0418087499 -1 140 140 140
0.474733917 -0.248546345 -1 140 140 140
-0.385912583 -0.0994106706 -1 140 140 140
-0.450100529 -0.0762658469 -1 140 140 140
-0.203294547 0.206987217 -1 140 140 140
0.10779378 -0.0884245142 -1 140 140 140
-0.265886924 0.189696882 -1 140 140 140
-0.185630429 0.23313854 -1 140 140 140
0.0888467567 -0.233759989 -1 140 140 140
0.349806448 -0.072462042 -1 140 140 140
-0.144981267 0.292219843 -1 140 140 140
-0.265494208 0.0283168529 -1 140 140 140
-0.302174177 -0.122860035 -1 140 140 140
-0.164558224 0.263684728 -1 140 140 140
0.107821245 0.268046632 -1 140 140 140
0.22343906 -0.198869971 -1 140 140 140
-0.20622469 -0.0131368432 -1 140 140 140
-0.423748148 0.188621101 -1 140 140 140
-0.594087974 0.157051742 -1 140 140 140
0.537583742 0.258267472 -1 140 140 140
-0.466631228 -0.0482875978 -1 140 140 140
2.65520783e-05 -0.150436147 -1 140 140 140
-0.523167863 0.151445237 -1 140 140 140
0.216987906 -0.133963019 -1 140 140 140
-0.314105017 -0.227637938 -1 140 140 140
-0.326291697 -0.195260959 -1 140 140 140
-0.525039505 0.0351081927 -1 140 140 140
-0.085927497 -0.0508265984 -1 140 140 140
-0.501516039 0.0522266069 -1 140 140 140
0.278065314 -0.0788657003 -1 140 140 140
0.541251555 -0.286577161 -1 140 140 140
-0.578560377 -0.0707984439 -1 140 140 140
-0.503589606 0.169913874 -1 140 140 140
-0.507196385 0.286301738 -1 140 140 140
-0.00950588162 -0.281694242 -1 140 140 140
-0.0101090533 0.213784469 -1 140 140 140
-0.177266932 -0.189419338 -1 140 140 140
-0.205784991 -0.262304287 -1 140 140 140
0.180896825 -0.179069689 -1 140 140 140
-0.591494505 0.247605384 -1 140 140 140
-0.486456191 0.110741173 -1 140 140 140
0.386270235 -0.192754457 -1 140 140 140
0.544803249 -0.175041905 -1 140 140 140
-0.399330395 -0.105008586 -1 140 140 140
0.129247782 0.0174778324 -1 140 140 140
0.369397593 0.146069137 -1 140 140 140
-0.236552525 -0.025497352 -1 140 140 140
-0.377059273 -0.181991747 -1 140 140 140
-0.196552741 0.264660077 -1 140 140 140
0.443788658 -0.24082869 -1 140 140 140
0.400477152 -0.0376047869 -1 140 140 140
-0.272741943 -0.0400710108 -1 140 140 140
0.589957204 0.0297904434 -1 140 140 140
0.421892788 -0.0419522345 -1 140 140 140
-0.411298242 -0.0626468868 -1 140 140 140
-0.00329688409 0.191853657 -1 140 140 140
-0.23700026 -0.139346925 -1 140 140 140
-0.0331988919 -0.141423141 -1 140 140 140
-0.360916634 0.0468934524 -1 140 140 140
-0.201804705 -0.144853348 -1 140 140 140
-0.383528106 -0.147311564 -1 140 140 140
-0.334529137 0.197038691 -1 140 140 140
0.569153422 0.152154087 -1 140 140 140
0.528051304 0.205256773 -1 140 140 140
-0.0796932681 -0.28142743 -1 140 140 140
0.257863338 -0.23368392 -1 140 140 140
-0.573981032 0.294584076 -1 140 140 140
-0.0469617432 0.0272828714 -1 140 140 140
-0.335402916 -0.269658483 -1 140 140 140
0.566771245 -0.224665514 -1 140 140 140
0.264647337 0.150135205 -1 140 140 140
-0.530910108 0.114253874 -1 140 140 140
0.190509896 -0.159568612 -1 140 140 140
-0.453989828 0.130727128 -1 140 140 140
-0.0638472008 -0.294801304 -1 140 140 140
0.218373224 0.115448006 -1 140 140 140
-0.326770533 0.0978789523 -1 140 140 140
0.15321669 0.0433907448 -1 140 140 140
-0.33700075 0.134749622 -1 140 140 140
-0.41117441 0.0796584714 -1 140 140 140
-0.477637082 -0.142627016 -1 140 140 140
0.496597755 -0.294968091 -1 140 140 140
-0.411814791 -0.0198030738 -1 140 140 140
0.248851652 -0.0838957472 -1 140 140 140
0.246014561 0.0251495238 -1 140 140 140
-0.546173657 -0.196115626 -1 140 140 140
-0.0401559638 0.0416676122 -1 140 140 140
0.0514987943 0.0396698046 -1 140 140 140
-0.265424581 0.0108777245 -1 140 140 140
0.299125644 0.271761434 -1 140 140 140
0.338792569 -0.165700265 -1 140 140 140
-0.559754189 0.281451478 1 140 140 140
-0.502102281 -0.107066619 1 140 140 140
-0.527950491 0.250743663 1 140 140 140
-0.506535479 0.0747874843 1 140 140 140
-0.160301155 -0.0920274608 1 140 140 140
-0.226503374 -0.259480959 1 140 140 140
-0.190118303 -0.200314621 1 140 140 140
0.471884566 0.184292643 1 140 140 140
0.496248087 -0.0547151626 1 140 140 140
-0.499636037 0.290273954 1 140 140 140
0.29450977 0.128647787 1 140 140 140
-0.306403135 0.148757791 1 140 140 140
-0.543540671 -0.241482542 1 140 140 140
0.416938736 -0.0446503405 1 140 140 140
0.0418818234 -0.10186862 1 140 140 140
-0.362157547 -0.0892219983 1 140 140 140
0.0889250449 -0.0738970316 1 140 140 140
-0.340655409 -0.0129523638 1 140 140 140
0.458801118 -0.265057071 1 140 140 140
0.43318259 0.252485493 1 140 140 140
-0.116275877 -0.278609292 1 140 140 140
0.17988387 -0.0970668231 1 140 140 140
-0.0352528553 -0.202608814 1 140 140 140
-0.0516047261 0.296884354 1 140 140 140
0.162255096 -0.180350818 1 140 140 140
0.296925366 -0.00170394845 1 140 140 140
0.466959903 0.223277754 1 140 140 140
-0.486404405 -0.0942801759 1 140 140 140
0.2938467 0.0831359456 1 140 140 140
-0.580350596 0.279655351 1 140 140 140
0.0329394229 -0.0410133753 1 140 140 140
0.46799651 -0.0941636997 1 140 140 140
-0.443324879 -0.268536621 1 140 140 140
-0.445356952 -0.218847877 1 140 140 140
-0.342117972 0.168523981 1 140 140 140
-0.562581608 -0.0724323894 1 140 140 140
-0.4386433 -0.296826634 1 140 140 140
-0.0613358456 -0.037219914 1 140 140 140
0.252338072 0.210995461 1 140 140 140
0.511090222 0.130013828 1 140 140 140
0.528525178 -0.0642660874 1 140 140 140
-0.389430351 0.0127427773 1 140 140 140
0.185763171 -0.11648348 1 140 140 140
-0.469328853 0.0384042688 1 140 140 140
-0.245469848 0.216216743 1 140 140 140
-0.493185996 0.137167285 1 140 140 140
-0.50077722 -0.00926579071 1 140 140 140
0.100545193 -0.0393732652 1 140 140 140
0.244607742 0.293677347 1 140 140 140
-0.071259113 0.127227867 1 140 140 140
-0.572390176 -0.278363735 1 140 140 140
0.0552102668 -0.268934004 1 140 140 140
-0.484166792 -0.236313718 1 140 140 140
0.196443066 0.192072318 1 140 140 140
-0.135865005 0.288109137 1 140 140 140
0.204856386 -0.161022628 1 140 140 140
-0.0367920291 -0.281824106 1 140 140 140
-0.24491671 -0.241550249 1 140 140 140
-0.0470960833 0.0864095726 1 140 140 140
-0.543003773 -0.0512490624 1 140 140 140
0.483738701 0.267599212 1 140 140 140
0.0916163195 0.260411312 1 140 140 140
0.571425749 -0.0271264317 1 140 140 140
-0.398602697 0.261506044 1 140 140 140
0.183515022 -0.196162523 1 140 140 140
0.102827352 -0.0588303266 1 140 140 140
0.0609444766 -0.246568028 1 140 140 140
-0.226431083 -0.197057475 1 140 140 140
0.3695683 -0.125817295 1 140 140 140
0.561577677 -0.0348230576 1 140 140 140
0.0605062506 0.124248223 1 140 140 140
-0.560164613 0.263798648 1 140 140 140
0.24506516 0.0591971295 1 140 140 140
0.593689472 0.172270631 1 140 140 140
-0.276364725 -0.185117072 1 140 140 140
0.0691643346 -0.173339353 1 140 140 140
0.313258119 0.0639414792 1 140 140 140
-0.488592115 -0.115094201 1 140 140 140
0.0543193191 -0.0465578898 1 140 140 140
-0.136356065 -0.0552047161 1 140 140 140
-0.207440109 0.155811103 1 140 140 140
-0.586449354 -0.053606229 1 140 140 140
0.114534699 0.203627637 1 140 140 140
-0.452391425 0.00030119333 1 140 140 140
-0.0724957039 -0.0785645375 1 140 140 140
-0.45397435 -0.270066098 1 140 140 140
-0.359357074 -0.0848152529 1 140 140 140
-0.429722514 0.209874188 1 140 140 140
-0.36990799 0.290930518 1 140 140 140
-0.333315318 0.158049196 1 140 140 140
0.038710018 -0.0860611019 1 140 140 140
0.3935373 0.123990828 1 140 140 140
0.0332250933 -0.292359691 1 140 140 140
-0.333200518 -0.115387147 1 140 140 140
-0.364151394 0.105834975 1 140 140 140
0.0866449321 0.162082945 1 140 140 140
0.593535349 0.0544975323 1 140 140 140
-0.244788782 0.080107064 1 140 140 140
-0.110447359 0.270310018 1 140 140 140
0.131548316 -0.126190795 1 140 140 140
-0.308968039 -0.00385277233 1 140 140 140
-0.0358080709 -0.0835578126 1 140 140 140
0.377939447 -0.218658391 1 140 140 140
-0.0665513987 0.299734349 1 140 140 140
0.131635498 -0.0318351249 1 140 140 140
-0.521433354 0.0704913579 1 140 140 140
-0.164209628 -0.0297300099 1 140 140 140
-0.0525698597 0.0947873609 1 140 140 140
-0.549687709 0.0132620569 1 140 140 140
-0.332426871 -0.0370497449 1 140 140 140
0.290908003 -0.179966364 1 140 140 140
0.41713298 0.0472849347 1 140 140 140
-0.0798423513 -0.260673251 1 140 140 140
-0.416213263 0.226984235 1 140 140 140
-0.220603207 -0.251905064 1 140 140 140
-0.127957422 -0.228885447 1 140 140 140
-0.0362519963 -0.218433518 1 140 140 140
0.576858693 0.124114594 1 140 140 140
0.571736343 -0.189209208 1 140 140 140
-0.501609861 0.106730798 1 140 140 140
0.409005748 0.242765272 1 140 140 140
-0.130884011 -0.0858605934 1 140 140 140
0.430971083 0.223635817 1 140 140 140
-0.577612528 -0.0392823602 1 140 140 140
-0.490871564 -0.0822350536 1 140 140 140
-0.262473102 0.167817001 1 140 140 140
-0.0940961435 -0.192393661 1 140 140 140
0.520298556 0.0850579609 1 140 140 140
-0.156491284 0.298103494 1 140 140 140
0.269904949 -0.258962911 1 140 140 140
0.400355639 -0.0940433838 1 140 140 140
-0.508446191 -0.120590899 1 140 140 140
-0.145718163 0.162740891 1 140 140 140
