ply
format ascii 1.0
comment VisionMCP reconstruction mesh
element vertex 32
property float x
property float y
property float z
element face 48
property list uchar int vertex_indices
end_header
-0.077 -0.054 0
0.077 -0.054 0
0.077 0.054 0
-0.077 0.054 0
-0.077 -0.054 0.125
0.077 -0.054 0.125
0.077 0.054 0.125
-0.077 0.054 0.125
-0.0275 0.036 0.03125
0.0275 0.036 0.03125
0.0275 0.099 0.03125
-0.0275 0.099 0.03125
-0.0275 0.036 0.06875
0.0275 0.036 0.06875
0.0275 0.099 0.06875
-0.0275 0.099 0.06875
-0.055 -0.018 0.10625
-0.0275 -0.018 0.10625
-0.0275 0.009 0.10625
-0.055 0.009 0.10625
-0.055 -0.018 0.14375
-0.0275 -0.018 0.14375
-0.0275 0.009 0.14375
-0.055 0.009 0.14375
0.0275 -0.018 0.10625
0.055 -0.018 0.10625
0.055 0.009 0.10625
0.0275 0.009 0.10625
0.0275 -0.018 0.14375
0.055 -0.018 0.14375
0.055 0.009 0.14375
0.0275 0.009 0.14375
3 0 1 2
3 0 2 3
3 4 6 5
3 4 7 6
3 0 4 5
3 0 5 1
3 1 5 6
3 1 6 2
3 2 6 7
3 2 7 3
3 3 7 4
3 3 4 0
3 8 9 10
3 8 10 11
3 12 14 13
3 12 15 14
3 8 12 13
3 8 13 9
3 9 13 14
3 9 14 10
3 10 14 15
3 10 15 11
3 11 15 12
3 11 12 8
3 16 17 18
3 16 18 19
3 20 22 21
3 20 23 22
3 16 20 21
3 16 21 17
3 17 21 22
3 17 22 18
3 18 22 23
3 18 23 19
3 19 23 20
3 19 20 16
3 24 25 26
3 24 26 27
3 28 30 29
3 28 31 30
3 24 28 29
3 24 29 25
3 25 29 30
3 25 30 26
3 26 30 31
3 26 31 27
3 27 31 28
3 27 28 24
